ISO-10303-21;
HEADER;
/* Generated by software containing ST-Developer
 * from STEP Tools, Inc. (www.steptools.com) 
 */
/* OPTION: using custom renumber hook */

FILE_DESCRIPTION(
/* description */ ('STEP AP242 Edition 2',
'CAx-IF Rec.Pracs.---Representation and Presentation of Product Manufa
cturing Information (PMI)---4.0---2014-10-13',
'CAx-IF Rec.Pracs.---3D Tessellated Geometry---0.4---2014-09-14','2;1',
'CAx-IF Rec.Pracs.---User Defined Attributes---1.5---2016-08-15'),
/* implementation_level */ '2;1');

FILE_NAME(
/* name */ 'bank safe - Part 1',
/* time_stamp */ '2026-09-07T14:06:27Z',
/* author */ (''),
/* organization */ (''),
/* preprocessor_version */ 'ST-DEVELOPER v20',
/* originating_system */ 'ONSHAPE BY PTC INC, 1.220',
/* authorisation */ '  ');

FILE_SCHEMA (('AP242_MANAGED_MODEL_BASED_3D_ENGINEERING_MIM_LF { 1 0 10303 442 3 1 4 }'));
ENDSEC;

DATA;
#10=SHAPE_REPRESENTATION_RELATIONSHIP('','',#457,#11);
#11=ADVANCED_BREP_SHAPE_REPRESENTATION('',(#455),#787);
#12=SPHERICAL_SURFACE('',#473,0.0004);
#13=SPHERICAL_SURFACE('',#476,0.0004);
#14=SPHERICAL_SURFACE('',#493,0.0004);
#15=SPHERICAL_SURFACE('',#495,0.0004);
#16=SPHERICAL_SURFACE('',#497,0.0004);
#17=SPHERICAL_SURFACE('',#499,0.0004);
#18=SPHERICAL_SURFACE('',#509,0.0004);
#19=SPHERICAL_SURFACE('',#511,0.0004);
#20=CIRCLE('',#471,0.0004);
#21=CIRCLE('',#472,0.0004);
#22=CIRCLE('',#474,0.0004);
#23=CIRCLE('',#475,0.0004);
#24=CIRCLE('',#477,0.0004);
#25=CIRCLE('',#478,0.0004);
#26=CIRCLE('',#480,0.0004);
#27=CIRCLE('',#482,0.0004);
#28=CIRCLE('',#484,0.0004);
#29=CIRCLE('',#485,0.0004);
#30=CIRCLE('',#487,0.0004);
#31=CIRCLE('',#489,0.0004);
#32=CIRCLE('',#491,0.0004);
#33=CIRCLE('',#492,0.0004);
#34=CIRCLE('',#494,0.0004);
#35=CIRCLE('',#496,0.0004);
#36=CIRCLE('',#498,0.0004);
#37=CIRCLE('',#500,0.0004);
#38=CIRCLE('',#502,0.0004);
#39=CIRCLE('',#504,0.0004);
#40=CIRCLE('',#506,0.0004);
#41=CIRCLE('',#508,0.0004);
#42=CIRCLE('',#510,0.0004);
#43=CIRCLE('',#512,0.0004);
#44=CYLINDRICAL_SURFACE('',#470,0.0004);
#45=CYLINDRICAL_SURFACE('',#479,0.0004);
#46=CYLINDRICAL_SURFACE('',#481,0.0004);
#47=CYLINDRICAL_SURFACE('',#483,0.0004);
#48=CYLINDRICAL_SURFACE('',#486,0.0004);
#49=CYLINDRICAL_SURFACE('',#488,0.0004);
#50=CYLINDRICAL_SURFACE('',#490,0.0004);
#51=CYLINDRICAL_SURFACE('',#501,0.0004);
#52=CYLINDRICAL_SURFACE('',#503,0.0004);
#53=CYLINDRICAL_SURFACE('',#505,0.0004);
#54=CYLINDRICAL_SURFACE('',#507,0.0004);
#55=CYLINDRICAL_SURFACE('',#513,0.0004);
#56=ORIENTED_EDGE('',*,*,#176,.T.);
#57=ORIENTED_EDGE('',*,*,#177,.T.);
#58=ORIENTED_EDGE('',*,*,#178,.T.);
#59=ORIENTED_EDGE('',*,*,#179,.T.);
#60=ORIENTED_EDGE('',*,*,#180,.F.);
#61=ORIENTED_EDGE('',*,*,#181,.T.);
#62=ORIENTED_EDGE('',*,*,#182,.T.);
#63=ORIENTED_EDGE('',*,*,#183,.F.);
#64=ORIENTED_EDGE('',*,*,#184,.T.);
#65=ORIENTED_EDGE('',*,*,#185,.T.);
#66=ORIENTED_EDGE('',*,*,#186,.T.);
#67=ORIENTED_EDGE('',*,*,#187,.T.);
#68=ORIENTED_EDGE('',*,*,#188,.T.);
#69=ORIENTED_EDGE('',*,*,#189,.T.);
#70=ORIENTED_EDGE('',*,*,#190,.T.);
#71=ORIENTED_EDGE('',*,*,#191,.T.);
#72=ORIENTED_EDGE('',*,*,#192,.T.);
#73=ORIENTED_EDGE('',*,*,#193,.T.);
#74=ORIENTED_EDGE('',*,*,#194,.T.);
#75=ORIENTED_EDGE('',*,*,#195,.T.);
#76=ORIENTED_EDGE('',*,*,#196,.T.);
#77=ORIENTED_EDGE('',*,*,#197,.T.);
#78=ORIENTED_EDGE('',*,*,#198,.T.);
#79=ORIENTED_EDGE('',*,*,#199,.T.);
#80=ORIENTED_EDGE('',*,*,#200,.T.);
#81=ORIENTED_EDGE('',*,*,#201,.T.);
#82=ORIENTED_EDGE('',*,*,#202,.T.);
#83=ORIENTED_EDGE('',*,*,#203,.T.);
#84=ORIENTED_EDGE('',*,*,#181,.F.);
#85=ORIENTED_EDGE('',*,*,#204,.F.);
#86=ORIENTED_EDGE('',*,*,#205,.T.);
#87=ORIENTED_EDGE('',*,*,#206,.T.);
#88=ORIENTED_EDGE('',*,*,#180,.T.);
#89=ORIENTED_EDGE('',*,*,#207,.F.);
#90=ORIENTED_EDGE('',*,*,#208,.F.);
#91=ORIENTED_EDGE('',*,*,#204,.T.);
#92=ORIENTED_EDGE('',*,*,#183,.T.);
#93=ORIENTED_EDGE('',*,*,#209,.F.);
#94=ORIENTED_EDGE('',*,*,#210,.F.);
#95=ORIENTED_EDGE('',*,*,#207,.T.);
#96=ORIENTED_EDGE('',*,*,#182,.F.);
#97=ORIENTED_EDGE('',*,*,#206,.F.);
#98=ORIENTED_EDGE('',*,*,#211,.T.);
#99=ORIENTED_EDGE('',*,*,#209,.T.);
#100=ORIENTED_EDGE('',*,*,#205,.F.);
#101=ORIENTED_EDGE('',*,*,#208,.T.);
#102=ORIENTED_EDGE('',*,*,#210,.T.);
#103=ORIENTED_EDGE('',*,*,#211,.F.);
#104=ORIENTED_EDGE('',*,*,#212,.F.);
#105=ORIENTED_EDGE('',*,*,#176,.F.);
#106=ORIENTED_EDGE('',*,*,#213,.F.);
#107=ORIENTED_EDGE('',*,*,#186,.F.);
#108=ORIENTED_EDGE('',*,*,#214,.F.);
#109=ORIENTED_EDGE('',*,*,#212,.T.);
#110=ORIENTED_EDGE('',*,*,#215,.F.);
#111=ORIENTED_EDGE('',*,*,#216,.F.);
#112=ORIENTED_EDGE('',*,*,#213,.T.);
#113=ORIENTED_EDGE('',*,*,#217,.F.);
#114=ORIENTED_EDGE('',*,*,#215,.T.);
#115=ORIENTED_EDGE('',*,*,#185,.F.);
#116=ORIENTED_EDGE('',*,*,#218,.F.);
#117=ORIENTED_EDGE('',*,*,#191,.F.);
#118=ORIENTED_EDGE('',*,*,#214,.T.);
#119=ORIENTED_EDGE('',*,*,#190,.F.);
#120=ORIENTED_EDGE('',*,*,#219,.F.);
#121=ORIENTED_EDGE('',*,*,#177,.F.);
#122=ORIENTED_EDGE('',*,*,#220,.F.);
#123=ORIENTED_EDGE('',*,*,#178,.F.);
#124=ORIENTED_EDGE('',*,*,#221,.F.);
#125=ORIENTED_EDGE('',*,*,#192,.F.);
#126=ORIENTED_EDGE('',*,*,#217,.T.);
#127=ORIENTED_EDGE('',*,*,#179,.F.);
#128=ORIENTED_EDGE('',*,*,#222,.F.);
#129=ORIENTED_EDGE('',*,*,#196,.F.);
#130=ORIENTED_EDGE('',*,*,#216,.T.);
#131=ORIENTED_EDGE('',*,*,#199,.F.);
#132=ORIENTED_EDGE('',*,*,#223,.F.);
#133=ORIENTED_EDGE('',*,*,#187,.F.);
#134=ORIENTED_EDGE('',*,*,#224,.F.);
#135=ORIENTED_EDGE('',*,*,#184,.F.);
#136=ORIENTED_EDGE('',*,*,#225,.F.);
#137=ORIENTED_EDGE('',*,*,#202,.F.);
#138=ORIENTED_EDGE('',*,*,#218,.T.);
#139=ORIENTED_EDGE('',*,*,#224,.T.);
#140=ORIENTED_EDGE('',*,*,#226,.F.);
#141=ORIENTED_EDGE('',*,*,#221,.T.);
#142=ORIENTED_EDGE('',*,*,#219,.T.);
#143=ORIENTED_EDGE('',*,*,#227,.F.);
#144=ORIENTED_EDGE('',*,*,#222,.T.);
#145=ORIENTED_EDGE('',*,*,#220,.T.);
#146=ORIENTED_EDGE('',*,*,#228,.F.);
#147=ORIENTED_EDGE('',*,*,#225,.T.);
#148=ORIENTED_EDGE('',*,*,#223,.T.);
#149=ORIENTED_EDGE('',*,*,#229,.F.);
#150=ORIENTED_EDGE('',*,*,#226,.T.);
#151=ORIENTED_EDGE('',*,*,#201,.F.);
#152=ORIENTED_EDGE('',*,*,#230,.F.);
#153=ORIENTED_EDGE('',*,*,#188,.F.);
#154=ORIENTED_EDGE('',*,*,#227,.T.);
#155=ORIENTED_EDGE('',*,*,#189,.F.);
#156=ORIENTED_EDGE('',*,*,#231,.F.);
#157=ORIENTED_EDGE('',*,*,#193,.F.);
#158=ORIENTED_EDGE('',*,*,#228,.T.);
#159=ORIENTED_EDGE('',*,*,#195,.F.);
#160=ORIENTED_EDGE('',*,*,#232,.F.);
#161=ORIENTED_EDGE('',*,*,#197,.F.);
#162=ORIENTED_EDGE('',*,*,#229,.T.);
#163=ORIENTED_EDGE('',*,*,#198,.F.);
#164=ORIENTED_EDGE('',*,*,#233,.F.);
#165=ORIENTED_EDGE('',*,*,#203,.F.);
#166=ORIENTED_EDGE('',*,*,#231,.T.);
#167=ORIENTED_EDGE('',*,*,#230,.T.);
#168=ORIENTED_EDGE('',*,*,#234,.F.);
#169=ORIENTED_EDGE('',*,*,#233,.T.);
#170=ORIENTED_EDGE('',*,*,#232,.T.);
#171=ORIENTED_EDGE('',*,*,#235,.F.);
#172=ORIENTED_EDGE('',*,*,#234,.T.);
#173=ORIENTED_EDGE('',*,*,#200,.F.);
#174=ORIENTED_EDGE('',*,*,#235,.T.);
#175=ORIENTED_EDGE('',*,*,#194,.F.);
#176=EDGE_CURVE('',#236,#237,#268,.F.);
#177=EDGE_CURVE('',#237,#238,#269,.T.);
#178=EDGE_CURVE('',#238,#239,#270,.T.);
#179=EDGE_CURVE('',#239,#236,#271,.F.);
#180=EDGE_CURVE('',#240,#241,#272,.T.);
#181=EDGE_CURVE('',#240,#242,#273,.T.);
#182=EDGE_CURVE('',#242,#243,#274,.T.);
#183=EDGE_CURVE('',#241,#243,#275,.T.);
#184=EDGE_CURVE('',#244,#245,#276,.F.);
#185=EDGE_CURVE('',#245,#246,#277,.T.);
#186=EDGE_CURVE('',#246,#247,#278,.T.);
#187=EDGE_CURVE('',#247,#244,#279,.F.);
#188=EDGE_CURVE('',#248,#249,#280,.T.);
#189=EDGE_CURVE('',#249,#250,#281,.T.);
#190=EDGE_CURVE('',#250,#251,#282,.F.);
#191=EDGE_CURVE('',#251,#248,#283,.F.);
#192=EDGE_CURVE('',#252,#253,#284,.F.);
#193=EDGE_CURVE('',#253,#254,#285,.F.);
#194=EDGE_CURVE('',#254,#255,#286,.T.);
#195=EDGE_CURVE('',#255,#252,#287,.T.);
#196=EDGE_CURVE('',#256,#257,#288,.T.);
#197=EDGE_CURVE('',#257,#258,#289,.F.);
#198=EDGE_CURVE('',#258,#259,#290,.F.);
#199=EDGE_CURVE('',#259,#256,#291,.T.);
#200=EDGE_CURVE('',#260,#261,#292,.F.);
#201=EDGE_CURVE('',#261,#262,#293,.F.);
#202=EDGE_CURVE('',#262,#263,#294,.T.);
#203=EDGE_CURVE('',#263,#260,#295,.T.);
#204=EDGE_CURVE('',#264,#240,#296,.T.);
#205=EDGE_CURVE('',#264,#265,#297,.T.);
#206=EDGE_CURVE('',#265,#242,#298,.T.);
#207=EDGE_CURVE('',#266,#241,#299,.T.);
#208=EDGE_CURVE('',#264,#266,#300,.T.);
#209=EDGE_CURVE('',#267,#243,#301,.T.);
#210=EDGE_CURVE('',#266,#267,#302,.T.);
#211=EDGE_CURVE('',#265,#267,#303,.T.);
#212=EDGE_CURVE('',#237,#246,#20,.T.);
#213=EDGE_CURVE('',#247,#236,#21,.T.);
#214=EDGE_CURVE('',#237,#251,#22,.F.);
#215=EDGE_CURVE('',#251,#246,#23,.F.);
#216=EDGE_CURVE('',#247,#256,#24,.F.);
#217=EDGE_CURVE('',#256,#236,#25,.F.);
#218=EDGE_CURVE('',#248,#245,#26,.T.);
#219=EDGE_CURVE('',#238,#250,#27,.T.);
#220=EDGE_CURVE('',#239,#252,#28,.T.);
#221=EDGE_CURVE('',#253,#238,#29,.T.);
#222=EDGE_CURVE('',#257,#239,#30,.T.);
#223=EDGE_CURVE('',#244,#259,#31,.T.);
#224=EDGE_CURVE('',#245,#262,#32,.T.);
#225=EDGE_CURVE('',#263,#244,#33,.T.);
#226=EDGE_CURVE('',#248,#262,#34,.F.);
#227=EDGE_CURVE('',#253,#250,#35,.F.);
#228=EDGE_CURVE('',#257,#252,#36,.F.);
#229=EDGE_CURVE('',#263,#259,#37,.F.);
#230=EDGE_CURVE('',#249,#261,#38,.T.);
#231=EDGE_CURVE('',#254,#249,#39,.T.);
#232=EDGE_CURVE('',#258,#255,#40,.T.);
#233=EDGE_CURVE('',#260,#258,#41,.T.);
#234=EDGE_CURVE('',#254,#261,#42,.F.);
#235=EDGE_CURVE('',#260,#255,#43,.F.);
#236=VERTEX_POINT('',#665);
#237=VERTEX_POINT('',#666);
#238=VERTEX_POINT('',#668);
#239=VERTEX_POINT('',#670);
#240=VERTEX_POINT('',#673);
#241=VERTEX_POINT('',#674);
#242=VERTEX_POINT('',#676);
#243=VERTEX_POINT('',#678);
#244=VERTEX_POINT('',#682);
#245=VERTEX_POINT('',#683);
#246=VERTEX_POINT('',#685);
#247=VERTEX_POINT('',#687);
#248=VERTEX_POINT('',#691);
#249=VERTEX_POINT('',#692);
#250=VERTEX_POINT('',#694);
#251=VERTEX_POINT('',#696);
#252=VERTEX_POINT('',#700);
#253=VERTEX_POINT('',#701);
#254=VERTEX_POINT('',#703);
#255=VERTEX_POINT('',#705);
#256=VERTEX_POINT('',#709);
#257=VERTEX_POINT('',#710);
#258=VERTEX_POINT('',#712);
#259=VERTEX_POINT('',#714);
#260=VERTEX_POINT('',#718);
#261=VERTEX_POINT('',#719);
#262=VERTEX_POINT('',#721);
#263=VERTEX_POINT('',#723);
#264=VERTEX_POINT('',#727);
#265=VERTEX_POINT('',#729);
#266=VERTEX_POINT('',#733);
#267=VERTEX_POINT('',#737);
#268=LINE('',#664,#304);
#269=LINE('',#667,#305);
#270=LINE('',#669,#306);
#271=LINE('',#671,#307);
#272=LINE('',#672,#308);
#273=LINE('',#675,#309);
#274=LINE('',#677,#310);
#275=LINE('',#679,#311);
#276=LINE('',#681,#312);
#277=LINE('',#684,#313);
#278=LINE('',#686,#314);
#279=LINE('',#688,#315);
#280=LINE('',#690,#316);
#281=LINE('',#693,#317);
#282=LINE('',#695,#318);
#283=LINE('',#697,#319);
#284=LINE('',#699,#320);
#285=LINE('',#702,#321);
#286=LINE('',#704,#322);
#287=LINE('',#706,#323);
#288=LINE('',#708,#324);
#289=LINE('',#711,#325);
#290=LINE('',#713,#326);
#291=LINE('',#715,#327);
#292=LINE('',#717,#328);
#293=LINE('',#720,#329);
#294=LINE('',#722,#330);
#295=LINE('',#724,#331);
#296=LINE('',#726,#332);
#297=LINE('',#728,#333);
#298=LINE('',#730,#334);
#299=LINE('',#732,#335);
#300=LINE('',#734,#336);
#301=LINE('',#736,#337);
#302=LINE('',#738,#338);
#303=LINE('',#740,#339);
#304=VECTOR('',#518,1.);
#305=VECTOR('',#519,1.);
#306=VECTOR('',#520,1.);
#307=VECTOR('',#521,1.);
#308=VECTOR('',#522,1.);
#309=VECTOR('',#523,1.);
#310=VECTOR('',#524,1.);
#311=VECTOR('',#525,1.);
#312=VECTOR('',#528,1.);
#313=VECTOR('',#529,1.);
#314=VECTOR('',#530,1.);
#315=VECTOR('',#531,1.);
#316=VECTOR('',#534,1.);
#317=VECTOR('',#535,1.);
#318=VECTOR('',#536,1.);
#319=VECTOR('',#537,1.);
#320=VECTOR('',#540,1.);
#321=VECTOR('',#541,1.);
#322=VECTOR('',#542,1.);
#323=VECTOR('',#543,1.);
#324=VECTOR('',#546,1.);
#325=VECTOR('',#547,1.);
#326=VECTOR('',#548,1.);
#327=VECTOR('',#549,1.);
#328=VECTOR('',#552,1.);
#329=VECTOR('',#553,1.);
#330=VECTOR('',#554,1.);
#331=VECTOR('',#555,1.);
#332=VECTOR('',#558,1.);
#333=VECTOR('',#559,1.);
#334=VECTOR('',#560,1.);
#335=VECTOR('',#563,1.);
#336=VECTOR('',#564,1.);
#337=VECTOR('',#567,1.);
#338=VECTOR('',#568,1.);
#339=VECTOR('',#571,1.);
#340=EDGE_LOOP('',(#56,#57,#58,#59));
#341=EDGE_LOOP('',(#60,#61,#62,#63));
#342=EDGE_LOOP('',(#64,#65,#66,#67));
#343=EDGE_LOOP('',(#68,#69,#70,#71));
#344=EDGE_LOOP('',(#72,#73,#74,#75));
#345=EDGE_LOOP('',(#76,#77,#78,#79));
#346=EDGE_LOOP('',(#80,#81,#82,#83));
#347=EDGE_LOOP('',(#84,#85,#86,#87));
#348=EDGE_LOOP('',(#88,#89,#90,#91));
#349=EDGE_LOOP('',(#92,#93,#94,#95));
#350=EDGE_LOOP('',(#96,#97,#98,#99));
#351=EDGE_LOOP('',(#100,#101,#102,#103));
#352=EDGE_LOOP('',(#104,#105,#106,#107));
#353=EDGE_LOOP('',(#108,#109,#110));
#354=EDGE_LOOP('',(#111,#112,#113));
#355=EDGE_LOOP('',(#114,#115,#116,#117));
#356=EDGE_LOOP('',(#118,#119,#120,#121));
#357=EDGE_LOOP('',(#122,#123,#124,#125));
#358=EDGE_LOOP('',(#126,#127,#128,#129));
#359=EDGE_LOOP('',(#130,#131,#132,#133));
#360=EDGE_LOOP('',(#134,#135,#136,#137));
#361=EDGE_LOOP('',(#138,#139,#140));
#362=EDGE_LOOP('',(#141,#142,#143));
#363=EDGE_LOOP('',(#144,#145,#146));
#364=EDGE_LOOP('',(#147,#148,#149));
#365=EDGE_LOOP('',(#150,#151,#152,#153));
#366=EDGE_LOOP('',(#154,#155,#156,#157));
#367=EDGE_LOOP('',(#158,#159,#160,#161));
#368=EDGE_LOOP('',(#162,#163,#164,#165));
#369=EDGE_LOOP('',(#166,#167,#168));
#370=EDGE_LOOP('',(#169,#170,#171));
#371=EDGE_LOOP('',(#172,#173,#174,#175));
#372=FACE_BOUND('',#340,.T.);
#373=FACE_BOUND('',#341,.T.);
#374=FACE_BOUND('',#342,.T.);
#375=FACE_BOUND('',#343,.T.);
#376=FACE_BOUND('',#344,.T.);
#377=FACE_BOUND('',#345,.T.);
#378=FACE_BOUND('',#346,.T.);
#379=FACE_BOUND('',#347,.T.);
#380=FACE_BOUND('',#348,.T.);
#381=FACE_BOUND('',#349,.T.);
#382=FACE_BOUND('',#350,.T.);
#383=FACE_BOUND('',#351,.T.);
#384=FACE_BOUND('',#352,.T.);
#385=FACE_BOUND('',#353,.T.);
#386=FACE_BOUND('',#354,.T.);
#387=FACE_BOUND('',#355,.T.);
#388=FACE_BOUND('',#356,.T.);
#389=FACE_BOUND('',#357,.T.);
#390=FACE_BOUND('',#358,.T.);
#391=FACE_BOUND('',#359,.T.);
#392=FACE_BOUND('',#360,.T.);
#393=FACE_BOUND('',#361,.T.);
#394=FACE_BOUND('',#362,.T.);
#395=FACE_BOUND('',#363,.T.);
#396=FACE_BOUND('',#364,.T.);
#397=FACE_BOUND('',#365,.T.);
#398=FACE_BOUND('',#366,.T.);
#399=FACE_BOUND('',#367,.T.);
#400=FACE_BOUND('',#368,.T.);
#401=FACE_BOUND('',#369,.T.);
#402=FACE_BOUND('',#370,.T.);
#403=FACE_BOUND('',#371,.T.);
#404=PLANE('',#459);
#405=PLANE('',#460);
#406=PLANE('',#461);
#407=PLANE('',#462);
#408=PLANE('',#463);
#409=PLANE('',#464);
#410=PLANE('',#465);
#411=PLANE('',#466);
#412=PLANE('',#467);
#413=PLANE('',#468);
#414=PLANE('',#469);
#415=ADVANCED_FACE('',(#372,#373),#404,.T.);
#416=ADVANCED_FACE('',(#374),#405,.F.);
#417=ADVANCED_FACE('',(#375),#406,.T.);
#418=ADVANCED_FACE('',(#376),#407,.T.);
#419=ADVANCED_FACE('',(#377),#408,.F.);
#420=ADVANCED_FACE('',(#378),#409,.F.);
#421=ADVANCED_FACE('',(#379),#410,.T.);
#422=ADVANCED_FACE('',(#380),#411,.F.);
#423=ADVANCED_FACE('',(#381),#412,.F.);
#424=ADVANCED_FACE('',(#382),#413,.T.);
#425=ADVANCED_FACE('',(#383),#414,.T.);
#426=ADVANCED_FACE('',(#384),#44,.T.);
#427=ADVANCED_FACE('',(#385),#12,.T.);
#428=ADVANCED_FACE('',(#386),#13,.T.);
#429=ADVANCED_FACE('',(#387),#45,.T.);
#430=ADVANCED_FACE('',(#388),#46,.T.);
#431=ADVANCED_FACE('',(#389),#47,.T.);
#432=ADVANCED_FACE('',(#390),#48,.T.);
#433=ADVANCED_FACE('',(#391),#49,.T.);
#434=ADVANCED_FACE('',(#392),#50,.T.);
#435=ADVANCED_FACE('',(#393),#14,.T.);
#436=ADVANCED_FACE('',(#394),#15,.T.);
#437=ADVANCED_FACE('',(#395),#16,.T.);
#438=ADVANCED_FACE('',(#396),#17,.T.);
#439=ADVANCED_FACE('',(#397),#51,.T.);
#440=ADVANCED_FACE('',(#398),#52,.T.);
#441=ADVANCED_FACE('',(#399),#53,.T.);
#442=ADVANCED_FACE('',(#400),#54,.T.);
#443=ADVANCED_FACE('',(#401),#18,.T.);
#444=ADVANCED_FACE('',(#402),#19,.T.);
#445=ADVANCED_FACE('',(#403),#55,.T.);
#446=CLOSED_SHELL('',(#415,#416,#417,#418,#419,#420,#421,#422,#423,#424,
#425,#426,#427,#428,#429,#430,#431,#432,#433,#434,#435,#436,#437,#438,#439,
#440,#441,#442,#443,#444,#445));
#447=STYLED_ITEM('',(#448),#455);
#448=PRESENTATION_STYLE_ASSIGNMENT((#449));
#449=SURFACE_STYLE_USAGE(.BOTH.,#450);
#450=SURFACE_SIDE_STYLE('',(#451));
#451=SURFACE_STYLE_FILL_AREA(#452);
#452=FILL_AREA_STYLE('',(#453));
#453=FILL_AREA_STYLE_COLOUR('',#454);
#454=COLOUR_RGB('',0.498039215686275,0.498039215686275,0.498039215686275);
#455=MANIFOLD_SOLID_BREP('Part 1',#446);
#456=SHAPE_DEFINITION_REPRESENTATION(#792,#457);
#457=SHAPE_REPRESENTATION('Part 1',(#458),#787);
#458=AXIS2_PLACEMENT_3D('',#662,#514,#515);
#459=AXIS2_PLACEMENT_3D('',#663,#516,#517);
#460=AXIS2_PLACEMENT_3D('',#680,#526,#527);
#461=AXIS2_PLACEMENT_3D('',#689,#532,#533);
#462=AXIS2_PLACEMENT_3D('',#698,#538,#539);
#463=AXIS2_PLACEMENT_3D('',#707,#544,#545);
#464=AXIS2_PLACEMENT_3D('',#716,#550,#551);
#465=AXIS2_PLACEMENT_3D('',#725,#556,#557);
#466=AXIS2_PLACEMENT_3D('',#731,#561,#562);
#467=AXIS2_PLACEMENT_3D('',#735,#565,#566);
#468=AXIS2_PLACEMENT_3D('',#739,#569,#570);
#469=AXIS2_PLACEMENT_3D('',#741,#572,#573);
#470=AXIS2_PLACEMENT_3D('',#742,#574,#575);
#471=AXIS2_PLACEMENT_3D('',#743,#576,#577);
#472=AXIS2_PLACEMENT_3D('',#744,#578,#579);
#473=AXIS2_PLACEMENT_3D('',#745,#580,#581);
#474=AXIS2_PLACEMENT_3D('',#746,#582,#583);
#475=AXIS2_PLACEMENT_3D('',#747,#584,#585);
#476=AXIS2_PLACEMENT_3D('',#748,#586,#587);
#477=AXIS2_PLACEMENT_3D('',#749,#588,#589);
#478=AXIS2_PLACEMENT_3D('',#750,#590,#591);
#479=AXIS2_PLACEMENT_3D('',#751,#592,#593);
#480=AXIS2_PLACEMENT_3D('',#752,#594,#595);
#481=AXIS2_PLACEMENT_3D('',#753,#596,#597);
#482=AXIS2_PLACEMENT_3D('',#754,#598,#599);
#483=AXIS2_PLACEMENT_3D('',#755,#600,#601);
#484=AXIS2_PLACEMENT_3D('',#756,#602,#603);
#485=AXIS2_PLACEMENT_3D('',#757,#604,#605);
#486=AXIS2_PLACEMENT_3D('',#758,#606,#607);
#487=AXIS2_PLACEMENT_3D('',#759,#608,#609);
#488=AXIS2_PLACEMENT_3D('',#760,#610,#611);
#489=AXIS2_PLACEMENT_3D('',#761,#612,#613);
#490=AXIS2_PLACEMENT_3D('',#762,#614,#615);
#491=AXIS2_PLACEMENT_3D('',#763,#616,#617);
#492=AXIS2_PLACEMENT_3D('',#764,#618,#619);
#493=AXIS2_PLACEMENT_3D('',#765,#620,#621);
#494=AXIS2_PLACEMENT_3D('',#766,#622,#623);
#495=AXIS2_PLACEMENT_3D('',#767,#624,#625);
#496=AXIS2_PLACEMENT_3D('',#768,#626,#627);
#497=AXIS2_PLACEMENT_3D('',#769,#628,#629);
#498=AXIS2_PLACEMENT_3D('',#770,#630,#631);
#499=AXIS2_PLACEMENT_3D('',#771,#632,#633);
#500=AXIS2_PLACEMENT_3D('',#772,#634,#635);
#501=AXIS2_PLACEMENT_3D('',#773,#636,#637);
#502=AXIS2_PLACEMENT_3D('',#774,#638,#639);
#503=AXIS2_PLACEMENT_3D('',#775,#640,#641);
#504=AXIS2_PLACEMENT_3D('',#776,#642,#643);
#505=AXIS2_PLACEMENT_3D('',#777,#644,#645);
#506=AXIS2_PLACEMENT_3D('',#778,#646,#647);
#507=AXIS2_PLACEMENT_3D('',#779,#648,#649);
#508=AXIS2_PLACEMENT_3D('',#780,#650,#651);
#509=AXIS2_PLACEMENT_3D('',#781,#652,#653);
#510=AXIS2_PLACEMENT_3D('',#782,#654,#655);
#511=AXIS2_PLACEMENT_3D('',#783,#656,#657);
#512=AXIS2_PLACEMENT_3D('',#784,#658,#659);
#513=AXIS2_PLACEMENT_3D('',#785,#660,#661);
#514=DIRECTION('',(0.,0.,1.));
#515=DIRECTION('',(1.,0.,0.));
#516=DIRECTION('',(0.,-1.,0.));
#517=DIRECTION('',(1.,0.,0.));
#518=DIRECTION('',(0.,0.,1.));
#519=DIRECTION('',(1.,0.,0.));
#520=DIRECTION('',(0.,0.,1.));
#521=DIRECTION('',(1.,0.,0.));
#522=DIRECTION('',(1.,0.,0.));
#523=DIRECTION('',(0.,0.,1.));
#524=DIRECTION('',(1.,0.,0.));
#525=DIRECTION('',(0.,0.,1.));
#526=DIRECTION('',(1.,0.,0.));
#527=DIRECTION('',(0.,0.,-1.));
#528=DIRECTION('',(0.,0.,1.));
#529=DIRECTION('',(0.,-1.,0.));
#530=DIRECTION('',(0.,0.,1.));
#531=DIRECTION('',(0.,-1.,0.));
#532=DIRECTION('',(0.,0.,-1.));
#533=DIRECTION('',(-1.,0.,0.));
#534=DIRECTION('',(1.,0.,0.));
#535=DIRECTION('',(0.,-1.,0.));
#536=DIRECTION('',(1.,0.,0.));
#537=DIRECTION('',(0.,-1.,0.));
#538=DIRECTION('',(1.,0.,0.));
#539=DIRECTION('',(0.,0.,-1.));
#540=DIRECTION('',(0.,0.,1.));
#541=DIRECTION('',(0.,-1.,0.));
#542=DIRECTION('',(0.,0.,1.));
#543=DIRECTION('',(0.,-1.,0.));
#544=DIRECTION('',(0.,0.,-1.));
#545=DIRECTION('',(-1.,0.,0.));
#546=DIRECTION('',(1.,0.,0.));
#547=DIRECTION('',(0.,-1.,0.));
#548=DIRECTION('',(1.,0.,0.));
#549=DIRECTION('',(0.,-1.,0.));
#550=DIRECTION('',(0.,-1.,0.));
#551=DIRECTION('',(1.,0.,0.));
#552=DIRECTION('',(0.,0.,1.));
#553=DIRECTION('',(1.,0.,0.));
#554=DIRECTION('',(0.,0.,1.));
#555=DIRECTION('',(1.,0.,0.));
#556=DIRECTION('',(1.,0.,0.));
#557=DIRECTION('',(0.,0.,-1.));
#558=DIRECTION('',(0.,-1.,0.));
#559=DIRECTION('',(0.,0.,1.));
#560=DIRECTION('',(0.,-1.,0.));
#561=DIRECTION('',(0.,0.,-1.));
#562=DIRECTION('',(-1.,0.,0.));
#563=DIRECTION('',(0.,-1.,0.));
#564=DIRECTION('',(1.,0.,0.));
#565=DIRECTION('',(1.,0.,0.));
#566=DIRECTION('',(0.,0.,-1.));
#567=DIRECTION('',(0.,-1.,0.));
#568=DIRECTION('',(0.,0.,1.));
#569=DIRECTION('',(0.,0.,-1.));
#570=DIRECTION('',(-1.,0.,0.));
#571=DIRECTION('',(1.,0.,0.));
#572=DIRECTION('',(0.,-1.,0.));
#573=DIRECTION('',(1.,0.,0.));
#574=DIRECTION('',(0.,0.,-1.));
#575=DIRECTION('',(-1.,0.,0.));
#576=DIRECTION('',(-1.73472347597681E-15,0.,-1.));
#577=DIRECTION('',(-1.,0.,1.73472347597681E-15));
#578=DIRECTION('',(0.,0.,1.));
#579=DIRECTION('',(1.,0.,0.));
#580=DIRECTION('',(-1.,-8.67361737988404E-16,1.0842021724855E-15));
#581=DIRECTION('',(1.0842021724855E-15,0.,1.));
#582=DIRECTION('',(-1.,0.,0.));
#583=DIRECTION('',(0.,0.,1.));
#584=DIRECTION('',(0.,-1.,-8.67361737988403E-16));
#585=DIRECTION('',(0.,8.67361737988403E-16,-1.));
#586=DIRECTION('',(0.,-1.,0.));
#587=DIRECTION('',(0.,0.,-1.));
#588=DIRECTION('',(0.,-1.,0.));
#589=DIRECTION('',(0.,0.,-1.));
#590=DIRECTION('',(-1.,0.,8.67361737988403E-16));
#591=DIRECTION('',(8.67361737988403E-16,0.,1.));
#592=DIRECTION('',(0.,1.,0.));
#593=DIRECTION('',(0.,0.,1.));
#594=DIRECTION('',(0.,1.,0.));
#595=DIRECTION('',(0.,0.,1.));
#596=DIRECTION('',(1.,0.,0.));
#597=DIRECTION('',(0.,0.,-1.));
#598=DIRECTION('',(1.,0.,-1.73472347597681E-15));
#599=DIRECTION('',(-1.73472347597681E-15,0.,-1.));
#600=DIRECTION('',(0.,0.,1.));
#601=DIRECTION('',(1.,0.,0.));
#602=DIRECTION('',(3.46944695195362E-15,0.,1.));
#603=DIRECTION('',(1.,0.,-3.46944695195362E-15));
#604=DIRECTION('',(0.,6.50521303491303E-16,-1.));
#605=DIRECTION('',(0.,1.,6.50521303491303E-16));
#606=DIRECTION('',(-1.,0.,0.));
#607=DIRECTION('',(0.,0.,1.));
#608=DIRECTION('',(1.,0.,0.));
#609=DIRECTION('',(0.,0.,-1.));
#610=DIRECTION('',(0.,-1.,0.));
#611=DIRECTION('',(0.,0.,-1.));
#612=DIRECTION('',(0.,1.,0.));
#613=DIRECTION('',(0.,0.,1.));
#614=DIRECTION('',(0.,0.,1.));
#615=DIRECTION('',(1.,0.,0.));
#616=DIRECTION('',(0.,-1.08420217248551E-15,-1.));
#617=DIRECTION('',(0.,1.,-1.08420217248551E-15));
#618=DIRECTION('',(0.,0.,1.));
#619=DIRECTION('',(1.,0.,0.));
#620=DIRECTION('',(-1.,0.,1.0842021724855E-15));
#621=DIRECTION('',(1.0842021724855E-15,0.,1.));
#622=DIRECTION('',(-1.,0.,-8.67361737988404E-16));
#623=DIRECTION('',(-8.67361737988404E-16,0.,1.));
#624=DIRECTION('',(0.,-1.,-6.50521303491303E-16));
#625=DIRECTION('',(0.,6.50521303491303E-16,-1.));
#626=DIRECTION('',(0.,-1.,0.));
#627=DIRECTION('',(0.,0.,-1.));
#628=DIRECTION('',(0.,-1.,0.));
#629=DIRECTION('',(0.,0.,-1.));
#630=DIRECTION('',(0.,-1.,-8.673617379884E-16));
#631=DIRECTION('',(0.,8.673617379884E-16,-1.));
#632=DIRECTION('',(-1.,0.,0.));
#633=DIRECTION('',(0.,0.,1.));
#634=DIRECTION('',(-1.,-1.73472347597681E-15,0.));
#635=DIRECTION('',(1.73472347597681E-15,-1.,0.));
#636=DIRECTION('',(-1.,0.,0.));
#637=DIRECTION('',(0.,0.,1.));
#638=DIRECTION('',(1.,-1.73472347597681E-15,0.));
#639=DIRECTION('',(1.73472347597681E-15,1.,0.));
#640=DIRECTION('',(0.,-1.,0.));
#641=DIRECTION('',(0.,0.,-1.));
#642=DIRECTION('',(0.,1.,0.));
#643=DIRECTION('',(0.,0.,1.));
#644=DIRECTION('',(0.,1.,0.));
#645=DIRECTION('',(0.,0.,1.));
#646=DIRECTION('',(0.,1.,0.));
#647=DIRECTION('',(0.,0.,1.));
#648=DIRECTION('',(1.,0.,0.));
#649=DIRECTION('',(0.,0.,-1.));
#650=DIRECTION('',(1.,0.,0.));
#651=DIRECTION('',(0.,0.,-1.));
#652=DIRECTION('',(-1.73472347597681E-15,0.,-1.));
#653=DIRECTION('',(-1.,0.,1.73472347597681E-15));
#654=DIRECTION('',(0.,0.,-1.));
#655=DIRECTION('',(-1.,0.,0.));
#656=DIRECTION('',(0.,0.,1.));
#657=DIRECTION('',(1.,0.,0.));
#658=DIRECTION('',(0.,-3.46944695195362E-15,1.));
#659=DIRECTION('',(0.,-1.,-3.46944695195362E-15));
#660=DIRECTION('',(0.,0.,-1.));
#661=DIRECTION('',(-1.,0.,0.));
#662=CARTESIAN_POINT('',(0.,0.,0.));
#663=CARTESIAN_POINT('',(0.000463889532968708,0.,0.00439332267815402));
#664=CARTESIAN_POINT('',(-0.00297878055870533,0.,0.));
#665=CARTESIAN_POINT('',(-0.00297878055870533,0.,0.00838664535630804));
#666=CARTESIAN_POINT('',(-0.00297878055870533,0.,0.0004));
#667=CARTESIAN_POINT('',(0.000463889532968708,0.,0.0004));
#668=CARTESIAN_POINT('',(0.00390655962464275,0.,0.0004));
#669=CARTESIAN_POINT('',(0.00390655962464275,0.,0.00439332267815402));
#670=CARTESIAN_POINT('',(0.00390655962464275,0.,0.00838664535630804));
#671=CARTESIAN_POINT('',(-0.00337878055870533,0.,0.00838664535630804));
#672=CARTESIAN_POINT('',(0.000463889532968708,0.,0.0006));
#673=CARTESIAN_POINT('',(-0.00277878055870533,0.,0.0006));
#674=CARTESIAN_POINT('',(0.00370655962464274,0.,0.0006));
#675=CARTESIAN_POINT('',(-0.00277878055870533,0.,0.00439332267815402));
#676=CARTESIAN_POINT('',(-0.00277878055870533,0.,0.00818664535630804));
#677=CARTESIAN_POINT('',(0.000463889532968708,0.,0.00818664535630804));
#678=CARTESIAN_POINT('',(0.00370655962464274,0.,0.00818664535630804));
#679=CARTESIAN_POINT('',(0.00370655962464274,0.,0.00439332267815402));
#680=CARTESIAN_POINT('',(-0.00337878055870533,0.00496,0.00439332267815402));
#681=CARTESIAN_POINT('',(-0.00337878055870533,0.00456,0.00439332267815402));
#682=CARTESIAN_POINT('',(-0.00337878055870533,0.00456,0.00838664535630804));
#683=CARTESIAN_POINT('',(-0.00337878055870533,0.00456,0.0004));
#684=CARTESIAN_POINT('',(-0.00337878055870533,0.,0.0004));
#685=CARTESIAN_POINT('',(-0.00337878055870533,0.0004,0.0004));
#686=CARTESIAN_POINT('',(-0.00337878055870533,0.0004,0.00878664535630804));
#687=CARTESIAN_POINT('',(-0.00337878055870533,0.0004,0.00838664535630804));
#688=CARTESIAN_POINT('',(-0.00337878055870533,0.00496,0.00838664535630804));
#689=CARTESIAN_POINT('',(0.000463889532968708,0.00496,0.));
#690=CARTESIAN_POINT('',(0.00430655962464275,0.00456,0.));
#691=CARTESIAN_POINT('',(-0.00297878055870533,0.00456,0.));
#692=CARTESIAN_POINT('',(0.00390655962464275,0.00456,0.));
#693=CARTESIAN_POINT('',(0.00390655962464275,0.00496,0.));
#694=CARTESIAN_POINT('',(0.00390655962464275,0.0004,0.));
#695=CARTESIAN_POINT('',(0.000463889532968708,0.0004,0.));
#696=CARTESIAN_POINT('',(-0.00297878055870533,0.0004,0.));
#697=CARTESIAN_POINT('',(-0.00297878055870533,0.00496,0.));
#698=CARTESIAN_POINT('',(0.00430655962464275,0.00496,0.00439332267815402));
#699=CARTESIAN_POINT('',(0.00430655962464275,0.0004,0.00439332267815402));
#700=CARTESIAN_POINT('',(0.00430655962464275,0.0004,0.00838664535630804));
#701=CARTESIAN_POINT('',(0.00430655962464275,0.0004,0.0004));
#702=CARTESIAN_POINT('',(0.00430655962464275,0.00496,0.0004));
#703=CARTESIAN_POINT('',(0.00430655962464275,0.00456,0.0004));
#704=CARTESIAN_POINT('',(0.00430655962464275,0.00456,0.00878664535630804));
#705=CARTESIAN_POINT('',(0.00430655962464275,0.00456,0.00838664535630804));
#706=CARTESIAN_POINT('',(0.00430655962464275,0.,0.00838664535630804));
#707=CARTESIAN_POINT('',(0.000463889532968708,0.00496,0.00878664535630804));
#708=CARTESIAN_POINT('',(0.00430655962464275,0.0004,0.00878664535630804));
#709=CARTESIAN_POINT('',(-0.00297878055870533,0.0004,0.00878664535630804));
#710=CARTESIAN_POINT('',(0.00390655962464275,0.0004,0.00878664535630804));
#711=CARTESIAN_POINT('',(0.00390655962464275,0.00496,0.00878664535630804));
#712=CARTESIAN_POINT('',(0.00390655962464275,0.00456,0.00878664535630804));
#713=CARTESIAN_POINT('',(0.000463889532968708,0.00456,0.00878664535630804));
#714=CARTESIAN_POINT('',(-0.00297878055870533,0.00456,0.00878664535630804));
#715=CARTESIAN_POINT('',(-0.00297878055870533,0.00496,0.00878664535630804));
#716=CARTESIAN_POINT('',(0.000463889532968708,0.00496,0.00439332267815402));
#717=CARTESIAN_POINT('',(0.00390655962464275,0.00496,0.));
#718=CARTESIAN_POINT('',(0.00390655962464275,0.00496,0.00838664535630804));
#719=CARTESIAN_POINT('',(0.00390655962464275,0.00496,0.0004));
#720=CARTESIAN_POINT('',(-0.00337878055870533,0.00496,0.0004));
#721=CARTESIAN_POINT('',(-0.00297878055870533,0.00496,0.0004));
#722=CARTESIAN_POINT('',(-0.00297878055870533,0.00496,0.00439332267815402));
#723=CARTESIAN_POINT('',(-0.00297878055870533,0.00496,0.00838664535630804));
#724=CARTESIAN_POINT('',(0.000463889532968708,0.00496,0.00838664535630804));
#725=CARTESIAN_POINT('',(-0.00277878055870533,0.00496,0.00439332267815402));
#726=CARTESIAN_POINT('',(-0.00277878055870533,0.00496,0.0006));
#727=CARTESIAN_POINT('',(-0.00277878055870533,0.00436,0.0006));
#728=CARTESIAN_POINT('',(-0.00277878055870533,0.00436,0.00439332267815402));
#729=CARTESIAN_POINT('',(-0.00277878055870533,0.00436,0.00818664535630804));
#730=CARTESIAN_POINT('',(-0.00277878055870533,0.00496,0.00818664535630804));
#731=CARTESIAN_POINT('',(0.000463889532968708,0.00496,0.0006));
#732=CARTESIAN_POINT('',(0.00370655962464274,0.00496,0.0006));
#733=CARTESIAN_POINT('',(0.00370655962464274,0.00436,0.0006));
#734=CARTESIAN_POINT('',(0.000463889532968708,0.00436,0.0006));
#735=CARTESIAN_POINT('',(0.00370655962464274,0.00496,0.00439332267815402));
#736=CARTESIAN_POINT('',(0.00370655962464274,0.00496,0.00818664535630804));
#737=CARTESIAN_POINT('',(0.00370655962464274,0.00436,0.00818664535630804));
#738=CARTESIAN_POINT('',(0.00370655962464274,0.00436,0.00439332267815402));
#739=CARTESIAN_POINT('',(0.000463889532968708,0.00496,0.00818664535630804));
#740=CARTESIAN_POINT('',(0.000463889532968708,0.00436,0.00818664535630804));
#741=CARTESIAN_POINT('',(0.000463889532968708,0.00436,0.00439332267815402));
#742=CARTESIAN_POINT('',(-0.00297878055870533,0.0004,0.00439332267815402));
#743=CARTESIAN_POINT('',(-0.00297878055870533,0.0004,0.0004));
#744=CARTESIAN_POINT('',(-0.00297878055870533,0.0004,0.00838664535630804));
#745=CARTESIAN_POINT('',(-0.00297878055870533,0.0004,0.0004));
#746=CARTESIAN_POINT('',(-0.00297878055870533,0.0004,0.0004));
#747=CARTESIAN_POINT('',(-0.00297878055870533,0.0004,0.0004));
#748=CARTESIAN_POINT('',(-0.00297878055870533,0.0004,0.00838664535630804));
#749=CARTESIAN_POINT('',(-0.00297878055870533,0.0004,0.00838664535630804));
#750=CARTESIAN_POINT('',(-0.00297878055870533,0.0004,0.00838664535630804));
#751=CARTESIAN_POINT('',(-0.00297878055870533,0.00496,0.0004));
#752=CARTESIAN_POINT('',(-0.00297878055870533,0.00456,0.0004));
#753=CARTESIAN_POINT('',(0.000463889532968708,0.0004,0.0004));
#754=CARTESIAN_POINT('',(0.00390655962464275,0.0004,0.0004));
#755=CARTESIAN_POINT('',(0.00390655962464275,0.0004,0.00439332267815402));
#756=CARTESIAN_POINT('',(0.00390655962464275,0.0004,0.00838664535630804));
#757=CARTESIAN_POINT('',(0.00390655962464275,0.0004,0.0004));
#758=CARTESIAN_POINT('',(0.000463889532968708,0.0004,0.00838664535630804));
#759=CARTESIAN_POINT('',(0.00390655962464275,0.0004,0.00838664535630804));
#760=CARTESIAN_POINT('',(-0.00297878055870533,0.00496,0.00838664535630804));
#761=CARTESIAN_POINT('',(-0.00297878055870533,0.00456,0.00838664535630804));
#762=CARTESIAN_POINT('',(-0.00297878055870533,0.00456,0.00439332267815402));
#763=CARTESIAN_POINT('',(-0.00297878055870533,0.00456,0.0004));
#764=CARTESIAN_POINT('',(-0.00297878055870533,0.00456,0.00838664535630804));
#765=CARTESIAN_POINT('',(-0.00297878055870533,0.00456,0.0004));
#766=CARTESIAN_POINT('',(-0.00297878055870533,0.00456,0.0004));
#767=CARTESIAN_POINT('',(0.00390655962464275,0.0004,0.0004));
#768=CARTESIAN_POINT('',(0.00390655962464275,0.0004,0.0004));
#769=CARTESIAN_POINT('',(0.00390655962464275,0.0004,0.00838664535630804));
#770=CARTESIAN_POINT('',(0.00390655962464275,0.0004,0.00838664535630804));
#771=CARTESIAN_POINT('',(-0.00297878055870533,0.00456,0.00838664535630804));
#772=CARTESIAN_POINT('',(-0.00297878055870533,0.00456,0.00838664535630804));
#773=CARTESIAN_POINT('',(0.000463889532968708,0.00456,0.0004));
#774=CARTESIAN_POINT('',(0.00390655962464275,0.00456,0.0004));
#775=CARTESIAN_POINT('',(0.00390655962464275,0.00496,0.0004));
#776=CARTESIAN_POINT('',(0.00390655962464275,0.00456,0.0004));
#777=CARTESIAN_POINT('',(0.00390655962464275,0.00496,0.00838664535630804));
#778=CARTESIAN_POINT('',(0.00390655962464275,0.00456,0.00838664535630804));
#779=CARTESIAN_POINT('',(0.000463889532968708,0.00456,0.00838664535630804));
#780=CARTESIAN_POINT('',(0.00390655962464275,0.00456,0.00838664535630804));
#781=CARTESIAN_POINT('',(0.00390655962464275,0.00456,0.0004));
#782=CARTESIAN_POINT('',(0.00390655962464275,0.00456,0.0004));
#783=CARTESIAN_POINT('',(0.00390655962464275,0.00456,0.00838664535630804));
#784=CARTESIAN_POINT('',(0.00390655962464275,0.00456,0.00838664535630804));
#785=CARTESIAN_POINT('',(0.00390655962464275,0.00456,0.00439332267815402));
#786=MECHANICAL_DESIGN_GEOMETRIC_PRESENTATION_REPRESENTATION('',(#447),
#787);
#787=(
GEOMETRIC_REPRESENTATION_CONTEXT(3)
GLOBAL_UNCERTAINTY_ASSIGNED_CONTEXT((#788))
GLOBAL_UNIT_ASSIGNED_CONTEXT((#791,#790,#789))
REPRESENTATION_CONTEXT('Part 1','TOP_LEVEL_ASSEMBLY_PART')
);
#788=UNCERTAINTY_MEASURE_WITH_UNIT(LENGTH_MEASURE(1.E-8),#791,
'DISTANCE_ACCURACY_VALUE','Maximum Tolerance applied to model');
#789=(
NAMED_UNIT(*)
SI_UNIT($,.STERADIAN.)
SOLID_ANGLE_UNIT()
);
#790=(
NAMED_UNIT(*)
PLANE_ANGLE_UNIT()
SI_UNIT($,.RADIAN.)
);
#791=(
LENGTH_UNIT()
NAMED_UNIT(*)
SI_UNIT($,.METRE.)
);
#792=PRODUCT_DEFINITION_SHAPE('','',#793);
#793=PRODUCT_DEFINITION('','',#795,#794);
#794=PRODUCT_DEFINITION_CONTEXT('',#801,'design');
#795=PRODUCT_DEFINITION_FORMATION_WITH_SPECIFIED_SOURCE('','',#797,
 .NOT_KNOWN.);
#796=PRODUCT_RELATED_PRODUCT_CATEGORY('','',(#797));
#797=PRODUCT('Part 1','Part 1','Part 1',(#799));
#798=PRODUCT_CATEGORY('','');
#799=PRODUCT_CONTEXT('',#801,'mechanical');
#800=APPLICATION_PROTOCOL_DEFINITION('international standard',
'ap242_managed_model_based_3d_engineering',2020,#801);
#801=APPLICATION_CONTEXT('managed model based 3d engineering');
ENDSEC;
END-ISO-10303-21;
