ISO-10303-21;
HEADER;
/* Generated by software containing ST-Developer
 * from STEP Tools, Inc. (www.steptools.com) 
 */
/* OPTION: using custom renumber hook */

FILE_DESCRIPTION(
/* description */ ('STEP AP242 Edition 2',
'CAx-IF Rec.Pracs.---Representation and Presentation of Product Manufa
cturing Information (PMI)---4.0---2014-10-13',
'CAx-IF Rec.Pracs.---3D Tessellated Geometry---0.4---2014-09-14','2;1',
'CAx-IF Rec.Pracs.---User Defined Attributes---1.5---2016-08-15'),
/* implementation_level */ '2;1');

FILE_NAME(
/* name */ 'beds - Part 1',
/* time_stamp */ '2026-09-07T14:07:01Z',
/* author */ (''),
/* organization */ (''),
/* preprocessor_version */ 'ST-DEVELOPER v20',
/* originating_system */ 'ONSHAPE BY PTC INC, 1.220',
/* authorisation */ '  ');

FILE_SCHEMA (('AP242_MANAGED_MODEL_BASED_3D_ENGINEERING_MIM_LF { 1 0 10303 442 3 1 4 }'));
ENDSEC;

DATA;
#10=SHAPE_REPRESENTATION_RELATIONSHIP('','',#750,#11);
#11=ADVANCED_BREP_SHAPE_REPRESENTATION('',(#748),#1232);
#12=ELLIPSE('',#798,0.00113137084989848,0.0008);
#13=ELLIPSE('',#814,0.00113137084989848,0.0008);
#14=SPHERICAL_SURFACE('',#771,0.00120711);
#15=SPHERICAL_SURFACE('',#782,0.00120711);
#16=SPHERICAL_SURFACE('',#784,0.00120711);
#17=SPHERICAL_SURFACE('',#790,0.00120711);
#18=SPHERICAL_SURFACE('',#793,0.0008);
#19=SPHERICAL_SURFACE('',#808,0.0008);
#20=SPHERICAL_SURFACE('',#810,0.0008);
#21=SPHERICAL_SURFACE('',#815,0.0008);
#22=SPHERICAL_SURFACE('',#825,0.0008);
#23=SPHERICAL_SURFACE('',#827,0.0008);
#24=B_SPLINE_CURVE_WITH_KNOTS('',3,(#1148,#1149,#1150,#1151),
 .UNSPECIFIED.,.F.,.F.,(4,4),(0.,0.000866311873631978),.UNSPECIFIED.);
#25=B_SPLINE_CURVE_WITH_KNOTS('',3,(#1152,#1153,#1154,#1155),
 .UNSPECIFIED.,.F.,.F.,(4,4),(0.,0.000866517830772318),.UNSPECIFIED.);
#26=B_SPLINE_CURVE_WITH_KNOTS('',3,(#1160,#1161,#1162,#1163),
 .UNSPECIFIED.,.F.,.F.,(4,4),(0.,0.000866517830772319),.UNSPECIFIED.);
#27=B_SPLINE_CURVE_WITH_KNOTS('',3,(#1165,#1166,#1167,#1168),
 .UNSPECIFIED.,.F.,.F.,(4,4),(0.,0.000866311873631975),.UNSPECIFIED.);
#28=B_SPLINE_CURVE_WITH_KNOTS('',3,(#1174,#1175,#1176,#1177),
 .UNSPECIFIED.,.F.,.F.,(4,4),(0.,0.00086651783077232),.UNSPECIFIED.);
#29=B_SPLINE_CURVE_WITH_KNOTS('',3,(#1190,#1191,#1192,#1193),
 .UNSPECIFIED.,.F.,.F.,(4,4),(0.,0.000866311873631979),.UNSPECIFIED.);
#30=CYLINDRICAL_SURFACE('',#769,0.00120711);
#31=CYLINDRICAL_SURFACE('',#774,0.00120711);
#32=CYLINDRICAL_SURFACE('',#776,0.00120711);
#33=CYLINDRICAL_SURFACE('',#778,0.00120711);
#34=CYLINDRICAL_SURFACE('',#780,0.00120711);
#35=CYLINDRICAL_SURFACE('',#786,0.00120711);
#36=CYLINDRICAL_SURFACE('',#788,0.00120711);
#37=CYLINDRICAL_SURFACE('',#792,0.00120711);
#38=CYLINDRICAL_SURFACE('',#797,0.0008);
#39=CYLINDRICAL_SURFACE('',#799,0.0008);
#40=CYLINDRICAL_SURFACE('',#801,0.0008);
#41=CYLINDRICAL_SURFACE('',#803,0.0008);
#42=CYLINDRICAL_SURFACE('',#805,0.0008);
#43=CYLINDRICAL_SURFACE('',#813,0.0008);
#44=CYLINDRICAL_SURFACE('',#817,0.0008);
#45=CYLINDRICAL_SURFACE('',#819,0.0008);
#46=CYLINDRICAL_SURFACE('',#821,0.0008);
#47=CYLINDRICAL_SURFACE('',#823,0.0008);
#48=CYLINDRICAL_SURFACE('',#829,0.0008);
#49=OVER_RIDING_STYLED_ITEM('',(#645),#603,#643);
#50=OVER_RIDING_STYLED_ITEM('',(#646),#605,#643);
#51=OVER_RIDING_STYLED_ITEM('',(#647),#606,#643);
#52=OVER_RIDING_STYLED_ITEM('',(#648),#607,#643);
#53=OVER_RIDING_STYLED_ITEM('',(#649),#613,#643);
#54=OVER_RIDING_STYLED_ITEM('',(#650),#614,#643);
#55=OVER_RIDING_STYLED_ITEM('',(#651),#615,#643);
#56=OVER_RIDING_STYLED_ITEM('',(#652),#616,#643);
#57=OVER_RIDING_STYLED_ITEM('',(#653),#617,#643);
#58=OVER_RIDING_STYLED_ITEM('',(#654),#618,#643);
#59=OVER_RIDING_STYLED_ITEM('',(#655),#619,#643);
#60=OVER_RIDING_STYLED_ITEM('',(#656),#620,#643);
#61=OVER_RIDING_STYLED_ITEM('',(#657),#621,#643);
#62=OVER_RIDING_STYLED_ITEM('',(#658),#622,#643);
#63=OVER_RIDING_STYLED_ITEM('',(#659),#623,#643);
#64=OVER_RIDING_STYLED_ITEM('',(#660),#624,#643);
#65=LINE('',#1039,#111);
#66=LINE('',#1041,#112);
#67=LINE('',#1043,#113);
#68=LINE('',#1046,#114);
#69=LINE('',#1053,#115);
#70=LINE('',#1055,#116);
#71=LINE('',#1057,#117);
#72=LINE('',#1060,#118);
#73=LINE('',#1062,#119);
#74=LINE('',#1064,#120);
#75=LINE('',#1066,#121);
#76=LINE('',#1069,#122);
#77=LINE('',#1071,#123);
#78=LINE('',#1073,#124);
#79=LINE('',#1075,#125);
#80=LINE('',#1078,#126);
#81=LINE('',#1080,#127);
#82=LINE('',#1082,#128);
#83=LINE('',#1084,#129);
#84=LINE('',#1087,#130);
#85=LINE('',#1089,#131);
#86=LINE('',#1091,#132);
#87=LINE('',#1093,#133);
#88=LINE('',#1096,#134);
#89=LINE('',#1098,#135);
#90=LINE('',#1100,#136);
#91=LINE('',#1102,#137);
#92=LINE('',#1104,#138);
#93=LINE('',#1106,#139);
#94=LINE('',#1107,#140);
#95=LINE('',#1109,#141);
#96=LINE('',#1111,#142);
#97=LINE('',#1113,#143);
#98=LINE('',#1116,#144);
#99=LINE('',#1120,#145);
#100=LINE('',#1123,#146);
#101=LINE('',#1125,#147);
#102=LINE('',#1127,#148);
#103=LINE('',#1129,#149);
#104=LINE('',#1132,#150);
#105=LINE('',#1134,#151);
#106=LINE('',#1136,#152);
#107=LINE('',#1138,#153);
#108=LINE('',#1141,#154);
#109=LINE('',#1143,#155);
#110=LINE('',#1145,#156);
#111=VECTOR('',#836,1.);
#112=VECTOR('',#837,1.);
#113=VECTOR('',#840,1.);
#114=VECTOR('',#841,1.);
#115=VECTOR('',#848,1.);
#116=VECTOR('',#849,1.);
#117=VECTOR('',#852,1.);
#118=VECTOR('',#853,1.);
#119=VECTOR('',#854,1.);
#120=VECTOR('',#855,1.);
#121=VECTOR('',#858,1.);
#122=VECTOR('',#859,1.);
#123=VECTOR('',#860,1.);
#124=VECTOR('',#861,1.);
#125=VECTOR('',#864,1.);
#126=VECTOR('',#865,1.);
#127=VECTOR('',#866,1.);
#128=VECTOR('',#867,1.);
#129=VECTOR('',#870,1.);
#130=VECTOR('',#871,1.);
#131=VECTOR('',#872,1.);
#132=VECTOR('',#873,1.);
#133=VECTOR('',#876,1.);
#134=VECTOR('',#877,1.);
#135=VECTOR('',#878,1.);
#136=VECTOR('',#879,1.);
#137=VECTOR('',#882,1.);
#138=VECTOR('',#883,1.);
#139=VECTOR('',#884,1.);
#140=VECTOR('',#885,1.);
#141=VECTOR('',#886,1.);
#142=VECTOR('',#887,1.);
#143=VECTOR('',#890,1.);
#144=VECTOR('',#891,1.);
#145=VECTOR('',#896,1.);
#146=VECTOR('',#897,1.);
#147=VECTOR('',#898,1.);
#148=VECTOR('',#899,1.);
#149=VECTOR('',#902,1.);
#150=VECTOR('',#903,1.);
#151=VECTOR('',#904,1.);
#152=VECTOR('',#905,1.);
#153=VECTOR('',#908,1.);
#154=VECTOR('',#909,1.);
#155=VECTOR('',#910,1.);
#156=VECTOR('',#911,1.);
#157=ORIENTED_EDGE('',*,*,#333,.T.);
#158=ORIENTED_EDGE('',*,*,#334,.T.);
#159=ORIENTED_EDGE('',*,*,#335,.T.);
#160=ORIENTED_EDGE('',*,*,#336,.F.);
#161=ORIENTED_EDGE('',*,*,#337,.T.);
#162=ORIENTED_EDGE('',*,*,#338,.T.);
#163=ORIENTED_EDGE('',*,*,#339,.T.);
#164=ORIENTED_EDGE('',*,*,#340,.T.);
#165=ORIENTED_EDGE('',*,*,#341,.T.);
#166=ORIENTED_EDGE('',*,*,#342,.T.);
#167=ORIENTED_EDGE('',*,*,#343,.T.);
#168=ORIENTED_EDGE('',*,*,#344,.T.);
#169=ORIENTED_EDGE('',*,*,#345,.T.);
#170=ORIENTED_EDGE('',*,*,#346,.T.);
#171=ORIENTED_EDGE('',*,*,#347,.T.);
#172=ORIENTED_EDGE('',*,*,#348,.T.);
#173=ORIENTED_EDGE('',*,*,#349,.T.);
#174=ORIENTED_EDGE('',*,*,#350,.T.);
#175=ORIENTED_EDGE('',*,*,#351,.T.);
#176=ORIENTED_EDGE('',*,*,#352,.T.);
#177=ORIENTED_EDGE('',*,*,#353,.T.);
#178=ORIENTED_EDGE('',*,*,#354,.T.);
#179=ORIENTED_EDGE('',*,*,#355,.T.);
#180=ORIENTED_EDGE('',*,*,#356,.T.);
#181=ORIENTED_EDGE('',*,*,#357,.T.);
#182=ORIENTED_EDGE('',*,*,#358,.T.);
#183=ORIENTED_EDGE('',*,*,#359,.T.);
#184=ORIENTED_EDGE('',*,*,#360,.T.);
#185=ORIENTED_EDGE('',*,*,#361,.T.);
#186=ORIENTED_EDGE('',*,*,#335,.F.);
#187=ORIENTED_EDGE('',*,*,#362,.T.);
#188=ORIENTED_EDGE('',*,*,#363,.T.);
#189=ORIENTED_EDGE('',*,*,#364,.T.);
#190=ORIENTED_EDGE('',*,*,#336,.T.);
#191=ORIENTED_EDGE('',*,*,#365,.T.);
#192=ORIENTED_EDGE('',*,*,#366,.T.);
#193=ORIENTED_EDGE('',*,*,#367,.T.);
#194=ORIENTED_EDGE('',*,*,#368,.T.);
#195=ORIENTED_EDGE('',*,*,#369,.T.);
#196=ORIENTED_EDGE('',*,*,#370,.T.);
#197=ORIENTED_EDGE('',*,*,#371,.T.);
#198=ORIENTED_EDGE('',*,*,#372,.T.);
#199=ORIENTED_EDGE('',*,*,#373,.T.);
#200=ORIENTED_EDGE('',*,*,#374,.T.);
#201=ORIENTED_EDGE('',*,*,#375,.T.);
#202=ORIENTED_EDGE('',*,*,#376,.T.);
#203=ORIENTED_EDGE('',*,*,#377,.T.);
#204=ORIENTED_EDGE('',*,*,#378,.T.);
#205=ORIENTED_EDGE('',*,*,#379,.T.);
#206=ORIENTED_EDGE('',*,*,#380,.T.);
#207=ORIENTED_EDGE('',*,*,#381,.T.);
#208=ORIENTED_EDGE('',*,*,#382,.T.);
#209=ORIENTED_EDGE('',*,*,#383,.F.);
#210=ORIENTED_EDGE('',*,*,#361,.F.);
#211=ORIENTED_EDGE('',*,*,#384,.T.);
#212=ORIENTED_EDGE('',*,*,#339,.F.);
#213=ORIENTED_EDGE('',*,*,#385,.T.);
#214=ORIENTED_EDGE('',*,*,#343,.F.);
#215=ORIENTED_EDGE('',*,*,#386,.F.);
#216=ORIENTED_EDGE('',*,*,#383,.T.);
#217=ORIENTED_EDGE('',*,*,#387,.F.);
#218=ORIENTED_EDGE('',*,*,#370,.F.);
#219=ORIENTED_EDGE('',*,*,#388,.T.);
#220=ORIENTED_EDGE('',*,*,#350,.F.);
#221=ORIENTED_EDGE('',*,*,#389,.F.);
#222=ORIENTED_EDGE('',*,*,#345,.F.);
#223=ORIENTED_EDGE('',*,*,#390,.T.);
#224=ORIENTED_EDGE('',*,*,#387,.T.);
#225=ORIENTED_EDGE('',*,*,#342,.F.);
#226=ORIENTED_EDGE('',*,*,#391,.F.);
#227=ORIENTED_EDGE('',*,*,#357,.F.);
#228=ORIENTED_EDGE('',*,*,#386,.T.);
#229=ORIENTED_EDGE('',*,*,#356,.F.);
#230=ORIENTED_EDGE('',*,*,#392,.F.);
#231=ORIENTED_EDGE('',*,*,#358,.F.);
#232=ORIENTED_EDGE('',*,*,#338,.F.);
#233=ORIENTED_EDGE('',*,*,#393,.T.);
#234=ORIENTED_EDGE('',*,*,#359,.F.);
#235=ORIENTED_EDGE('',*,*,#394,.F.);
#236=ORIENTED_EDGE('',*,*,#365,.F.);
#237=ORIENTED_EDGE('',*,*,#391,.T.);
#238=ORIENTED_EDGE('',*,*,#389,.T.);
#239=ORIENTED_EDGE('',*,*,#395,.F.);
#240=ORIENTED_EDGE('',*,*,#394,.T.);
#241=ORIENTED_EDGE('',*,*,#392,.T.);
#242=ORIENTED_EDGE('',*,*,#396,.F.);
#243=ORIENTED_EDGE('',*,*,#395,.T.);
#244=ORIENTED_EDGE('',*,*,#353,.F.);
#245=ORIENTED_EDGE('',*,*,#397,.F.);
#246=ORIENTED_EDGE('',*,*,#354,.F.);
#247=ORIENTED_EDGE('',*,*,#396,.T.);
#248=ORIENTED_EDGE('',*,*,#355,.F.);
#249=ORIENTED_EDGE('',*,*,#398,.F.);
#250=ORIENTED_EDGE('',*,*,#366,.F.);
#251=ORIENTED_EDGE('',*,*,#398,.T.);
#252=ORIENTED_EDGE('',*,*,#397,.T.);
#253=ORIENTED_EDGE('',*,*,#399,.F.);
#254=ORIENTED_EDGE('',*,*,#333,.F.);
#255=ORIENTED_EDGE('',*,*,#367,.F.);
#256=ORIENTED_EDGE('',*,*,#399,.T.);
#257=ORIENTED_EDGE('',*,*,#352,.F.);
#258=ORIENTED_EDGE('',*,*,#400,.T.);
#259=ORIENTED_EDGE('',*,*,#401,.F.);
#260=ORIENTED_EDGE('',*,*,#402,.F.);
#261=ORIENTED_EDGE('',*,*,#403,.F.);
#262=ORIENTED_EDGE('',*,*,#393,.F.);
#263=ORIENTED_EDGE('',*,*,#337,.F.);
#264=ORIENTED_EDGE('',*,*,#404,.F.);
#265=ORIENTED_EDGE('',*,*,#380,.F.);
#266=ORIENTED_EDGE('',*,*,#402,.T.);
#267=ORIENTED_EDGE('',*,*,#340,.F.);
#268=ORIENTED_EDGE('',*,*,#384,.F.);
#269=ORIENTED_EDGE('',*,*,#360,.F.);
#270=ORIENTED_EDGE('',*,*,#403,.T.);
#271=ORIENTED_EDGE('',*,*,#379,.F.);
#272=ORIENTED_EDGE('',*,*,#405,.F.);
#273=ORIENTED_EDGE('',*,*,#371,.F.);
#274=ORIENTED_EDGE('',*,*,#401,.T.);
#275=ORIENTED_EDGE('',*,*,#374,.F.);
#276=ORIENTED_EDGE('',*,*,#406,.F.);
#277=ORIENTED_EDGE('',*,*,#368,.F.);
#278=ORIENTED_EDGE('',*,*,#390,.F.);
#279=ORIENTED_EDGE('',*,*,#344,.F.);
#280=ORIENTED_EDGE('',*,*,#385,.F.);
#281=ORIENTED_EDGE('',*,*,#341,.F.);
#282=ORIENTED_EDGE('',*,*,#404,.T.);
#283=ORIENTED_EDGE('',*,*,#364,.F.);
#284=ORIENTED_EDGE('',*,*,#407,.F.);
#285=ORIENTED_EDGE('',*,*,#381,.F.);
#286=ORIENTED_EDGE('',*,*,#408,.F.);
#287=ORIENTED_EDGE('',*,*,#382,.F.);
#288=ORIENTED_EDGE('',*,*,#409,.F.);
#289=ORIENTED_EDGE('',*,*,#346,.F.);
#290=ORIENTED_EDGE('',*,*,#405,.T.);
#291=ORIENTED_EDGE('',*,*,#408,.T.);
#292=ORIENTED_EDGE('',*,*,#410,.F.);
#293=ORIENTED_EDGE('',*,*,#411,.F.);
#294=ORIENTED_EDGE('',*,*,#412,.F.);
#295=ORIENTED_EDGE('',*,*,#406,.T.);
#296=ORIENTED_EDGE('',*,*,#412,.T.);
#297=ORIENTED_EDGE('',*,*,#378,.F.);
#298=ORIENTED_EDGE('',*,*,#413,.F.);
#299=ORIENTED_EDGE('',*,*,#334,.F.);
#300=ORIENTED_EDGE('',*,*,#400,.F.);
#301=ORIENTED_EDGE('',*,*,#351,.F.);
#302=ORIENTED_EDGE('',*,*,#388,.F.);
#303=ORIENTED_EDGE('',*,*,#369,.F.);
#304=ORIENTED_EDGE('',*,*,#409,.T.);
#305=ORIENTED_EDGE('',*,*,#407,.T.);
#306=ORIENTED_EDGE('',*,*,#414,.F.);
#307=ORIENTED_EDGE('',*,*,#410,.T.);
#308=ORIENTED_EDGE('',*,*,#349,.F.);
#309=ORIENTED_EDGE('',*,*,#415,.F.);
#310=ORIENTED_EDGE('',*,*,#372,.F.);
#311=ORIENTED_EDGE('',*,*,#411,.T.);
#312=ORIENTED_EDGE('',*,*,#373,.F.);
#313=ORIENTED_EDGE('',*,*,#416,.F.);
#314=ORIENTED_EDGE('',*,*,#375,.F.);
#315=ORIENTED_EDGE('',*,*,#413,.T.);
#316=ORIENTED_EDGE('',*,*,#377,.F.);
#317=ORIENTED_EDGE('',*,*,#417,.F.);
#318=ORIENTED_EDGE('',*,*,#362,.F.);
#319=ORIENTED_EDGE('',*,*,#414,.T.);
#320=ORIENTED_EDGE('',*,*,#363,.F.);
#321=ORIENTED_EDGE('',*,*,#418,.F.);
#322=ORIENTED_EDGE('',*,*,#347,.F.);
#323=ORIENTED_EDGE('',*,*,#416,.T.);
#324=ORIENTED_EDGE('',*,*,#415,.T.);
#325=ORIENTED_EDGE('',*,*,#419,.F.);
#326=ORIENTED_EDGE('',*,*,#418,.T.);
#327=ORIENTED_EDGE('',*,*,#417,.T.);
#328=ORIENTED_EDGE('',*,*,#420,.F.);
#329=ORIENTED_EDGE('',*,*,#419,.T.);
#330=ORIENTED_EDGE('',*,*,#348,.F.);
#331=ORIENTED_EDGE('',*,*,#420,.T.);
#332=ORIENTED_EDGE('',*,*,#376,.F.);
#333=EDGE_CURVE('',#421,#422,#469,.F.);
#334=EDGE_CURVE('',#422,#423,#65,.T.);
#335=EDGE_CURVE('',#423,#421,#66,.T.);
#336=EDGE_CURVE('',#424,#425,#67,.T.);
#337=EDGE_CURVE('',#424,#426,#68,.F.);
#338=EDGE_CURVE('',#426,#425,#470,.F.);
#339=EDGE_CURVE('',#427,#428,#471,.F.);
#340=EDGE_CURVE('',#428,#429,#69,.F.);
#341=EDGE_CURVE('',#429,#427,#70,.T.);
#342=EDGE_CURVE('',#430,#431,#71,.T.);
#343=EDGE_CURVE('',#431,#432,#72,.F.);
#344=EDGE_CURVE('',#432,#433,#73,.T.);
#345=EDGE_CURVE('',#433,#430,#74,.T.);
#346=EDGE_CURVE('',#434,#435,#75,.T.);
#347=EDGE_CURVE('',#435,#436,#76,.F.);
#348=EDGE_CURVE('',#436,#437,#77,.F.);
#349=EDGE_CURVE('',#437,#434,#78,.F.);
#350=EDGE_CURVE('',#438,#439,#79,.F.);
#351=EDGE_CURVE('',#439,#440,#80,.T.);
#352=EDGE_CURVE('',#440,#441,#81,.T.);
#353=EDGE_CURVE('',#441,#438,#82,.F.);
#354=EDGE_CURVE('',#442,#443,#83,.T.);
#355=EDGE_CURVE('',#443,#444,#84,.T.);
#356=EDGE_CURVE('',#444,#445,#85,.F.);
#357=EDGE_CURVE('',#445,#442,#86,.F.);
#358=EDGE_CURVE('',#446,#447,#87,.T.);
#359=EDGE_CURVE('',#447,#448,#88,.F.);
#360=EDGE_CURVE('',#448,#449,#89,.F.);
#361=EDGE_CURVE('',#449,#446,#90,.T.);
#362=EDGE_CURVE('',#423,#450,#91,.F.);
#363=EDGE_CURVE('',#450,#451,#92,.T.);
#364=EDGE_CURVE('',#451,#424,#93,.F.);
#365=EDGE_CURVE('',#425,#452,#94,.T.);
#366=EDGE_CURVE('',#452,#453,#95,.F.);
#367=EDGE_CURVE('',#453,#421,#96,.F.);
#368=EDGE_CURVE('',#454,#455,#97,.T.);
#369=EDGE_CURVE('',#455,#456,#98,.T.);
#370=EDGE_CURVE('',#456,#454,#472,.F.);
#371=EDGE_CURVE('',#457,#458,#99,.T.);
#372=EDGE_CURVE('',#458,#459,#100,.T.);
#373=EDGE_CURVE('',#459,#460,#101,.T.);
#374=EDGE_CURVE('',#460,#457,#102,.F.);
#375=EDGE_CURVE('',#461,#462,#103,.F.);
#376=EDGE_CURVE('',#462,#463,#104,.T.);
#377=EDGE_CURVE('',#463,#464,#105,.T.);
#378=EDGE_CURVE('',#464,#461,#106,.F.);
#379=EDGE_CURVE('',#465,#466,#107,.F.);
#380=EDGE_CURVE('',#466,#467,#108,.T.);
#381=EDGE_CURVE('',#467,#468,#109,.T.);
#382=EDGE_CURVE('',#468,#465,#110,.F.);
#383=EDGE_CURVE('',#446,#431,#473,.T.);
#384=EDGE_CURVE('',#449,#428,#24,.T.);
#385=EDGE_CURVE('',#427,#432,#25,.T.);
#386=EDGE_CURVE('',#446,#445,#474,.F.);
#387=EDGE_CURVE('',#445,#431,#475,.F.);
#388=EDGE_CURVE('',#456,#439,#26,.T.);
#389=EDGE_CURVE('',#430,#438,#476,.T.);
#390=EDGE_CURVE('',#433,#454,#27,.T.);
#391=EDGE_CURVE('',#442,#430,#477,.T.);
#392=EDGE_CURVE('',#447,#444,#478,.T.);
#393=EDGE_CURVE('',#426,#448,#28,.T.);
#394=EDGE_CURVE('',#452,#447,#479,.T.);
#395=EDGE_CURVE('',#442,#438,#480,.F.);
#396=EDGE_CURVE('',#452,#444,#481,.F.);
#397=EDGE_CURVE('',#443,#441,#482,.T.);
#398=EDGE_CURVE('',#453,#443,#483,.T.);
#399=EDGE_CURVE('',#453,#441,#484,.F.);
#400=EDGE_CURVE('',#440,#422,#29,.T.);
#401=EDGE_CURVE('',#429,#457,#485,.F.);
#402=EDGE_CURVE('',#466,#429,#486,.F.);
#403=EDGE_CURVE('',#457,#466,#487,.F.);
#404=EDGE_CURVE('',#467,#424,#12,.F.);
#405=EDGE_CURVE('',#458,#465,#488,.T.);
#406=EDGE_CURVE('',#455,#460,#489,.T.);
#407=EDGE_CURVE('',#468,#451,#490,.T.);
#408=EDGE_CURVE('',#465,#434,#491,.T.);
#409=EDGE_CURVE('',#435,#468,#492,.T.);
#410=EDGE_CURVE('',#458,#434,#493,.F.);
#411=EDGE_CURVE('',#461,#460,#494,.F.);
#412=EDGE_CURVE('',#455,#461,#495,.F.);
#413=EDGE_CURVE('',#423,#464,#13,.T.);
#414=EDGE_CURVE('',#435,#451,#496,.F.);
#415=EDGE_CURVE('',#459,#437,#497,.T.);
#416=EDGE_CURVE('',#462,#459,#498,.T.);
#417=EDGE_CURVE('',#450,#463,#499,.T.);
#418=EDGE_CURVE('',#436,#450,#500,.T.);
#419=EDGE_CURVE('',#462,#437,#501,.F.);
#420=EDGE_CURVE('',#436,#463,#502,.F.);
#421=VERTEX_POINT('',#1037);
#422=VERTEX_POINT('',#1038);
#423=VERTEX_POINT('',#1040);
#424=VERTEX_POINT('',#1044);
#425=VERTEX_POINT('',#1045);
#426=VERTEX_POINT('',#1047);
#427=VERTEX_POINT('',#1051);
#428=VERTEX_POINT('',#1052);
#429=VERTEX_POINT('',#1054);
#430=VERTEX_POINT('',#1058);
#431=VERTEX_POINT('',#1059);
#432=VERTEX_POINT('',#1061);
#433=VERTEX_POINT('',#1063);
#434=VERTEX_POINT('',#1067);
#435=VERTEX_POINT('',#1068);
#436=VERTEX_POINT('',#1070);
#437=VERTEX_POINT('',#1072);
#438=VERTEX_POINT('',#1076);
#439=VERTEX_POINT('',#1077);
#440=VERTEX_POINT('',#1079);
#441=VERTEX_POINT('',#1081);
#442=VERTEX_POINT('',#1085);
#443=VERTEX_POINT('',#1086);
#444=VERTEX_POINT('',#1088);
#445=VERTEX_POINT('',#1090);
#446=VERTEX_POINT('',#1094);
#447=VERTEX_POINT('',#1095);
#448=VERTEX_POINT('',#1097);
#449=VERTEX_POINT('',#1099);
#450=VERTEX_POINT('',#1103);
#451=VERTEX_POINT('',#1105);
#452=VERTEX_POINT('',#1108);
#453=VERTEX_POINT('',#1110);
#454=VERTEX_POINT('',#1114);
#455=VERTEX_POINT('',#1115);
#456=VERTEX_POINT('',#1117);
#457=VERTEX_POINT('',#1121);
#458=VERTEX_POINT('',#1122);
#459=VERTEX_POINT('',#1124);
#460=VERTEX_POINT('',#1126);
#461=VERTEX_POINT('',#1130);
#462=VERTEX_POINT('',#1131);
#463=VERTEX_POINT('',#1133);
#464=VERTEX_POINT('',#1135);
#465=VERTEX_POINT('',#1139);
#466=VERTEX_POINT('',#1140);
#467=VERTEX_POINT('',#1142);
#468=VERTEX_POINT('',#1144);
#469=CIRCLE('',#753,0.00120711);
#470=CIRCLE('',#755,0.00120711);
#471=CIRCLE('',#757,0.00120711);
#472=CIRCLE('',#765,0.00120711);
#473=CIRCLE('',#770,0.00120711);
#474=CIRCLE('',#772,0.00120711);
#475=CIRCLE('',#773,0.00120711);
#476=CIRCLE('',#775,0.00120711);
#477=CIRCLE('',#777,0.00120711);
#478=CIRCLE('',#779,0.00120711);
#479=CIRCLE('',#781,0.00120711);
#480=CIRCLE('',#783,0.00120711);
#481=CIRCLE('',#785,0.00120711);
#482=CIRCLE('',#787,0.00120711);
#483=CIRCLE('',#789,0.00120711);
#484=CIRCLE('',#791,0.00120711);
#485=CIRCLE('',#794,0.0008);
#486=CIRCLE('',#795,0.0008);
#487=CIRCLE('',#796,0.0008);
#488=CIRCLE('',#800,0.0008);
#489=CIRCLE('',#802,0.0008);
#490=CIRCLE('',#804,0.0008);
#491=CIRCLE('',#806,0.0008);
#492=CIRCLE('',#807,0.0008);
#493=CIRCLE('',#809,0.0008);
#494=CIRCLE('',#811,0.0008);
#495=CIRCLE('',#812,0.0008);
#496=CIRCLE('',#816,0.0008);
#497=CIRCLE('',#818,0.0008);
#498=CIRCLE('',#820,0.0008);
#499=CIRCLE('',#822,0.0008);
#500=CIRCLE('',#824,0.0008);
#501=CIRCLE('',#826,0.0008);
#502=CIRCLE('',#828,0.0008);
#503=EDGE_LOOP('',(#157,#158,#159));
#504=EDGE_LOOP('',(#160,#161,#162));
#505=EDGE_LOOP('',(#163,#164,#165));
#506=EDGE_LOOP('',(#166,#167,#168,#169));
#507=EDGE_LOOP('',(#170,#171,#172,#173));
#508=EDGE_LOOP('',(#174,#175,#176,#177));
#509=EDGE_LOOP('',(#178,#179,#180,#181));
#510=EDGE_LOOP('',(#182,#183,#184,#185));
#511=EDGE_LOOP('',(#186,#187,#188,#189,#190,#191,#192,#193));
#512=EDGE_LOOP('',(#194,#195,#196));
#513=EDGE_LOOP('',(#197,#198,#199,#200));
#514=EDGE_LOOP('',(#201,#202,#203,#204));
#515=EDGE_LOOP('',(#205,#206,#207,#208));
#516=EDGE_LOOP('',(#209,#210,#211,#212,#213,#214));
#517=EDGE_LOOP('',(#215,#216,#217));
#518=EDGE_LOOP('',(#218,#219,#220,#221,#222,#223));
#519=EDGE_LOOP('',(#224,#225,#226,#227));
#520=EDGE_LOOP('',(#228,#229,#230,#231));
#521=EDGE_LOOP('',(#232,#233,#234,#235,#236));
#522=EDGE_LOOP('',(#237,#238,#239));
#523=EDGE_LOOP('',(#240,#241,#242));
#524=EDGE_LOOP('',(#243,#244,#245,#246));
#525=EDGE_LOOP('',(#247,#248,#249,#250));
#526=EDGE_LOOP('',(#251,#252,#253));
#527=EDGE_LOOP('',(#254,#255,#256,#257,#258));
#528=EDGE_LOOP('',(#259,#260,#261));
#529=EDGE_LOOP('',(#262,#263,#264,#265,#266,#267,#268,#269));
#530=EDGE_LOOP('',(#270,#271,#272,#273));
#531=EDGE_LOOP('',(#274,#275,#276,#277,#278,#279,#280,#281));
#532=EDGE_LOOP('',(#282,#283,#284,#285));
#533=EDGE_LOOP('',(#286,#287,#288,#289));
#534=EDGE_LOOP('',(#290,#291,#292));
#535=EDGE_LOOP('',(#293,#294,#295));
#536=EDGE_LOOP('',(#296,#297,#298,#299,#300,#301,#302,#303));
#537=EDGE_LOOP('',(#304,#305,#306));
#538=EDGE_LOOP('',(#307,#308,#309,#310));
#539=EDGE_LOOP('',(#311,#312,#313,#314));
#540=EDGE_LOOP('',(#315,#316,#317,#318));
#541=EDGE_LOOP('',(#319,#320,#321,#322));
#542=EDGE_LOOP('',(#323,#324,#325));
#543=EDGE_LOOP('',(#326,#327,#328));
#544=EDGE_LOOP('',(#329,#330,#331,#332));
#545=FACE_BOUND('',#503,.T.);
#546=FACE_BOUND('',#504,.T.);
#547=FACE_BOUND('',#505,.T.);
#548=FACE_BOUND('',#506,.T.);
#549=FACE_BOUND('',#507,.T.);
#550=FACE_BOUND('',#508,.T.);
#551=FACE_BOUND('',#509,.T.);
#552=FACE_BOUND('',#510,.T.);
#553=FACE_BOUND('',#511,.T.);
#554=FACE_BOUND('',#512,.T.);
#555=FACE_BOUND('',#513,.T.);
#556=FACE_BOUND('',#514,.T.);
#557=FACE_BOUND('',#515,.T.);
#558=FACE_BOUND('',#516,.T.);
#559=FACE_BOUND('',#517,.T.);
#560=FACE_BOUND('',#518,.T.);
#561=FACE_BOUND('',#519,.T.);
#562=FACE_BOUND('',#520,.T.);
#563=FACE_BOUND('',#521,.T.);
#564=FACE_BOUND('',#522,.T.);
#565=FACE_BOUND('',#523,.T.);
#566=FACE_BOUND('',#524,.T.);
#567=FACE_BOUND('',#525,.T.);
#568=FACE_BOUND('',#526,.T.);
#569=FACE_BOUND('',#527,.T.);
#570=FACE_BOUND('',#528,.T.);
#571=FACE_BOUND('',#529,.T.);
#572=FACE_BOUND('',#530,.T.);
#573=FACE_BOUND('',#531,.T.);
#574=FACE_BOUND('',#532,.T.);
#575=FACE_BOUND('',#533,.T.);
#576=FACE_BOUND('',#534,.T.);
#577=FACE_BOUND('',#535,.T.);
#578=FACE_BOUND('',#536,.T.);
#579=FACE_BOUND('',#537,.T.);
#580=FACE_BOUND('',#538,.T.);
#581=FACE_BOUND('',#539,.T.);
#582=FACE_BOUND('',#540,.T.);
#583=FACE_BOUND('',#541,.T.);
#584=FACE_BOUND('',#542,.T.);
#585=FACE_BOUND('',#543,.T.);
#586=FACE_BOUND('',#544,.T.);
#587=PLANE('',#752);
#588=PLANE('',#754);
#589=PLANE('',#756);
#590=PLANE('',#758);
#591=PLANE('',#759);
#592=PLANE('',#760);
#593=PLANE('',#761);
#594=PLANE('',#762);
#595=PLANE('',#763);
#596=PLANE('',#764);
#597=PLANE('',#766);
#598=PLANE('',#767);
#599=PLANE('',#768);
#600=ADVANCED_FACE('',(#545),#587,.T.);
#601=ADVANCED_FACE('',(#546),#588,.T.);
#602=ADVANCED_FACE('',(#547),#589,.T.);
#603=ADVANCED_FACE('Face appearance 1',(#548),#590,.T.);
#604=ADVANCED_FACE('',(#549),#591,.T.);
#605=ADVANCED_FACE('Face appearance 1',(#550),#592,.F.);
#606=ADVANCED_FACE('Face appearance 1',(#551),#593,.F.);
#607=ADVANCED_FACE('Face appearance 1',(#552),#594,.T.);
#608=ADVANCED_FACE('',(#553),#595,.F.);
#609=ADVANCED_FACE('',(#554),#596,.T.);
#610=ADVANCED_FACE('',(#555),#597,.T.);
#611=ADVANCED_FACE('',(#556),#598,.T.);
#612=ADVANCED_FACE('',(#557),#599,.T.);
#613=ADVANCED_FACE('Face appearance 1',(#558),#30,.T.);
#614=ADVANCED_FACE('Face appearance 1',(#559),#14,.T.);
#615=ADVANCED_FACE('Face appearance 1',(#560),#31,.T.);
#616=ADVANCED_FACE('Face appearance 1',(#561),#32,.T.);
#617=ADVANCED_FACE('Face appearance 1',(#562),#33,.T.);
#618=ADVANCED_FACE('Face appearance 1',(#563),#34,.T.);
#619=ADVANCED_FACE('Face appearance 1',(#564),#15,.T.);
#620=ADVANCED_FACE('Face appearance 1',(#565),#16,.T.);
#621=ADVANCED_FACE('Face appearance 1',(#566),#35,.T.);
#622=ADVANCED_FACE('Face appearance 1',(#567),#36,.T.);
#623=ADVANCED_FACE('Face appearance 1',(#568),#17,.T.);
#624=ADVANCED_FACE('Face appearance 1',(#569),#37,.T.);
#625=ADVANCED_FACE('',(#570),#18,.T.);
#626=ADVANCED_FACE('',(#571),#38,.T.);
#627=ADVANCED_FACE('',(#572),#39,.T.);
#628=ADVANCED_FACE('',(#573),#40,.T.);
#629=ADVANCED_FACE('',(#574),#41,.T.);
#630=ADVANCED_FACE('',(#575),#42,.T.);
#631=ADVANCED_FACE('',(#576),#19,.T.);
#632=ADVANCED_FACE('',(#577),#20,.T.);
#633=ADVANCED_FACE('',(#578),#43,.T.);
#634=ADVANCED_FACE('',(#579),#21,.T.);
#635=ADVANCED_FACE('',(#580),#44,.T.);
#636=ADVANCED_FACE('',(#581),#45,.T.);
#637=ADVANCED_FACE('',(#582),#46,.T.);
#638=ADVANCED_FACE('',(#583),#47,.T.);
#639=ADVANCED_FACE('',(#584),#22,.T.);
#640=ADVANCED_FACE('',(#585),#23,.T.);
#641=ADVANCED_FACE('',(#586),#48,.T.);
#642=CLOSED_SHELL('',(#600,#601,#602,#603,#604,#605,#606,#607,#608,#609,
#610,#611,#612,#613,#614,#615,#616,#617,#618,#619,#620,#621,#622,#623,#624,
#625,#626,#627,#628,#629,#630,#631,#632,#633,#634,#635,#636,#637,#638,#639,
#640,#641));
#643=STYLED_ITEM('',(#644),#748);
#644=PRESENTATION_STYLE_ASSIGNMENT((#661));
#645=PRESENTATION_STYLE_ASSIGNMENT((#662));
#646=PRESENTATION_STYLE_ASSIGNMENT((#663));
#647=PRESENTATION_STYLE_ASSIGNMENT((#664));
#648=PRESENTATION_STYLE_ASSIGNMENT((#665));
#649=PRESENTATION_STYLE_ASSIGNMENT((#666));
#650=PRESENTATION_STYLE_ASSIGNMENT((#667));
#651=PRESENTATION_STYLE_ASSIGNMENT((#668));
#652=PRESENTATION_STYLE_ASSIGNMENT((#669));
#653=PRESENTATION_STYLE_ASSIGNMENT((#670));
#654=PRESENTATION_STYLE_ASSIGNMENT((#671));
#655=PRESENTATION_STYLE_ASSIGNMENT((#672));
#656=PRESENTATION_STYLE_ASSIGNMENT((#673));
#657=PRESENTATION_STYLE_ASSIGNMENT((#674));
#658=PRESENTATION_STYLE_ASSIGNMENT((#675));
#659=PRESENTATION_STYLE_ASSIGNMENT((#676));
#660=PRESENTATION_STYLE_ASSIGNMENT((#677));
#661=SURFACE_STYLE_USAGE(.BOTH.,#678);
#662=SURFACE_STYLE_USAGE(.BOTH.,#679);
#663=SURFACE_STYLE_USAGE(.BOTH.,#680);
#664=SURFACE_STYLE_USAGE(.BOTH.,#681);
#665=SURFACE_STYLE_USAGE(.BOTH.,#682);
#666=SURFACE_STYLE_USAGE(.BOTH.,#683);
#667=SURFACE_STYLE_USAGE(.BOTH.,#684);
#668=SURFACE_STYLE_USAGE(.BOTH.,#685);
#669=SURFACE_STYLE_USAGE(.BOTH.,#686);
#670=SURFACE_STYLE_USAGE(.BOTH.,#687);
#671=SURFACE_STYLE_USAGE(.BOTH.,#688);
#672=SURFACE_STYLE_USAGE(.BOTH.,#689);
#673=SURFACE_STYLE_USAGE(.BOTH.,#690);
#674=SURFACE_STYLE_USAGE(.BOTH.,#691);
#675=SURFACE_STYLE_USAGE(.BOTH.,#692);
#676=SURFACE_STYLE_USAGE(.BOTH.,#693);
#677=SURFACE_STYLE_USAGE(.BOTH.,#694);
#678=SURFACE_SIDE_STYLE('',(#695));
#679=SURFACE_SIDE_STYLE('',(#696));
#680=SURFACE_SIDE_STYLE('',(#697));
#681=SURFACE_SIDE_STYLE('',(#698));
#682=SURFACE_SIDE_STYLE('',(#699));
#683=SURFACE_SIDE_STYLE('',(#700));
#684=SURFACE_SIDE_STYLE('',(#701));
#685=SURFACE_SIDE_STYLE('',(#702));
#686=SURFACE_SIDE_STYLE('',(#703));
#687=SURFACE_SIDE_STYLE('',(#704));
#688=SURFACE_SIDE_STYLE('',(#705));
#689=SURFACE_SIDE_STYLE('',(#706));
#690=SURFACE_SIDE_STYLE('',(#707));
#691=SURFACE_SIDE_STYLE('',(#708));
#692=SURFACE_SIDE_STYLE('',(#709));
#693=SURFACE_SIDE_STYLE('',(#710));
#694=SURFACE_SIDE_STYLE('',(#711));
#695=SURFACE_STYLE_FILL_AREA(#712);
#696=SURFACE_STYLE_FILL_AREA(#713);
#697=SURFACE_STYLE_FILL_AREA(#714);
#698=SURFACE_STYLE_FILL_AREA(#715);
#699=SURFACE_STYLE_FILL_AREA(#716);
#700=SURFACE_STYLE_FILL_AREA(#717);
#701=SURFACE_STYLE_FILL_AREA(#718);
#702=SURFACE_STYLE_FILL_AREA(#719);
#703=SURFACE_STYLE_FILL_AREA(#720);
#704=SURFACE_STYLE_FILL_AREA(#721);
#705=SURFACE_STYLE_FILL_AREA(#722);
#706=SURFACE_STYLE_FILL_AREA(#723);
#707=SURFACE_STYLE_FILL_AREA(#724);
#708=SURFACE_STYLE_FILL_AREA(#725);
#709=SURFACE_STYLE_FILL_AREA(#726);
#710=SURFACE_STYLE_FILL_AREA(#727);
#711=SURFACE_STYLE_FILL_AREA(#728);
#712=FILL_AREA_STYLE('',(#729));
#713=FILL_AREA_STYLE('',(#730));
#714=FILL_AREA_STYLE('',(#731));
#715=FILL_AREA_STYLE('',(#732));
#716=FILL_AREA_STYLE('',(#733));
#717=FILL_AREA_STYLE('',(#734));
#718=FILL_AREA_STYLE('',(#735));
#719=FILL_AREA_STYLE('',(#736));
#720=FILL_AREA_STYLE('',(#737));
#721=FILL_AREA_STYLE('',(#738));
#722=FILL_AREA_STYLE('',(#739));
#723=FILL_AREA_STYLE('',(#740));
#724=FILL_AREA_STYLE('',(#741));
#725=FILL_AREA_STYLE('',(#742));
#726=FILL_AREA_STYLE('',(#743));
#727=FILL_AREA_STYLE('',(#744));
#728=FILL_AREA_STYLE('',(#745));
#729=FILL_AREA_STYLE_COLOUR('',#746);
#730=FILL_AREA_STYLE_COLOUR('',#747);
#731=FILL_AREA_STYLE_COLOUR('',#747);
#732=FILL_AREA_STYLE_COLOUR('',#747);
#733=FILL_AREA_STYLE_COLOUR('',#747);
#734=FILL_AREA_STYLE_COLOUR('',#747);
#735=FILL_AREA_STYLE_COLOUR('',#747);
#736=FILL_AREA_STYLE_COLOUR('',#747);
#737=FILL_AREA_STYLE_COLOUR('',#747);
#738=FILL_AREA_STYLE_COLOUR('',#747);
#739=FILL_AREA_STYLE_COLOUR('',#747);
#740=FILL_AREA_STYLE_COLOUR('',#747);
#741=FILL_AREA_STYLE_COLOUR('',#747);
#742=FILL_AREA_STYLE_COLOUR('',#747);
#743=FILL_AREA_STYLE_COLOUR('',#747);
#744=FILL_AREA_STYLE_COLOUR('',#747);
#745=FILL_AREA_STYLE_COLOUR('',#747);
#746=COLOUR_RGB('',0.913725490196078,0.647058823529412,0.329411764705883);
#747=COLOUR_RGB('',1.,0.984313725490196,0.984313725490196);
#748=MANIFOLD_SOLID_BREP('Part 1',#642);
#749=SHAPE_DEFINITION_REPRESENTATION(#1237,#750);
#750=SHAPE_REPRESENTATION('Part 1',(#751),#1232);
#751=AXIS2_PLACEMENT_3D('',#1034,#830,#831);
#752=AXIS2_PLACEMENT_3D('',#1035,#832,#833);
#753=AXIS2_PLACEMENT_3D('',#1036,#834,#835);
#754=AXIS2_PLACEMENT_3D('',#1042,#838,#839);
#755=AXIS2_PLACEMENT_3D('',#1048,#842,#843);
#756=AXIS2_PLACEMENT_3D('',#1049,#844,#845);
#757=AXIS2_PLACEMENT_3D('',#1050,#846,#847);
#758=AXIS2_PLACEMENT_3D('',#1056,#850,#851);
#759=AXIS2_PLACEMENT_3D('',#1065,#856,#857);
#760=AXIS2_PLACEMENT_3D('',#1074,#862,#863);
#761=AXIS2_PLACEMENT_3D('',#1083,#868,#869);
#762=AXIS2_PLACEMENT_3D('',#1092,#874,#875);
#763=AXIS2_PLACEMENT_3D('',#1101,#880,#881);
#764=AXIS2_PLACEMENT_3D('',#1112,#888,#889);
#765=AXIS2_PLACEMENT_3D('',#1118,#892,#893);
#766=AXIS2_PLACEMENT_3D('',#1119,#894,#895);
#767=AXIS2_PLACEMENT_3D('',#1128,#900,#901);
#768=AXIS2_PLACEMENT_3D('',#1137,#906,#907);
#769=AXIS2_PLACEMENT_3D('',#1146,#912,#913);
#770=AXIS2_PLACEMENT_3D('',#1147,#914,#915);
#771=AXIS2_PLACEMENT_3D('',#1156,#916,#917);
#772=AXIS2_PLACEMENT_3D('',#1157,#918,#919);
#773=AXIS2_PLACEMENT_3D('',#1158,#920,#921);
#774=AXIS2_PLACEMENT_3D('',#1159,#922,#923);
#775=AXIS2_PLACEMENT_3D('',#1164,#924,#925);
#776=AXIS2_PLACEMENT_3D('',#1169,#926,#927);
#777=AXIS2_PLACEMENT_3D('',#1170,#928,#929);
#778=AXIS2_PLACEMENT_3D('',#1171,#930,#931);
#779=AXIS2_PLACEMENT_3D('',#1172,#932,#933);
#780=AXIS2_PLACEMENT_3D('',#1173,#934,#935);
#781=AXIS2_PLACEMENT_3D('',#1178,#936,#937);
#782=AXIS2_PLACEMENT_3D('',#1179,#938,#939);
#783=AXIS2_PLACEMENT_3D('',#1180,#940,#941);
#784=AXIS2_PLACEMENT_3D('',#1181,#942,#943);
#785=AXIS2_PLACEMENT_3D('',#1182,#944,#945);
#786=AXIS2_PLACEMENT_3D('',#1183,#946,#947);
#787=AXIS2_PLACEMENT_3D('',#1184,#948,#949);
#788=AXIS2_PLACEMENT_3D('',#1185,#950,#951);
#789=AXIS2_PLACEMENT_3D('',#1186,#952,#953);
#790=AXIS2_PLACEMENT_3D('',#1187,#954,#955);
#791=AXIS2_PLACEMENT_3D('',#1188,#956,#957);
#792=AXIS2_PLACEMENT_3D('',#1189,#958,#959);
#793=AXIS2_PLACEMENT_3D('',#1194,#960,#961);
#794=AXIS2_PLACEMENT_3D('',#1195,#962,#963);
#795=AXIS2_PLACEMENT_3D('',#1196,#964,#965);
#796=AXIS2_PLACEMENT_3D('',#1197,#966,#967);
#797=AXIS2_PLACEMENT_3D('',#1198,#968,#969);
#798=AXIS2_PLACEMENT_3D('',#1199,#970,#971);
#799=AXIS2_PLACEMENT_3D('',#1200,#972,#973);
#800=AXIS2_PLACEMENT_3D('',#1201,#974,#975);
#801=AXIS2_PLACEMENT_3D('',#1202,#976,#977);
#802=AXIS2_PLACEMENT_3D('',#1203,#978,#979);
#803=AXIS2_PLACEMENT_3D('',#1204,#980,#981);
#804=AXIS2_PLACEMENT_3D('',#1205,#982,#983);
#805=AXIS2_PLACEMENT_3D('',#1206,#984,#985);
#806=AXIS2_PLACEMENT_3D('',#1207,#986,#987);
#807=AXIS2_PLACEMENT_3D('',#1208,#988,#989);
#808=AXIS2_PLACEMENT_3D('',#1209,#990,#991);
#809=AXIS2_PLACEMENT_3D('',#1210,#992,#993);
#810=AXIS2_PLACEMENT_3D('',#1211,#994,#995);
#811=AXIS2_PLACEMENT_3D('',#1212,#996,#997);
#812=AXIS2_PLACEMENT_3D('',#1213,#998,#999);
#813=AXIS2_PLACEMENT_3D('',#1214,#1000,#1001);
#814=AXIS2_PLACEMENT_3D('',#1215,#1002,#1003);
#815=AXIS2_PLACEMENT_3D('',#1216,#1004,#1005);
#816=AXIS2_PLACEMENT_3D('',#1217,#1006,#1007);
#817=AXIS2_PLACEMENT_3D('',#1218,#1008,#1009);
#818=AXIS2_PLACEMENT_3D('',#1219,#1010,#1011);
#819=AXIS2_PLACEMENT_3D('',#1220,#1012,#1013);
#820=AXIS2_PLACEMENT_3D('',#1221,#1014,#1015);
#821=AXIS2_PLACEMENT_3D('',#1222,#1016,#1017);
#822=AXIS2_PLACEMENT_3D('',#1223,#1018,#1019);
#823=AXIS2_PLACEMENT_3D('',#1224,#1020,#1021);
#824=AXIS2_PLACEMENT_3D('',#1225,#1022,#1023);
#825=AXIS2_PLACEMENT_3D('',#1226,#1024,#1025);
#826=AXIS2_PLACEMENT_3D('',#1227,#1026,#1027);
#827=AXIS2_PLACEMENT_3D('',#1228,#1028,#1029);
#828=AXIS2_PLACEMENT_3D('',#1229,#1030,#1031);
#829=AXIS2_PLACEMENT_3D('',#1230,#1032,#1033);
#830=DIRECTION('',(0.,0.,1.));
#831=DIRECTION('',(1.,0.,0.));
#832=DIRECTION('',(1.,0.,0.));
#833=DIRECTION('',(0.,0.,-1.));
#834=DIRECTION('',(1.,0.,0.));
#835=DIRECTION('',(0.,0.,-1.));
#836=DIRECTION('',(0.,0.,-1.));
#837=DIRECTION('',(0.,1.,0.));
#838=DIRECTION('',(1.,0.,0.));
#839=DIRECTION('',(0.,0.,-1.));
#840=DIRECTION('',(0.,-1.,0.));
#841=DIRECTION('',(0.,0.,-1.));
#842=DIRECTION('',(1.,0.,0.));
#843=DIRECTION('',(0.,0.,-1.));
#844=DIRECTION('',(1.,0.,0.));
#845=DIRECTION('',(0.,0.,-1.));
#846=DIRECTION('',(1.,0.,0.));
#847=DIRECTION('',(0.,0.,-1.));
#848=DIRECTION('',(0.,0.,-1.));
#849=DIRECTION('',(0.,-1.,0.));
#850=DIRECTION('',(0.,0.,1.));
#851=DIRECTION('',(1.,0.,0.));
#852=DIRECTION('',(-2.07131161310663E-16,1.,0.));
#853=DIRECTION('',(1.,0.,0.));
#854=DIRECTION('',(0.,-1.,0.));
#855=DIRECTION('',(1.,0.,0.));
#856=DIRECTION('',(-1.,-2.07131161310663E-16,0.));
#857=DIRECTION('',(2.07131161310663E-16,-1.,0.));
#858=DIRECTION('',(0.,0.,-1.));
#859=DIRECTION('',(-2.07131161310663E-16,1.,0.));
#860=DIRECTION('',(0.,0.,-1.));
#861=DIRECTION('',(2.07131161310663E-16,-1.,0.));
#862=DIRECTION('',(0.,1.,0.));
#863=DIRECTION('',(0.,0.,1.));
#864=DIRECTION('',(1.,0.,0.));
#865=DIRECTION('',(0.,0.,-1.));
#866=DIRECTION('',(1.,0.,0.));
#867=DIRECTION('',(0.,0.,-1.));
#868=DIRECTION('',(-1.,-2.07131161310663E-16,0.));
#869=DIRECTION('',(2.07131161310663E-16,-1.,0.));
#870=DIRECTION('',(0.,0.,-1.));
#871=DIRECTION('',(-2.07131161310663E-16,1.,0.));
#872=DIRECTION('',(0.,0.,-1.));
#873=DIRECTION('',(-2.07131161310663E-16,1.,0.));
#874=DIRECTION('',(0.,1.,0.));
#875=DIRECTION('',(0.,0.,1.));
#876=DIRECTION('',(0.,0.,-1.));
#877=DIRECTION('',(1.,0.,0.));
#878=DIRECTION('',(0.,0.,-1.));
#879=DIRECTION('',(1.,0.,0.));
#880=DIRECTION('',(0.,0.,1.));
#881=DIRECTION('',(1.,0.,0.));
#882=DIRECTION('',(1.,0.,0.));
#883=DIRECTION('',(-2.07131161310663E-16,1.,0.));
#884=DIRECTION('',(-1.,0.,0.));
#885=DIRECTION('',(1.,0.,0.));
#886=DIRECTION('',(-2.07131161310663E-16,1.,0.));
#887=DIRECTION('',(1.,0.,0.));
#888=DIRECTION('',(1.,0.,0.));
#889=DIRECTION('',(0.,0.,-1.));
#890=DIRECTION('',(0.,-1.,0.));
#891=DIRECTION('',(0.,0.,-1.));
#892=DIRECTION('',(1.,0.,0.));
#893=DIRECTION('',(0.,0.,-1.));
#894=DIRECTION('',(0.,0.,1.));
#895=DIRECTION('',(1.,0.,0.));
#896=DIRECTION('',(-1.,0.,0.));
#897=DIRECTION('',(2.07131161310663E-16,-1.,0.));
#898=DIRECTION('',(1.,0.,0.));
#899=DIRECTION('',(0.,-1.,0.));
#900=DIRECTION('',(0.,-1.,0.));
#901=DIRECTION('',(1.,0.,0.));
#902=DIRECTION('',(1.,0.,0.));
#903=DIRECTION('',(0.,0.,-1.));
#904=DIRECTION('',(1.,0.,0.));
#905=DIRECTION('',(0.,0.,-1.));
#906=DIRECTION('',(0.,1.,0.));
#907=DIRECTION('',(-1.,0.,0.));
#908=DIRECTION('',(-1.,0.,0.));
#909=DIRECTION('',(0.,0.,-1.));
#910=DIRECTION('',(-1.,0.,0.));
#911=DIRECTION('',(0.,0.,-1.));
#912=DIRECTION('',(1.,0.,0.));
#913=DIRECTION('',(0.,0.,-1.));
#914=DIRECTION('',(1.,0.,0.));
#915=DIRECTION('',(0.,0.,-1.));
#916=DIRECTION('',(0.,0.,1.));
#917=DIRECTION('',(1.,0.,0.));
#918=DIRECTION('',(0.,0.,1.));
#919=DIRECTION('',(1.,0.,0.));
#920=DIRECTION('',(0.,1.,0.));
#921=DIRECTION('',(0.,0.,1.));
#922=DIRECTION('',(-1.,0.,0.));
#923=DIRECTION('',(0.,0.,1.));
#924=DIRECTION('',(1.,-5.74835259744946E-15,0.));
#925=DIRECTION('',(5.74835259744947E-15,1.,0.));
#926=DIRECTION('',(2.07131161310663E-16,-1.,0.));
#927=DIRECTION('',(1.,2.07131161310663E-16,0.));
#928=DIRECTION('',(0.,-1.,0.));
#929=DIRECTION('',(0.,0.,-1.));
#930=DIRECTION('',(0.,0.,1.));
#931=DIRECTION('',(1.,0.,0.));
#932=DIRECTION('',(0.,0.,-1.));
#933=DIRECTION('',(-1.,0.,0.));
#934=DIRECTION('',(-1.,0.,0.));
#935=DIRECTION('',(0.,0.,1.));
#936=DIRECTION('',(1.,0.,0.));
#937=DIRECTION('',(0.,0.,-1.));
#938=DIRECTION('',(5.74835259744947E-15,0.,1.));
#939=DIRECTION('',(1.,0.,-5.74835259744947E-15));
#940=DIRECTION('',(0.,0.,1.));
#941=DIRECTION('',(1.,0.,0.));
#942=DIRECTION('',(0.,1.,0.));
#943=DIRECTION('',(0.,0.,1.));
#944=DIRECTION('',(0.,1.,0.));
#945=DIRECTION('',(0.,0.,1.));
#946=DIRECTION('',(0.,0.,-1.));
#947=DIRECTION('',(-1.,0.,0.));
#948=DIRECTION('',(0.,0.,-1.));
#949=DIRECTION('',(-1.,0.,0.));
#950=DIRECTION('',(-2.07131161310663E-16,1.,0.));
#951=DIRECTION('',(-1.,-2.07131161310663E-16,0.));
#952=DIRECTION('',(0.,-1.,0.));
#953=DIRECTION('',(0.,0.,-1.));
#954=DIRECTION('',(1.,0.,0.));
#955=DIRECTION('',(0.,0.,-1.));
#956=DIRECTION('',(1.,0.,5.74835259744947E-15));
#957=DIRECTION('',(5.74835259744947E-15,0.,-1.));
#958=DIRECTION('',(1.,0.,0.));
#959=DIRECTION('',(0.,0.,-1.));
#960=DIRECTION('',(0.,1.,0.));
#961=DIRECTION('',(0.,0.,1.));
#962=DIRECTION('',(0.,1.,0.));
#963=DIRECTION('',(0.,0.,1.));
#964=DIRECTION('',(0.,0.,1.));
#965=DIRECTION('',(1.,0.,0.));
#966=DIRECTION('',(1.,0.,0.));
#967=DIRECTION('',(0.,0.,-1.));
#968=DIRECTION('',(0.,0.,-1.));
#969=DIRECTION('',(-1.,0.,0.));
#970=DIRECTION('',(0.707106781186548,0.,0.707106781186548));
#971=DIRECTION('',(0.707106781186548,0.,-0.707106781186548));
#972=DIRECTION('',(-1.,0.,0.));
#973=DIRECTION('',(0.,0.,1.));
#974=DIRECTION('',(-1.,0.,0.));
#975=DIRECTION('',(0.,0.,1.));
#976=DIRECTION('',(0.,-1.,0.));
#977=DIRECTION('',(0.,0.,-1.));
#978=DIRECTION('',(0.,-1.,0.));
#979=DIRECTION('',(0.,0.,-1.));
#980=DIRECTION('',(1.,0.,0.));
#981=DIRECTION('',(0.,0.,-1.));
#982=DIRECTION('',(-1.,0.,8.67361737988404E-15));
#983=DIRECTION('',(8.67361737988404E-15,0.,1.));
#984=DIRECTION('',(0.,0.,-1.));
#985=DIRECTION('',(-1.,0.,0.));
#986=DIRECTION('',(0.,0.,1.));
#987=DIRECTION('',(1.,0.,0.));
#988=DIRECTION('',(0.,-1.35525271560688E-16,-1.));
#989=DIRECTION('',(0.,1.,-1.35525271560688E-16));
#990=DIRECTION('',(0.,1.,0.));
#991=DIRECTION('',(0.,0.,1.));
#992=DIRECTION('',(0.,1.,0.));
#993=DIRECTION('',(0.,0.,1.));
#994=DIRECTION('',(1.,0.,0.));
#995=DIRECTION('',(0.,0.,-1.));
#996=DIRECTION('',(1.,0.,0.));
#997=DIRECTION('',(0.,0.,-1.));
#998=DIRECTION('',(0.,0.,1.));
#999=DIRECTION('',(1.,0.,0.));
#1000=DIRECTION('',(0.,0.,-1.));
#1001=DIRECTION('',(-1.,0.,0.));
#1002=DIRECTION('',(-0.707106781186548,0.,-0.707106781186548));
#1003=DIRECTION('',(0.707106781186548,0.,-0.707106781186548));
#1004=DIRECTION('',(0.,1.,-1.35525271560688E-16));
#1005=DIRECTION('',(0.,1.35525271560688E-16,1.));
#1006=DIRECTION('',(0.,1.,0.));
#1007=DIRECTION('',(0.,0.,1.));
#1008=DIRECTION('',(2.07131161310663E-16,-1.,0.));
#1009=DIRECTION('',(1.,2.07131161310663E-16,0.));
#1010=DIRECTION('',(0.,-1.,0.));
#1011=DIRECTION('',(0.,0.,-1.));
#1012=DIRECTION('',(1.,0.,0.));
#1013=DIRECTION('',(0.,0.,-1.));
#1014=DIRECTION('',(-1.,0.,0.));
#1015=DIRECTION('',(0.,0.,1.));
#1016=DIRECTION('',(-1.,0.,0.));
#1017=DIRECTION('',(0.,0.,1.));
#1018=DIRECTION('',(-1.,-8.67361737988405E-15,0.));
#1019=DIRECTION('',(8.67361737988405E-15,-1.,0.));
#1020=DIRECTION('',(2.07131161310663E-16,-1.,0.));
#1021=DIRECTION('',(1.,2.07131161310663E-16,0.));
#1022=DIRECTION('',(0.,-1.,0.));
#1023=DIRECTION('',(0.,0.,-1.));
#1024=DIRECTION('',(8.67361737988403E-15,0.,1.));
#1025=DIRECTION('',(1.,0.,-8.67361737988403E-15));
#1026=DIRECTION('',(0.,0.,1.));
#1027=DIRECTION('',(1.,0.,0.));
#1028=DIRECTION('',(0.,0.,-1.));
#1029=DIRECTION('',(-1.,0.,0.));
#1030=DIRECTION('',(-1.35525271560686E-16,0.,-1.));
#1031=DIRECTION('',(-1.,0.,1.35525271560686E-16));
#1032=DIRECTION('',(0.,0.,-1.));
#1033=DIRECTION('',(-1.,0.,0.));
#1034=CARTESIAN_POINT('',(0.,0.,0.));
#1035=CARTESIAN_POINT('',(0.0233267526770752,0.,0.008));
#1036=CARTESIAN_POINT('',(0.0233267526770752,-0.01554289,0.00120711));
#1037=CARTESIAN_POINT('',(0.0233267526770752,-0.01554289,0.));
#1038=CARTESIAN_POINT('',(0.0233267526770752,-0.01645,0.000410701813201298));
#1039=CARTESIAN_POINT('',(0.0233267526770752,-0.01645,0.008));
#1040=CARTESIAN_POINT('',(0.0233267526770752,-0.01645,0.));
#1041=CARTESIAN_POINT('',(0.0233267526770752,-0.01725,0.));
#1042=CARTESIAN_POINT('',(0.0233267526770752,0.,0.008));
#1043=CARTESIAN_POINT('',(0.0233267526770752,0.01725,0.));
#1044=CARTESIAN_POINT('',(0.0233267526770752,0.01645,0.));
#1045=CARTESIAN_POINT('',(0.0233267526770752,0.01554289,0.));
#1046=CARTESIAN_POINT('',(0.0233267526770752,0.01645,0.008));
#1047=CARTESIAN_POINT('',(0.0233267526770752,0.01645,0.000410701813201298));
#1048=CARTESIAN_POINT('',(0.0233267526770752,0.01554289,0.00120711));
#1049=CARTESIAN_POINT('',(0.0233267526770752,0.,0.008));
#1050=CARTESIAN_POINT('',(0.0233267526770752,0.01554289,0.00629289));
#1051=CARTESIAN_POINT('',(0.0233267526770752,0.0163392981867987,0.0072));
#1052=CARTESIAN_POINT('',(0.0233267526770752,0.01645,0.0070892981867987));
#1053=CARTESIAN_POINT('',(0.0233267526770752,0.01645,0.008));
#1054=CARTESIAN_POINT('',(0.0233267526770752,0.01645,0.0072));
#1055=CARTESIAN_POINT('',(0.0233267526770752,0.,0.0072));
#1056=CARTESIAN_POINT('',(0.,0.,0.0075));
#1057=CARTESIAN_POINT('',(0.03504289,0.01675,0.0075));
#1058=CARTESIAN_POINT('',(0.03504289,-0.01554289,0.0075));
#1059=CARTESIAN_POINT('',(0.03504289,0.01554289,0.0075));
#1060=CARTESIAN_POINT('',(0.,0.01554289,0.0075));
#1061=CARTESIAN_POINT('',(0.023268372525785,0.01554289,0.0075));
#1062=CARTESIAN_POINT('',(0.023268372525785,0.01554289,0.0075));
#1063=CARTESIAN_POINT('',(0.023268372525785,-0.01554289,0.0075));
#1064=CARTESIAN_POINT('',(0.03625,-0.01554289,0.0075));
#1065=CARTESIAN_POINT('',(-0.03625,0.,0.0075));
#1066=CARTESIAN_POINT('',(-0.03625,0.01645,0.0075));
#1067=CARTESIAN_POINT('',(-0.03625,0.01645,0.0072));
#1068=CARTESIAN_POINT('',(-0.03625,0.01645,0.0008));
#1069=CARTESIAN_POINT('',(-0.03625,-0.01725,0.0008));
#1070=CARTESIAN_POINT('',(-0.03625,-0.01645,0.0008));
#1071=CARTESIAN_POINT('',(-0.03625,-0.01645,0.0075));
#1072=CARTESIAN_POINT('',(-0.03625,-0.01645,0.0072));
#1073=CARTESIAN_POINT('',(-0.03625,0.,0.0072));
#1074=CARTESIAN_POINT('',(0.,-0.01675,0.0075));
#1075=CARTESIAN_POINT('',(0.0233267526770752,-0.01675,0.00629289));
#1076=CARTESIAN_POINT('',(0.03504289,-0.01675,0.00629289));
#1077=CARTESIAN_POINT('',(0.023268372525785,-0.01675,0.00629289));
#1078=CARTESIAN_POINT('',(0.023268372525785,-0.01675,0.00629289));
#1079=CARTESIAN_POINT('',(0.023268372525785,-0.01675,0.00120711));
#1080=CARTESIAN_POINT('',(0.,-0.01675,0.00120711));
#1081=CARTESIAN_POINT('',(0.03504289,-0.01675,0.00120711));
#1082=CARTESIAN_POINT('',(0.03504289,-0.01675,0.0075));
#1083=CARTESIAN_POINT('',(0.03625,0.,0.0075));
#1084=CARTESIAN_POINT('',(0.03625,-0.01554289,0.0075));
#1085=CARTESIAN_POINT('',(0.03625,-0.01554289,0.00629289));
#1086=CARTESIAN_POINT('',(0.03625,-0.01554289,0.00120711));
#1087=CARTESIAN_POINT('',(0.03625,0.,0.00120711));
#1088=CARTESIAN_POINT('',(0.03625,0.01554289,0.00120711));
#1089=CARTESIAN_POINT('',(0.03625,0.01554289,0.0075));
#1090=CARTESIAN_POINT('',(0.03625,0.01554289,0.00629289));
#1091=CARTESIAN_POINT('',(0.03625,-0.01675,0.00629289));
#1092=CARTESIAN_POINT('',(-6.93889390390723E-18,0.01675,0.0075));
#1093=CARTESIAN_POINT('',(0.03504289,0.01675,0.));
#1094=CARTESIAN_POINT('',(0.03504289,0.01675,0.00629289));
#1095=CARTESIAN_POINT('',(0.03504289,0.01675,0.00120711));
#1096=CARTESIAN_POINT('',(0.0233267526770752,0.01675,0.00120711));
#1097=CARTESIAN_POINT('',(0.023268372525785,0.01675,0.00120711));
#1098=CARTESIAN_POINT('',(0.023268372525785,0.01675,0.00120711));
#1099=CARTESIAN_POINT('',(0.023268372525785,0.01675,0.00629289));
#1100=CARTESIAN_POINT('',(-6.93889390390723E-18,0.01675,0.00629289));
#1101=CARTESIAN_POINT('',(0.,0.,0.));
#1102=CARTESIAN_POINT('',(-0.03625,-0.01645,0.));
#1103=CARTESIAN_POINT('',(-0.03545,-0.01645,0.));
#1104=CARTESIAN_POINT('',(-0.03545,0.01725,0.));
#1105=CARTESIAN_POINT('',(-0.03545,0.01645,0.));
#1106=CARTESIAN_POINT('',(0.0233267526770752,0.01645,0.));
#1107=CARTESIAN_POINT('',(0.03625,0.01554289,0.));
#1108=CARTESIAN_POINT('',(0.03504289,0.01554289,0.));
#1109=CARTESIAN_POINT('',(0.03504289,7.25847450138184E-18,0.));
#1110=CARTESIAN_POINT('',(0.03504289,-0.01554289,0.));
#1111=CARTESIAN_POINT('',(0.,-0.01554289,0.));
#1112=CARTESIAN_POINT('',(0.0233267526770752,0.,0.008));
#1113=CARTESIAN_POINT('',(0.0233267526770752,0.,0.0072));
#1114=CARTESIAN_POINT('',(0.0233267526770752,-0.0163392981867987,0.0072));
#1115=CARTESIAN_POINT('',(0.0233267526770752,-0.01645,0.0072));
#1116=CARTESIAN_POINT('',(0.0233267526770752,-0.01645,0.008));
#1117=CARTESIAN_POINT('',(0.0233267526770752,-0.01645,0.0070892981867987));
#1118=CARTESIAN_POINT('',(0.0233267526770752,-0.01554289,0.00629289));
#1119=CARTESIAN_POINT('',(-0.00646162366146237,3.46944695195361E-18,0.008));
#1120=CARTESIAN_POINT('',(-0.00646162366146237,0.01645,0.008));
#1121=CARTESIAN_POINT('',(0.0225267526770753,0.01645,0.008));
#1122=CARTESIAN_POINT('',(-0.03545,0.01645,0.008));
#1123=CARTESIAN_POINT('',(-0.03545,-2.53494910355824E-18,0.008));
#1124=CARTESIAN_POINT('',(-0.03545,-0.01645,0.008));
#1125=CARTESIAN_POINT('',(-0.00646162366146237,-0.01645,0.008));
#1126=CARTESIAN_POINT('',(0.0225267526770753,-0.01645,0.008));
#1127=CARTESIAN_POINT('',(0.0225267526770753,3.46944695195361E-18,0.008));
#1128=CARTESIAN_POINT('',(-0.00646162366146237,-0.01725,0.004));
#1129=CARTESIAN_POINT('',(-0.00646162366146237,-0.01725,0.0072));
#1130=CARTESIAN_POINT('',(0.0225267526770753,-0.01725,0.0072));
#1131=CARTESIAN_POINT('',(-0.03545,-0.01725,0.0072));
#1132=CARTESIAN_POINT('',(-0.03545,-0.01725,0.004));
#1133=CARTESIAN_POINT('',(-0.03545,-0.01725,0.0008));
#1134=CARTESIAN_POINT('',(0.0233267526770752,-0.01725,0.0008));
#1135=CARTESIAN_POINT('',(0.0225267526770753,-0.01725,0.0008));
#1136=CARTESIAN_POINT('',(0.0225267526770753,-0.01725,0.004));
#1137=CARTESIAN_POINT('',(-0.00646162366146238,0.01725,0.004));
#1138=CARTESIAN_POINT('',(-0.00646162366146238,0.01725,0.0072));
#1139=CARTESIAN_POINT('',(-0.03545,0.01725,0.0072));
#1140=CARTESIAN_POINT('',(0.0225267526770753,0.01725,0.0072));
#1141=CARTESIAN_POINT('',(0.0225267526770753,0.01725,0.004));
#1142=CARTESIAN_POINT('',(0.0225267526770753,0.01725,0.0008));
#1143=CARTESIAN_POINT('',(-0.03625,0.01725,0.0008));
#1144=CARTESIAN_POINT('',(-0.03545,0.01725,0.0008));
#1145=CARTESIAN_POINT('',(-0.03545,0.01725,0.004));
#1146=CARTESIAN_POINT('',(-6.93889390390723E-18,0.01554289,0.00629289));
#1147=CARTESIAN_POINT('',(0.03504289,0.01554289,0.00629289));
#1148=CARTESIAN_POINT('',(0.023268372525785,0.01675,0.00629289));
#1149=CARTESIAN_POINT('',(0.023268372525785,0.01675,0.00658634255085201));
#1150=CARTESIAN_POINT('',(0.0233267526770752,0.0166436460737562,0.00686873504734749));
#1151=CARTESIAN_POINT('',(0.0233267526770752,0.01645,0.0070892981867987));
#1152=CARTESIAN_POINT('',(0.0233267526770752,0.0163392981867987,0.0072));
#1153=CARTESIAN_POINT('',(0.0233267526770752,0.0161185578346156,0.00739380165981571));
#1154=CARTESIAN_POINT('',(0.0232683725257864,0.0158362775205494,0.0075));
#1155=CARTESIAN_POINT('',(0.0232683725257864,0.01554289,0.0075));
#1156=CARTESIAN_POINT('',(0.03504289,0.01554289,0.00629289));
#1157=CARTESIAN_POINT('',(0.03504289,0.01554289,0.00629289));
#1158=CARTESIAN_POINT('',(0.03504289,0.01554289,0.00629289));
#1159=CARTESIAN_POINT('',(0.,-0.01554289,0.00629289));
#1160=CARTESIAN_POINT('',(0.0233267526770753,-0.01645,0.0070892981867987));
#1161=CARTESIAN_POINT('',(0.0233267526770753,-0.0166438016598157,0.00686855783461563));
#1162=CARTESIAN_POINT('',(0.0232683725257864,-0.01675,0.00658627752054941));
#1163=CARTESIAN_POINT('',(0.0232683725257864,-0.01675,0.00629289));
#1164=CARTESIAN_POINT('',(0.03504289,-0.01554289,0.00629289));
#1165=CARTESIAN_POINT('',(0.023268372525785,-0.01554289,0.0075));
#1166=CARTESIAN_POINT('',(0.023268372525785,-0.015836342550852,0.0075));
#1167=CARTESIAN_POINT('',(0.0233267526770752,-0.0161187350473475,0.00739364607375618));
#1168=CARTESIAN_POINT('',(0.0233267526770752,-0.0163392981867987,0.0072));
#1169=CARTESIAN_POINT('',(0.03504289,7.25847450138184E-18,0.00629289));
#1170=CARTESIAN_POINT('',(0.03504289,-0.01554289,0.00629289));
#1171=CARTESIAN_POINT('',(0.03504289,0.01554289,0.0075));
#1172=CARTESIAN_POINT('',(0.03504289,0.01554289,0.00120711));
#1173=CARTESIAN_POINT('',(0.,0.01554289,0.00120711));
#1174=CARTESIAN_POINT('',(0.0233267526770752,0.01645,0.000410701813201298));
#1175=CARTESIAN_POINT('',(0.0233267526770752,0.0166438016598157,0.000631442165384372));
#1176=CARTESIAN_POINT('',(0.0232683725257864,0.01675,0.000913722479450622));
#1177=CARTESIAN_POINT('',(0.0232683725257864,0.01675,0.00120711000000003));
#1178=CARTESIAN_POINT('',(0.03504289,0.01554289,0.00120711));
#1179=CARTESIAN_POINT('',(0.03504289,-0.01554289,0.00629289));
#1180=CARTESIAN_POINT('',(0.03504289,-0.01554289,0.00629289));
#1181=CARTESIAN_POINT('',(0.03504289,0.01554289,0.00120711));
#1182=CARTESIAN_POINT('',(0.03504289,0.01554289,0.00120711));
#1183=CARTESIAN_POINT('',(0.03504289,-0.01554289,0.0075));
#1184=CARTESIAN_POINT('',(0.03504289,-0.01554289,0.00120711));
#1185=CARTESIAN_POINT('',(0.03504289,-2.50030096129715E-19,0.00120711));
#1186=CARTESIAN_POINT('',(0.03504289,-0.01554289,0.00120711));
#1187=CARTESIAN_POINT('',(0.03504289,-0.01554289,0.00120711));
#1188=CARTESIAN_POINT('',(0.03504289,-0.01554289,0.00120711));
#1189=CARTESIAN_POINT('',(0.,-0.01554289,0.00120711));
#1190=CARTESIAN_POINT('',(0.023268372525785,-0.01675,0.00120711));
#1191=CARTESIAN_POINT('',(0.023268372525785,-0.01675,0.000913657449147985));
#1192=CARTESIAN_POINT('',(0.0233267526770752,-0.0166436460737562,0.000631264952652511));
#1193=CARTESIAN_POINT('',(0.0233267526770752,-0.01645,0.000410701813201297));
#1194=CARTESIAN_POINT('',(0.0225267526770753,0.01645,0.0072));
#1195=CARTESIAN_POINT('',(0.0225267526770753,0.01645,0.0072));
#1196=CARTESIAN_POINT('',(0.0225267526770753,0.01645,0.0072));
#1197=CARTESIAN_POINT('',(0.0225267526770753,0.01645,0.0072));
#1198=CARTESIAN_POINT('',(0.0225267526770753,0.01645,0.004));
#1199=CARTESIAN_POINT('',(0.0225267526770753,0.01645,0.0008));
#1200=CARTESIAN_POINT('',(-0.00646162366146237,0.01645,0.0072));
#1201=CARTESIAN_POINT('',(-0.03545,0.01645,0.0072));
#1202=CARTESIAN_POINT('',(0.0225267526770753,0.,0.0072));
#1203=CARTESIAN_POINT('',(0.0225267526770753,-0.01645,0.0072));
#1204=CARTESIAN_POINT('',(-0.00646162366146238,0.01645,0.0008));
#1205=CARTESIAN_POINT('',(-0.03545,0.01645,0.0008));
#1206=CARTESIAN_POINT('',(-0.03545,0.01645,0.0075));
#1207=CARTESIAN_POINT('',(-0.03545,0.01645,0.0072));
#1208=CARTESIAN_POINT('',(-0.03545,0.01645,0.0008));
#1209=CARTESIAN_POINT('',(-0.03545,0.01645,0.0072));
#1210=CARTESIAN_POINT('',(-0.03545,0.01645,0.0072));
#1211=CARTESIAN_POINT('',(0.0225267526770753,-0.01645,0.0072));
#1212=CARTESIAN_POINT('',(0.0225267526770753,-0.01645,0.0072));
#1213=CARTESIAN_POINT('',(0.0225267526770753,-0.01645,0.0072));
#1214=CARTESIAN_POINT('',(0.0225267526770753,-0.01645,0.008));
#1215=CARTESIAN_POINT('',(0.0225267526770753,-0.01645,0.0008));
#1216=CARTESIAN_POINT('',(-0.03545,0.01645,0.0008));
#1217=CARTESIAN_POINT('',(-0.03545,0.01645,0.0008));
#1218=CARTESIAN_POINT('',(-0.03545,-2.53494910355824E-18,0.0072));
#1219=CARTESIAN_POINT('',(-0.03545,-0.01645,0.0072));
#1220=CARTESIAN_POINT('',(-0.00646162366146237,-0.01645,0.0072));
#1221=CARTESIAN_POINT('',(-0.03545,-0.01645,0.0072));
#1222=CARTESIAN_POINT('',(-0.00646162366146237,-0.01645,0.0008));
#1223=CARTESIAN_POINT('',(-0.03545,-0.01645,0.0008));
#1224=CARTESIAN_POINT('',(-0.03545,-7.34279966846302E-18,0.0008));
#1225=CARTESIAN_POINT('',(-0.03545,-0.01645,0.0008));
#1226=CARTESIAN_POINT('',(-0.03545,-0.01645,0.0072));
#1227=CARTESIAN_POINT('',(-0.03545,-0.01645,0.0072));
#1228=CARTESIAN_POINT('',(-0.03545,-0.01645,0.0008));
#1229=CARTESIAN_POINT('',(-0.03545,-0.01645,0.0008));
#1230=CARTESIAN_POINT('',(-0.03545,-0.01645,0.004));
#1231=MECHANICAL_DESIGN_GEOMETRIC_PRESENTATION_REPRESENTATION('',(#643,
#49,#50,#51,#52,#53,#54,#55,#56,#57,#58,#59,#60,#61,#62,#63,#64),#1232);
#1232=(
GEOMETRIC_REPRESENTATION_CONTEXT(3)
GLOBAL_UNCERTAINTY_ASSIGNED_CONTEXT((#1233))
GLOBAL_UNIT_ASSIGNED_CONTEXT((#1236,#1235,#1234))
REPRESENTATION_CONTEXT('Part 1','TOP_LEVEL_ASSEMBLY_PART')
);
#1233=UNCERTAINTY_MEASURE_WITH_UNIT(LENGTH_MEASURE(2.E-5),#1236,
'DISTANCE_ACCURACY_VALUE','Maximum Tolerance applied to model');
#1234=(
NAMED_UNIT(*)
SI_UNIT($,.STERADIAN.)
SOLID_ANGLE_UNIT()
);
#1235=(
NAMED_UNIT(*)
PLANE_ANGLE_UNIT()
SI_UNIT($,.RADIAN.)
);
#1236=(
LENGTH_UNIT()
NAMED_UNIT(*)
SI_UNIT($,.METRE.)
);
#1237=PRODUCT_DEFINITION_SHAPE('','',#1238);
#1238=PRODUCT_DEFINITION('','',#1240,#1239);
#1239=PRODUCT_DEFINITION_CONTEXT('',#1246,'design');
#1240=PRODUCT_DEFINITION_FORMATION_WITH_SPECIFIED_SOURCE('','',#1242,
 .NOT_KNOWN.);
#1241=PRODUCT_RELATED_PRODUCT_CATEGORY('','',(#1242));
#1242=PRODUCT('Part 1','Part 1','Part 1',(#1244));
#1243=PRODUCT_CATEGORY('','');
#1244=PRODUCT_CONTEXT('',#1246,'mechanical');
#1245=APPLICATION_PROTOCOL_DEFINITION('international standard',
'ap242_managed_model_based_3d_engineering',2020,#1246);
#1246=APPLICATION_CONTEXT('managed model based 3d engineering');
ENDSEC;
END-ISO-10303-21;
