ISO-10303-21;
HEADER;
/* Generated by software containing ST-Developer
 * from STEP Tools, Inc. (www.steptools.com) 
 */
/* OPTION: using custom renumber hook */

FILE_DESCRIPTION(
/* description */ ('STEP AP242 Edition 2',
'CAx-IF Rec.Pracs.---Representation and Presentation of Product Manufa
cturing Information (PMI)---4.0---2014-10-13',
'CAx-IF Rec.Pracs.---3D Tessellated Geometry---0.4---2014-09-14','2;1',
'CAx-IF Rec.Pracs.---User Defined Attributes---1.5---2016-08-15'),
/* implementation_level */ '2;1');

FILE_NAME(
/* name */ 'books - Part 5',
/* time_stamp */ '2026-09-07T14:07:04Z',
/* author */ (''),
/* organization */ (''),
/* preprocessor_version */ 'ST-DEVELOPER v20',
/* originating_system */ 'ONSHAPE BY PTC INC, 1.220',
/* authorisation */ '  ');

FILE_SCHEMA (('AP242_MANAGED_MODEL_BASED_3D_ENGINEERING_MIM_LF { 1 0 10303 442 3 1 4 }'));
ENDSEC;

DATA;
#10=SHAPE_REPRESENTATION_RELATIONSHIP('','',#237,#11);
#11=ADVANCED_BREP_SHAPE_REPRESENTATION('',(#235),#379);
#12=CYLINDRICAL_SURFACE('',#253,0.00035);
#13=CYLINDRICAL_SURFACE('',#254,0.00035);
#14=CIRCLE('',#240,0.00035);
#15=CIRCLE('',#241,0.00035);
#16=CIRCLE('',#243,0.00035);
#17=CIRCLE('',#244,0.00035);
#18=ORIENTED_EDGE('',*,*,#78,.F.);
#19=ORIENTED_EDGE('',*,*,#79,.T.);
#20=ORIENTED_EDGE('',*,*,#80,.F.);
#21=ORIENTED_EDGE('',*,*,#81,.T.);
#22=ORIENTED_EDGE('',*,*,#82,.T.);
#23=ORIENTED_EDGE('',*,*,#83,.T.);
#24=ORIENTED_EDGE('',*,*,#84,.T.);
#25=ORIENTED_EDGE('',*,*,#85,.F.);
#26=ORIENTED_EDGE('',*,*,#86,.F.);
#27=ORIENTED_EDGE('',*,*,#87,.T.);
#28=ORIENTED_EDGE('',*,*,#88,.T.);
#29=ORIENTED_EDGE('',*,*,#89,.T.);
#30=ORIENTED_EDGE('',*,*,#90,.T.);
#31=ORIENTED_EDGE('',*,*,#91,.F.);
#32=ORIENTED_EDGE('',*,*,#92,.F.);
#33=ORIENTED_EDGE('',*,*,#93,.T.);
#34=ORIENTED_EDGE('',*,*,#82,.F.);
#35=ORIENTED_EDGE('',*,*,#94,.T.);
#36=ORIENTED_EDGE('',*,*,#92,.T.);
#37=ORIENTED_EDGE('',*,*,#95,.T.);
#38=ORIENTED_EDGE('',*,*,#90,.F.);
#39=ORIENTED_EDGE('',*,*,#96,.T.);
#40=ORIENTED_EDGE('',*,*,#78,.T.);
#41=ORIENTED_EDGE('',*,*,#97,.F.);
#42=ORIENTED_EDGE('',*,*,#80,.T.);
#43=ORIENTED_EDGE('',*,*,#98,.T.);
#44=ORIENTED_EDGE('',*,*,#88,.F.);
#45=ORIENTED_EDGE('',*,*,#99,.T.);
#46=ORIENTED_EDGE('',*,*,#100,.F.);
#47=ORIENTED_EDGE('',*,*,#101,.T.);
#48=ORIENTED_EDGE('',*,*,#83,.F.);
#49=ORIENTED_EDGE('',*,*,#95,.F.);
#50=ORIENTED_EDGE('',*,*,#91,.T.);
#51=ORIENTED_EDGE('',*,*,#97,.T.);
#52=ORIENTED_EDGE('',*,*,#87,.F.);
#53=ORIENTED_EDGE('',*,*,#102,.F.);
#54=ORIENTED_EDGE('',*,*,#86,.T.);
#55=ORIENTED_EDGE('',*,*,#103,.F.);
#56=ORIENTED_EDGE('',*,*,#104,.F.);
#57=ORIENTED_EDGE('',*,*,#102,.T.);
#58=ORIENTED_EDGE('',*,*,#85,.T.);
#59=ORIENTED_EDGE('',*,*,#105,.F.);
#60=ORIENTED_EDGE('',*,*,#106,.F.);
#61=ORIENTED_EDGE('',*,*,#103,.T.);
#62=ORIENTED_EDGE('',*,*,#84,.F.);
#63=ORIENTED_EDGE('',*,*,#101,.F.);
#64=ORIENTED_EDGE('',*,*,#107,.T.);
#65=ORIENTED_EDGE('',*,*,#105,.T.);
#66=ORIENTED_EDGE('',*,*,#104,.T.);
#67=ORIENTED_EDGE('',*,*,#106,.T.);
#68=ORIENTED_EDGE('',*,*,#107,.F.);
#69=ORIENTED_EDGE('',*,*,#100,.T.);
#70=ORIENTED_EDGE('',*,*,#89,.F.);
#71=ORIENTED_EDGE('',*,*,#98,.F.);
#72=ORIENTED_EDGE('',*,*,#79,.F.);
#73=ORIENTED_EDGE('',*,*,#96,.F.);
#74=ORIENTED_EDGE('',*,*,#93,.F.);
#75=ORIENTED_EDGE('',*,*,#94,.F.);
#76=ORIENTED_EDGE('',*,*,#81,.F.);
#77=ORIENTED_EDGE('',*,*,#99,.F.);
#78=EDGE_CURVE('',#108,#109,#128,.T.);
#79=EDGE_CURVE('',#108,#110,#14,.F.);
#80=EDGE_CURVE('',#111,#110,#129,.T.);
#81=EDGE_CURVE('',#111,#112,#15,.F.);
#82=EDGE_CURVE('',#112,#113,#130,.T.);
#83=EDGE_CURVE('',#113,#114,#131,.T.);
#84=EDGE_CURVE('',#114,#115,#132,.T.);
#85=EDGE_CURVE('',#116,#115,#133,.T.);
#86=EDGE_CURVE('',#117,#116,#134,.T.);
#87=EDGE_CURVE('',#117,#109,#135,.T.);
#88=EDGE_CURVE('',#118,#119,#136,.T.);
#89=EDGE_CURVE('',#119,#120,#16,.T.);
#90=EDGE_CURVE('',#120,#121,#137,.T.);
#91=EDGE_CURVE('',#122,#121,#138,.T.);
#92=EDGE_CURVE('',#123,#122,#139,.T.);
#93=EDGE_CURVE('',#123,#118,#17,.T.);
#94=EDGE_CURVE('',#112,#123,#140,.F.);
#95=EDGE_CURVE('',#122,#113,#141,.T.);
#96=EDGE_CURVE('',#120,#108,#142,.T.);
#97=EDGE_CURVE('',#121,#109,#143,.T.);
#98=EDGE_CURVE('',#110,#119,#144,.F.);
#99=EDGE_CURVE('',#118,#111,#145,.T.);
#100=EDGE_CURVE('',#124,#125,#146,.T.);
#101=EDGE_CURVE('',#124,#114,#147,.T.);
#102=EDGE_CURVE('',#125,#117,#148,.T.);
#103=EDGE_CURVE('',#126,#116,#149,.T.);
#104=EDGE_CURVE('',#125,#126,#150,.T.);
#105=EDGE_CURVE('',#127,#115,#151,.T.);
#106=EDGE_CURVE('',#126,#127,#152,.T.);
#107=EDGE_CURVE('',#124,#127,#153,.T.);
#108=VERTEX_POINT('',#318);
#109=VERTEX_POINT('',#319);
#110=VERTEX_POINT('',#321);
#111=VERTEX_POINT('',#323);
#112=VERTEX_POINT('',#325);
#113=VERTEX_POINT('',#327);
#114=VERTEX_POINT('',#329);
#115=VERTEX_POINT('',#331);
#116=VERTEX_POINT('',#333);
#117=VERTEX_POINT('',#335);
#118=VERTEX_POINT('',#339);
#119=VERTEX_POINT('',#340);
#120=VERTEX_POINT('',#342);
#121=VERTEX_POINT('',#344);
#122=VERTEX_POINT('',#346);
#123=VERTEX_POINT('',#348);
#124=VERTEX_POINT('',#361);
#125=VERTEX_POINT('',#362);
#126=VERTEX_POINT('',#367);
#127=VERTEX_POINT('',#371);
#128=LINE('',#317,#154);
#129=LINE('',#322,#155);
#130=LINE('',#326,#156);
#131=LINE('',#328,#157);
#132=LINE('',#330,#158);
#133=LINE('',#332,#159);
#134=LINE('',#334,#160);
#135=LINE('',#336,#161);
#136=LINE('',#338,#162);
#137=LINE('',#343,#163);
#138=LINE('',#345,#164);
#139=LINE('',#347,#165);
#140=LINE('',#351,#166);
#141=LINE('',#352,#167);
#142=LINE('',#354,#168);
#143=LINE('',#355,#169);
#144=LINE('',#357,#170);
#145=LINE('',#358,#171);
#146=LINE('',#360,#172);
#147=LINE('',#363,#173);
#148=LINE('',#364,#174);
#149=LINE('',#366,#175);
#150=LINE('',#368,#176);
#151=LINE('',#370,#177);
#152=LINE('',#372,#178);
#153=LINE('',#374,#179);
#154=VECTOR('',#259,1.);
#155=VECTOR('',#262,1.);
#156=VECTOR('',#265,1.);
#157=VECTOR('',#266,1.);
#158=VECTOR('',#267,1.);
#159=VECTOR('',#268,1.);
#160=VECTOR('',#269,1.);
#161=VECTOR('',#270,1.);
#162=VECTOR('',#273,1.);
#163=VECTOR('',#276,1.);
#164=VECTOR('',#277,1.);
#165=VECTOR('',#278,1.);
#166=VECTOR('',#283,1.);
#167=VECTOR('',#284,1.);
#168=VECTOR('',#287,1.);
#169=VECTOR('',#288,1.);
#170=VECTOR('',#291,1.);
#171=VECTOR('',#292,1.);
#172=VECTOR('',#295,1.);
#173=VECTOR('',#296,1.);
#174=VECTOR('',#297,1.);
#175=VECTOR('',#300,1.);
#176=VECTOR('',#301,1.);
#177=VECTOR('',#304,1.);
#178=VECTOR('',#305,1.);
#179=VECTOR('',#308,1.);
#180=EDGE_LOOP('',(#18,#19,#20,#21,#22,#23,#24,#25,#26,#27));
#181=EDGE_LOOP('',(#28,#29,#30,#31,#32,#33));
#182=EDGE_LOOP('',(#34,#35,#36,#37));
#183=EDGE_LOOP('',(#38,#39,#40,#41));
#184=EDGE_LOOP('',(#42,#43,#44,#45));
#185=EDGE_LOOP('',(#46,#47,#48,#49,#50,#51,#52,#53));
#186=EDGE_LOOP('',(#54,#55,#56,#57));
#187=EDGE_LOOP('',(#58,#59,#60,#61));
#188=EDGE_LOOP('',(#62,#63,#64,#65));
#189=EDGE_LOOP('',(#66,#67,#68,#69));
#190=EDGE_LOOP('',(#70,#71,#72,#73));
#191=EDGE_LOOP('',(#74,#75,#76,#77));
#192=FACE_BOUND('',#180,.T.);
#193=FACE_BOUND('',#181,.T.);
#194=FACE_BOUND('',#182,.T.);
#195=FACE_BOUND('',#183,.T.);
#196=FACE_BOUND('',#184,.T.);
#197=FACE_BOUND('',#185,.T.);
#198=FACE_BOUND('',#186,.T.);
#199=FACE_BOUND('',#187,.T.);
#200=FACE_BOUND('',#188,.T.);
#201=FACE_BOUND('',#189,.T.);
#202=FACE_BOUND('',#190,.T.);
#203=FACE_BOUND('',#191,.T.);
#204=PLANE('',#239);
#205=PLANE('',#242);
#206=PLANE('',#245);
#207=PLANE('',#246);
#208=PLANE('',#247);
#209=PLANE('',#248);
#210=PLANE('',#249);
#211=PLANE('',#250);
#212=PLANE('',#251);
#213=PLANE('',#252);
#214=ADVANCED_FACE('',(#192),#204,.F.);
#215=ADVANCED_FACE('',(#193),#205,.T.);
#216=ADVANCED_FACE('',(#194),#206,.F.);
#217=ADVANCED_FACE('',(#195),#207,.T.);
#218=ADVANCED_FACE('',(#196),#208,.T.);
#219=ADVANCED_FACE('',(#197),#209,.F.);
#220=ADVANCED_FACE('',(#198),#210,.F.);
#221=ADVANCED_FACE('',(#199),#211,.F.);
#222=ADVANCED_FACE('',(#200),#212,.T.);
#223=ADVANCED_FACE('',(#201),#213,.T.);
#224=ADVANCED_FACE('',(#202),#12,.T.);
#225=ADVANCED_FACE('',(#203),#13,.T.);
#226=CLOSED_SHELL('',(#214,#215,#216,#217,#218,#219,#220,#221,#222,#223,
#224,#225));
#227=STYLED_ITEM('',(#228),#235);
#228=PRESENTATION_STYLE_ASSIGNMENT((#229));
#229=SURFACE_STYLE_USAGE(.BOTH.,#230);
#230=SURFACE_SIDE_STYLE('',(#231));
#231=SURFACE_STYLE_FILL_AREA(#232);
#232=FILL_AREA_STYLE('',(#233));
#233=FILL_AREA_STYLE_COLOUR('',#234);
#234=COLOUR_RGB('',0.6,0.352941176470589,0.0549019607843137);
#235=MANIFOLD_SOLID_BREP('Part 5',#226);
#236=SHAPE_DEFINITION_REPRESENTATION(#384,#237);
#237=SHAPE_REPRESENTATION('Part 5',(#238),#379);
#238=AXIS2_PLACEMENT_3D('',#315,#255,#256);
#239=AXIS2_PLACEMENT_3D('',#316,#257,#258);
#240=AXIS2_PLACEMENT_3D('',#320,#260,#261);
#241=AXIS2_PLACEMENT_3D('',#324,#263,#264);
#242=AXIS2_PLACEMENT_3D('',#337,#271,#272);
#243=AXIS2_PLACEMENT_3D('',#341,#274,#275);
#244=AXIS2_PLACEMENT_3D('',#349,#279,#280);
#245=AXIS2_PLACEMENT_3D('',#350,#281,#282);
#246=AXIS2_PLACEMENT_3D('',#353,#285,#286);
#247=AXIS2_PLACEMENT_3D('',#356,#289,#290);
#248=AXIS2_PLACEMENT_3D('',#359,#293,#294);
#249=AXIS2_PLACEMENT_3D('',#365,#298,#299);
#250=AXIS2_PLACEMENT_3D('',#369,#302,#303);
#251=AXIS2_PLACEMENT_3D('',#373,#306,#307);
#252=AXIS2_PLACEMENT_3D('',#375,#309,#310);
#253=AXIS2_PLACEMENT_3D('',#376,#311,#312);
#254=AXIS2_PLACEMENT_3D('',#377,#313,#314);
#255=DIRECTION('',(0.,0.,1.));
#256=DIRECTION('',(1.,0.,0.));
#257=DIRECTION('',(0.,0.,-1.));
#258=DIRECTION('',(-1.,0.,0.));
#259=DIRECTION('',(0.,1.,0.));
#260=DIRECTION('',(0.,0.,-1.));
#261=DIRECTION('',(-1.,0.,0.));
#262=DIRECTION('',(-1.,0.,0.));
#263=DIRECTION('',(0.,0.,-1.));
#264=DIRECTION('',(-1.,0.,0.));
#265=DIRECTION('',(0.,1.,0.));
#266=DIRECTION('',(-1.,0.,0.));
#267=DIRECTION('',(0.,-1.,0.));
#268=DIRECTION('',(1.,0.,0.));
#269=DIRECTION('',(0.,-1.,0.));
#270=DIRECTION('',(-1.,0.,0.));
#271=DIRECTION('',(0.,0.,-1.));
#272=DIRECTION('',(-1.,0.,0.));
#273=DIRECTION('',(-1.,0.,0.));
#274=DIRECTION('',(0.,0.,-1.));
#275=DIRECTION('',(-1.,0.,0.));
#276=DIRECTION('',(0.,1.,0.));
#277=DIRECTION('',(-1.,0.,0.));
#278=DIRECTION('',(0.,1.,0.));
#279=DIRECTION('',(0.,0.,-1.));
#280=DIRECTION('',(-1.,0.,0.));
#281=DIRECTION('',(-1.,0.,0.));
#282=DIRECTION('',(0.,0.,1.));
#283=DIRECTION('',(0.,0.,1.));
#284=DIRECTION('',(0.,0.,1.));
#285=DIRECTION('',(-1.,0.,0.));
#286=DIRECTION('',(0.,0.,1.));
#287=DIRECTION('',(0.,0.,1.));
#288=DIRECTION('',(0.,0.,1.));
#289=DIRECTION('',(0.,-1.,0.));
#290=DIRECTION('',(1.,0.,0.));
#291=DIRECTION('',(0.,0.,1.));
#292=DIRECTION('',(0.,0.,1.));
#293=DIRECTION('',(0.,-1.,0.));
#294=DIRECTION('',(1.,0.,0.));
#295=DIRECTION('',(-1.,0.,0.));
#296=DIRECTION('',(0.,0.,1.));
#297=DIRECTION('',(0.,0.,1.));
#298=DIRECTION('',(-1.,0.,0.));
#299=DIRECTION('',(0.,0.,1.));
#300=DIRECTION('',(0.,0.,1.));
#301=DIRECTION('',(0.,-1.,0.));
#302=DIRECTION('',(0.,-1.,0.));
#303=DIRECTION('',(0.,0.,-1.));
#304=DIRECTION('',(0.,0.,1.));
#305=DIRECTION('',(1.,0.,0.));
#306=DIRECTION('',(-1.,0.,0.));
#307=DIRECTION('',(0.,0.,1.));
#308=DIRECTION('',(0.,-1.,0.));
#309=DIRECTION('',(0.,0.,1.));
#310=DIRECTION('',(1.,0.,0.));
#311=DIRECTION('',(0.,0.,1.));
#312=DIRECTION('',(1.,0.,0.));
#313=DIRECTION('',(0.,0.,-1.));
#314=DIRECTION('',(-1.,0.,0.));
#315=CARTESIAN_POINT('',(0.,0.,0.));
#316=CARTESIAN_POINT('',(-0.0132392655126749,-0.00903,0.0108805666677654));
#317=CARTESIAN_POINT('',(-0.0138533646240829,-0.00903,0.0108805666677655));
#318=CARTESIAN_POINT('',(-0.0138533646240829,-0.00868,0.0108805666677655));
#319=CARTESIAN_POINT('',(-0.0138533646240829,0.,0.0108805666677655));
#320=CARTESIAN_POINT('',(-0.0135033646240829,-0.00868,0.0108805666677654));
#321=CARTESIAN_POINT('',(-0.0135033646240829,-0.00903,0.0108805666677654));
#322=CARTESIAN_POINT('',(-0.0132392655126749,-0.00903,0.0108805666677654));
#323=CARTESIAN_POINT('',(-0.0129751664012669,-0.00903,0.0108805666677654));
#324=CARTESIAN_POINT('',(-0.0129751664012669,-0.00868,0.0108805666677654));
#325=CARTESIAN_POINT('',(-0.0126251664012669,-0.00868,0.0108805666677654));
#326=CARTESIAN_POINT('',(-0.0126251664012669,-0.00903,0.0108805666677654));
#327=CARTESIAN_POINT('',(-0.0126251664012669,0.,0.0108805666677654));
#328=CARTESIAN_POINT('',(-0.0132392655126749,0.,0.0108805666677654));
#329=CARTESIAN_POINT('',(-0.0128347253426908,0.,0.0108805666677654));
#330=CARTESIAN_POINT('',(-0.0128347253426908,-0.00676966141909361,0.0108805666677654));
#331=CARTESIAN_POINT('',(-0.0128347253426908,-0.0086695296689868,0.0108805666677654));
#332=CARTESIAN_POINT('',(-0.0132392655126749,-0.0086695296689868,0.0108805666677654));
#333=CARTESIAN_POINT('',(-0.013643805682659,-0.0086695296689868,0.0108805666677654));
#334=CARTESIAN_POINT('',(-0.013643805682659,-0.00239651543088257,0.0108805666677654));
#335=CARTESIAN_POINT('',(-0.013643805682659,0.,0.0108805666677654));
#336=CARTESIAN_POINT('',(-0.0132392655126749,0.,0.0108805666677654));
#337=CARTESIAN_POINT('',(-0.0132392655126749,-0.00903,0.));
#338=CARTESIAN_POINT('',(-0.0132392655126749,-0.00903,0.));
#339=CARTESIAN_POINT('',(-0.0129751664012669,-0.00903,0.));
#340=CARTESIAN_POINT('',(-0.0135033646240829,-0.00903,0.));
#341=CARTESIAN_POINT('',(-0.0135033646240829,-0.00868,0.));
#342=CARTESIAN_POINT('',(-0.0138533646240829,-0.00868,0.));
#343=CARTESIAN_POINT('',(-0.0138533646240829,-0.00903,0.));
#344=CARTESIAN_POINT('',(-0.0138533646240829,0.,0.));
#345=CARTESIAN_POINT('',(-0.0132392655126749,0.,0.));
#346=CARTESIAN_POINT('',(-0.0126251664012669,0.,0.));
#347=CARTESIAN_POINT('',(-0.0126251664012669,-0.00903,0.));
#348=CARTESIAN_POINT('',(-0.0126251664012669,-0.00868,0.));
#349=CARTESIAN_POINT('',(-0.0129751664012669,-0.00868,0.));
#350=CARTESIAN_POINT('',(-0.0126251664012669,-0.00903,0.00544028333388275));
#351=CARTESIAN_POINT('',(-0.0126251664012669,-0.00868,0.));
#352=CARTESIAN_POINT('',(-0.0126251664012669,0.,0.00544028333388275));
#353=CARTESIAN_POINT('',(-0.0138533646240829,-0.00903,0.00544028333388275));
#354=CARTESIAN_POINT('',(-0.0138533646240829,-0.00868,0.00544028333388275));
#355=CARTESIAN_POINT('',(-0.0138533646240829,0.,0.00544028333388275));
#356=CARTESIAN_POINT('',(-0.0152621475979685,-0.00903,0.00544028333388275));
#357=CARTESIAN_POINT('',(-0.0135033646240829,-0.00903,0.00544028333388275));
#358=CARTESIAN_POINT('',(-0.0129751664012669,-0.00903,0.0108805666677654));
#359=CARTESIAN_POINT('',(-0.0152621475979685,0.,0.00544028333388275));
#360=CARTESIAN_POINT('',(-0.0132392655126749,0.,0.0108105666677654));
#361=CARTESIAN_POINT('',(-0.0128347253426908,0.,0.0108105666677654));
#362=CARTESIAN_POINT('',(-0.013643805682659,0.,0.0108105666677654));
#363=CARTESIAN_POINT('',(-0.0128347253426908,0.,0.0108105666677654));
#364=CARTESIAN_POINT('',(-0.013643805682659,0.,0.0108105666677654));
#365=CARTESIAN_POINT('',(-0.013643805682659,-0.00239651543088257,0.0108105666677654));
#366=CARTESIAN_POINT('',(-0.013643805682659,-0.0086695296689868,0.0108105666677654));
#367=CARTESIAN_POINT('',(-0.013643805682659,-0.0086695296689868,0.0108105666677654));
#368=CARTESIAN_POINT('',(-0.013643805682659,-0.00239651543088257,0.0108105666677654));
#369=CARTESIAN_POINT('',(-0.0132392655126749,-0.0086695296689868,0.0108105666677654));
#370=CARTESIAN_POINT('',(-0.0128347253426908,-0.0086695296689868,0.0108105666677654));
#371=CARTESIAN_POINT('',(-0.0128347253426908,-0.0086695296689868,0.0108105666677654));
#372=CARTESIAN_POINT('',(-0.0132392655126749,-0.0086695296689868,0.0108105666677654));
#373=CARTESIAN_POINT('',(-0.0128347253426908,-0.00676966141909361,0.0108105666677654));
#374=CARTESIAN_POINT('',(-0.0128347253426908,-0.00676966141909361,0.0108105666677654));
#375=CARTESIAN_POINT('',(-0.0132392655126749,-0.004515,0.0108105666677654));
#376=CARTESIAN_POINT('',(-0.0135033646240829,-0.00868,0.00544028333388275));
#377=CARTESIAN_POINT('',(-0.0129751664012669,-0.00868,0.00544028333388275));
#378=MECHANICAL_DESIGN_GEOMETRIC_PRESENTATION_REPRESENTATION('',(#227),
#379);
#379=(
GEOMETRIC_REPRESENTATION_CONTEXT(3)
GLOBAL_UNCERTAINTY_ASSIGNED_CONTEXT((#380))
GLOBAL_UNIT_ASSIGNED_CONTEXT((#383,#382,#381))
REPRESENTATION_CONTEXT('Part 5','TOP_LEVEL_ASSEMBLY_PART')
);
#380=UNCERTAINTY_MEASURE_WITH_UNIT(LENGTH_MEASURE(1.E-8),#383,
'DISTANCE_ACCURACY_VALUE','Maximum Tolerance applied to model');
#381=(
NAMED_UNIT(*)
SI_UNIT($,.STERADIAN.)
SOLID_ANGLE_UNIT()
);
#382=(
NAMED_UNIT(*)
PLANE_ANGLE_UNIT()
SI_UNIT($,.RADIAN.)
);
#383=(
LENGTH_UNIT()
NAMED_UNIT(*)
SI_UNIT($,.METRE.)
);
#384=PRODUCT_DEFINITION_SHAPE('','',#385);
#385=PRODUCT_DEFINITION('','',#387,#386);
#386=PRODUCT_DEFINITION_CONTEXT('',#393,'design');
#387=PRODUCT_DEFINITION_FORMATION_WITH_SPECIFIED_SOURCE('','',#389,
 .NOT_KNOWN.);
#388=PRODUCT_RELATED_PRODUCT_CATEGORY('','',(#389));
#389=PRODUCT('Part 5','Part 5','Part 5',(#391));
#390=PRODUCT_CATEGORY('','');
#391=PRODUCT_CONTEXT('',#393,'mechanical');
#392=APPLICATION_PROTOCOL_DEFINITION('international standard',
'ap242_managed_model_based_3d_engineering',2020,#393);
#393=APPLICATION_CONTEXT('managed model based 3d engineering');
ENDSEC;
END-ISO-10303-21;
