ISO-10303-21;
HEADER;
/* Generated by software containing ST-Developer
 * from STEP Tools, Inc. (www.steptools.com) 
 */
/* OPTION: using custom renumber hook */

FILE_DESCRIPTION(
/* description */ ('STEP AP242 Edition 2',
'CAx-IF Rec.Pracs.---Representation and Presentation of Product Manufa
cturing Information (PMI)---4.0---2014-10-13',
'CAx-IF Rec.Pracs.---3D Tessellated Geometry---0.4---2014-09-14','2;1',
'CAx-IF Rec.Pracs.---User Defined Attributes---1.5---2016-08-15'),
/* implementation_level */ '2;1');

FILE_NAME(
/* name */ 'books - Part 6',
/* time_stamp */ '2026-09-07T14:07:04Z',
/* author */ (''),
/* organization */ (''),
/* preprocessor_version */ 'ST-DEVELOPER v20',
/* originating_system */ 'ONSHAPE BY PTC INC, 1.220',
/* authorisation */ '  ');

FILE_SCHEMA (('AP242_MANAGED_MODEL_BASED_3D_ENGINEERING_MIM_LF { 1 0 10303 442 3 1 4 }'));
ENDSEC;

DATA;
#10=SHAPE_REPRESENTATION_RELATIONSHIP('','',#237,#11);
#11=ADVANCED_BREP_SHAPE_REPRESENTATION('',(#235),#379);
#12=CYLINDRICAL_SURFACE('',#253,0.00035);
#13=CYLINDRICAL_SURFACE('',#254,0.00035);
#14=CIRCLE('',#241,0.00035);
#15=CIRCLE('',#242,0.00035);
#16=CIRCLE('',#245,0.00035);
#17=CIRCLE('',#246,0.00035);
#18=ORIENTED_EDGE('',*,*,#78,.F.);
#19=ORIENTED_EDGE('',*,*,#79,.T.);
#20=ORIENTED_EDGE('',*,*,#80,.T.);
#21=ORIENTED_EDGE('',*,*,#81,.F.);
#22=ORIENTED_EDGE('',*,*,#82,.F.);
#23=ORIENTED_EDGE('',*,*,#83,.T.);
#24=ORIENTED_EDGE('',*,*,#84,.F.);
#25=ORIENTED_EDGE('',*,*,#85,.T.);
#26=ORIENTED_EDGE('',*,*,#78,.T.);
#27=ORIENTED_EDGE('',*,*,#86,.T.);
#28=ORIENTED_EDGE('',*,*,#87,.F.);
#29=ORIENTED_EDGE('',*,*,#88,.T.);
#30=ORIENTED_EDGE('',*,*,#82,.T.);
#31=ORIENTED_EDGE('',*,*,#89,.T.);
#32=ORIENTED_EDGE('',*,*,#90,.T.);
#33=ORIENTED_EDGE('',*,*,#91,.T.);
#34=ORIENTED_EDGE('',*,*,#87,.T.);
#35=ORIENTED_EDGE('',*,*,#92,.F.);
#36=ORIENTED_EDGE('',*,*,#93,.T.);
#37=ORIENTED_EDGE('',*,*,#94,.F.);
#38=ORIENTED_EDGE('',*,*,#95,.F.);
#39=ORIENTED_EDGE('',*,*,#96,.F.);
#40=ORIENTED_EDGE('',*,*,#80,.F.);
#41=ORIENTED_EDGE('',*,*,#97,.T.);
#42=ORIENTED_EDGE('',*,*,#84,.T.);
#43=ORIENTED_EDGE('',*,*,#98,.T.);
#44=ORIENTED_EDGE('',*,*,#90,.F.);
#45=ORIENTED_EDGE('',*,*,#99,.T.);
#46=ORIENTED_EDGE('',*,*,#100,.T.);
#47=ORIENTED_EDGE('',*,*,#101,.T.);
#48=ORIENTED_EDGE('',*,*,#92,.T.);
#49=ORIENTED_EDGE('',*,*,#89,.F.);
#50=ORIENTED_EDGE('',*,*,#86,.F.);
#51=ORIENTED_EDGE('',*,*,#81,.T.);
#52=ORIENTED_EDGE('',*,*,#96,.T.);
#53=ORIENTED_EDGE('',*,*,#102,.F.);
#54=ORIENTED_EDGE('',*,*,#95,.T.);
#55=ORIENTED_EDGE('',*,*,#103,.F.);
#56=ORIENTED_EDGE('',*,*,#104,.F.);
#57=ORIENTED_EDGE('',*,*,#102,.T.);
#58=ORIENTED_EDGE('',*,*,#94,.T.);
#59=ORIENTED_EDGE('',*,*,#105,.F.);
#60=ORIENTED_EDGE('',*,*,#106,.F.);
#61=ORIENTED_EDGE('',*,*,#103,.T.);
#62=ORIENTED_EDGE('',*,*,#93,.F.);
#63=ORIENTED_EDGE('',*,*,#101,.F.);
#64=ORIENTED_EDGE('',*,*,#107,.T.);
#65=ORIENTED_EDGE('',*,*,#105,.T.);
#66=ORIENTED_EDGE('',*,*,#104,.T.);
#67=ORIENTED_EDGE('',*,*,#106,.T.);
#68=ORIENTED_EDGE('',*,*,#107,.F.);
#69=ORIENTED_EDGE('',*,*,#100,.F.);
#70=ORIENTED_EDGE('',*,*,#83,.F.);
#71=ORIENTED_EDGE('',*,*,#88,.F.);
#72=ORIENTED_EDGE('',*,*,#91,.F.);
#73=ORIENTED_EDGE('',*,*,#98,.F.);
#74=ORIENTED_EDGE('',*,*,#85,.F.);
#75=ORIENTED_EDGE('',*,*,#99,.F.);
#76=ORIENTED_EDGE('',*,*,#97,.F.);
#77=ORIENTED_EDGE('',*,*,#79,.F.);
#78=EDGE_CURVE('',#108,#109,#128,.T.);
#79=EDGE_CURVE('',#108,#110,#129,.T.);
#80=EDGE_CURVE('',#110,#111,#130,.T.);
#81=EDGE_CURVE('',#109,#111,#131,.T.);
#82=EDGE_CURVE('',#112,#113,#132,.T.);
#83=EDGE_CURVE('',#112,#114,#14,.F.);
#84=EDGE_CURVE('',#115,#114,#133,.T.);
#85=EDGE_CURVE('',#115,#108,#15,.F.);
#86=EDGE_CURVE('',#109,#113,#134,.T.);
#87=EDGE_CURVE('',#116,#117,#135,.T.);
#88=EDGE_CURVE('',#116,#112,#136,.F.);
#89=EDGE_CURVE('',#113,#117,#137,.T.);
#90=EDGE_CURVE('',#118,#119,#138,.T.);
#91=EDGE_CURVE('',#119,#116,#16,.T.);
#92=EDGE_CURVE('',#120,#117,#139,.T.);
#93=EDGE_CURVE('',#120,#121,#140,.T.);
#94=EDGE_CURVE('',#122,#121,#141,.T.);
#95=EDGE_CURVE('',#123,#122,#142,.T.);
#96=EDGE_CURVE('',#111,#123,#143,.T.);
#97=EDGE_CURVE('',#110,#118,#17,.T.);
#98=EDGE_CURVE('',#114,#119,#144,.T.);
#99=EDGE_CURVE('',#118,#115,#145,.F.);
#100=EDGE_CURVE('',#124,#125,#146,.T.);
#101=EDGE_CURVE('',#125,#120,#147,.T.);
#102=EDGE_CURVE('',#124,#123,#148,.T.);
#103=EDGE_CURVE('',#126,#122,#149,.T.);
#104=EDGE_CURVE('',#124,#126,#150,.T.);
#105=EDGE_CURVE('',#127,#121,#151,.T.);
#106=EDGE_CURVE('',#126,#127,#152,.T.);
#107=EDGE_CURVE('',#125,#127,#153,.T.);
#108=VERTEX_POINT('',#318);
#109=VERTEX_POINT('',#319);
#110=VERTEX_POINT('',#321);
#111=VERTEX_POINT('',#323);
#112=VERTEX_POINT('',#327);
#113=VERTEX_POINT('',#328);
#114=VERTEX_POINT('',#330);
#115=VERTEX_POINT('',#332);
#116=VERTEX_POINT('',#337);
#117=VERTEX_POINT('',#338);
#118=VERTEX_POINT('',#343);
#119=VERTEX_POINT('',#344);
#120=VERTEX_POINT('',#347);
#121=VERTEX_POINT('',#349);
#122=VERTEX_POINT('',#351);
#123=VERTEX_POINT('',#353);
#124=VERTEX_POINT('',#361);
#125=VERTEX_POINT('',#362);
#126=VERTEX_POINT('',#367);
#127=VERTEX_POINT('',#371);
#128=LINE('',#317,#154);
#129=LINE('',#320,#155);
#130=LINE('',#322,#156);
#131=LINE('',#324,#157);
#132=LINE('',#326,#158);
#133=LINE('',#331,#159);
#134=LINE('',#334,#160);
#135=LINE('',#336,#161);
#136=LINE('',#339,#162);
#137=LINE('',#340,#163);
#138=LINE('',#342,#164);
#139=LINE('',#346,#165);
#140=LINE('',#348,#166);
#141=LINE('',#350,#167);
#142=LINE('',#352,#168);
#143=LINE('',#354,#169);
#144=LINE('',#357,#170);
#145=LINE('',#358,#171);
#146=LINE('',#360,#172);
#147=LINE('',#363,#173);
#148=LINE('',#364,#174);
#149=LINE('',#366,#175);
#150=LINE('',#368,#176);
#151=LINE('',#370,#177);
#152=LINE('',#372,#178);
#153=LINE('',#374,#179);
#154=VECTOR('',#259,1.);
#155=VECTOR('',#260,1.);
#156=VECTOR('',#261,1.);
#157=VECTOR('',#262,1.);
#158=VECTOR('',#265,1.);
#159=VECTOR('',#268,1.);
#160=VECTOR('',#271,1.);
#161=VECTOR('',#274,1.);
#162=VECTOR('',#275,1.);
#163=VECTOR('',#276,1.);
#164=VECTOR('',#279,1.);
#165=VECTOR('',#282,1.);
#166=VECTOR('',#283,1.);
#167=VECTOR('',#284,1.);
#168=VECTOR('',#285,1.);
#169=VECTOR('',#286,1.);
#170=VECTOR('',#291,1.);
#171=VECTOR('',#292,1.);
#172=VECTOR('',#295,1.);
#173=VECTOR('',#296,1.);
#174=VECTOR('',#297,1.);
#175=VECTOR('',#300,1.);
#176=VECTOR('',#301,1.);
#177=VECTOR('',#304,1.);
#178=VECTOR('',#305,1.);
#179=VECTOR('',#308,1.);
#180=EDGE_LOOP('',(#18,#19,#20,#21));
#181=EDGE_LOOP('',(#22,#23,#24,#25,#26,#27));
#182=EDGE_LOOP('',(#28,#29,#30,#31));
#183=EDGE_LOOP('',(#32,#33,#34,#35,#36,#37,#38,#39,#40,#41));
#184=EDGE_LOOP('',(#42,#43,#44,#45));
#185=EDGE_LOOP('',(#46,#47,#48,#49,#50,#51,#52,#53));
#186=EDGE_LOOP('',(#54,#55,#56,#57));
#187=EDGE_LOOP('',(#58,#59,#60,#61));
#188=EDGE_LOOP('',(#62,#63,#64,#65));
#189=EDGE_LOOP('',(#66,#67,#68,#69));
#190=EDGE_LOOP('',(#70,#71,#72,#73));
#191=EDGE_LOOP('',(#74,#75,#76,#77));
#192=FACE_BOUND('',#180,.T.);
#193=FACE_BOUND('',#181,.T.);
#194=FACE_BOUND('',#182,.T.);
#195=FACE_BOUND('',#183,.T.);
#196=FACE_BOUND('',#184,.T.);
#197=FACE_BOUND('',#185,.T.);
#198=FACE_BOUND('',#186,.T.);
#199=FACE_BOUND('',#187,.T.);
#200=FACE_BOUND('',#188,.T.);
#201=FACE_BOUND('',#189,.T.);
#202=FACE_BOUND('',#190,.T.);
#203=FACE_BOUND('',#191,.T.);
#204=PLANE('',#239);
#205=PLANE('',#240);
#206=PLANE('',#243);
#207=PLANE('',#244);
#208=PLANE('',#247);
#209=PLANE('',#248);
#210=PLANE('',#249);
#211=PLANE('',#250);
#212=PLANE('',#251);
#213=PLANE('',#252);
#214=ADVANCED_FACE('',(#192),#204,.T.);
#215=ADVANCED_FACE('',(#193),#205,.F.);
#216=ADVANCED_FACE('',(#194),#206,.F.);
#217=ADVANCED_FACE('',(#195),#207,.T.);
#218=ADVANCED_FACE('',(#196),#208,.T.);
#219=ADVANCED_FACE('',(#197),#209,.F.);
#220=ADVANCED_FACE('',(#198),#210,.F.);
#221=ADVANCED_FACE('',(#199),#211,.F.);
#222=ADVANCED_FACE('',(#200),#212,.T.);
#223=ADVANCED_FACE('',(#201),#213,.T.);
#224=ADVANCED_FACE('',(#202),#12,.T.);
#225=ADVANCED_FACE('',(#203),#13,.T.);
#226=CLOSED_SHELL('',(#214,#215,#216,#217,#218,#219,#220,#221,#222,#223,
#224,#225));
#227=STYLED_ITEM('',(#228),#235);
#228=PRESENTATION_STYLE_ASSIGNMENT((#229));
#229=SURFACE_STYLE_USAGE(.BOTH.,#230);
#230=SURFACE_SIDE_STYLE('',(#231));
#231=SURFACE_STYLE_FILL_AREA(#232);
#232=FILL_AREA_STYLE('',(#233));
#233=FILL_AREA_STYLE_COLOUR('',#234);
#234=COLOUR_RGB('',0.909803921568627,0.572549019607843,0.164705882352941);
#235=MANIFOLD_SOLID_BREP('Part 6',#226);
#236=SHAPE_DEFINITION_REPRESENTATION(#384,#237);
#237=SHAPE_REPRESENTATION('Part 6',(#238),#379);
#238=AXIS2_PLACEMENT_3D('',#315,#255,#256);
#239=AXIS2_PLACEMENT_3D('',#316,#257,#258);
#240=AXIS2_PLACEMENT_3D('',#325,#263,#264);
#241=AXIS2_PLACEMENT_3D('',#329,#266,#267);
#242=AXIS2_PLACEMENT_3D('',#333,#269,#270);
#243=AXIS2_PLACEMENT_3D('',#335,#272,#273);
#244=AXIS2_PLACEMENT_3D('',#341,#277,#278);
#245=AXIS2_PLACEMENT_3D('',#345,#280,#281);
#246=AXIS2_PLACEMENT_3D('',#355,#287,#288);
#247=AXIS2_PLACEMENT_3D('',#356,#289,#290);
#248=AXIS2_PLACEMENT_3D('',#359,#293,#294);
#249=AXIS2_PLACEMENT_3D('',#365,#298,#299);
#250=AXIS2_PLACEMENT_3D('',#369,#302,#303);
#251=AXIS2_PLACEMENT_3D('',#373,#306,#307);
#252=AXIS2_PLACEMENT_3D('',#375,#309,#310);
#253=AXIS2_PLACEMENT_3D('',#376,#311,#312);
#254=AXIS2_PLACEMENT_3D('',#377,#313,#314);
#255=DIRECTION('',(0.,0.,1.));
#256=DIRECTION('',(1.,0.,0.));
#257=DIRECTION('',(-1.,0.,0.));
#258=DIRECTION('',(0.,0.,1.));
#259=DIRECTION('',(0.,1.,0.));
#260=DIRECTION('',(0.,0.,1.));
#261=DIRECTION('',(0.,1.,0.));
#262=DIRECTION('',(0.,0.,1.));
#263=DIRECTION('',(0.,0.,1.));
#264=DIRECTION('',(1.,0.,0.));
#265=DIRECTION('',(0.,1.,0.));
#266=DIRECTION('',(0.,0.,1.));
#267=DIRECTION('',(1.,0.,0.));
#268=DIRECTION('',(1.,0.,0.));
#269=DIRECTION('',(0.,0.,1.));
#270=DIRECTION('',(1.,0.,0.));
#271=DIRECTION('',(1.,0.,0.));
#272=DIRECTION('',(-1.,0.,0.));
#273=DIRECTION('',(0.,0.,1.));
#274=DIRECTION('',(0.,1.,0.));
#275=DIRECTION('',(0.,0.,1.));
#276=DIRECTION('',(0.,0.,1.));
#277=DIRECTION('',(0.,0.,1.));
#278=DIRECTION('',(1.,0.,0.));
#279=DIRECTION('',(1.,0.,0.));
#280=DIRECTION('',(0.,0.,1.));
#281=DIRECTION('',(1.,0.,0.));
#282=DIRECTION('',(1.,0.,0.));
#283=DIRECTION('',(0.,-1.,0.));
#284=DIRECTION('',(1.,0.,0.));
#285=DIRECTION('',(0.,-1.,0.));
#286=DIRECTION('',(1.,0.,0.));
#287=DIRECTION('',(0.,0.,1.));
#288=DIRECTION('',(1.,0.,0.));
#289=DIRECTION('',(0.,-1.,0.));
#290=DIRECTION('',(1.,0.,0.));
#291=DIRECTION('',(0.,0.,1.));
#292=DIRECTION('',(0.,0.,1.));
#293=DIRECTION('',(0.,-1.,0.));
#294=DIRECTION('',(1.,0.,0.));
#295=DIRECTION('',(1.,0.,0.));
#296=DIRECTION('',(0.,0.,1.));
#297=DIRECTION('',(0.,0.,1.));
#298=DIRECTION('',(-1.,0.,0.));
#299=DIRECTION('',(0.,0.,1.));
#300=DIRECTION('',(0.,0.,1.));
#301=DIRECTION('',(0.,-1.,0.));
#302=DIRECTION('',(0.,-1.,0.));
#303=DIRECTION('',(0.,0.,-1.));
#304=DIRECTION('',(0.,0.,1.));
#305=DIRECTION('',(1.,0.,0.));
#306=DIRECTION('',(-1.,0.,0.));
#307=DIRECTION('',(0.,0.,1.));
#308=DIRECTION('',(0.,-1.,0.));
#309=DIRECTION('',(0.,0.,1.));
#310=DIRECTION('',(1.,0.,0.));
#311=DIRECTION('',(0.,0.,-1.));
#312=DIRECTION('',(-1.,0.,0.));
#313=DIRECTION('',(0.,0.,1.));
#314=DIRECTION('',(1.,0.,0.));
#315=CARTESIAN_POINT('',(0.,0.,0.));
#316=CARTESIAN_POINT('',(-0.0125963760539889,-0.00903,0.00459589730016887));
#317=CARTESIAN_POINT('',(-0.0125963760539889,-0.00903,0.));
#318=CARTESIAN_POINT('',(-0.0125963760539889,-0.00868,0.));
#319=CARTESIAN_POINT('',(-0.0125963760539889,0.,0.));
#320=CARTESIAN_POINT('',(-0.0125963760539889,-0.00868,0.00459589730016887));
#321=CARTESIAN_POINT('',(-0.0125963760539889,-0.00868,0.00919179460033774));
#322=CARTESIAN_POINT('',(-0.0125963760539889,-0.00903,0.00919179460033774));
#323=CARTESIAN_POINT('',(-0.0125963760539889,0.,0.00919179460033774));
#324=CARTESIAN_POINT('',(-0.0125963760539889,0.,0.00459589730016887));
#325=CARTESIAN_POINT('',(-0.0119055146351457,-0.00903,0.));
#326=CARTESIAN_POINT('',(-0.0112146532163024,-0.00903,0.));
#327=CARTESIAN_POINT('',(-0.0112146532163024,-0.00868,0.));
#328=CARTESIAN_POINT('',(-0.0112146532163024,0.,0.));
#329=CARTESIAN_POINT('',(-0.0115646532163024,-0.00868,0.));
#330=CARTESIAN_POINT('',(-0.0115646532163024,-0.00903,0.));
#331=CARTESIAN_POINT('',(-0.0119055146351457,-0.00903,0.));
#332=CARTESIAN_POINT('',(-0.0122463760539889,-0.00903,0.));
#333=CARTESIAN_POINT('',(-0.0122463760539889,-0.00868,0.));
#334=CARTESIAN_POINT('',(-0.0119055146351457,0.,0.));
#335=CARTESIAN_POINT('',(-0.0112146532163024,-0.00903,0.00459589730016887));
#336=CARTESIAN_POINT('',(-0.0112146532163024,-0.00903,0.00919179460033774));
#337=CARTESIAN_POINT('',(-0.0112146532163024,-0.00868,0.00919179460033774));
#338=CARTESIAN_POINT('',(-0.0112146532163024,0.,0.00919179460033774));
#339=CARTESIAN_POINT('',(-0.0112146532163024,-0.00868,0.));
#340=CARTESIAN_POINT('',(-0.0112146532163024,0.,0.00459589730016887));
#341=CARTESIAN_POINT('',(-0.0119055146351457,-0.00903,0.00919179460033774));
#342=CARTESIAN_POINT('',(-0.0119055146351457,-0.00903,0.00919179460033774));
#343=CARTESIAN_POINT('',(-0.0122463760539889,-0.00903,0.00919179460033774));
#344=CARTESIAN_POINT('',(-0.0115646532163024,-0.00903,0.00919179460033774));
#345=CARTESIAN_POINT('',(-0.0115646532163024,-0.00868,0.00919179460033774));
#346=CARTESIAN_POINT('',(-0.0119055146351457,0.,0.00919179460033774));
#347=CARTESIAN_POINT('',(-0.0114637736231089,0.,0.00919179460033774));
#348=CARTESIAN_POINT('',(-0.0114637736231089,-0.00616714507341385,0.00919179460033774));
#349=CARTESIAN_POINT('',(-0.0114637736231089,-0.0087003025226295,0.00919179460033774));
#350=CARTESIAN_POINT('',(-0.0119055146351457,-0.0087003025226295,0.00919179460033774));
#351=CARTESIAN_POINT('',(-0.0123472556471825,-0.0087003025226295,0.00919179460033774));
#352=CARTESIAN_POINT('',(-0.0123472556471825,-0.00246947375126183,0.00919179460033774));
#353=CARTESIAN_POINT('',(-0.0123472556471825,0.,0.00919179460033774));
#354=CARTESIAN_POINT('',(-0.0119055146351457,0.,0.00919179460033774));
#355=CARTESIAN_POINT('',(-0.0122463760539889,-0.00868,0.00919179460033774));
#356=CARTESIAN_POINT('',(-0.0152621475979685,-0.00903,0.00544028333388275));
#357=CARTESIAN_POINT('',(-0.0115646532163024,-0.00903,0.00919179460033774));
#358=CARTESIAN_POINT('',(-0.0122463760539889,-0.00903,0.00544028333388275));
#359=CARTESIAN_POINT('',(-0.0152621475979685,0.,0.00544028333388275));
#360=CARTESIAN_POINT('',(-0.0119055146351457,0.,0.00912179460033774));
#361=CARTESIAN_POINT('',(-0.0123472556471825,0.,0.00912179460033774));
#362=CARTESIAN_POINT('',(-0.0114637736231089,0.,0.00912179460033774));
#363=CARTESIAN_POINT('',(-0.0114637736231089,0.,0.00912179460033774));
#364=CARTESIAN_POINT('',(-0.0123472556471825,0.,0.00912179460033774));
#365=CARTESIAN_POINT('',(-0.0123472556471825,-0.00246947375126183,0.00912179460033774));
#366=CARTESIAN_POINT('',(-0.0123472556471825,-0.0087003025226295,0.00912179460033774));
#367=CARTESIAN_POINT('',(-0.0123472556471825,-0.0087003025226295,0.00912179460033774));
#368=CARTESIAN_POINT('',(-0.0123472556471825,-0.00246947375126183,0.00912179460033774));
#369=CARTESIAN_POINT('',(-0.0119055146351457,-0.0087003025226295,0.00912179460033774));
#370=CARTESIAN_POINT('',(-0.0114637736231089,-0.0087003025226295,0.00912179460033774));
#371=CARTESIAN_POINT('',(-0.0114637736231089,-0.0087003025226295,0.00912179460033774));
#372=CARTESIAN_POINT('',(-0.0119055146351457,-0.0087003025226295,0.00912179460033774));
#373=CARTESIAN_POINT('',(-0.0114637736231089,-0.00616714507341385,0.00912179460033774));
#374=CARTESIAN_POINT('',(-0.0114637736231089,-0.00616714507341385,0.00912179460033774));
#375=CARTESIAN_POINT('',(-0.0119055146351457,-0.004515,0.00912179460033774));
#376=CARTESIAN_POINT('',(-0.0115646532163024,-0.00868,0.00544028333388275));
#377=CARTESIAN_POINT('',(-0.0122463760539889,-0.00868,0.00459589730016887));
#378=MECHANICAL_DESIGN_GEOMETRIC_PRESENTATION_REPRESENTATION('',(#227),
#379);
#379=(
GEOMETRIC_REPRESENTATION_CONTEXT(3)
GLOBAL_UNCERTAINTY_ASSIGNED_CONTEXT((#380))
GLOBAL_UNIT_ASSIGNED_CONTEXT((#383,#382,#381))
REPRESENTATION_CONTEXT('Part 6','TOP_LEVEL_ASSEMBLY_PART')
);
#380=UNCERTAINTY_MEASURE_WITH_UNIT(LENGTH_MEASURE(1.E-8),#383,
'DISTANCE_ACCURACY_VALUE','Maximum Tolerance applied to model');
#381=(
NAMED_UNIT(*)
SI_UNIT($,.STERADIAN.)
SOLID_ANGLE_UNIT()
);
#382=(
NAMED_UNIT(*)
PLANE_ANGLE_UNIT()
SI_UNIT($,.RADIAN.)
);
#383=(
LENGTH_UNIT()
NAMED_UNIT(*)
SI_UNIT($,.METRE.)
);
#384=PRODUCT_DEFINITION_SHAPE('','',#385);
#385=PRODUCT_DEFINITION('','',#387,#386);
#386=PRODUCT_DEFINITION_CONTEXT('',#393,'design');
#387=PRODUCT_DEFINITION_FORMATION_WITH_SPECIFIED_SOURCE('','',#389,
 .NOT_KNOWN.);
#388=PRODUCT_RELATED_PRODUCT_CATEGORY('','',(#389));
#389=PRODUCT('Part 6','Part 6','Part 6',(#391));
#390=PRODUCT_CATEGORY('','');
#391=PRODUCT_CONTEXT('',#393,'mechanical');
#392=APPLICATION_PROTOCOL_DEFINITION('international standard',
'ap242_managed_model_based_3d_engineering',2020,#393);
#393=APPLICATION_CONTEXT('managed model based 3d engineering');
ENDSEC;
END-ISO-10303-21;
