ISO-10303-21;
HEADER;
/* Generated by software containing ST-Developer
 * from STEP Tools, Inc. (www.steptools.com) 
 */
/* OPTION: using custom renumber hook */

FILE_DESCRIPTION(
/* description */ ('STEP AP242 Edition 2',
'CAx-IF Rec.Pracs.---Representation and Presentation of Product Manufa
cturing Information (PMI)---4.0---2014-10-13',
'CAx-IF Rec.Pracs.---3D Tessellated Geometry---0.4---2014-09-14','2;1',
'CAx-IF Rec.Pracs.---User Defined Attributes---1.5---2016-08-15'),
/* implementation_level */ '2;1');

FILE_NAME(
/* name */ 'bottom-top - Part 1',
/* time_stamp */ '2026-09-07T14:06:59Z',
/* author */ (''),
/* organization */ (''),
/* preprocessor_version */ 'ST-DEVELOPER v20',
/* originating_system */ 'ONSHAPE BY PTC INC, 1.220',
/* authorisation */ '  ');

FILE_SCHEMA (('AP242_MANAGED_MODEL_BASED_3D_ENGINEERING_MIM_LF { 1 0 10303 442 3 1 4 }'));
ENDSEC;

DATA;
#10=SHAPE_REPRESENTATION_RELATIONSHIP('','',#199,#11);
#11=ADVANCED_BREP_SHAPE_REPRESENTATION('',(#197),#309);
#12=ORIENTED_EDGE('',*,*,#60,.F.);
#13=ORIENTED_EDGE('',*,*,#61,.T.);
#14=ORIENTED_EDGE('',*,*,#62,.T.);
#15=ORIENTED_EDGE('',*,*,#63,.F.);
#16=ORIENTED_EDGE('',*,*,#64,.F.);
#17=ORIENTED_EDGE('',*,*,#60,.T.);
#18=ORIENTED_EDGE('',*,*,#65,.T.);
#19=ORIENTED_EDGE('',*,*,#66,.F.);
#20=ORIENTED_EDGE('',*,*,#62,.F.);
#21=ORIENTED_EDGE('',*,*,#67,.T.);
#22=ORIENTED_EDGE('',*,*,#68,.T.);
#23=ORIENTED_EDGE('',*,*,#69,.F.);
#24=ORIENTED_EDGE('',*,*,#70,.F.);
#25=ORIENTED_EDGE('',*,*,#66,.T.);
#26=ORIENTED_EDGE('',*,*,#71,.T.);
#27=ORIENTED_EDGE('',*,*,#68,.F.);
#28=ORIENTED_EDGE('',*,*,#72,.F.);
#29=ORIENTED_EDGE('',*,*,#73,.T.);
#30=ORIENTED_EDGE('',*,*,#74,.F.);
#31=ORIENTED_EDGE('',*,*,#75,.F.);
#32=ORIENTED_EDGE('',*,*,#76,.F.);
#33=ORIENTED_EDGE('',*,*,#77,.T.);
#34=ORIENTED_EDGE('',*,*,#74,.T.);
#35=ORIENTED_EDGE('',*,*,#78,.F.);
#36=ORIENTED_EDGE('',*,*,#63,.T.);
#37=ORIENTED_EDGE('',*,*,#69,.T.);
#38=ORIENTED_EDGE('',*,*,#71,.F.);
#39=ORIENTED_EDGE('',*,*,#65,.F.);
#40=ORIENTED_EDGE('',*,*,#77,.F.);
#41=ORIENTED_EDGE('',*,*,#79,.F.);
#42=ORIENTED_EDGE('',*,*,#80,.T.);
#43=ORIENTED_EDGE('',*,*,#75,.T.);
#44=ORIENTED_EDGE('',*,*,#76,.T.);
#45=ORIENTED_EDGE('',*,*,#81,.F.);
#46=ORIENTED_EDGE('',*,*,#82,.F.);
#47=ORIENTED_EDGE('',*,*,#79,.T.);
#48=ORIENTED_EDGE('',*,*,#78,.T.);
#49=ORIENTED_EDGE('',*,*,#73,.F.);
#50=ORIENTED_EDGE('',*,*,#83,.F.);
#51=ORIENTED_EDGE('',*,*,#81,.T.);
#52=ORIENTED_EDGE('',*,*,#64,.T.);
#53=ORIENTED_EDGE('',*,*,#70,.T.);
#54=ORIENTED_EDGE('',*,*,#80,.F.);
#55=ORIENTED_EDGE('',*,*,#82,.T.);
#56=ORIENTED_EDGE('',*,*,#83,.T.);
#57=ORIENTED_EDGE('',*,*,#72,.T.);
#58=ORIENTED_EDGE('',*,*,#67,.F.);
#59=ORIENTED_EDGE('',*,*,#61,.F.);
#60=EDGE_CURVE('',#84,#85,#100,.T.);
#61=EDGE_CURVE('',#84,#86,#101,.T.);
#62=EDGE_CURVE('',#86,#87,#102,.T.);
#63=EDGE_CURVE('',#85,#87,#103,.T.);
#64=EDGE_CURVE('',#84,#88,#104,.T.);
#65=EDGE_CURVE('',#85,#89,#105,.T.);
#66=EDGE_CURVE('',#88,#89,#106,.T.);
#67=EDGE_CURVE('',#86,#90,#107,.T.);
#68=EDGE_CURVE('',#90,#91,#108,.T.);
#69=EDGE_CURVE('',#87,#91,#109,.T.);
#70=EDGE_CURVE('',#88,#92,#110,.T.);
#71=EDGE_CURVE('',#89,#91,#111,.T.);
#72=EDGE_CURVE('',#93,#90,#112,.T.);
#73=EDGE_CURVE('',#93,#94,#113,.T.);
#74=EDGE_CURVE('',#95,#94,#114,.T.);
#75=EDGE_CURVE('',#92,#95,#115,.T.);
#76=EDGE_CURVE('',#96,#97,#116,.T.);
#77=EDGE_CURVE('',#96,#95,#117,.T.);
#78=EDGE_CURVE('',#97,#94,#118,.T.);
#79=EDGE_CURVE('',#98,#96,#119,.T.);
#80=EDGE_CURVE('',#98,#92,#120,.T.);
#81=EDGE_CURVE('',#99,#97,#121,.T.);
#82=EDGE_CURVE('',#98,#99,#122,.T.);
#83=EDGE_CURVE('',#99,#93,#123,.T.);
#84=VERTEX_POINT('',#260);
#85=VERTEX_POINT('',#261);
#86=VERTEX_POINT('',#263);
#87=VERTEX_POINT('',#265);
#88=VERTEX_POINT('',#269);
#89=VERTEX_POINT('',#271);
#90=VERTEX_POINT('',#275);
#91=VERTEX_POINT('',#277);
#92=VERTEX_POINT('',#281);
#93=VERTEX_POINT('',#284);
#94=VERTEX_POINT('',#286);
#95=VERTEX_POINT('',#288);
#96=VERTEX_POINT('',#292);
#97=VERTEX_POINT('',#293);
#98=VERTEX_POINT('',#299);
#99=VERTEX_POINT('',#303);
#100=LINE('',#259,#124);
#101=LINE('',#262,#125);
#102=LINE('',#264,#126);
#103=LINE('',#266,#127);
#104=LINE('',#268,#128);
#105=LINE('',#270,#129);
#106=LINE('',#272,#130);
#107=LINE('',#274,#131);
#108=LINE('',#276,#132);
#109=LINE('',#278,#133);
#110=LINE('',#280,#134);
#111=LINE('',#282,#135);
#112=LINE('',#283,#136);
#113=LINE('',#285,#137);
#114=LINE('',#287,#138);
#115=LINE('',#289,#139);
#116=LINE('',#291,#140);
#117=LINE('',#294,#141);
#118=LINE('',#295,#142);
#119=LINE('',#298,#143);
#120=LINE('',#300,#144);
#121=LINE('',#302,#145);
#122=LINE('',#304,#146);
#123=LINE('',#306,#147);
#124=VECTOR('',#215,1.);
#125=VECTOR('',#216,1.);
#126=VECTOR('',#217,1.);
#127=VECTOR('',#218,1.);
#128=VECTOR('',#221,1.);
#129=VECTOR('',#222,1.);
#130=VECTOR('',#223,1.);
#131=VECTOR('',#226,1.);
#132=VECTOR('',#227,1.);
#133=VECTOR('',#228,1.);
#134=VECTOR('',#231,1.);
#135=VECTOR('',#232,1.);
#136=VECTOR('',#233,1.);
#137=VECTOR('',#234,1.);
#138=VECTOR('',#235,1.);
#139=VECTOR('',#236,1.);
#140=VECTOR('',#239,1.);
#141=VECTOR('',#240,1.);
#142=VECTOR('',#241,1.);
#143=VECTOR('',#246,1.);
#144=VECTOR('',#247,1.);
#145=VECTOR('',#250,1.);
#146=VECTOR('',#251,1.);
#147=VECTOR('',#254,1.);
#148=EDGE_LOOP('',(#12,#13,#14,#15));
#149=EDGE_LOOP('',(#16,#17,#18,#19));
#150=EDGE_LOOP('',(#20,#21,#22,#23));
#151=EDGE_LOOP('',(#24,#25,#26,#27,#28,#29,#30,#31));
#152=EDGE_LOOP('',(#32,#33,#34,#35));
#153=EDGE_LOOP('',(#36,#37,#38,#39));
#154=EDGE_LOOP('',(#40,#41,#42,#43));
#155=EDGE_LOOP('',(#44,#45,#46,#47));
#156=EDGE_LOOP('',(#48,#49,#50,#51));
#157=EDGE_LOOP('',(#52,#53,#54,#55,#56,#57,#58,#59));
#158=FACE_BOUND('',#148,.T.);
#159=FACE_BOUND('',#149,.T.);
#160=FACE_BOUND('',#150,.T.);
#161=FACE_BOUND('',#151,.T.);
#162=FACE_BOUND('',#152,.T.);
#163=FACE_BOUND('',#153,.T.);
#164=FACE_BOUND('',#154,.T.);
#165=FACE_BOUND('',#155,.T.);
#166=FACE_BOUND('',#156,.T.);
#167=FACE_BOUND('',#157,.T.);
#168=PLANE('',#201);
#169=PLANE('',#202);
#170=PLANE('',#203);
#171=PLANE('',#204);
#172=PLANE('',#205);
#173=PLANE('',#206);
#174=PLANE('',#207);
#175=PLANE('',#208);
#176=PLANE('',#209);
#177=PLANE('',#210);
#178=ADVANCED_FACE('',(#158),#168,.T.);
#179=ADVANCED_FACE('',(#159),#169,.F.);
#180=ADVANCED_FACE('',(#160),#170,.T.);
#181=ADVANCED_FACE('',(#161),#171,.F.);
#182=ADVANCED_FACE('',(#162),#172,.T.);
#183=ADVANCED_FACE('',(#163),#173,.F.);
#184=ADVANCED_FACE('',(#164),#174,.T.);
#185=ADVANCED_FACE('',(#165),#175,.F.);
#186=ADVANCED_FACE('',(#166),#176,.F.);
#187=ADVANCED_FACE('',(#167),#177,.T.);
#188=CLOSED_SHELL('',(#178,#179,#180,#181,#182,#183,#184,#185,#186,#187));
#189=STYLED_ITEM('',(#190),#197);
#190=PRESENTATION_STYLE_ASSIGNMENT((#191));
#191=SURFACE_STYLE_USAGE(.BOTH.,#192);
#192=SURFACE_SIDE_STYLE('',(#193));
#193=SURFACE_STYLE_FILL_AREA(#194);
#194=FILL_AREA_STYLE('',(#195));
#195=FILL_AREA_STYLE_COLOUR('',#196);
#196=COLOUR_RGB('',1.,0.984313725490196,0.984313725490196);
#197=MANIFOLD_SOLID_BREP('Part 1',#188);
#198=SHAPE_DEFINITION_REPRESENTATION(#314,#199);
#199=SHAPE_REPRESENTATION('Part 1',(#200),#309);
#200=AXIS2_PLACEMENT_3D('',#257,#211,#212);
#201=AXIS2_PLACEMENT_3D('',#258,#213,#214);
#202=AXIS2_PLACEMENT_3D('',#267,#219,#220);
#203=AXIS2_PLACEMENT_3D('',#273,#224,#225);
#204=AXIS2_PLACEMENT_3D('',#279,#229,#230);
#205=AXIS2_PLACEMENT_3D('',#290,#237,#238);
#206=AXIS2_PLACEMENT_3D('',#296,#242,#243);
#207=AXIS2_PLACEMENT_3D('',#297,#244,#245);
#208=AXIS2_PLACEMENT_3D('',#301,#248,#249);
#209=AXIS2_PLACEMENT_3D('',#305,#252,#253);
#210=AXIS2_PLACEMENT_3D('',#307,#255,#256);
#211=DIRECTION('',(0.,0.,1.));
#212=DIRECTION('',(1.,0.,0.));
#213=DIRECTION('',(0.,1.,0.));
#214=DIRECTION('',(0.,0.,1.));
#215=DIRECTION('',(0.,0.,-1.));
#216=DIRECTION('',(1.,0.,0.));
#217=DIRECTION('',(0.,0.,-1.));
#218=DIRECTION('',(1.,0.,0.));
#219=DIRECTION('',(1.,-1.98254111540206E-16,0.));
#220=DIRECTION('',(1.98254111540206E-16,1.,0.));
#221=DIRECTION('',(-1.98254111540206E-16,-1.,0.));
#222=DIRECTION('',(-1.98254111540206E-16,-1.,0.));
#223=DIRECTION('',(0.,0.,-1.));
#224=DIRECTION('',(1.,-1.98254111540206E-16,0.));
#225=DIRECTION('',(1.98254111540206E-16,1.,0.));
#226=DIRECTION('',(-1.98254111540206E-16,-1.,0.));
#227=DIRECTION('',(0.,0.,-1.));
#228=DIRECTION('',(-1.98254111540206E-16,-1.,0.));
#229=DIRECTION('',(0.,1.,0.));
#230=DIRECTION('',(0.,0.,1.));
#231=DIRECTION('',(1.,0.,0.));
#232=DIRECTION('',(1.,0.,0.));
#233=DIRECTION('',(1.,0.,0.));
#234=DIRECTION('',(0.,0.,1.));
#235=DIRECTION('',(1.,0.,0.));
#236=DIRECTION('',(0.,0.,1.));
#237=DIRECTION('',(0.,0.,1.));
#238=DIRECTION('',(1.,0.,0.));
#239=DIRECTION('',(1.,0.,0.));
#240=DIRECTION('',(0.,-1.,0.));
#241=DIRECTION('',(3.02788097625043E-16,-1.,0.));
#242=DIRECTION('',(0.,0.,1.));
#243=DIRECTION('',(1.,0.,0.));
#244=DIRECTION('',(-1.,0.,0.));
#245=DIRECTION('',(0.,0.,1.));
#246=DIRECTION('',(0.,0.,1.));
#247=DIRECTION('',(0.,-1.,0.));
#248=DIRECTION('',(0.,-1.,0.));
#249=DIRECTION('',(0.,0.,-1.));
#250=DIRECTION('',(0.,0.,1.));
#251=DIRECTION('',(1.,0.,0.));
#252=DIRECTION('',(-1.,-3.02788097625043E-16,0.));
#253=DIRECTION('',(3.02788097625043E-16,-1.,0.));
#254=DIRECTION('',(3.02788097625043E-16,-1.,0.));
#255=DIRECTION('',(0.,0.,1.));
#256=DIRECTION('',(1.,0.,0.));
#257=CARTESIAN_POINT('',(0.,0.,0.));
#258=CARTESIAN_POINT('',(1.38777878078145E-17,0.07,0.0025));
#259=CARTESIAN_POINT('',(-0.07,0.07,0.0025));
#260=CARTESIAN_POINT('',(-0.07,0.07,0.001));
#261=CARTESIAN_POINT('',(-0.07,0.07,0.));
#262=CARTESIAN_POINT('',(1.38777878078145E-17,0.07,0.001));
#263=CARTESIAN_POINT('',(0.07,0.07,0.001));
#264=CARTESIAN_POINT('',(0.07,0.07,0.0025));
#265=CARTESIAN_POINT('',(0.07,0.07,0.));
#266=CARTESIAN_POINT('',(1.38777878078145E-17,0.07,0.));
#267=CARTESIAN_POINT('',(-0.07,0.,0.0025));
#268=CARTESIAN_POINT('',(-0.07,0.,0.001));
#269=CARTESIAN_POINT('',(-0.07,-0.07,0.001));
#270=CARTESIAN_POINT('',(-0.07,0.,0.));
#271=CARTESIAN_POINT('',(-0.07,-0.07,0.));
#272=CARTESIAN_POINT('',(-0.07,-0.07,0.0025));
#273=CARTESIAN_POINT('',(0.07,0.,0.0025));
#274=CARTESIAN_POINT('',(0.07,0.,0.001));
#275=CARTESIAN_POINT('',(0.07,-0.07,0.001));
#276=CARTESIAN_POINT('',(0.07,-0.07,0.0025));
#277=CARTESIAN_POINT('',(0.07,-0.07,0.));
#278=CARTESIAN_POINT('',(0.07,0.,0.));
#279=CARTESIAN_POINT('',(-1.38777878078145E-17,-0.07,0.0025));
#280=CARTESIAN_POINT('',(-1.38777878078145E-17,-0.07,0.001));
#281=CARTESIAN_POINT('',(-0.0675,-0.07,0.001));
#282=CARTESIAN_POINT('',(-1.38777878078145E-17,-0.07,0.));
#283=CARTESIAN_POINT('',(-1.38777878078145E-17,-0.07,0.001));
#284=CARTESIAN_POINT('',(0.0675,-0.07,0.001));
#285=CARTESIAN_POINT('',(0.0675,-0.07,0.001));
#286=CARTESIAN_POINT('',(0.0675,-0.07,0.0025));
#287=CARTESIAN_POINT('',(-1.38777878078145E-17,-0.07,0.0025));
#288=CARTESIAN_POINT('',(-0.0675,-0.07,0.0025));
#289=CARTESIAN_POINT('',(-0.0675,-0.07,0.001));
#290=CARTESIAN_POINT('',(0.,0.,0.0025));
#291=CARTESIAN_POINT('',(0.,0.0675,0.0025));
#292=CARTESIAN_POINT('',(-0.0675,0.0675,0.0025));
#293=CARTESIAN_POINT('',(0.0675,0.0675,0.0025));
#294=CARTESIAN_POINT('',(-0.0675,-0.00125,0.0025));
#295=CARTESIAN_POINT('',(0.0675,-0.00125,0.0025));
#296=CARTESIAN_POINT('',(0.,0.,0.));
#297=CARTESIAN_POINT('',(-0.0675,-0.00125,0.001));
#298=CARTESIAN_POINT('',(-0.0675,0.0675,0.001));
#299=CARTESIAN_POINT('',(-0.0675,0.0675,0.001));
#300=CARTESIAN_POINT('',(-0.0675,-0.00125,0.001));
#301=CARTESIAN_POINT('',(0.,0.0675,0.001));
#302=CARTESIAN_POINT('',(0.0675,0.0675,0.001));
#303=CARTESIAN_POINT('',(0.0675,0.0675,0.001));
#304=CARTESIAN_POINT('',(0.,0.0675,0.001));
#305=CARTESIAN_POINT('',(0.0675,-0.00125,0.001));
#306=CARTESIAN_POINT('',(0.0675,-0.00125,0.001));
#307=CARTESIAN_POINT('',(0.,0.,0.001));
#308=MECHANICAL_DESIGN_GEOMETRIC_PRESENTATION_REPRESENTATION('',(#189),
#309);
#309=(
GEOMETRIC_REPRESENTATION_CONTEXT(3)
GLOBAL_UNCERTAINTY_ASSIGNED_CONTEXT((#310))
GLOBAL_UNIT_ASSIGNED_CONTEXT((#313,#312,#311))
REPRESENTATION_CONTEXT('Part 1','TOP_LEVEL_ASSEMBLY_PART')
);
#310=UNCERTAINTY_MEASURE_WITH_UNIT(LENGTH_MEASURE(1.E-8),#313,
'DISTANCE_ACCURACY_VALUE','Maximum Tolerance applied to model');
#311=(
NAMED_UNIT(*)
SI_UNIT($,.STERADIAN.)
SOLID_ANGLE_UNIT()
);
#312=(
NAMED_UNIT(*)
PLANE_ANGLE_UNIT()
SI_UNIT($,.RADIAN.)
);
#313=(
LENGTH_UNIT()
NAMED_UNIT(*)
SI_UNIT($,.METRE.)
);
#314=PRODUCT_DEFINITION_SHAPE('','',#315);
#315=PRODUCT_DEFINITION('','',#317,#316);
#316=PRODUCT_DEFINITION_CONTEXT('',#323,'design');
#317=PRODUCT_DEFINITION_FORMATION_WITH_SPECIFIED_SOURCE('','',#319,
 .NOT_KNOWN.);
#318=PRODUCT_RELATED_PRODUCT_CATEGORY('','',(#319));
#319=PRODUCT('Part 1','Part 1','Part 1',(#321));
#320=PRODUCT_CATEGORY('','');
#321=PRODUCT_CONTEXT('',#323,'mechanical');
#322=APPLICATION_PROTOCOL_DEFINITION('international standard',
'ap242_managed_model_based_3d_engineering',2020,#323);
#323=APPLICATION_CONTEXT('managed model based 3d engineering');
ENDSEC;
END-ISO-10303-21;
