ISO-10303-21;
HEADER;
/* Generated by software containing ST-Developer
 * from STEP Tools, Inc. (www.steptools.com) 
 */
/* OPTION: using custom renumber hook */

FILE_DESCRIPTION(
/* description */ ('STEP AP242 Edition 2',
'CAx-IF Rec.Pracs.---Representation and Presentation of Product Manufa
cturing Information (PMI)---4.0---2014-10-13',
'CAx-IF Rec.Pracs.---3D Tessellated Geometry---0.4---2014-09-14','2;1',
'CAx-IF Rec.Pracs.---User Defined Attributes---1.5---2016-08-15'),
/* implementation_level */ '2;1');

FILE_NAME(
/* name */ 'box - Part 1',
/* time_stamp */ '2026-09-07T14:06:53Z',
/* author */ (''),
/* organization */ (''),
/* preprocessor_version */ 'ST-DEVELOPER v20',
/* originating_system */ 'ONSHAPE BY PTC INC, 1.220',
/* authorisation */ '  ');

FILE_SCHEMA (('AP242_MANAGED_MODEL_BASED_3D_ENGINEERING_MIM_LF { 1 0 10303 442 3 1 4 }'));
ENDSEC;

DATA;
#10=SHAPE_REPRESENTATION_RELATIONSHIP('','',#503,#11);
#11=ADVANCED_BREP_SHAPE_REPRESENTATION('',(#501),#725);
#12=ORIENTED_CLOSED_SHELL('',*,#394,.F.);
#13=ORIENTED_EDGE('',*,*,#109,.T.);
#14=ORIENTED_EDGE('',*,*,#110,.F.);
#15=ORIENTED_EDGE('',*,*,#111,.F.);
#16=ORIENTED_EDGE('',*,*,#112,.T.);
#17=ORIENTED_EDGE('',*,*,#113,.F.);
#18=ORIENTED_EDGE('',*,*,#114,.T.);
#19=ORIENTED_EDGE('',*,*,#115,.T.);
#20=ORIENTED_EDGE('',*,*,#116,.F.);
#21=ORIENTED_EDGE('',*,*,#117,.F.);
#22=ORIENTED_EDGE('',*,*,#118,.T.);
#23=ORIENTED_EDGE('',*,*,#119,.T.);
#24=ORIENTED_EDGE('',*,*,#120,.F.);
#25=ORIENTED_EDGE('',*,*,#117,.T.);
#26=ORIENTED_EDGE('',*,*,#121,.F.);
#27=ORIENTED_EDGE('',*,*,#122,.F.);
#28=ORIENTED_EDGE('',*,*,#123,.T.);
#29=ORIENTED_EDGE('',*,*,#118,.F.);
#30=ORIENTED_EDGE('',*,*,#123,.F.);
#31=ORIENTED_EDGE('',*,*,#124,.T.);
#32=ORIENTED_EDGE('',*,*,#125,.T.);
#33=ORIENTED_EDGE('',*,*,#119,.F.);
#34=ORIENTED_EDGE('',*,*,#125,.F.);
#35=ORIENTED_EDGE('',*,*,#126,.T.);
#36=ORIENTED_EDGE('',*,*,#127,.T.);
#37=ORIENTED_EDGE('',*,*,#120,.T.);
#38=ORIENTED_EDGE('',*,*,#127,.F.);
#39=ORIENTED_EDGE('',*,*,#128,.F.);
#40=ORIENTED_EDGE('',*,*,#121,.T.);
#41=ORIENTED_EDGE('',*,*,#122,.T.);
#42=ORIENTED_EDGE('',*,*,#128,.T.);
#43=ORIENTED_EDGE('',*,*,#126,.F.);
#44=ORIENTED_EDGE('',*,*,#124,.F.);
#45=ORIENTED_EDGE('',*,*,#129,.F.);
#46=ORIENTED_EDGE('',*,*,#110,.T.);
#47=ORIENTED_EDGE('',*,*,#130,.T.);
#48=ORIENTED_EDGE('',*,*,#131,.F.);
#49=ORIENTED_EDGE('',*,*,#132,.T.);
#50=ORIENTED_EDGE('',*,*,#133,.F.);
#51=ORIENTED_EDGE('',*,*,#112,.F.);
#52=ORIENTED_EDGE('',*,*,#134,.T.);
#53=ORIENTED_EDGE('',*,*,#131,.T.);
#54=ORIENTED_EDGE('',*,*,#135,.F.);
#55=ORIENTED_EDGE('',*,*,#132,.F.);
#56=ORIENTED_EDGE('',*,*,#136,.T.);
#57=ORIENTED_EDGE('',*,*,#130,.F.);
#58=ORIENTED_EDGE('',*,*,#109,.F.);
#59=ORIENTED_EDGE('',*,*,#133,.T.);
#60=ORIENTED_EDGE('',*,*,#135,.T.);
#61=ORIENTED_EDGE('',*,*,#111,.T.);
#62=ORIENTED_EDGE('',*,*,#129,.T.);
#63=ORIENTED_EDGE('',*,*,#136,.F.);
#64=ORIENTED_EDGE('',*,*,#134,.F.);
#65=ORIENTED_EDGE('',*,*,#114,.F.);
#66=ORIENTED_EDGE('',*,*,#137,.F.);
#67=ORIENTED_EDGE('',*,*,#138,.T.);
#68=ORIENTED_EDGE('',*,*,#139,.T.);
#69=ORIENTED_EDGE('',*,*,#113,.T.);
#70=ORIENTED_EDGE('',*,*,#140,.F.);
#71=ORIENTED_EDGE('',*,*,#141,.F.);
#72=ORIENTED_EDGE('',*,*,#137,.T.);
#73=ORIENTED_EDGE('',*,*,#116,.T.);
#74=ORIENTED_EDGE('',*,*,#142,.F.);
#75=ORIENTED_EDGE('',*,*,#143,.F.);
#76=ORIENTED_EDGE('',*,*,#140,.T.);
#77=ORIENTED_EDGE('',*,*,#115,.F.);
#78=ORIENTED_EDGE('',*,*,#139,.F.);
#79=ORIENTED_EDGE('',*,*,#144,.T.);
#80=ORIENTED_EDGE('',*,*,#142,.T.);
#81=ORIENTED_EDGE('',*,*,#138,.F.);
#82=ORIENTED_EDGE('',*,*,#141,.T.);
#83=ORIENTED_EDGE('',*,*,#143,.T.);
#84=ORIENTED_EDGE('',*,*,#144,.F.);
#85=ORIENTED_EDGE('',*,*,#145,.T.);
#86=ORIENTED_EDGE('',*,*,#146,.T.);
#87=ORIENTED_EDGE('',*,*,#147,.F.);
#88=ORIENTED_EDGE('',*,*,#148,.F.);
#89=ORIENTED_EDGE('',*,*,#149,.F.);
#90=ORIENTED_EDGE('',*,*,#150,.F.);
#91=ORIENTED_EDGE('',*,*,#151,.T.);
#92=ORIENTED_EDGE('',*,*,#152,.T.);
#93=ORIENTED_EDGE('',*,*,#146,.F.);
#94=ORIENTED_EDGE('',*,*,#153,.F.);
#95=ORIENTED_EDGE('',*,*,#149,.T.);
#96=ORIENTED_EDGE('',*,*,#154,.T.);
#97=ORIENTED_EDGE('',*,*,#155,.T.);
#98=ORIENTED_EDGE('',*,*,#148,.T.);
#99=ORIENTED_EDGE('',*,*,#156,.F.);
#100=ORIENTED_EDGE('',*,*,#151,.F.);
#101=ORIENTED_EDGE('',*,*,#156,.T.);
#102=ORIENTED_EDGE('',*,*,#147,.T.);
#103=ORIENTED_EDGE('',*,*,#154,.F.);
#104=ORIENTED_EDGE('',*,*,#152,.F.);
#105=ORIENTED_EDGE('',*,*,#145,.F.);
#106=ORIENTED_EDGE('',*,*,#155,.F.);
#107=ORIENTED_EDGE('',*,*,#150,.T.);
#108=ORIENTED_EDGE('',*,*,#153,.T.);
#109=EDGE_CURVE('',#157,#158,#189,.T.);
#110=EDGE_CURVE('',#159,#158,#190,.T.);
#111=EDGE_CURVE('',#160,#159,#191,.T.);
#112=EDGE_CURVE('',#160,#157,#192,.T.);
#113=EDGE_CURVE('',#161,#162,#193,.T.);
#114=EDGE_CURVE('',#161,#163,#194,.T.);
#115=EDGE_CURVE('',#163,#164,#195,.T.);
#116=EDGE_CURVE('',#162,#164,#196,.T.);
#117=EDGE_CURVE('',#165,#166,#197,.T.);
#118=EDGE_CURVE('',#165,#167,#198,.T.);
#119=EDGE_CURVE('',#167,#168,#199,.T.);
#120=EDGE_CURVE('',#166,#168,#200,.T.);
#121=EDGE_CURVE('',#169,#166,#201,.T.);
#122=EDGE_CURVE('',#170,#169,#202,.T.);
#123=EDGE_CURVE('',#170,#165,#203,.T.);
#124=EDGE_CURVE('',#170,#171,#204,.T.);
#125=EDGE_CURVE('',#171,#167,#205,.T.);
#126=EDGE_CURVE('',#171,#172,#206,.T.);
#127=EDGE_CURVE('',#172,#168,#207,.T.);
#128=EDGE_CURVE('',#169,#172,#208,.T.);
#129=EDGE_CURVE('',#159,#173,#209,.T.);
#130=EDGE_CURVE('',#158,#174,#210,.T.);
#131=EDGE_CURVE('',#173,#174,#211,.T.);
#132=EDGE_CURVE('',#175,#176,#212,.T.);
#133=EDGE_CURVE('',#157,#176,#213,.T.);
#134=EDGE_CURVE('',#160,#175,#214,.T.);
#135=EDGE_CURVE('',#176,#174,#215,.T.);
#136=EDGE_CURVE('',#175,#173,#216,.T.);
#137=EDGE_CURVE('',#177,#161,#217,.T.);
#138=EDGE_CURVE('',#177,#178,#218,.T.);
#139=EDGE_CURVE('',#178,#163,#219,.T.);
#140=EDGE_CURVE('',#179,#162,#220,.T.);
#141=EDGE_CURVE('',#177,#179,#221,.T.);
#142=EDGE_CURVE('',#180,#164,#222,.T.);
#143=EDGE_CURVE('',#179,#180,#223,.T.);
#144=EDGE_CURVE('',#178,#180,#224,.T.);
#145=EDGE_CURVE('',#181,#182,#225,.T.);
#146=EDGE_CURVE('',#182,#183,#226,.T.);
#147=EDGE_CURVE('',#184,#183,#227,.T.);
#148=EDGE_CURVE('',#181,#184,#228,.T.);
#149=EDGE_CURVE('',#185,#186,#229,.T.);
#150=EDGE_CURVE('',#187,#185,#230,.T.);
#151=EDGE_CURVE('',#187,#188,#231,.T.);
#152=EDGE_CURVE('',#188,#186,#232,.T.);
#153=EDGE_CURVE('',#185,#182,#233,.T.);
#154=EDGE_CURVE('',#186,#183,#234,.T.);
#155=EDGE_CURVE('',#187,#181,#235,.T.);
#156=EDGE_CURVE('',#188,#184,#236,.T.);
#157=VERTEX_POINT('',#624);
#158=VERTEX_POINT('',#625);
#159=VERTEX_POINT('',#627);
#160=VERTEX_POINT('',#629);
#161=VERTEX_POINT('',#632);
#162=VERTEX_POINT('',#633);
#163=VERTEX_POINT('',#635);
#164=VERTEX_POINT('',#637);
#165=VERTEX_POINT('',#641);
#166=VERTEX_POINT('',#642);
#167=VERTEX_POINT('',#644);
#168=VERTEX_POINT('',#646);
#169=VERTEX_POINT('',#650);
#170=VERTEX_POINT('',#652);
#171=VERTEX_POINT('',#656);
#172=VERTEX_POINT('',#660);
#173=VERTEX_POINT('',#666);
#174=VERTEX_POINT('',#668);
#175=VERTEX_POINT('',#672);
#176=VERTEX_POINT('',#673);
#177=VERTEX_POINT('',#683);
#178=VERTEX_POINT('',#685);
#179=VERTEX_POINT('',#689);
#180=VERTEX_POINT('',#693);
#181=VERTEX_POINT('',#700);
#182=VERTEX_POINT('',#701);
#183=VERTEX_POINT('',#703);
#184=VERTEX_POINT('',#705);
#185=VERTEX_POINT('',#709);
#186=VERTEX_POINT('',#710);
#187=VERTEX_POINT('',#712);
#188=VERTEX_POINT('',#714);
#189=LINE('',#623,#237);
#190=LINE('',#626,#238);
#191=LINE('',#628,#239);
#192=LINE('',#630,#240);
#193=LINE('',#631,#241);
#194=LINE('',#634,#242);
#195=LINE('',#636,#243);
#196=LINE('',#638,#244);
#197=LINE('',#640,#245);
#198=LINE('',#643,#246);
#199=LINE('',#645,#247);
#200=LINE('',#647,#248);
#201=LINE('',#649,#249);
#202=LINE('',#651,#250);
#203=LINE('',#653,#251);
#204=LINE('',#655,#252);
#205=LINE('',#657,#253);
#206=LINE('',#659,#254);
#207=LINE('',#661,#255);
#208=LINE('',#663,#256);
#209=LINE('',#665,#257);
#210=LINE('',#667,#258);
#211=LINE('',#669,#259);
#212=LINE('',#671,#260);
#213=LINE('',#674,#261);
#214=LINE('',#675,#262);
#215=LINE('',#677,#263);
#216=LINE('',#678,#264);
#217=LINE('',#682,#265);
#218=LINE('',#684,#266);
#219=LINE('',#686,#267);
#220=LINE('',#688,#268);
#221=LINE('',#690,#269);
#222=LINE('',#692,#270);
#223=LINE('',#694,#271);
#224=LINE('',#696,#272);
#225=LINE('',#699,#273);
#226=LINE('',#702,#274);
#227=LINE('',#704,#275);
#228=LINE('',#706,#276);
#229=LINE('',#708,#277);
#230=LINE('',#711,#278);
#231=LINE('',#713,#279);
#232=LINE('',#715,#280);
#233=LINE('',#717,#281);
#234=LINE('',#718,#282);
#235=LINE('',#720,#283);
#236=LINE('',#721,#284);
#237=VECTOR('',#531,1.);
#238=VECTOR('',#532,1.);
#239=VECTOR('',#533,1.);
#240=VECTOR('',#534,1.);
#241=VECTOR('',#535,1.);
#242=VECTOR('',#536,1.);
#243=VECTOR('',#537,1.);
#244=VECTOR('',#538,1.);
#245=VECTOR('',#541,1.);
#246=VECTOR('',#542,1.);
#247=VECTOR('',#543,1.);
#248=VECTOR('',#544,1.);
#249=VECTOR('',#547,1.);
#250=VECTOR('',#548,1.);
#251=VECTOR('',#549,1.);
#252=VECTOR('',#552,1.);
#253=VECTOR('',#553,1.);
#254=VECTOR('',#556,1.);
#255=VECTOR('',#557,1.);
#256=VECTOR('',#560,1.);
#257=VECTOR('',#563,1.);
#258=VECTOR('',#564,1.);
#259=VECTOR('',#565,1.);
#260=VECTOR('',#568,1.);
#261=VECTOR('',#569,1.);
#262=VECTOR('',#570,1.);
#263=VECTOR('',#573,1.);
#264=VECTOR('',#574,1.);
#265=VECTOR('',#581,1.);
#266=VECTOR('',#582,1.);
#267=VECTOR('',#583,1.);
#268=VECTOR('',#586,1.);
#269=VECTOR('',#587,1.);
#270=VECTOR('',#590,1.);
#271=VECTOR('',#591,1.);
#272=VECTOR('',#594,1.);
#273=VECTOR('',#599,1.);
#274=VECTOR('',#600,1.);
#275=VECTOR('',#601,1.);
#276=VECTOR('',#602,1.);
#277=VECTOR('',#605,1.);
#278=VECTOR('',#606,1.);
#279=VECTOR('',#607,1.);
#280=VECTOR('',#608,1.);
#281=VECTOR('',#611,1.);
#282=VECTOR('',#612,1.);
#283=VECTOR('',#615,1.);
#284=VECTOR('',#616,1.);
#285=EDGE_LOOP('',(#13,#14,#15,#16));
#286=EDGE_LOOP('',(#17,#18,#19,#20));
#287=EDGE_LOOP('',(#21,#22,#23,#24));
#288=EDGE_LOOP('',(#25,#26,#27,#28));
#289=EDGE_LOOP('',(#29,#30,#31,#32));
#290=EDGE_LOOP('',(#33,#34,#35,#36));
#291=EDGE_LOOP('',(#37,#38,#39,#40));
#292=EDGE_LOOP('',(#41,#42,#43,#44));
#293=EDGE_LOOP('',(#45,#46,#47,#48));
#294=EDGE_LOOP('',(#49,#50,#51,#52));
#295=EDGE_LOOP('',(#53,#54,#55,#56));
#296=EDGE_LOOP('',(#57,#58,#59,#60));
#297=EDGE_LOOP('',(#61,#62,#63,#64));
#298=EDGE_LOOP('',(#65,#66,#67,#68));
#299=EDGE_LOOP('',(#69,#70,#71,#72));
#300=EDGE_LOOP('',(#73,#74,#75,#76));
#301=EDGE_LOOP('',(#77,#78,#79,#80));
#302=EDGE_LOOP('',(#81,#82,#83,#84));
#303=EDGE_LOOP('',(#85,#86,#87,#88));
#304=EDGE_LOOP('',(#89,#90,#91,#92));
#305=EDGE_LOOP('',(#93,#94,#95,#96));
#306=EDGE_LOOP('',(#97,#98,#99,#100));
#307=EDGE_LOOP('',(#101,#102,#103,#104));
#308=EDGE_LOOP('',(#105,#106,#107,#108));
#309=FACE_BOUND('',#285,.T.);
#310=FACE_BOUND('',#286,.T.);
#311=FACE_BOUND('',#287,.T.);
#312=FACE_BOUND('',#288,.T.);
#313=FACE_BOUND('',#289,.T.);
#314=FACE_BOUND('',#290,.T.);
#315=FACE_BOUND('',#291,.T.);
#316=FACE_BOUND('',#292,.T.);
#317=FACE_BOUND('',#293,.T.);
#318=FACE_BOUND('',#294,.T.);
#319=FACE_BOUND('',#295,.T.);
#320=FACE_BOUND('',#296,.T.);
#321=FACE_BOUND('',#297,.T.);
#322=FACE_BOUND('',#298,.T.);
#323=FACE_BOUND('',#299,.T.);
#324=FACE_BOUND('',#300,.T.);
#325=FACE_BOUND('',#301,.T.);
#326=FACE_BOUND('',#302,.T.);
#327=FACE_BOUND('',#303,.T.);
#328=FACE_BOUND('',#304,.T.);
#329=FACE_BOUND('',#305,.T.);
#330=FACE_BOUND('',#306,.T.);
#331=FACE_BOUND('',#307,.T.);
#332=FACE_BOUND('',#308,.T.);
#333=PLANE('',#505);
#334=PLANE('',#506);
#335=PLANE('',#507);
#336=PLANE('',#508);
#337=PLANE('',#509);
#338=PLANE('',#510);
#339=PLANE('',#511);
#340=PLANE('',#512);
#341=PLANE('',#513);
#342=PLANE('',#514);
#343=PLANE('',#515);
#344=PLANE('',#516);
#345=PLANE('',#517);
#346=PLANE('',#518);
#347=PLANE('',#519);
#348=PLANE('',#520);
#349=PLANE('',#521);
#350=PLANE('',#522);
#351=PLANE('',#523);
#352=PLANE('',#524);
#353=PLANE('',#525);
#354=PLANE('',#526);
#355=OVER_RIDING_STYLED_ITEM('',(#397),#371,#395);
#356=OVER_RIDING_STYLED_ITEM('',(#398),#372,#395);
#357=OVER_RIDING_STYLED_ITEM('',(#399),#373,#395);
#358=OVER_RIDING_STYLED_ITEM('',(#400),#374,#395);
#359=OVER_RIDING_STYLED_ITEM('',(#401),#375,#395);
#360=OVER_RIDING_STYLED_ITEM('',(#402),#376,#395);
#361=OVER_RIDING_STYLED_ITEM('',(#403),#377,#395);
#362=OVER_RIDING_STYLED_ITEM('',(#404),#378,#395);
#363=OVER_RIDING_STYLED_ITEM('',(#405),#379,#395);
#364=OVER_RIDING_STYLED_ITEM('',(#406),#380,#395);
#365=OVER_RIDING_STYLED_ITEM('',(#407),#381,#395);
#366=OVER_RIDING_STYLED_ITEM('',(#408),#382,#395);
#367=OVER_RIDING_STYLED_ITEM('',(#409),#383,#395);
#368=OVER_RIDING_STYLED_ITEM('',(#410),#384,#395);
#369=OVER_RIDING_STYLED_ITEM('',(#411),#385,#395);
#370=OVER_RIDING_STYLED_ITEM('',(#412),#386,#395);
#371=ADVANCED_FACE('Face appearance 1',(#309,#310),#333,.T.);
#372=ADVANCED_FACE('Face appearance 1',(#311),#334,.T.);
#373=ADVANCED_FACE('Face appearance 1',(#312),#335,.F.);
#374=ADVANCED_FACE('Face appearance 1',(#313),#336,.T.);
#375=ADVANCED_FACE('Face appearance 1',(#314),#337,.T.);
#376=ADVANCED_FACE('Face appearance 1',(#315),#338,.F.);
#377=ADVANCED_FACE('Face appearance 1',(#316,#317),#339,.F.);
#378=ADVANCED_FACE('Face appearance 1',(#318),#340,.F.);
#379=ADVANCED_FACE('Face appearance 1',(#319),#341,.F.);
#380=ADVANCED_FACE('Face appearance 1',(#320),#342,.F.);
#381=ADVANCED_FACE('Face appearance 1',(#321),#343,.T.);
#382=ADVANCED_FACE('Face appearance 3',(#322),#344,.T.);
#383=ADVANCED_FACE('Face appearance 3',(#323),#345,.F.);
#384=ADVANCED_FACE('Face appearance 3',(#324),#346,.F.);
#385=ADVANCED_FACE('Face appearance 3',(#325),#347,.T.);
#386=ADVANCED_FACE('Face appearance 2',(#326),#348,.T.);
#387=ADVANCED_FACE('',(#327),#349,.F.);
#388=ADVANCED_FACE('',(#328),#350,.T.);
#389=ADVANCED_FACE('',(#329),#351,.T.);
#390=ADVANCED_FACE('',(#330),#352,.F.);
#391=ADVANCED_FACE('',(#331),#353,.T.);
#392=ADVANCED_FACE('',(#332),#354,.F.);
#393=CLOSED_SHELL('',(#371,#372,#373,#374,#375,#376,#377,#378,#379,#380,
#381,#382,#383,#384,#385,#386));
#394=CLOSED_SHELL('',(#387,#388,#389,#390,#391,#392));
#395=STYLED_ITEM('',(#396),#501);
#396=PRESENTATION_STYLE_ASSIGNMENT((#413));
#397=PRESENTATION_STYLE_ASSIGNMENT((#414));
#398=PRESENTATION_STYLE_ASSIGNMENT((#415));
#399=PRESENTATION_STYLE_ASSIGNMENT((#416));
#400=PRESENTATION_STYLE_ASSIGNMENT((#417));
#401=PRESENTATION_STYLE_ASSIGNMENT((#418));
#402=PRESENTATION_STYLE_ASSIGNMENT((#419));
#403=PRESENTATION_STYLE_ASSIGNMENT((#420));
#404=PRESENTATION_STYLE_ASSIGNMENT((#421));
#405=PRESENTATION_STYLE_ASSIGNMENT((#422));
#406=PRESENTATION_STYLE_ASSIGNMENT((#423));
#407=PRESENTATION_STYLE_ASSIGNMENT((#424));
#408=PRESENTATION_STYLE_ASSIGNMENT((#425));
#409=PRESENTATION_STYLE_ASSIGNMENT((#426));
#410=PRESENTATION_STYLE_ASSIGNMENT((#427));
#411=PRESENTATION_STYLE_ASSIGNMENT((#428));
#412=PRESENTATION_STYLE_ASSIGNMENT((#429));
#413=SURFACE_STYLE_USAGE(.BOTH.,#430);
#414=SURFACE_STYLE_USAGE(.BOTH.,#431);
#415=SURFACE_STYLE_USAGE(.BOTH.,#432);
#416=SURFACE_STYLE_USAGE(.BOTH.,#433);
#417=SURFACE_STYLE_USAGE(.BOTH.,#434);
#418=SURFACE_STYLE_USAGE(.BOTH.,#435);
#419=SURFACE_STYLE_USAGE(.BOTH.,#436);
#420=SURFACE_STYLE_USAGE(.BOTH.,#437);
#421=SURFACE_STYLE_USAGE(.BOTH.,#438);
#422=SURFACE_STYLE_USAGE(.BOTH.,#439);
#423=SURFACE_STYLE_USAGE(.BOTH.,#440);
#424=SURFACE_STYLE_USAGE(.BOTH.,#441);
#425=SURFACE_STYLE_USAGE(.BOTH.,#442);
#426=SURFACE_STYLE_USAGE(.BOTH.,#443);
#427=SURFACE_STYLE_USAGE(.BOTH.,#444);
#428=SURFACE_STYLE_USAGE(.BOTH.,#445);
#429=SURFACE_STYLE_USAGE(.BOTH.,#446);
#430=SURFACE_SIDE_STYLE('',(#447));
#431=SURFACE_SIDE_STYLE('',(#448));
#432=SURFACE_SIDE_STYLE('',(#449));
#433=SURFACE_SIDE_STYLE('',(#450));
#434=SURFACE_SIDE_STYLE('',(#451));
#435=SURFACE_SIDE_STYLE('',(#452));
#436=SURFACE_SIDE_STYLE('',(#453));
#437=SURFACE_SIDE_STYLE('',(#454));
#438=SURFACE_SIDE_STYLE('',(#455));
#439=SURFACE_SIDE_STYLE('',(#456));
#440=SURFACE_SIDE_STYLE('',(#457));
#441=SURFACE_SIDE_STYLE('',(#458));
#442=SURFACE_SIDE_STYLE('',(#459));
#443=SURFACE_SIDE_STYLE('',(#460));
#444=SURFACE_SIDE_STYLE('',(#461));
#445=SURFACE_SIDE_STYLE('',(#462));
#446=SURFACE_SIDE_STYLE('',(#463));
#447=SURFACE_STYLE_FILL_AREA(#464);
#448=SURFACE_STYLE_FILL_AREA(#465);
#449=SURFACE_STYLE_FILL_AREA(#466);
#450=SURFACE_STYLE_FILL_AREA(#467);
#451=SURFACE_STYLE_FILL_AREA(#468);
#452=SURFACE_STYLE_FILL_AREA(#469);
#453=SURFACE_STYLE_FILL_AREA(#470);
#454=SURFACE_STYLE_FILL_AREA(#471);
#455=SURFACE_STYLE_FILL_AREA(#472);
#456=SURFACE_STYLE_FILL_AREA(#473);
#457=SURFACE_STYLE_FILL_AREA(#474);
#458=SURFACE_STYLE_FILL_AREA(#475);
#459=SURFACE_STYLE_FILL_AREA(#476);
#460=SURFACE_STYLE_FILL_AREA(#477);
#461=SURFACE_STYLE_FILL_AREA(#478);
#462=SURFACE_STYLE_FILL_AREA(#479);
#463=SURFACE_STYLE_FILL_AREA(#480);
#464=FILL_AREA_STYLE('',(#481));
#465=FILL_AREA_STYLE('',(#482));
#466=FILL_AREA_STYLE('',(#483));
#467=FILL_AREA_STYLE('',(#484));
#468=FILL_AREA_STYLE('',(#485));
#469=FILL_AREA_STYLE('',(#486));
#470=FILL_AREA_STYLE('',(#487));
#471=FILL_AREA_STYLE('',(#488));
#472=FILL_AREA_STYLE('',(#489));
#473=FILL_AREA_STYLE('',(#490));
#474=FILL_AREA_STYLE('',(#491));
#475=FILL_AREA_STYLE('',(#492));
#476=FILL_AREA_STYLE('',(#493));
#477=FILL_AREA_STYLE('',(#494));
#478=FILL_AREA_STYLE('',(#495));
#479=FILL_AREA_STYLE('',(#496));
#480=FILL_AREA_STYLE('',(#497));
#481=FILL_AREA_STYLE_COLOUR('',#498);
#482=FILL_AREA_STYLE_COLOUR('',#499);
#483=FILL_AREA_STYLE_COLOUR('',#499);
#484=FILL_AREA_STYLE_COLOUR('',#499);
#485=FILL_AREA_STYLE_COLOUR('',#499);
#486=FILL_AREA_STYLE_COLOUR('',#499);
#487=FILL_AREA_STYLE_COLOUR('',#499);
#488=FILL_AREA_STYLE_COLOUR('',#499);
#489=FILL_AREA_STYLE_COLOUR('',#499);
#490=FILL_AREA_STYLE_COLOUR('',#499);
#491=FILL_AREA_STYLE_COLOUR('',#499);
#492=FILL_AREA_STYLE_COLOUR('',#499);
#493=FILL_AREA_STYLE_COLOUR('',#500);
#494=FILL_AREA_STYLE_COLOUR('',#500);
#495=FILL_AREA_STYLE_COLOUR('',#500);
#496=FILL_AREA_STYLE_COLOUR('',#500);
#497=FILL_AREA_STYLE_COLOUR('',#500);
#498=COLOUR_RGB('',0.615686274509804,0.811764705882353,0.929411764705882);
#499=COLOUR_RGB('',0.325490196078431,0.529411764705882,0.752941176470588);
#500=COLOUR_RGB('',0.901960784313726,0.901960784313726,0.901960784313726);
#501=BREP_WITH_VOIDS('Part 1',#393,(#12));
#502=SHAPE_DEFINITION_REPRESENTATION(#730,#503);
#503=SHAPE_REPRESENTATION('Part 1',(#504),#725);
#504=AXIS2_PLACEMENT_3D('',#621,#527,#528);
#505=AXIS2_PLACEMENT_3D('',#622,#529,#530);
#506=AXIS2_PLACEMENT_3D('',#639,#539,#540);
#507=AXIS2_PLACEMENT_3D('',#648,#545,#546);
#508=AXIS2_PLACEMENT_3D('',#654,#550,#551);
#509=AXIS2_PLACEMENT_3D('',#658,#554,#555);
#510=AXIS2_PLACEMENT_3D('',#662,#558,#559);
#511=AXIS2_PLACEMENT_3D('',#664,#561,#562);
#512=AXIS2_PLACEMENT_3D('',#670,#566,#567);
#513=AXIS2_PLACEMENT_3D('',#676,#571,#572);
#514=AXIS2_PLACEMENT_3D('',#679,#575,#576);
#515=AXIS2_PLACEMENT_3D('',#680,#577,#578);
#516=AXIS2_PLACEMENT_3D('',#681,#579,#580);
#517=AXIS2_PLACEMENT_3D('',#687,#584,#585);
#518=AXIS2_PLACEMENT_3D('',#691,#588,#589);
#519=AXIS2_PLACEMENT_3D('',#695,#592,#593);
#520=AXIS2_PLACEMENT_3D('',#697,#595,#596);
#521=AXIS2_PLACEMENT_3D('',#698,#597,#598);
#522=AXIS2_PLACEMENT_3D('',#707,#603,#604);
#523=AXIS2_PLACEMENT_3D('',#716,#609,#610);
#524=AXIS2_PLACEMENT_3D('',#719,#613,#614);
#525=AXIS2_PLACEMENT_3D('',#722,#617,#618);
#526=AXIS2_PLACEMENT_3D('',#723,#619,#620);
#527=DIRECTION('',(0.,0.,1.));
#528=DIRECTION('',(1.,0.,0.));
#529=DIRECTION('',(0.,-1.,0.));
#530=DIRECTION('',(1.,0.,0.));
#531=DIRECTION('',(0.,0.,1.));
#532=DIRECTION('',(1.,0.,0.));
#533=DIRECTION('',(0.,0.,1.));
#534=DIRECTION('',(1.,0.,0.));
#535=DIRECTION('',(0.,0.,-1.));
#536=DIRECTION('',(1.,0.,0.));
#537=DIRECTION('',(0.,0.,-1.));
#538=DIRECTION('',(1.,0.,0.));
#539=DIRECTION('',(0.,0.,1.));
#540=DIRECTION('',(1.,0.,0.));
#541=DIRECTION('',(0.,1.,0.));
#542=DIRECTION('',(1.,0.,0.));
#543=DIRECTION('',(0.,1.,0.));
#544=DIRECTION('',(1.,0.,0.));
#545=DIRECTION('',(1.,0.,0.));
#546=DIRECTION('',(0.,0.,-1.));
#547=DIRECTION('',(0.,0.,1.));
#548=DIRECTION('',(0.,1.,0.));
#549=DIRECTION('',(0.,0.,1.));
#550=DIRECTION('',(0.,-1.,0.));
#551=DIRECTION('',(0.,0.,-1.));
#552=DIRECTION('',(1.,0.,0.));
#553=DIRECTION('',(0.,0.,1.));
#554=DIRECTION('',(1.,0.,0.));
#555=DIRECTION('',(0.,0.,-1.));
#556=DIRECTION('',(0.,1.,0.));
#557=DIRECTION('',(0.,0.,1.));
#558=DIRECTION('',(0.,-1.,0.));
#559=DIRECTION('',(0.,0.,-1.));
#560=DIRECTION('',(1.,0.,0.));
#561=DIRECTION('',(0.,0.,1.));
#562=DIRECTION('',(1.,0.,0.));
#563=DIRECTION('',(0.,1.,0.));
#564=DIRECTION('',(0.,1.,0.));
#565=DIRECTION('',(1.,0.,0.));
#566=DIRECTION('',(0.,0.,1.));
#567=DIRECTION('',(1.,0.,0.));
#568=DIRECTION('',(1.,0.,0.));
#569=DIRECTION('',(0.,1.,0.));
#570=DIRECTION('',(0.,1.,0.));
#571=DIRECTION('',(0.,-1.,0.));
#572=DIRECTION('',(1.,0.,0.));
#573=DIRECTION('',(0.,0.,1.));
#574=DIRECTION('',(0.,0.,1.));
#575=DIRECTION('',(-1.,0.,0.));
#576=DIRECTION('',(0.,0.,1.));
#577=DIRECTION('',(-1.,0.,0.));
#578=DIRECTION('',(0.,0.,1.));
#579=DIRECTION('',(0.,0.,-1.));
#580=DIRECTION('',(-1.,0.,0.));
#581=DIRECTION('',(0.,-1.,0.));
#582=DIRECTION('',(1.,0.,0.));
#583=DIRECTION('',(0.,-1.,0.));
#584=DIRECTION('',(-1.,0.,0.));
#585=DIRECTION('',(0.,0.,1.));
#586=DIRECTION('',(0.,-1.,0.));
#587=DIRECTION('',(0.,0.,-1.));
#588=DIRECTION('',(0.,0.,-1.));
#589=DIRECTION('',(-1.,0.,0.));
#590=DIRECTION('',(0.,-1.,0.));
#591=DIRECTION('',(1.,0.,0.));
#592=DIRECTION('',(-1.,0.,0.));
#593=DIRECTION('',(0.,0.,1.));
#594=DIRECTION('',(0.,0.,-1.));
#595=DIRECTION('',(0.,-1.,0.));
#596=DIRECTION('',(1.,0.,0.));
#597=DIRECTION('',(0.,0.,1.));
#598=DIRECTION('',(1.,0.,0.));
#599=DIRECTION('',(0.,1.,0.));
#600=DIRECTION('',(1.,0.,0.));
#601=DIRECTION('',(0.,1.,0.));
#602=DIRECTION('',(1.,0.,0.));
#603=DIRECTION('',(0.,0.,1.));
#604=DIRECTION('',(1.,0.,0.));
#605=DIRECTION('',(1.,0.,0.));
#606=DIRECTION('',(0.,1.,0.));
#607=DIRECTION('',(1.,0.,0.));
#608=DIRECTION('',(0.,1.,0.));
#609=DIRECTION('',(0.,-1.,0.));
#610=DIRECTION('',(1.,0.,0.));
#611=DIRECTION('',(0.,0.,1.));
#612=DIRECTION('',(0.,0.,1.));
#613=DIRECTION('',(0.,-1.,0.));
#614=DIRECTION('',(1.,0.,0.));
#615=DIRECTION('',(0.,0.,1.));
#616=DIRECTION('',(0.,0.,1.));
#617=DIRECTION('',(-1.,0.,0.));
#618=DIRECTION('',(0.,0.,1.));
#619=DIRECTION('',(-1.,0.,0.));
#620=DIRECTION('',(0.,0.,1.));
#621=CARTESIAN_POINT('',(0.,0.,0.));
#622=CARTESIAN_POINT('',(0.,-0.01,0.));
#623=CARTESIAN_POINT('',(0.005,-0.01,0.));
#624=CARTESIAN_POINT('',(0.005,-0.01,-0.005));
#625=CARTESIAN_POINT('',(0.005,-0.01,0.00375));
#626=CARTESIAN_POINT('',(0.,-0.01,0.00375));
#627=CARTESIAN_POINT('',(-0.005,-0.01,0.00375));
#628=CARTESIAN_POINT('',(-0.005,-0.01,0.));
#629=CARTESIAN_POINT('',(-0.005,-0.01,-0.005));
#630=CARTESIAN_POINT('',(0.,-0.01,-0.005));
#631=CARTESIAN_POINT('',(-0.004,-0.01,-0.000625));
#632=CARTESIAN_POINT('',(-0.004,-0.01,0.00275));
#633=CARTESIAN_POINT('',(-0.004,-0.01,-0.004));
#634=CARTESIAN_POINT('',(0.,-0.01,0.00275));
#635=CARTESIAN_POINT('',(0.004,-0.01,0.00275));
#636=CARTESIAN_POINT('',(0.004,-0.01,-0.000625));
#637=CARTESIAN_POINT('',(0.004,-0.01,-0.004));
#638=CARTESIAN_POINT('',(0.,-0.01,-0.004));
#639=CARTESIAN_POINT('',(0.,-0.01,0.005));
#640=CARTESIAN_POINT('',(-0.0055,-0.005,0.005));
#641=CARTESIAN_POINT('',(-0.0055,-0.0105,0.005));
#642=CARTESIAN_POINT('',(-0.0055,0.0005,0.005));
#643=CARTESIAN_POINT('',(0.,-0.0105,0.005));
#644=CARTESIAN_POINT('',(0.0055,-0.0105,0.005));
#645=CARTESIAN_POINT('',(0.0055,-0.005,0.005));
#646=CARTESIAN_POINT('',(0.0055,0.0005,0.005));
#647=CARTESIAN_POINT('',(0.,0.0005,0.005));
#648=CARTESIAN_POINT('',(-0.0055,-0.005,0.00375));
#649=CARTESIAN_POINT('',(-0.0055,0.0005,0.00375));
#650=CARTESIAN_POINT('',(-0.0055,0.0005,0.00375));
#651=CARTESIAN_POINT('',(-0.0055,-0.005,0.00375));
#652=CARTESIAN_POINT('',(-0.0055,-0.0105,0.00375));
#653=CARTESIAN_POINT('',(-0.0055,-0.0105,0.00375));
#654=CARTESIAN_POINT('',(0.,-0.0105,0.00375));
#655=CARTESIAN_POINT('',(0.,-0.0105,0.00375));
#656=CARTESIAN_POINT('',(0.0055,-0.0105,0.00375));
#657=CARTESIAN_POINT('',(0.0055,-0.0105,0.00375));
#658=CARTESIAN_POINT('',(0.0055,-0.005,0.00375));
#659=CARTESIAN_POINT('',(0.0055,-0.005,0.00375));
#660=CARTESIAN_POINT('',(0.0055,0.0005,0.00375));
#661=CARTESIAN_POINT('',(0.0055,0.0005,0.00375));
#662=CARTESIAN_POINT('',(0.,0.0005,0.00375));
#663=CARTESIAN_POINT('',(0.,0.0005,0.00375));
#664=CARTESIAN_POINT('',(0.,-0.005,0.00375));
#665=CARTESIAN_POINT('',(-0.005,-0.01,0.00375));
#666=CARTESIAN_POINT('',(-0.005,0.,0.00375));
#667=CARTESIAN_POINT('',(0.005,-0.01,0.00375));
#668=CARTESIAN_POINT('',(0.005,0.,0.00375));
#669=CARTESIAN_POINT('',(0.,0.,0.00375));
#670=CARTESIAN_POINT('',(0.,-0.01,-0.005));
#671=CARTESIAN_POINT('',(0.,0.,-0.005));
#672=CARTESIAN_POINT('',(-0.005,0.,-0.005));
#673=CARTESIAN_POINT('',(0.005,0.,-0.005));
#674=CARTESIAN_POINT('',(0.005,-0.01,-0.005));
#675=CARTESIAN_POINT('',(-0.005,-0.01,-0.005));
#676=CARTESIAN_POINT('',(0.,0.,0.));
#677=CARTESIAN_POINT('',(0.005,0.,0.));
#678=CARTESIAN_POINT('',(-0.005,0.,0.));
#679=CARTESIAN_POINT('',(0.005,-0.01,0.));
#680=CARTESIAN_POINT('',(-0.005,-0.01,0.));
#681=CARTESIAN_POINT('',(0.,-0.00985,0.00275));
#682=CARTESIAN_POINT('',(-0.004,-0.00985,0.00275));
#683=CARTESIAN_POINT('',(-0.004,-0.00985,0.00275));
#684=CARTESIAN_POINT('',(0.,-0.00985,0.00275));
#685=CARTESIAN_POINT('',(0.004,-0.00985,0.00275));
#686=CARTESIAN_POINT('',(0.004,-0.00985,0.00275));
#687=CARTESIAN_POINT('',(-0.004,-0.00985,-0.000625));
#688=CARTESIAN_POINT('',(-0.004,-0.00985,-0.004));
#689=CARTESIAN_POINT('',(-0.004,-0.00985,-0.004));
#690=CARTESIAN_POINT('',(-0.004,-0.00985,-0.000625));
#691=CARTESIAN_POINT('',(0.,-0.00985,-0.004));
#692=CARTESIAN_POINT('',(0.004,-0.00985,-0.004));
#693=CARTESIAN_POINT('',(0.004,-0.00985,-0.004));
#694=CARTESIAN_POINT('',(0.,-0.00985,-0.004));
#695=CARTESIAN_POINT('',(0.004,-0.00985,-0.000625));
#696=CARTESIAN_POINT('',(0.004,-0.00985,-0.000625));
#697=CARTESIAN_POINT('',(0.,-0.00985,-0.000625));
#698=CARTESIAN_POINT('',(0.,-0.005,0.0045));
#699=CARTESIAN_POINT('',(-0.0045,-0.01,0.0045));
#700=CARTESIAN_POINT('',(-0.0045,-0.0095,0.0045));
#701=CARTESIAN_POINT('',(-0.0045,-0.0005,0.0045));
#702=CARTESIAN_POINT('',(0.,-0.0005,0.0045));
#703=CARTESIAN_POINT('',(0.0045,-0.0005,0.0045));
#704=CARTESIAN_POINT('',(0.0045,-0.01,0.0045));
#705=CARTESIAN_POINT('',(0.0045,-0.0095,0.0045));
#706=CARTESIAN_POINT('',(0.,-0.0095,0.0045));
#707=CARTESIAN_POINT('',(0.,-0.01,-0.0045));
#708=CARTESIAN_POINT('',(0.,-0.0005,-0.0045));
#709=CARTESIAN_POINT('',(-0.0045,-0.0005,-0.0045));
#710=CARTESIAN_POINT('',(0.0045,-0.0005,-0.0045));
#711=CARTESIAN_POINT('',(-0.0045,-0.01,-0.0045));
#712=CARTESIAN_POINT('',(-0.0045,-0.0095,-0.0045));
#713=CARTESIAN_POINT('',(0.,-0.0095,-0.0045));
#714=CARTESIAN_POINT('',(0.0045,-0.0095,-0.0045));
#715=CARTESIAN_POINT('',(0.0045,-0.01,-0.0045));
#716=CARTESIAN_POINT('',(0.,-0.0005,0.));
#717=CARTESIAN_POINT('',(-0.0045,-0.0005,0.));
#718=CARTESIAN_POINT('',(0.0045,-0.0005,0.));
#719=CARTESIAN_POINT('',(0.,-0.0095,0.));
#720=CARTESIAN_POINT('',(-0.0045,-0.0095,0.));
#721=CARTESIAN_POINT('',(0.0045,-0.0095,0.));
#722=CARTESIAN_POINT('',(0.0045,-0.01,0.));
#723=CARTESIAN_POINT('',(-0.0045,-0.01,0.));
#724=MECHANICAL_DESIGN_GEOMETRIC_PRESENTATION_REPRESENTATION('',(#395,#355,
#356,#357,#358,#359,#360,#361,#362,#363,#364,#365,#366,#367,#368,#369,#370),
#725);
#725=(
GEOMETRIC_REPRESENTATION_CONTEXT(3)
GLOBAL_UNCERTAINTY_ASSIGNED_CONTEXT((#726))
GLOBAL_UNIT_ASSIGNED_CONTEXT((#729,#728,#727))
REPRESENTATION_CONTEXT('Part 1','TOP_LEVEL_ASSEMBLY_PART')
);
#726=UNCERTAINTY_MEASURE_WITH_UNIT(LENGTH_MEASURE(1.E-8),#729,
'DISTANCE_ACCURACY_VALUE','Maximum Tolerance applied to model');
#727=(
NAMED_UNIT(*)
SI_UNIT($,.STERADIAN.)
SOLID_ANGLE_UNIT()
);
#728=(
NAMED_UNIT(*)
PLANE_ANGLE_UNIT()
SI_UNIT($,.RADIAN.)
);
#729=(
LENGTH_UNIT()
NAMED_UNIT(*)
SI_UNIT($,.METRE.)
);
#730=PRODUCT_DEFINITION_SHAPE('','',#731);
#731=PRODUCT_DEFINITION('','',#733,#732);
#732=PRODUCT_DEFINITION_CONTEXT('',#739,'design');
#733=PRODUCT_DEFINITION_FORMATION_WITH_SPECIFIED_SOURCE('','',#735,
 .NOT_KNOWN.);
#734=PRODUCT_RELATED_PRODUCT_CATEGORY('','',(#735));
#735=PRODUCT('Part 1','Part 1','Part 1',(#737));
#736=PRODUCT_CATEGORY('','');
#737=PRODUCT_CONTEXT('',#739,'mechanical');
#738=APPLICATION_PROTOCOL_DEFINITION('international standard',
'ap242_managed_model_based_3d_engineering',2020,#739);
#739=APPLICATION_CONTEXT('managed model based 3d engineering');
ENDSEC;
END-ISO-10303-21;
