ISO-10303-21;
HEADER;
/* Generated by software containing ST-Developer
 * from STEP Tools, Inc. (www.steptools.com) 
 */
/* OPTION: using custom renumber hook */

FILE_DESCRIPTION(
/* description */ ('STEP AP242 Edition 2',
'CAx-IF Rec.Pracs.---Representation and Presentation of Product Manufa
cturing Information (PMI)---4.0---2014-10-13',
'CAx-IF Rec.Pracs.---3D Tessellated Geometry---0.4---2014-09-14','2;1',
'CAx-IF Rec.Pracs.---User Defined Attributes---1.5---2016-08-15'),
/* implementation_level */ '2;1');

FILE_NAME(
/* name */ 'dresser 1 - Part 1',
/* time_stamp */ '2026-09-07T14:06:51Z',
/* author */ (''),
/* organization */ (''),
/* preprocessor_version */ 'ST-DEVELOPER v20',
/* originating_system */ 'ONSHAPE BY PTC INC, 1.220',
/* authorisation */ '  ');

FILE_SCHEMA (('AP242_MANAGED_MODEL_BASED_3D_ENGINEERING_MIM_LF { 1 0 10303 442 3 1 4 }'));
ENDSEC;

DATA;
#10=SHAPE_REPRESENTATION_RELATIONSHIP('','',#865,#11);
#11=ADVANCED_BREP_SHAPE_REPRESENTATION('',(#863),#1393);
#12=B_SPLINE_CURVE_WITH_KNOTS('',3,(#1127,#1128,#1129,#1130,#1131,#1132,
#1133,#1134,#1135),.UNSPECIFIED.,.F.,.F.,(4,1,1,1,1,1,4),(0.,0.00746101766238728,
0.0111915264935809,0.0149220353247746,0.0186525441559682,0.0223830529871618,
0.0298440706495491),.UNSPECIFIED.);
#13=B_SPLINE_CURVE_WITH_KNOTS('',2,(#1137,#1138,#1139),.UNSPECIFIED.,.F.,
 .F.,(3,3),(0.,1.),.PIECEWISE_BEZIER_KNOTS.);
#14=B_SPLINE_CURVE_WITH_KNOTS('',3,(#1150,#1151,#1152,#1153,#1154,#1155,
#1156,#1157,#1158),.UNSPECIFIED.,.F.,.F.,(4,1,1,1,1,1,4),(0.,0.00744499154643035,
0.0111674873196455,0.0148899830928607,0.0186124788660759,0.022334974639291,
0.0297799661857214),.UNSPECIFIED.);
#15=B_SPLINE_CURVE_WITH_KNOTS('',2,(#1163,#1164,#1165),.UNSPECIFIED.,.F.,
 .F.,(3,3),(0.,1.),.PIECEWISE_BEZIER_KNOTS.);
#16=B_SPLINE_CURVE_WITH_KNOTS('',2,(#1178,#1179,#1180),.UNSPECIFIED.,.F.,
 .F.,(3,3),(0.,1.),.PIECEWISE_BEZIER_KNOTS.);
#17=B_SPLINE_CURVE_WITH_KNOTS('',2,(#1242,#1243,#1244),.UNSPECIFIED.,.F.,
 .F.,(3,3),(0.,1.),.PIECEWISE_BEZIER_KNOTS.);
#18=B_SPLINE_SURFACE_WITH_KNOTS('',3,1,((#1119,#1120),(#1121,#1122),(#1123,
#1124),(#1125,#1126)),.SURF_OF_LINEAR_EXTRUSION.,.F.,.F.,.F.,(4,4),(2,2),
(-1.37167998283683E-16,1.),(0.,1.),.PIECEWISE_BEZIER_KNOTS.);
#19=B_SPLINE_SURFACE_WITH_KNOTS('',3,1,((#1142,#1143),(#1144,#1145),(#1146,
#1147),(#1148,#1149)),.SURF_OF_LINEAR_EXTRUSION.,.F.,.F.,.F.,(4,4),(2,2),
(0.,1.),(0.,1.),.PIECEWISE_BEZIER_KNOTS.);
#20=B_SPLINE_SURFACE_WITH_KNOTS('',3,1,((#1384,#1385),(#1386,#1387),(#1388,
#1389),(#1390,#1391)),.SURF_OF_LINEAR_EXTRUSION.,.F.,.F.,.F.,(4,4),(2,2),
(0.,1.),(0.,1.),.PIECEWISE_BEZIER_KNOTS.);
#21=ORIENTED_EDGE('',*,*,#249,.T.);
#22=ORIENTED_EDGE('',*,*,#250,.T.);
#23=ORIENTED_EDGE('',*,*,#251,.F.);
#24=ORIENTED_EDGE('',*,*,#252,.T.);
#25=ORIENTED_EDGE('',*,*,#253,.F.);
#26=ORIENTED_EDGE('',*,*,#249,.F.);
#27=ORIENTED_EDGE('',*,*,#254,.F.);
#28=ORIENTED_EDGE('',*,*,#255,.T.);
#29=ORIENTED_EDGE('',*,*,#256,.F.);
#30=ORIENTED_EDGE('',*,*,#257,.T.);
#31=ORIENTED_EDGE('',*,*,#258,.T.);
#32=ORIENTED_EDGE('',*,*,#259,.F.);
#33=ORIENTED_EDGE('',*,*,#260,.T.);
#34=ORIENTED_EDGE('',*,*,#261,.T.);
#35=ORIENTED_EDGE('',*,*,#255,.F.);
#36=ORIENTED_EDGE('',*,*,#262,.T.);
#37=ORIENTED_EDGE('',*,*,#263,.F.);
#38=ORIENTED_EDGE('',*,*,#264,.T.);
#39=ORIENTED_EDGE('',*,*,#260,.F.);
#40=ORIENTED_EDGE('',*,*,#265,.T.);
#41=ORIENTED_EDGE('',*,*,#266,.T.);
#42=ORIENTED_EDGE('',*,*,#267,.F.);
#43=ORIENTED_EDGE('',*,*,#268,.F.);
#44=ORIENTED_EDGE('',*,*,#269,.F.);
#45=ORIENTED_EDGE('',*,*,#270,.T.);
#46=ORIENTED_EDGE('',*,*,#271,.T.);
#47=ORIENTED_EDGE('',*,*,#272,.F.);
#48=ORIENTED_EDGE('',*,*,#273,.T.);
#49=ORIENTED_EDGE('',*,*,#258,.F.);
#50=ORIENTED_EDGE('',*,*,#274,.T.);
#51=ORIENTED_EDGE('',*,*,#267,.T.);
#52=ORIENTED_EDGE('',*,*,#275,.F.);
#53=ORIENTED_EDGE('',*,*,#276,.F.);
#54=ORIENTED_EDGE('',*,*,#277,.T.);
#55=ORIENTED_EDGE('',*,*,#278,.T.);
#56=ORIENTED_EDGE('',*,*,#279,.F.);
#57=ORIENTED_EDGE('',*,*,#280,.F.);
#58=ORIENTED_EDGE('',*,*,#281,.T.);
#59=ORIENTED_EDGE('',*,*,#282,.T.);
#60=ORIENTED_EDGE('',*,*,#283,.F.);
#61=ORIENTED_EDGE('',*,*,#284,.F.);
#62=ORIENTED_EDGE('',*,*,#285,.T.);
#63=ORIENTED_EDGE('',*,*,#286,.T.);
#64=ORIENTED_EDGE('',*,*,#287,.F.);
#65=ORIENTED_EDGE('',*,*,#288,.F.);
#66=ORIENTED_EDGE('',*,*,#289,.T.);
#67=ORIENTED_EDGE('',*,*,#290,.T.);
#68=ORIENTED_EDGE('',*,*,#291,.F.);
#69=ORIENTED_EDGE('',*,*,#292,.T.);
#70=ORIENTED_EDGE('',*,*,#293,.T.);
#71=ORIENTED_EDGE('',*,*,#294,.T.);
#72=ORIENTED_EDGE('',*,*,#295,.T.);
#73=ORIENTED_EDGE('',*,*,#251,.T.);
#74=ORIENTED_EDGE('',*,*,#296,.T.);
#75=ORIENTED_EDGE('',*,*,#297,.T.);
#76=ORIENTED_EDGE('',*,*,#272,.T.);
#77=ORIENTED_EDGE('',*,*,#298,.F.);
#78=ORIENTED_EDGE('',*,*,#299,.F.);
#79=ORIENTED_EDGE('',*,*,#300,.F.);
#80=ORIENTED_EDGE('',*,*,#259,.T.);
#81=ORIENTED_EDGE('',*,*,#273,.F.);
#82=ORIENTED_EDGE('',*,*,#297,.F.);
#83=ORIENTED_EDGE('',*,*,#301,.F.);
#84=ORIENTED_EDGE('',*,*,#263,.T.);
#85=ORIENTED_EDGE('',*,*,#274,.F.);
#86=ORIENTED_EDGE('',*,*,#257,.F.);
#87=ORIENTED_EDGE('',*,*,#299,.T.);
#88=ORIENTED_EDGE('',*,*,#302,.T.);
#89=ORIENTED_EDGE('',*,*,#265,.F.);
#90=ORIENTED_EDGE('',*,*,#262,.F.);
#91=ORIENTED_EDGE('',*,*,#254,.T.);
#92=ORIENTED_EDGE('',*,*,#252,.F.);
#93=ORIENTED_EDGE('',*,*,#303,.T.);
#94=ORIENTED_EDGE('',*,*,#304,.T.);
#95=ORIENTED_EDGE('',*,*,#305,.F.);
#96=ORIENTED_EDGE('',*,*,#306,.F.);
#97=ORIENTED_EDGE('',*,*,#298,.T.);
#98=ORIENTED_EDGE('',*,*,#275,.T.);
#99=ORIENTED_EDGE('',*,*,#266,.F.);
#100=ORIENTED_EDGE('',*,*,#302,.F.);
#101=ORIENTED_EDGE('',*,*,#303,.F.);
#102=ORIENTED_EDGE('',*,*,#307,.F.);
#103=ORIENTED_EDGE('',*,*,#308,.T.);
#104=ORIENTED_EDGE('',*,*,#309,.T.);
#105=ORIENTED_EDGE('',*,*,#306,.T.);
#106=ORIENTED_EDGE('',*,*,#310,.F.);
#107=ORIENTED_EDGE('',*,*,#311,.F.);
#108=ORIENTED_EDGE('',*,*,#307,.T.);
#109=ORIENTED_EDGE('',*,*,#305,.T.);
#110=ORIENTED_EDGE('',*,*,#312,.F.);
#111=ORIENTED_EDGE('',*,*,#313,.F.);
#112=ORIENTED_EDGE('',*,*,#310,.T.);
#113=ORIENTED_EDGE('',*,*,#304,.F.);
#114=ORIENTED_EDGE('',*,*,#309,.F.);
#115=ORIENTED_EDGE('',*,*,#314,.T.);
#116=ORIENTED_EDGE('',*,*,#312,.T.);
#117=ORIENTED_EDGE('',*,*,#308,.F.);
#118=ORIENTED_EDGE('',*,*,#311,.T.);
#119=ORIENTED_EDGE('',*,*,#313,.T.);
#120=ORIENTED_EDGE('',*,*,#314,.F.);
#121=ORIENTED_EDGE('',*,*,#268,.T.);
#122=ORIENTED_EDGE('',*,*,#315,.F.);
#123=ORIENTED_EDGE('',*,*,#316,.F.);
#124=ORIENTED_EDGE('',*,*,#317,.T.);
#125=ORIENTED_EDGE('',*,*,#271,.F.);
#126=ORIENTED_EDGE('',*,*,#318,.F.);
#127=ORIENTED_EDGE('',*,*,#319,.T.);
#128=ORIENTED_EDGE('',*,*,#315,.T.);
#129=ORIENTED_EDGE('',*,*,#270,.F.);
#130=ORIENTED_EDGE('',*,*,#320,.F.);
#131=ORIENTED_EDGE('',*,*,#321,.T.);
#132=ORIENTED_EDGE('',*,*,#318,.T.);
#133=ORIENTED_EDGE('',*,*,#269,.T.);
#134=ORIENTED_EDGE('',*,*,#317,.F.);
#135=ORIENTED_EDGE('',*,*,#322,.F.);
#136=ORIENTED_EDGE('',*,*,#320,.T.);
#137=ORIENTED_EDGE('',*,*,#316,.T.);
#138=ORIENTED_EDGE('',*,*,#319,.F.);
#139=ORIENTED_EDGE('',*,*,#321,.F.);
#140=ORIENTED_EDGE('',*,*,#322,.T.);
#141=ORIENTED_EDGE('',*,*,#277,.F.);
#142=ORIENTED_EDGE('',*,*,#323,.F.);
#143=ORIENTED_EDGE('',*,*,#324,.T.);
#144=ORIENTED_EDGE('',*,*,#325,.T.);
#145=ORIENTED_EDGE('',*,*,#276,.T.);
#146=ORIENTED_EDGE('',*,*,#326,.F.);
#147=ORIENTED_EDGE('',*,*,#327,.F.);
#148=ORIENTED_EDGE('',*,*,#323,.T.);
#149=ORIENTED_EDGE('',*,*,#279,.T.);
#150=ORIENTED_EDGE('',*,*,#328,.F.);
#151=ORIENTED_EDGE('',*,*,#329,.F.);
#152=ORIENTED_EDGE('',*,*,#326,.T.);
#153=ORIENTED_EDGE('',*,*,#278,.F.);
#154=ORIENTED_EDGE('',*,*,#325,.F.);
#155=ORIENTED_EDGE('',*,*,#330,.T.);
#156=ORIENTED_EDGE('',*,*,#328,.T.);
#157=ORIENTED_EDGE('',*,*,#324,.F.);
#158=ORIENTED_EDGE('',*,*,#327,.T.);
#159=ORIENTED_EDGE('',*,*,#329,.T.);
#160=ORIENTED_EDGE('',*,*,#330,.F.);
#161=ORIENTED_EDGE('',*,*,#281,.F.);
#162=ORIENTED_EDGE('',*,*,#331,.F.);
#163=ORIENTED_EDGE('',*,*,#332,.T.);
#164=ORIENTED_EDGE('',*,*,#333,.T.);
#165=ORIENTED_EDGE('',*,*,#280,.T.);
#166=ORIENTED_EDGE('',*,*,#334,.F.);
#167=ORIENTED_EDGE('',*,*,#335,.F.);
#168=ORIENTED_EDGE('',*,*,#331,.T.);
#169=ORIENTED_EDGE('',*,*,#283,.T.);
#170=ORIENTED_EDGE('',*,*,#336,.F.);
#171=ORIENTED_EDGE('',*,*,#337,.F.);
#172=ORIENTED_EDGE('',*,*,#334,.T.);
#173=ORIENTED_EDGE('',*,*,#282,.F.);
#174=ORIENTED_EDGE('',*,*,#333,.F.);
#175=ORIENTED_EDGE('',*,*,#338,.T.);
#176=ORIENTED_EDGE('',*,*,#336,.T.);
#177=ORIENTED_EDGE('',*,*,#332,.F.);
#178=ORIENTED_EDGE('',*,*,#335,.T.);
#179=ORIENTED_EDGE('',*,*,#337,.T.);
#180=ORIENTED_EDGE('',*,*,#338,.F.);
#181=ORIENTED_EDGE('',*,*,#285,.F.);
#182=ORIENTED_EDGE('',*,*,#339,.F.);
#183=ORIENTED_EDGE('',*,*,#340,.T.);
#184=ORIENTED_EDGE('',*,*,#341,.T.);
#185=ORIENTED_EDGE('',*,*,#284,.T.);
#186=ORIENTED_EDGE('',*,*,#342,.F.);
#187=ORIENTED_EDGE('',*,*,#343,.F.);
#188=ORIENTED_EDGE('',*,*,#339,.T.);
#189=ORIENTED_EDGE('',*,*,#287,.T.);
#190=ORIENTED_EDGE('',*,*,#344,.F.);
#191=ORIENTED_EDGE('',*,*,#345,.F.);
#192=ORIENTED_EDGE('',*,*,#342,.T.);
#193=ORIENTED_EDGE('',*,*,#286,.F.);
#194=ORIENTED_EDGE('',*,*,#341,.F.);
#195=ORIENTED_EDGE('',*,*,#346,.T.);
#196=ORIENTED_EDGE('',*,*,#344,.T.);
#197=ORIENTED_EDGE('',*,*,#340,.F.);
#198=ORIENTED_EDGE('',*,*,#343,.T.);
#199=ORIENTED_EDGE('',*,*,#345,.T.);
#200=ORIENTED_EDGE('',*,*,#346,.F.);
#201=ORIENTED_EDGE('',*,*,#289,.F.);
#202=ORIENTED_EDGE('',*,*,#347,.F.);
#203=ORIENTED_EDGE('',*,*,#348,.T.);
#204=ORIENTED_EDGE('',*,*,#349,.T.);
#205=ORIENTED_EDGE('',*,*,#288,.T.);
#206=ORIENTED_EDGE('',*,*,#350,.F.);
#207=ORIENTED_EDGE('',*,*,#351,.F.);
#208=ORIENTED_EDGE('',*,*,#347,.T.);
#209=ORIENTED_EDGE('',*,*,#291,.T.);
#210=ORIENTED_EDGE('',*,*,#352,.F.);
#211=ORIENTED_EDGE('',*,*,#353,.F.);
#212=ORIENTED_EDGE('',*,*,#350,.T.);
#213=ORIENTED_EDGE('',*,*,#290,.F.);
#214=ORIENTED_EDGE('',*,*,#349,.F.);
#215=ORIENTED_EDGE('',*,*,#354,.T.);
#216=ORIENTED_EDGE('',*,*,#352,.T.);
#217=ORIENTED_EDGE('',*,*,#348,.F.);
#218=ORIENTED_EDGE('',*,*,#351,.T.);
#219=ORIENTED_EDGE('',*,*,#353,.T.);
#220=ORIENTED_EDGE('',*,*,#354,.F.);
#221=ORIENTED_EDGE('',*,*,#293,.F.);
#222=ORIENTED_EDGE('',*,*,#355,.F.);
#223=ORIENTED_EDGE('',*,*,#356,.T.);
#224=ORIENTED_EDGE('',*,*,#357,.T.);
#225=ORIENTED_EDGE('',*,*,#292,.F.);
#226=ORIENTED_EDGE('',*,*,#358,.F.);
#227=ORIENTED_EDGE('',*,*,#359,.T.);
#228=ORIENTED_EDGE('',*,*,#355,.T.);
#229=ORIENTED_EDGE('',*,*,#295,.F.);
#230=ORIENTED_EDGE('',*,*,#360,.F.);
#231=ORIENTED_EDGE('',*,*,#361,.T.);
#232=ORIENTED_EDGE('',*,*,#358,.T.);
#233=ORIENTED_EDGE('',*,*,#294,.F.);
#234=ORIENTED_EDGE('',*,*,#357,.F.);
#235=ORIENTED_EDGE('',*,*,#362,.T.);
#236=ORIENTED_EDGE('',*,*,#360,.T.);
#237=ORIENTED_EDGE('',*,*,#356,.F.);
#238=ORIENTED_EDGE('',*,*,#359,.F.);
#239=ORIENTED_EDGE('',*,*,#361,.F.);
#240=ORIENTED_EDGE('',*,*,#362,.F.);
#241=ORIENTED_EDGE('',*,*,#253,.T.);
#242=ORIENTED_EDGE('',*,*,#261,.F.);
#243=ORIENTED_EDGE('',*,*,#264,.F.);
#244=ORIENTED_EDGE('',*,*,#301,.T.);
#245=ORIENTED_EDGE('',*,*,#256,.T.);
#246=ORIENTED_EDGE('',*,*,#300,.T.);
#247=ORIENTED_EDGE('',*,*,#296,.F.);
#248=ORIENTED_EDGE('',*,*,#250,.F.);
#249=EDGE_CURVE('',#363,#364,#439,.T.);
#250=EDGE_CURVE('',#364,#365,#440,.T.);
#251=EDGE_CURVE('',#366,#365,#441,.T.);
#252=EDGE_CURVE('',#366,#363,#442,.T.);
#253=EDGE_CURVE('',#364,#367,#12,.T.);
#254=EDGE_CURVE('',#368,#363,#13,.T.);
#255=EDGE_CURVE('',#368,#367,#443,.T.);
#256=EDGE_CURVE('',#369,#370,#14,.T.);
#257=EDGE_CURVE('',#369,#371,#444,.T.);
#258=EDGE_CURVE('',#371,#372,#15,.T.);
#259=EDGE_CURVE('',#370,#372,#445,.T.);
#260=EDGE_CURVE('',#373,#374,#446,.T.);
#261=EDGE_CURVE('',#374,#367,#447,.T.);
#262=EDGE_CURVE('',#368,#373,#448,.T.);
#263=EDGE_CURVE('',#375,#376,#449,.T.);
#264=EDGE_CURVE('',#375,#374,#16,.F.);
#265=EDGE_CURVE('',#373,#377,#450,.T.);
#266=EDGE_CURVE('',#377,#378,#451,.T.);
#267=EDGE_CURVE('',#376,#378,#452,.T.);
#268=EDGE_CURVE('',#379,#380,#453,.T.);
#269=EDGE_CURVE('',#381,#379,#454,.T.);
#270=EDGE_CURVE('',#381,#382,#455,.T.);
#271=EDGE_CURVE('',#382,#380,#456,.T.);
#272=EDGE_CURVE('',#383,#384,#457,.T.);
#273=EDGE_CURVE('',#383,#372,#458,.T.);
#274=EDGE_CURVE('',#371,#376,#459,.T.);
#275=EDGE_CURVE('',#384,#378,#460,.T.);
#276=EDGE_CURVE('',#385,#386,#461,.T.);
#277=EDGE_CURVE('',#385,#387,#462,.T.);
#278=EDGE_CURVE('',#387,#388,#463,.T.);
#279=EDGE_CURVE('',#386,#388,#464,.T.);
#280=EDGE_CURVE('',#389,#390,#465,.T.);
#281=EDGE_CURVE('',#389,#391,#466,.T.);
#282=EDGE_CURVE('',#391,#392,#467,.T.);
#283=EDGE_CURVE('',#390,#392,#468,.T.);
#284=EDGE_CURVE('',#393,#394,#469,.T.);
#285=EDGE_CURVE('',#393,#395,#470,.T.);
#286=EDGE_CURVE('',#395,#396,#471,.T.);
#287=EDGE_CURVE('',#394,#396,#472,.T.);
#288=EDGE_CURVE('',#397,#398,#473,.T.);
#289=EDGE_CURVE('',#397,#399,#474,.T.);
#290=EDGE_CURVE('',#399,#400,#475,.T.);
#291=EDGE_CURVE('',#398,#400,#476,.T.);
#292=EDGE_CURVE('',#401,#402,#477,.T.);
#293=EDGE_CURVE('',#402,#403,#478,.T.);
#294=EDGE_CURVE('',#403,#404,#479,.T.);
#295=EDGE_CURVE('',#404,#401,#480,.T.);
#296=EDGE_CURVE('',#365,#405,#17,.T.);
#297=EDGE_CURVE('',#405,#383,#481,.T.);
#298=EDGE_CURVE('',#406,#384,#482,.T.);
#299=EDGE_CURVE('',#366,#406,#483,.T.);
#300=EDGE_CURVE('',#370,#405,#484,.T.);
#301=EDGE_CURVE('',#375,#369,#485,.T.);
#302=EDGE_CURVE('',#406,#377,#486,.T.);
#303=EDGE_CURVE('',#407,#408,#487,.T.);
#304=EDGE_CURVE('',#408,#409,#488,.T.);
#305=EDGE_CURVE('',#410,#409,#489,.T.);
#306=EDGE_CURVE('',#407,#410,#490,.T.);
#307=EDGE_CURVE('',#411,#407,#491,.T.);
#308=EDGE_CURVE('',#411,#412,#492,.T.);
#309=EDGE_CURVE('',#412,#408,#493,.T.);
#310=EDGE_CURVE('',#413,#410,#494,.T.);
#311=EDGE_CURVE('',#411,#413,#495,.T.);
#312=EDGE_CURVE('',#414,#409,#496,.T.);
#313=EDGE_CURVE('',#413,#414,#497,.T.);
#314=EDGE_CURVE('',#412,#414,#498,.T.);
#315=EDGE_CURVE('',#415,#380,#499,.T.);
#316=EDGE_CURVE('',#416,#415,#500,.T.);
#317=EDGE_CURVE('',#416,#379,#501,.T.);
#318=EDGE_CURVE('',#417,#382,#502,.T.);
#319=EDGE_CURVE('',#417,#415,#503,.T.);
#320=EDGE_CURVE('',#418,#381,#504,.T.);
#321=EDGE_CURVE('',#418,#417,#505,.T.);
#322=EDGE_CURVE('',#418,#416,#506,.T.);
#323=EDGE_CURVE('',#419,#385,#507,.T.);
#324=EDGE_CURVE('',#419,#420,#508,.T.);
#325=EDGE_CURVE('',#420,#387,#509,.T.);
#326=EDGE_CURVE('',#421,#386,#510,.T.);
#327=EDGE_CURVE('',#419,#421,#511,.T.);
#328=EDGE_CURVE('',#422,#388,#512,.T.);
#329=EDGE_CURVE('',#421,#422,#513,.T.);
#330=EDGE_CURVE('',#420,#422,#514,.T.);
#331=EDGE_CURVE('',#423,#389,#515,.T.);
#332=EDGE_CURVE('',#423,#424,#516,.T.);
#333=EDGE_CURVE('',#424,#391,#517,.T.);
#334=EDGE_CURVE('',#425,#390,#518,.T.);
#335=EDGE_CURVE('',#423,#425,#519,.T.);
#336=EDGE_CURVE('',#426,#392,#520,.T.);
#337=EDGE_CURVE('',#425,#426,#521,.T.);
#338=EDGE_CURVE('',#424,#426,#522,.T.);
#339=EDGE_CURVE('',#427,#393,#523,.T.);
#340=EDGE_CURVE('',#427,#428,#524,.T.);
#341=EDGE_CURVE('',#428,#395,#525,.T.);
#342=EDGE_CURVE('',#429,#394,#526,.T.);
#343=EDGE_CURVE('',#427,#429,#527,.T.);
#344=EDGE_CURVE('',#430,#396,#528,.T.);
#345=EDGE_CURVE('',#429,#430,#529,.T.);
#346=EDGE_CURVE('',#428,#430,#530,.T.);
#347=EDGE_CURVE('',#431,#397,#531,.T.);
#348=EDGE_CURVE('',#431,#432,#532,.T.);
#349=EDGE_CURVE('',#432,#399,#533,.T.);
#350=EDGE_CURVE('',#433,#398,#534,.T.);
#351=EDGE_CURVE('',#431,#433,#535,.T.);
#352=EDGE_CURVE('',#434,#400,#536,.T.);
#353=EDGE_CURVE('',#433,#434,#537,.T.);
#354=EDGE_CURVE('',#432,#434,#538,.T.);
#355=EDGE_CURVE('',#435,#402,#539,.T.);
#356=EDGE_CURVE('',#435,#436,#540,.T.);
#357=EDGE_CURVE('',#436,#403,#541,.T.);
#358=EDGE_CURVE('',#437,#401,#542,.T.);
#359=EDGE_CURVE('',#437,#435,#543,.T.);
#360=EDGE_CURVE('',#438,#404,#544,.T.);
#361=EDGE_CURVE('',#438,#437,#545,.T.);
#362=EDGE_CURVE('',#436,#438,#546,.T.);
#363=VERTEX_POINT('',#1112);
#364=VERTEX_POINT('',#1113);
#365=VERTEX_POINT('',#1115);
#366=VERTEX_POINT('',#1117);
#367=VERTEX_POINT('',#1136);
#368=VERTEX_POINT('',#1140);
#369=VERTEX_POINT('',#1159);
#370=VERTEX_POINT('',#1160);
#371=VERTEX_POINT('',#1162);
#372=VERTEX_POINT('',#1166);
#373=VERTEX_POINT('',#1170);
#374=VERTEX_POINT('',#1171);
#375=VERTEX_POINT('',#1176);
#376=VERTEX_POINT('',#1177);
#377=VERTEX_POINT('',#1182);
#378=VERTEX_POINT('',#1184);
#379=VERTEX_POINT('',#1188);
#380=VERTEX_POINT('',#1189);
#381=VERTEX_POINT('',#1191);
#382=VERTEX_POINT('',#1193);
#383=VERTEX_POINT('',#1196);
#384=VERTEX_POINT('',#1197);
#385=VERTEX_POINT('',#1202);
#386=VERTEX_POINT('',#1203);
#387=VERTEX_POINT('',#1205);
#388=VERTEX_POINT('',#1207);
#389=VERTEX_POINT('',#1210);
#390=VERTEX_POINT('',#1211);
#391=VERTEX_POINT('',#1213);
#392=VERTEX_POINT('',#1215);
#393=VERTEX_POINT('',#1218);
#394=VERTEX_POINT('',#1219);
#395=VERTEX_POINT('',#1221);
#396=VERTEX_POINT('',#1223);
#397=VERTEX_POINT('',#1226);
#398=VERTEX_POINT('',#1227);
#399=VERTEX_POINT('',#1229);
#400=VERTEX_POINT('',#1231);
#401=VERTEX_POINT('',#1234);
#402=VERTEX_POINT('',#1235);
#403=VERTEX_POINT('',#1237);
#404=VERTEX_POINT('',#1239);
#405=VERTEX_POINT('',#1245);
#406=VERTEX_POINT('',#1248);
#407=VERTEX_POINT('',#1258);
#408=VERTEX_POINT('',#1259);
#409=VERTEX_POINT('',#1261);
#410=VERTEX_POINT('',#1263);
#411=VERTEX_POINT('',#1267);
#412=VERTEX_POINT('',#1269);
#413=VERTEX_POINT('',#1273);
#414=VERTEX_POINT('',#1277);
#415=VERTEX_POINT('',#1284);
#416=VERTEX_POINT('',#1286);
#417=VERTEX_POINT('',#1290);
#418=VERTEX_POINT('',#1294);
#419=VERTEX_POINT('',#1301);
#420=VERTEX_POINT('',#1303);
#421=VERTEX_POINT('',#1307);
#422=VERTEX_POINT('',#1311);
#423=VERTEX_POINT('',#1318);
#424=VERTEX_POINT('',#1320);
#425=VERTEX_POINT('',#1324);
#426=VERTEX_POINT('',#1328);
#427=VERTEX_POINT('',#1335);
#428=VERTEX_POINT('',#1337);
#429=VERTEX_POINT('',#1341);
#430=VERTEX_POINT('',#1345);
#431=VERTEX_POINT('',#1352);
#432=VERTEX_POINT('',#1354);
#433=VERTEX_POINT('',#1358);
#434=VERTEX_POINT('',#1362);
#435=VERTEX_POINT('',#1369);
#436=VERTEX_POINT('',#1371);
#437=VERTEX_POINT('',#1375);
#438=VERTEX_POINT('',#1379);
#439=LINE('',#1111,#547);
#440=LINE('',#1114,#548);
#441=LINE('',#1116,#549);
#442=LINE('',#1118,#550);
#443=LINE('',#1141,#551);
#444=LINE('',#1161,#552);
#445=LINE('',#1167,#553);
#446=LINE('',#1169,#554);
#447=LINE('',#1172,#555);
#448=LINE('',#1173,#556);
#449=LINE('',#1175,#557);
#450=LINE('',#1181,#558);
#451=LINE('',#1183,#559);
#452=LINE('',#1185,#560);
#453=LINE('',#1187,#561);
#454=LINE('',#1190,#562);
#455=LINE('',#1192,#563);
#456=LINE('',#1194,#564);
#457=LINE('',#1195,#565);
#458=LINE('',#1198,#566);
#459=LINE('',#1199,#567);
#460=LINE('',#1200,#568);
#461=LINE('',#1201,#569);
#462=LINE('',#1204,#570);
#463=LINE('',#1206,#571);
#464=LINE('',#1208,#572);
#465=LINE('',#1209,#573);
#466=LINE('',#1212,#574);
#467=LINE('',#1214,#575);
#468=LINE('',#1216,#576);
#469=LINE('',#1217,#577);
#470=LINE('',#1220,#578);
#471=LINE('',#1222,#579);
#472=LINE('',#1224,#580);
#473=LINE('',#1225,#581);
#474=LINE('',#1228,#582);
#475=LINE('',#1230,#583);
#476=LINE('',#1232,#584);
#477=LINE('',#1233,#585);
#478=LINE('',#1236,#586);
#479=LINE('',#1238,#587);
#480=LINE('',#1240,#588);
#481=LINE('',#1246,#589);
#482=LINE('',#1247,#590);
#483=LINE('',#1249,#591);
#484=LINE('',#1251,#592);
#485=LINE('',#1253,#593);
#486=LINE('',#1255,#594);
#487=LINE('',#1257,#595);
#488=LINE('',#1260,#596);
#489=LINE('',#1262,#597);
#490=LINE('',#1264,#598);
#491=LINE('',#1266,#599);
#492=LINE('',#1268,#600);
#493=LINE('',#1270,#601);
#494=LINE('',#1272,#602);
#495=LINE('',#1274,#603);
#496=LINE('',#1276,#604);
#497=LINE('',#1278,#605);
#498=LINE('',#1280,#606);
#499=LINE('',#1283,#607);
#500=LINE('',#1285,#608);
#501=LINE('',#1287,#609);
#502=LINE('',#1289,#610);
#503=LINE('',#1291,#611);
#504=LINE('',#1293,#612);
#505=LINE('',#1295,#613);
#506=LINE('',#1297,#614);
#507=LINE('',#1300,#615);
#508=LINE('',#1302,#616);
#509=LINE('',#1304,#617);
#510=LINE('',#1306,#618);
#511=LINE('',#1308,#619);
#512=LINE('',#1310,#620);
#513=LINE('',#1312,#621);
#514=LINE('',#1314,#622);
#515=LINE('',#1317,#623);
#516=LINE('',#1319,#624);
#517=LINE('',#1321,#625);
#518=LINE('',#1323,#626);
#519=LINE('',#1325,#627);
#520=LINE('',#1327,#628);
#521=LINE('',#1329,#629);
#522=LINE('',#1331,#630);
#523=LINE('',#1334,#631);
#524=LINE('',#1336,#632);
#525=LINE('',#1338,#633);
#526=LINE('',#1340,#634);
#527=LINE('',#1342,#635);
#528=LINE('',#1344,#636);
#529=LINE('',#1346,#637);
#530=LINE('',#1348,#638);
#531=LINE('',#1351,#639);
#532=LINE('',#1353,#640);
#533=LINE('',#1355,#641);
#534=LINE('',#1357,#642);
#535=LINE('',#1359,#643);
#536=LINE('',#1361,#644);
#537=LINE('',#1363,#645);
#538=LINE('',#1365,#646);
#539=LINE('',#1368,#647);
#540=LINE('',#1370,#648);
#541=LINE('',#1372,#649);
#542=LINE('',#1374,#650);
#543=LINE('',#1376,#651);
#544=LINE('',#1378,#652);
#545=LINE('',#1380,#653);
#546=LINE('',#1382,#654);
#547=VECTOR('',#915,1.);
#548=VECTOR('',#916,1.);
#549=VECTOR('',#917,1.);
#550=VECTOR('',#918,1.);
#551=VECTOR('',#919,1.);
#552=VECTOR('',#920,1.);
#553=VECTOR('',#921,1.);
#554=VECTOR('',#924,1.);
#555=VECTOR('',#925,1.);
#556=VECTOR('',#926,1.);
#557=VECTOR('',#929,1.);
#558=VECTOR('',#930,1.);
#559=VECTOR('',#931,1.);
#560=VECTOR('',#932,1.);
#561=VECTOR('',#935,1.);
#562=VECTOR('',#936,1.);
#563=VECTOR('',#937,1.);
#564=VECTOR('',#938,1.);
#565=VECTOR('',#939,1.);
#566=VECTOR('',#940,1.);
#567=VECTOR('',#941,1.);
#568=VECTOR('',#942,1.);
#569=VECTOR('',#943,1.);
#570=VECTOR('',#944,1.);
#571=VECTOR('',#945,1.);
#572=VECTOR('',#946,1.);
#573=VECTOR('',#947,1.);
#574=VECTOR('',#948,1.);
#575=VECTOR('',#949,1.);
#576=VECTOR('',#950,1.);
#577=VECTOR('',#951,1.);
#578=VECTOR('',#952,1.);
#579=VECTOR('',#953,1.);
#580=VECTOR('',#954,1.);
#581=VECTOR('',#955,1.);
#582=VECTOR('',#956,1.);
#583=VECTOR('',#957,1.);
#584=VECTOR('',#958,1.);
#585=VECTOR('',#959,1.);
#586=VECTOR('',#960,1.);
#587=VECTOR('',#961,1.);
#588=VECTOR('',#962,1.);
#589=VECTOR('',#965,1.);
#590=VECTOR('',#966,1.);
#591=VECTOR('',#967,1.);
#592=VECTOR('',#970,1.);
#593=VECTOR('',#973,1.);
#594=VECTOR('',#976,1.);
#595=VECTOR('',#979,1.);
#596=VECTOR('',#980,1.);
#597=VECTOR('',#981,1.);
#598=VECTOR('',#982,1.);
#599=VECTOR('',#985,1.);
#600=VECTOR('',#986,1.);
#601=VECTOR('',#987,1.);
#602=VECTOR('',#990,1.);
#603=VECTOR('',#991,1.);
#604=VECTOR('',#994,1.);
#605=VECTOR('',#995,1.);
#606=VECTOR('',#998,1.);
#607=VECTOR('',#1003,1.);
#608=VECTOR('',#1004,1.);
#609=VECTOR('',#1005,1.);
#610=VECTOR('',#1008,1.);
#611=VECTOR('',#1009,1.);
#612=VECTOR('',#1012,1.);
#613=VECTOR('',#1013,1.);
#614=VECTOR('',#1016,1.);
#615=VECTOR('',#1021,1.);
#616=VECTOR('',#1022,1.);
#617=VECTOR('',#1023,1.);
#618=VECTOR('',#1026,1.);
#619=VECTOR('',#1027,1.);
#620=VECTOR('',#1030,1.);
#621=VECTOR('',#1031,1.);
#622=VECTOR('',#1034,1.);
#623=VECTOR('',#1039,1.);
#624=VECTOR('',#1040,1.);
#625=VECTOR('',#1041,1.);
#626=VECTOR('',#1044,1.);
#627=VECTOR('',#1045,1.);
#628=VECTOR('',#1048,1.);
#629=VECTOR('',#1049,1.);
#630=VECTOR('',#1052,1.);
#631=VECTOR('',#1057,1.);
#632=VECTOR('',#1058,1.);
#633=VECTOR('',#1059,1.);
#634=VECTOR('',#1062,1.);
#635=VECTOR('',#1063,1.);
#636=VECTOR('',#1066,1.);
#637=VECTOR('',#1067,1.);
#638=VECTOR('',#1070,1.);
#639=VECTOR('',#1075,1.);
#640=VECTOR('',#1076,1.);
#641=VECTOR('',#1077,1.);
#642=VECTOR('',#1080,1.);
#643=VECTOR('',#1081,1.);
#644=VECTOR('',#1084,1.);
#645=VECTOR('',#1085,1.);
#646=VECTOR('',#1088,1.);
#647=VECTOR('',#1093,1.);
#648=VECTOR('',#1094,1.);
#649=VECTOR('',#1095,1.);
#650=VECTOR('',#1098,1.);
#651=VECTOR('',#1099,1.);
#652=VECTOR('',#1102,1.);
#653=VECTOR('',#1103,1.);
#654=VECTOR('',#1106,1.);
#655=EDGE_LOOP('',(#21,#22,#23,#24));
#656=EDGE_LOOP('',(#25,#26,#27,#28));
#657=EDGE_LOOP('',(#29,#30,#31,#32));
#658=EDGE_LOOP('',(#33,#34,#35,#36));
#659=EDGE_LOOP('',(#37,#38,#39,#40,#41,#42));
#660=EDGE_LOOP('',(#43,#44,#45,#46));
#661=EDGE_LOOP('',(#47,#48,#49,#50,#51,#52));
#662=EDGE_LOOP('',(#53,#54,#55,#56));
#663=EDGE_LOOP('',(#57,#58,#59,#60));
#664=EDGE_LOOP('',(#61,#62,#63,#64));
#665=EDGE_LOOP('',(#65,#66,#67,#68));
#666=EDGE_LOOP('',(#69,#70,#71,#72));
#667=EDGE_LOOP('',(#73,#74,#75,#76,#77,#78));
#668=EDGE_LOOP('',(#79,#80,#81,#82));
#669=EDGE_LOOP('',(#83,#84,#85,#86));
#670=EDGE_LOOP('',(#87,#88,#89,#90,#91,#92));
#671=EDGE_LOOP('',(#93,#94,#95,#96));
#672=EDGE_LOOP('',(#97,#98,#99,#100));
#673=EDGE_LOOP('',(#101,#102,#103,#104));
#674=EDGE_LOOP('',(#105,#106,#107,#108));
#675=EDGE_LOOP('',(#109,#110,#111,#112));
#676=EDGE_LOOP('',(#113,#114,#115,#116));
#677=EDGE_LOOP('',(#117,#118,#119,#120));
#678=EDGE_LOOP('',(#121,#122,#123,#124));
#679=EDGE_LOOP('',(#125,#126,#127,#128));
#680=EDGE_LOOP('',(#129,#130,#131,#132));
#681=EDGE_LOOP('',(#133,#134,#135,#136));
#682=EDGE_LOOP('',(#137,#138,#139,#140));
#683=EDGE_LOOP('',(#141,#142,#143,#144));
#684=EDGE_LOOP('',(#145,#146,#147,#148));
#685=EDGE_LOOP('',(#149,#150,#151,#152));
#686=EDGE_LOOP('',(#153,#154,#155,#156));
#687=EDGE_LOOP('',(#157,#158,#159,#160));
#688=EDGE_LOOP('',(#161,#162,#163,#164));
#689=EDGE_LOOP('',(#165,#166,#167,#168));
#690=EDGE_LOOP('',(#169,#170,#171,#172));
#691=EDGE_LOOP('',(#173,#174,#175,#176));
#692=EDGE_LOOP('',(#177,#178,#179,#180));
#693=EDGE_LOOP('',(#181,#182,#183,#184));
#694=EDGE_LOOP('',(#185,#186,#187,#188));
#695=EDGE_LOOP('',(#189,#190,#191,#192));
#696=EDGE_LOOP('',(#193,#194,#195,#196));
#697=EDGE_LOOP('',(#197,#198,#199,#200));
#698=EDGE_LOOP('',(#201,#202,#203,#204));
#699=EDGE_LOOP('',(#205,#206,#207,#208));
#700=EDGE_LOOP('',(#209,#210,#211,#212));
#701=EDGE_LOOP('',(#213,#214,#215,#216));
#702=EDGE_LOOP('',(#217,#218,#219,#220));
#703=EDGE_LOOP('',(#221,#222,#223,#224));
#704=EDGE_LOOP('',(#225,#226,#227,#228));
#705=EDGE_LOOP('',(#229,#230,#231,#232));
#706=EDGE_LOOP('',(#233,#234,#235,#236));
#707=EDGE_LOOP('',(#237,#238,#239,#240));
#708=EDGE_LOOP('',(#241,#242,#243,#244,#245,#246,#247,#248));
#709=FACE_BOUND('',#655,.T.);
#710=FACE_BOUND('',#656,.T.);
#711=FACE_BOUND('',#657,.T.);
#712=FACE_BOUND('',#658,.T.);
#713=FACE_BOUND('',#659,.T.);
#714=FACE_BOUND('',#660,.T.);
#715=FACE_BOUND('',#661,.T.);
#716=FACE_BOUND('',#662,.T.);
#717=FACE_BOUND('',#663,.T.);
#718=FACE_BOUND('',#664,.T.);
#719=FACE_BOUND('',#665,.T.);
#720=FACE_BOUND('',#666,.T.);
#721=FACE_BOUND('',#667,.T.);
#722=FACE_BOUND('',#668,.T.);
#723=FACE_BOUND('',#669,.T.);
#724=FACE_BOUND('',#670,.T.);
#725=FACE_BOUND('',#671,.T.);
#726=FACE_BOUND('',#672,.T.);
#727=FACE_BOUND('',#673,.T.);
#728=FACE_BOUND('',#674,.T.);
#729=FACE_BOUND('',#675,.T.);
#730=FACE_BOUND('',#676,.T.);
#731=FACE_BOUND('',#677,.T.);
#732=FACE_BOUND('',#678,.T.);
#733=FACE_BOUND('',#679,.T.);
#734=FACE_BOUND('',#680,.T.);
#735=FACE_BOUND('',#681,.T.);
#736=FACE_BOUND('',#682,.T.);
#737=FACE_BOUND('',#683,.T.);
#738=FACE_BOUND('',#684,.T.);
#739=FACE_BOUND('',#685,.T.);
#740=FACE_BOUND('',#686,.T.);
#741=FACE_BOUND('',#687,.T.);
#742=FACE_BOUND('',#688,.T.);
#743=FACE_BOUND('',#689,.T.);
#744=FACE_BOUND('',#690,.T.);
#745=FACE_BOUND('',#691,.T.);
#746=FACE_BOUND('',#692,.T.);
#747=FACE_BOUND('',#693,.T.);
#748=FACE_BOUND('',#694,.T.);
#749=FACE_BOUND('',#695,.T.);
#750=FACE_BOUND('',#696,.T.);
#751=FACE_BOUND('',#697,.T.);
#752=FACE_BOUND('',#698,.T.);
#753=FACE_BOUND('',#699,.T.);
#754=FACE_BOUND('',#700,.T.);
#755=FACE_BOUND('',#701,.T.);
#756=FACE_BOUND('',#702,.T.);
#757=FACE_BOUND('',#703,.T.);
#758=FACE_BOUND('',#704,.T.);
#759=FACE_BOUND('',#705,.T.);
#760=FACE_BOUND('',#706,.T.);
#761=FACE_BOUND('',#707,.T.);
#762=FACE_BOUND('',#708,.T.);
#763=PLANE('',#867);
#764=PLANE('',#868);
#765=PLANE('',#869);
#766=PLANE('',#870);
#767=PLANE('',#871);
#768=PLANE('',#872);
#769=PLANE('',#873);
#770=PLANE('',#874);
#771=PLANE('',#875);
#772=PLANE('',#876);
#773=PLANE('',#877);
#774=PLANE('',#878);
#775=PLANE('',#879);
#776=PLANE('',#880);
#777=PLANE('',#881);
#778=PLANE('',#882);
#779=PLANE('',#883);
#780=PLANE('',#884);
#781=PLANE('',#885);
#782=PLANE('',#886);
#783=PLANE('',#887);
#784=PLANE('',#888);
#785=PLANE('',#889);
#786=PLANE('',#890);
#787=PLANE('',#891);
#788=PLANE('',#892);
#789=PLANE('',#893);
#790=PLANE('',#894);
#791=PLANE('',#895);
#792=PLANE('',#896);
#793=PLANE('',#897);
#794=PLANE('',#898);
#795=PLANE('',#899);
#796=PLANE('',#900);
#797=PLANE('',#901);
#798=PLANE('',#902);
#799=PLANE('',#903);
#800=PLANE('',#904);
#801=PLANE('',#905);
#802=PLANE('',#906);
#803=PLANE('',#907);
#804=PLANE('',#908);
#805=PLANE('',#909);
#806=PLANE('',#910);
#807=ADVANCED_FACE('',(#709),#763,.T.);
#808=ADVANCED_FACE('',(#710),#18,.F.);
#809=ADVANCED_FACE('',(#711),#19,.F.);
#810=ADVANCED_FACE('',(#712),#764,.T.);
#811=ADVANCED_FACE('',(#713),#765,.T.);
#812=ADVANCED_FACE('',(#714,#715,#716,#717,#718,#719,#720),#766,.T.);
#813=ADVANCED_FACE('',(#721),#767,.F.);
#814=ADVANCED_FACE('',(#722),#768,.T.);
#815=ADVANCED_FACE('',(#723),#769,.T.);
#816=ADVANCED_FACE('',(#724),#770,.F.);
#817=ADVANCED_FACE('',(#725,#726),#771,.F.);
#818=ADVANCED_FACE('',(#727),#772,.T.);
#819=ADVANCED_FACE('',(#728),#773,.F.);
#820=ADVANCED_FACE('',(#729),#774,.F.);
#821=ADVANCED_FACE('',(#730),#775,.T.);
#822=ADVANCED_FACE('',(#731),#776,.T.);
#823=ADVANCED_FACE('',(#732),#777,.F.);
#824=ADVANCED_FACE('',(#733),#778,.T.);
#825=ADVANCED_FACE('',(#734),#779,.T.);
#826=ADVANCED_FACE('',(#735),#780,.F.);
#827=ADVANCED_FACE('',(#736),#781,.T.);
#828=ADVANCED_FACE('',(#737),#782,.T.);
#829=ADVANCED_FACE('',(#738),#783,.F.);
#830=ADVANCED_FACE('',(#739),#784,.F.);
#831=ADVANCED_FACE('',(#740),#785,.T.);
#832=ADVANCED_FACE('',(#741),#786,.T.);
#833=ADVANCED_FACE('',(#742),#787,.T.);
#834=ADVANCED_FACE('',(#743),#788,.F.);
#835=ADVANCED_FACE('',(#744),#789,.F.);
#836=ADVANCED_FACE('',(#745),#790,.T.);
#837=ADVANCED_FACE('',(#746),#791,.T.);
#838=ADVANCED_FACE('',(#747),#792,.T.);
#839=ADVANCED_FACE('',(#748),#793,.F.);
#840=ADVANCED_FACE('',(#749),#794,.F.);
#841=ADVANCED_FACE('',(#750),#795,.T.);
#842=ADVANCED_FACE('',(#751),#796,.T.);
#843=ADVANCED_FACE('',(#752),#797,.T.);
#844=ADVANCED_FACE('',(#753),#798,.F.);
#845=ADVANCED_FACE('',(#754),#799,.F.);
#846=ADVANCED_FACE('',(#755),#800,.T.);
#847=ADVANCED_FACE('',(#756),#801,.T.);
#848=ADVANCED_FACE('',(#757),#802,.T.);
#849=ADVANCED_FACE('',(#758),#803,.T.);
#850=ADVANCED_FACE('',(#759),#804,.T.);
#851=ADVANCED_FACE('',(#760),#805,.T.);
#852=ADVANCED_FACE('',(#761),#806,.T.);
#853=ADVANCED_FACE('',(#762),#20,.T.);
#854=CLOSED_SHELL('',(#807,#808,#809,#810,#811,#812,#813,#814,#815,#816,
#817,#818,#819,#820,#821,#822,#823,#824,#825,#826,#827,#828,#829,#830,#831,
#832,#833,#834,#835,#836,#837,#838,#839,#840,#841,#842,#843,#844,#845,#846,
#847,#848,#849,#850,#851,#852,#853));
#855=STYLED_ITEM('',(#856),#863);
#856=PRESENTATION_STYLE_ASSIGNMENT((#857));
#857=SURFACE_STYLE_USAGE(.BOTH.,#858);
#858=SURFACE_SIDE_STYLE('',(#859));
#859=SURFACE_STYLE_FILL_AREA(#860);
#860=FILL_AREA_STYLE('',(#861));
#861=FILL_AREA_STYLE_COLOUR('',#862);
#862=COLOUR_RGB('',0.447058823529412,0.243137254901961,0.);
#863=MANIFOLD_SOLID_BREP('Part 1',#854);
#864=SHAPE_DEFINITION_REPRESENTATION(#1398,#865);
#865=SHAPE_REPRESENTATION('Part 1',(#866),#1393);
#866=AXIS2_PLACEMENT_3D('',#1109,#911,#912);
#867=AXIS2_PLACEMENT_3D('',#1110,#913,#914);
#868=AXIS2_PLACEMENT_3D('',#1168,#922,#923);
#869=AXIS2_PLACEMENT_3D('',#1174,#927,#928);
#870=AXIS2_PLACEMENT_3D('',#1186,#933,#934);
#871=AXIS2_PLACEMENT_3D('',#1241,#963,#964);
#872=AXIS2_PLACEMENT_3D('',#1250,#968,#969);
#873=AXIS2_PLACEMENT_3D('',#1252,#971,#972);
#874=AXIS2_PLACEMENT_3D('',#1254,#974,#975);
#875=AXIS2_PLACEMENT_3D('',#1256,#977,#978);
#876=AXIS2_PLACEMENT_3D('',#1265,#983,#984);
#877=AXIS2_PLACEMENT_3D('',#1271,#988,#989);
#878=AXIS2_PLACEMENT_3D('',#1275,#992,#993);
#879=AXIS2_PLACEMENT_3D('',#1279,#996,#997);
#880=AXIS2_PLACEMENT_3D('',#1281,#999,#1000);
#881=AXIS2_PLACEMENT_3D('',#1282,#1001,#1002);
#882=AXIS2_PLACEMENT_3D('',#1288,#1006,#1007);
#883=AXIS2_PLACEMENT_3D('',#1292,#1010,#1011);
#884=AXIS2_PLACEMENT_3D('',#1296,#1014,#1015);
#885=AXIS2_PLACEMENT_3D('',#1298,#1017,#1018);
#886=AXIS2_PLACEMENT_3D('',#1299,#1019,#1020);
#887=AXIS2_PLACEMENT_3D('',#1305,#1024,#1025);
#888=AXIS2_PLACEMENT_3D('',#1309,#1028,#1029);
#889=AXIS2_PLACEMENT_3D('',#1313,#1032,#1033);
#890=AXIS2_PLACEMENT_3D('',#1315,#1035,#1036);
#891=AXIS2_PLACEMENT_3D('',#1316,#1037,#1038);
#892=AXIS2_PLACEMENT_3D('',#1322,#1042,#1043);
#893=AXIS2_PLACEMENT_3D('',#1326,#1046,#1047);
#894=AXIS2_PLACEMENT_3D('',#1330,#1050,#1051);
#895=AXIS2_PLACEMENT_3D('',#1332,#1053,#1054);
#896=AXIS2_PLACEMENT_3D('',#1333,#1055,#1056);
#897=AXIS2_PLACEMENT_3D('',#1339,#1060,#1061);
#898=AXIS2_PLACEMENT_3D('',#1343,#1064,#1065);
#899=AXIS2_PLACEMENT_3D('',#1347,#1068,#1069);
#900=AXIS2_PLACEMENT_3D('',#1349,#1071,#1072);
#901=AXIS2_PLACEMENT_3D('',#1350,#1073,#1074);
#902=AXIS2_PLACEMENT_3D('',#1356,#1078,#1079);
#903=AXIS2_PLACEMENT_3D('',#1360,#1082,#1083);
#904=AXIS2_PLACEMENT_3D('',#1364,#1086,#1087);
#905=AXIS2_PLACEMENT_3D('',#1366,#1089,#1090);
#906=AXIS2_PLACEMENT_3D('',#1367,#1091,#1092);
#907=AXIS2_PLACEMENT_3D('',#1373,#1096,#1097);
#908=AXIS2_PLACEMENT_3D('',#1377,#1100,#1101);
#909=AXIS2_PLACEMENT_3D('',#1381,#1104,#1105);
#910=AXIS2_PLACEMENT_3D('',#1383,#1107,#1108);
#911=DIRECTION('',(0.,0.,1.));
#912=DIRECTION('',(1.,0.,0.));
#913=DIRECTION('',(0.,0.,-1.));
#914=DIRECTION('',(-1.,0.,0.));
#915=DIRECTION('',(0.,-1.,0.));
#916=DIRECTION('',(-1.,0.,0.));
#917=DIRECTION('',(0.,-1.,0.));
#918=DIRECTION('',(1.,0.,0.));
#919=DIRECTION('',(0.,-1.,0.));
#920=DIRECTION('',(0.,-1.,0.));
#921=DIRECTION('',(0.,-1.,0.));
#922=DIRECTION('',(0.,0.,-1.));
#923=DIRECTION('',(-1.,0.,0.));
#924=DIRECTION('',(0.,-1.,0.));
#925=DIRECTION('',(-1.,0.,0.));
#926=DIRECTION('',(1.,0.,0.));
#927=DIRECTION('',(1.,0.,1.48690583655155E-16));
#928=DIRECTION('',(1.48690583655155E-16,0.,-1.));
#929=DIRECTION('',(0.,-1.,0.));
#930=DIRECTION('',(-1.48690583655155E-16,0.,1.));
#931=DIRECTION('',(0.,-1.,0.));
#932=DIRECTION('',(-1.48690583655155E-16,0.,1.));
#933=DIRECTION('',(0.,-1.,0.));
#934=DIRECTION('',(1.,0.,0.));
#935=DIRECTION('',(2.74364373581695E-16,0.,-1.));
#936=DIRECTION('',(-1.,0.,0.));
#937=DIRECTION('',(3.56769724058333E-16,0.,-1.));
#938=DIRECTION('',(-1.,0.,-3.3848262945889E-16));
#939=DIRECTION('',(0.,0.,1.));
#940=DIRECTION('',(1.,0.,0.));
#941=DIRECTION('',(1.,0.,0.));
#942=DIRECTION('',(1.,0.,0.));
#943=DIRECTION('',(1.,0.,4.95635278850516E-16));
#944=DIRECTION('',(0.,0.,1.));
#945=DIRECTION('',(1.,0.,4.95635278850516E-16));
#946=DIRECTION('',(0.,0.,1.));
#947=DIRECTION('',(2.78808248110526E-16,0.,-1.));
#948=DIRECTION('',(1.,0.,4.34516915299122E-16));
#949=DIRECTION('',(1.39404124055263E-16,0.,-1.));
#950=DIRECTION('',(1.,0.,2.17258457649561E-16));
#951=DIRECTION('',(2.78808248110525E-16,0.,-1.));
#952=DIRECTION('',(1.,0.,3.26035370864546E-16));
#953=DIRECTION('',(1.39404124055263E-16,0.,-1.));
#954=DIRECTION('',(1.,0.,2.17356913909698E-16));
#955=DIRECTION('',(2.78808248110525E-16,0.,-1.));
#956=DIRECTION('',(1.,0.,3.25887686474342E-16));
#957=DIRECTION('',(4.18212372165788E-16,0.,-1.));
#958=DIRECTION('',(1.,0.,3.25887686474342E-16));
#959=DIRECTION('',(0.,0.,1.));
#960=DIRECTION('',(1.,0.,0.));
#961=DIRECTION('',(1.16301772957902E-16,0.,-1.));
#962=DIRECTION('',(-1.,0.,-3.3848262945889E-16));
#963=DIRECTION('',(1.,0.,0.));
#964=DIRECTION('',(0.,0.,-1.));
#965=DIRECTION('',(0.,-1.,0.));
#966=DIRECTION('',(0.,-1.,0.));
#967=DIRECTION('',(0.,0.,1.));
#968=DIRECTION('',(0.,0.,-1.));
#969=DIRECTION('',(-1.,0.,0.));
#970=DIRECTION('',(-1.,0.,0.));
#971=DIRECTION('',(0.,0.,-1.));
#972=DIRECTION('',(-1.,0.,0.));
#973=DIRECTION('',(-1.,0.,0.));
#974=DIRECTION('',(0.,-1.,0.));
#975=DIRECTION('',(1.,0.,0.));
#976=DIRECTION('',(1.,0.,0.));
#977=DIRECTION('',(0.,0.,1.));
#978=DIRECTION('',(1.,0.,0.));
#979=DIRECTION('',(0.,1.,0.));
#980=DIRECTION('',(1.,0.,0.));
#981=DIRECTION('',(0.,1.,0.));
#982=DIRECTION('',(1.,0.,0.));
#983=DIRECTION('',(-1.,0.,0.));
#984=DIRECTION('',(0.,0.,1.));
#985=DIRECTION('',(0.,0.,-1.));
#986=DIRECTION('',(0.,1.,0.));
#987=DIRECTION('',(0.,0.,-1.));
#988=DIRECTION('',(0.,1.,0.));
#989=DIRECTION('',(0.,0.,1.));
#990=DIRECTION('',(0.,0.,-1.));
#991=DIRECTION('',(1.,0.,0.));
#992=DIRECTION('',(-1.,0.,0.));
#993=DIRECTION('',(0.,0.,1.));
#994=DIRECTION('',(0.,0.,-1.));
#995=DIRECTION('',(0.,1.,0.));
#996=DIRECTION('',(0.,1.,0.));
#997=DIRECTION('',(0.,0.,1.));
#998=DIRECTION('',(1.,0.,0.));
#999=DIRECTION('',(0.,0.,1.));
#1000=DIRECTION('',(1.,0.,0.));
#1001=DIRECTION('',(-1.,0.,-2.74364373581695E-16));
#1002=DIRECTION('',(-2.74364373581695E-16,0.,1.));
#1003=DIRECTION('',(0.,-1.,0.));
#1004=DIRECTION('',(2.74364373581695E-16,0.,-1.));
#1005=DIRECTION('',(0.,-1.,0.));
#1006=DIRECTION('',(-3.3848262945889E-16,0.,1.));
#1007=DIRECTION('',(1.,0.,3.3848262945889E-16));
#1008=DIRECTION('',(0.,-1.,0.));
#1009=DIRECTION('',(-1.,0.,-3.3848262945889E-16));
#1010=DIRECTION('',(-1.,0.,-3.56769724058333E-16));
#1011=DIRECTION('',(-3.56769724058333E-16,0.,1.));
#1012=DIRECTION('',(0.,-1.,0.));
#1013=DIRECTION('',(3.56769724058333E-16,0.,-1.));
#1014=DIRECTION('',(0.,0.,1.));
#1015=DIRECTION('',(1.,0.,0.));
#1016=DIRECTION('',(-1.,0.,0.));
#1017=DIRECTION('',(0.,-1.,0.));
#1018=DIRECTION('',(1.,0.,0.));
#1019=DIRECTION('',(1.,0.,0.));
#1020=DIRECTION('',(0.,0.,-1.));
#1021=DIRECTION('',(0.,-1.,0.));
#1022=DIRECTION('',(0.,0.,1.));
#1023=DIRECTION('',(0.,-1.,0.));
#1024=DIRECTION('',(4.95635278850517E-16,0.,-1.));
#1025=DIRECTION('',(-1.,0.,-4.95635278850517E-16));
#1026=DIRECTION('',(0.,-1.,0.));
#1027=DIRECTION('',(1.,0.,4.95635278850516E-16));
#1028=DIRECTION('',(1.,0.,0.));
#1029=DIRECTION('',(0.,0.,-1.));
#1030=DIRECTION('',(0.,-1.,0.));
#1031=DIRECTION('',(0.,0.,1.));
#1032=DIRECTION('',(4.95635278850516E-16,0.,-1.));
#1033=DIRECTION('',(-1.,0.,-4.95635278850516E-16));
#1034=DIRECTION('',(1.,0.,4.95635278850516E-16));
#1035=DIRECTION('',(0.,-1.,0.));
#1036=DIRECTION('',(1.,0.,0.));
#1037=DIRECTION('',(4.34516915299122E-16,0.,-1.));
#1038=DIRECTION('',(-1.,0.,-4.34516915299122E-16));
#1039=DIRECTION('',(0.,-1.,0.));
#1040=DIRECTION('',(1.,0.,4.34516915299122E-16));
#1041=DIRECTION('',(0.,-1.,0.));
#1042=DIRECTION('',(-1.,0.,-2.78808248110526E-16));
#1043=DIRECTION('',(-2.78808248110526E-16,0.,1.));
#1044=DIRECTION('',(0.,-1.,0.));
#1045=DIRECTION('',(2.78808248110526E-16,0.,-1.));
#1046=DIRECTION('',(2.17258457649561E-16,0.,-1.));
#1047=DIRECTION('',(-1.,0.,-2.17258457649561E-16));
#1048=DIRECTION('',(0.,-1.,0.));
#1049=DIRECTION('',(1.,0.,2.17258457649561E-16));
#1050=DIRECTION('',(-1.,0.,-1.39404124055263E-16));
#1051=DIRECTION('',(-1.39404124055263E-16,0.,1.));
#1052=DIRECTION('',(1.39404124055263E-16,0.,-1.));
#1053=DIRECTION('',(0.,-1.,0.));
#1054=DIRECTION('',(1.,0.,0.));
#1055=DIRECTION('',(3.26035370864546E-16,0.,-1.));
#1056=DIRECTION('',(-1.,0.,-3.26035370864546E-16));
#1057=DIRECTION('',(0.,-1.,0.));
#1058=DIRECTION('',(1.,0.,3.26035370864546E-16));
#1059=DIRECTION('',(0.,-1.,0.));
#1060=DIRECTION('',(-1.,0.,-2.78808248110525E-16));
#1061=DIRECTION('',(-2.78808248110525E-16,0.,1.));
#1062=DIRECTION('',(0.,-1.,0.));
#1063=DIRECTION('',(2.78808248110525E-16,0.,-1.));
#1064=DIRECTION('',(2.17356913909698E-16,0.,-1.));
#1065=DIRECTION('',(-1.,0.,-2.17356913909698E-16));
#1066=DIRECTION('',(0.,-1.,0.));
#1067=DIRECTION('',(1.,0.,2.17356913909698E-16));
#1068=DIRECTION('',(-1.,0.,-1.39404124055263E-16));
#1069=DIRECTION('',(-1.39404124055263E-16,0.,1.));
#1070=DIRECTION('',(1.39404124055263E-16,0.,-1.));
#1071=DIRECTION('',(0.,-1.,0.));
#1072=DIRECTION('',(1.,0.,0.));
#1073=DIRECTION('',(3.25887686474342E-16,0.,-1.));
#1074=DIRECTION('',(-1.,0.,-3.25887686474342E-16));
#1075=DIRECTION('',(0.,-1.,0.));
#1076=DIRECTION('',(1.,0.,3.25887686474342E-16));
#1077=DIRECTION('',(0.,-1.,0.));
#1078=DIRECTION('',(-1.,0.,-2.78808248110525E-16));
#1079=DIRECTION('',(-2.78808248110525E-16,0.,1.));
#1080=DIRECTION('',(0.,-1.,0.));
#1081=DIRECTION('',(2.78808248110525E-16,0.,-1.));
#1082=DIRECTION('',(3.25887686474342E-16,0.,-1.));
#1083=DIRECTION('',(-1.,0.,-3.25887686474342E-16));
#1084=DIRECTION('',(0.,-1.,0.));
#1085=DIRECTION('',(1.,0.,3.25887686474342E-16));
#1086=DIRECTION('',(-1.,0.,-4.18212372165788E-16));
#1087=DIRECTION('',(-4.18212372165788E-16,0.,1.));
#1088=DIRECTION('',(4.18212372165788E-16,0.,-1.));
#1089=DIRECTION('',(0.,-1.,0.));
#1090=DIRECTION('',(1.,0.,0.));
#1091=DIRECTION('',(0.,0.,-1.));
#1092=DIRECTION('',(-1.,0.,0.));
#1093=DIRECTION('',(0.,-1.,0.));
#1094=DIRECTION('',(1.,0.,0.));
#1095=DIRECTION('',(0.,-1.,0.));
#1096=DIRECTION('',(1.,0.,0.));
#1097=DIRECTION('',(0.,0.,-1.));
#1098=DIRECTION('',(0.,-1.,0.));
#1099=DIRECTION('',(0.,0.,1.));
#1100=DIRECTION('',(-3.3848262945889E-16,0.,1.));
#1101=DIRECTION('',(1.,0.,3.3848262945889E-16));
#1102=DIRECTION('',(0.,-1.,0.));
#1103=DIRECTION('',(-1.,0.,-3.3848262945889E-16));
#1104=DIRECTION('',(-1.,0.,-1.16301772957902E-16));
#1105=DIRECTION('',(-1.16301772957902E-16,0.,1.));
#1106=DIRECTION('',(1.16301772957902E-16,0.,-1.));
#1107=DIRECTION('',(0.,-1.,0.));
#1108=DIRECTION('',(1.,0.,0.));
#1109=CARTESIAN_POINT('',(0.,0.,0.));
#1110=CARTESIAN_POINT('',(-0.0202259390469319,0.01875,-0.0261521745845676));
#1111=CARTESIAN_POINT('',(-0.0189134390469319,0.01875,-0.0261521745845676));
#1112=CARTESIAN_POINT('',(-0.0189134390469319,0.01875,-0.0261521745845676));
#1113=CARTESIAN_POINT('',(-0.0189134390469319,0.016125,-0.0261521745845676));
#1114=CARTESIAN_POINT('',(0.0142365609530681,0.016125,-0.0261521745845676));
#1115=CARTESIAN_POINT('',(-0.0215384390469319,0.016125,-0.0261521745845676));
#1116=CARTESIAN_POINT('',(-0.0215384390469319,0.01875,-0.0261521745845676));
#1117=CARTESIAN_POINT('',(-0.0215384390469319,0.01875,-0.0261521745845676));
#1118=CARTESIAN_POINT('',(-0.0202259390469319,0.01875,-0.0261521745845676));
#1119=CARTESIAN_POINT('',(0.00958656095306809,0.01875,-0.0261521745845676));
#1120=CARTESIAN_POINT('',(0.00958656095306809,0.0123976422923141,-0.0261521745845676));
#1121=CARTESIAN_POINT('',(-1.1713882400811E-5,0.01875,-0.0238343029096722));
#1122=CARTESIAN_POINT('',(-1.1713882400811E-5,0.0123976422923141,-0.0238343029096722));
#1123=CARTESIAN_POINT('',(-0.0095117138824008,0.01875,-0.0238343029096722));
#1124=CARTESIAN_POINT('',(-0.0095117138824008,0.0123976422923141,-0.0238343029096722));
#1125=CARTESIAN_POINT('',(-0.0189134390469319,0.01875,-0.0261521745845676));
#1126=CARTESIAN_POINT('',(-0.0189134390469319,0.0123976422923141,-0.0261521745845676));
#1127=CARTESIAN_POINT('',(-0.0189134390469319,0.016125,-0.0261521745845676));
#1128=CARTESIAN_POINT('',(-0.0166448405959425,0.0152573468697936,-0.025592881476203));
#1129=CARTESIAN_POINT('',(-0.0131871546900179,0.0139868746061637,-0.0249433959893978));
#1130=CARTESIAN_POINT('',(-0.00839278202744156,0.0127258006898017,-0.0244899061356641));
#1131=CARTESIAN_POINT('',(-0.00467590970065858,0.0123219187255585,-0.0243736492243032));
#1132=CARTESIAN_POINT('',(-0.000947567029202262,0.0127526568407758,-0.0244983267518681));
#1133=CARTESIAN_POINT('',(0.0038394173437862,0.0140168078401538,-0.0249570982493997));
#1134=CARTESIAN_POINT('',(0.00730933164016492,0.015271880944767,-0.0256022502062705));
#1135=CARTESIAN_POINT('',(0.00958656095306809,0.016125,-0.0261521745845676));
#1136=CARTESIAN_POINT('',(0.00958656095306809,0.016125,-0.0261521745845676));
#1137=CARTESIAN_POINT('',(0.00958656095306809,0.01875,-0.0261521745845676));
#1138=CARTESIAN_POINT('',(-0.00481085130013526,0.01875,-0.0226753670722246));
#1139=CARTESIAN_POINT('',(-0.0189134390469319,0.01875,-0.0261521745845676));
#1140=CARTESIAN_POINT('',(0.00958656095306809,0.01875,-0.0261521745845676));
#1141=CARTESIAN_POINT('',(0.00958656095306809,0.01875,-0.0261521745845676));
#1142=CARTESIAN_POINT('',(0.00958656095306809,0.0062597582791502,-0.0261521745845676));
#1143=CARTESIAN_POINT('',(0.00958656095306809,0.,-0.0261521745845676));
#1144=CARTESIAN_POINT('',(-1.1713882400811E-5,0.0062597582791502,-0.0238343029096723));
#1145=CARTESIAN_POINT('',(-1.1713882400811E-5,0.,-0.0238343029096723));
#1146=CARTESIAN_POINT('',(-0.00951171388240081,0.0062597582791502,-0.0238343029096723));
#1147=CARTESIAN_POINT('',(-0.00951171388240081,0.,-0.0238343029096723));
#1148=CARTESIAN_POINT('',(-0.0189134390469319,0.0062597582791502,-0.0261521745845676));
#1149=CARTESIAN_POINT('',(-0.0189134390469319,0.,-0.0261521745845676));
#1150=CARTESIAN_POINT('',(0.00958656095306809,0.002625,-0.0261521745845676));
#1151=CARTESIAN_POINT('',(0.00730519763552616,0.00344763041447736,-0.0256012518922588));
#1152=CARTESIAN_POINT('',(0.00384088935374127,0.00466423979703686,-0.0249568943878101));
#1153=CARTESIAN_POINT('',(-0.000955649106670328,0.005901787935923,-0.0244981227170779));
#1154=CARTESIAN_POINT('',(-0.00465493733935605,0.00632389807360085,-0.024373881255535));
#1155=CARTESIAN_POINT('',(-0.00838551236465936,0.00592962368700184,-0.0244892817081957));
#1156=CARTESIAN_POINT('',(-0.013169986415906,0.00469772072743669,-0.0249412382719398));
#1157=CARTESIAN_POINT('',(-0.0166385200342931,0.00346245576817462,-0.0255913232248651));
#1158=CARTESIAN_POINT('',(-0.0189134390469319,0.002625,-0.0261521745845676));
#1159=CARTESIAN_POINT('',(0.00958656095306809,0.002625,-0.0261521745845676));
#1160=CARTESIAN_POINT('',(-0.0189134390469319,0.002625,-0.0261521745845676));
#1161=CARTESIAN_POINT('',(0.00958656095306809,0.01875,-0.0261521745845676));
#1162=CARTESIAN_POINT('',(0.00958656095306809,0.,-0.0261521745845676));
#1163=CARTESIAN_POINT('',(0.00958656095306809,0.,-0.0261521745845676));
#1164=CARTESIAN_POINT('',(-0.00481085130013526,0.,-0.0226753670722246));
#1165=CARTESIAN_POINT('',(-0.0189134390469319,0.,-0.0261521745845676));
#1166=CARTESIAN_POINT('',(-0.0189134390469319,0.,-0.0261521745845676));
#1167=CARTESIAN_POINT('',(-0.0189134390469319,0.01875,-0.0261521745845676));
#1168=CARTESIAN_POINT('',(0.0108990609530681,0.01875,-0.0261521745845676));
#1169=CARTESIAN_POINT('',(0.0122115609530681,0.01875,-0.0261521745845676));
#1170=CARTESIAN_POINT('',(0.0122115609530681,0.01875,-0.0261521745845676));
#1171=CARTESIAN_POINT('',(0.0122115609530681,0.016125,-0.0261521745845676));
#1172=CARTESIAN_POINT('',(0.0142365609530681,0.016125,-0.0261521745845676));
#1173=CARTESIAN_POINT('',(0.0108990609530681,0.01875,-0.0261521745845676));
#1174=CARTESIAN_POINT('',(0.0122115609530681,0.01875,9.78254154324534E-5));
#1175=CARTESIAN_POINT('',(0.0122115609530681,0.01875,-0.0261521745845676));
#1176=CARTESIAN_POINT('',(0.0122115609530681,0.002625,-0.0261521745845676));
#1177=CARTESIAN_POINT('',(0.0122115609530681,0.,-0.0261521745845676));
#1178=CARTESIAN_POINT('',(0.0122115609530681,0.016125,-0.0261521745845676));
#1179=CARTESIAN_POINT('',(0.0122115609530681,0.00924607110209763,-0.0217179860919714));
#1180=CARTESIAN_POINT('',(0.0122115609530681,0.002625,-0.0261521745845676));
#1181=CARTESIAN_POINT('',(0.0122115609530681,0.01875,9.78254154324534E-5));
#1182=CARTESIAN_POINT('',(0.0122115609530681,0.01875,0.0263478254154325));
#1183=CARTESIAN_POINT('',(0.0122115609530681,0.01875,0.0263478254154325));
#1184=CARTESIAN_POINT('',(0.0122115609530681,0.,0.0263478254154325));
#1185=CARTESIAN_POINT('',(0.0122115609530681,0.,9.78254154324534E-5));
#1186=CARTESIAN_POINT('',(-0.00466343904693191,0.,9.78254154324586E-5));
#1187=CARTESIAN_POINT('',(-0.00428843904693191,0.,0.0240373192671686));
#1188=CARTESIAN_POINT('',(-0.00428843904693191,0.,0.0252228254154324));
#1189=CARTESIAN_POINT('',(-0.00428843904693191,0.,0.0179293668103526));
#1190=CARTESIAN_POINT('',(0.00339906095306808,0.,0.0252228254154324));
#1191=CARTESIAN_POINT('',(0.0110865609530681,0.,0.0252228254154324));
#1192=CARTESIAN_POINT('',(0.0110865609530681,0.,0.0215760961128926));
#1193=CARTESIAN_POINT('',(0.0110865609530681,0.,0.0179293668103526));
#1194=CARTESIAN_POINT('',(0.00339906095306809,0.,0.0179293668103526));
#1195=CARTESIAN_POINT('',(-0.0215384390469319,0.,9.78254154324534E-5));
#1196=CARTESIAN_POINT('',(-0.0215384390469319,0.,-0.0261521745845676));
#1197=CARTESIAN_POINT('',(-0.0215384390469319,0.,0.0263478254154325));
#1198=CARTESIAN_POINT('',(-0.0202259390469319,0.,-0.0261521745845676));
#1199=CARTESIAN_POINT('',(0.0108990609530681,0.,-0.0261521745845676));
#1200=CARTESIAN_POINT('',(-0.00466343904693192,0.,0.0263478254154325));
#1201=CARTESIAN_POINT('',(-0.0125384390469319,0.,0.0078464793103526));
#1202=CARTESIAN_POINT('',(-0.0204134390469319,0.,0.0078464793103526));
#1203=CARTESIAN_POINT('',(0.0110865609530681,0.,0.00784647931035261));
#1204=CARTESIAN_POINT('',(-0.0204134390469319,0.,0.0125129230603526));
#1205=CARTESIAN_POINT('',(-0.0204134390469319,0.,0.0171793668103526));
#1206=CARTESIAN_POINT('',(-0.0125384390469319,0.,0.0171793668103526));
#1207=CARTESIAN_POINT('',(0.0110865609530681,0.,0.0171793668103526));
#1208=CARTESIAN_POINT('',(0.0110865609530681,0.,0.0125129230603526));
#1209=CARTESIAN_POINT('',(-0.0204134390469319,0.,-0.0177357322687476));
#1210=CARTESIAN_POINT('',(-0.0204134390469319,0.,-0.0130692899529275));
#1211=CARTESIAN_POINT('',(-0.0204134390469319,0.,-0.0224021745845676));
#1212=CARTESIAN_POINT('',(-0.0144249835407201,0.,-0.0130692899529275));
#1213=CARTESIAN_POINT('',(0.0110865609530681,0.,-0.0130692899529275));
#1214=CARTESIAN_POINT('',(0.0110865609530681,0.,-0.0177357322687475));
#1215=CARTESIAN_POINT('',(0.0110865609530681,0.,-0.0224021745845676));
#1216=CARTESIAN_POINT('',(-0.0144249835407201,0.,-0.0224021745845676));
#1217=CARTESIAN_POINT('',(-0.0204134390469319,0.,-0.00765284763710748));
#1218=CARTESIAN_POINT('',(-0.0204134390469319,0.,-0.00298640532128746));
#1219=CARTESIAN_POINT('',(-0.0204134390469319,0.,-0.0123192899529275));
#1220=CARTESIAN_POINT('',(-0.014427696134134,0.,-0.00298640532128746));
#1221=CARTESIAN_POINT('',(0.0110865609530681,0.,-0.00298640532128745));
#1222=CARTESIAN_POINT('',(0.0110865609530681,0.,-0.00765284763710747));
#1223=CARTESIAN_POINT('',(0.0110865609530681,0.,-0.0123192899529275));
#1224=CARTESIAN_POINT('',(-0.014427696134134,0.,-0.0123192899529275));
#1225=CARTESIAN_POINT('',(-0.0204134390469319,0.,0.00243003699453257));
#1226=CARTESIAN_POINT('',(-0.0204134390469319,0.,0.0070964793103526));
#1227=CARTESIAN_POINT('',(-0.0204134390469319,0.,-0.00223640532128746));
#1228=CARTESIAN_POINT('',(-0.0144249835407201,0.,0.0070964793103526));
#1229=CARTESIAN_POINT('',(0.0110865609530681,0.,0.00709647931035261));
#1230=CARTESIAN_POINT('',(0.0110865609530681,0.,0.00243003699453258));
#1231=CARTESIAN_POINT('',(0.0110865609530681,0.,-0.00223640532128745));
#1232=CARTESIAN_POINT('',(-0.0144249835407201,0.,-0.00223640532128745));
#1233=CARTESIAN_POINT('',(-0.0204134390469319,0.,0.0215760961128926));
#1234=CARTESIAN_POINT('',(-0.0204134390469319,0.,0.0179293668103526));
#1235=CARTESIAN_POINT('',(-0.0204134390469319,0.,0.0252228254154324));
#1236=CARTESIAN_POINT('',(-0.0138445388415668,0.,0.0252228254154324));
#1237=CARTESIAN_POINT('',(-0.00503843904693191,0.,0.0252228254154324));
#1238=CARTESIAN_POINT('',(-0.00503843904693191,0.,0.0207260623677229));
#1239=CARTESIAN_POINT('',(-0.00503843904693191,0.,0.0179293668103526));
#1240=CARTESIAN_POINT('',(-0.0127259390469319,0.,0.0179293668103526));
#1241=CARTESIAN_POINT('',(-0.0215384390469319,0.01875,9.78254154324534E-5));
#1242=CARTESIAN_POINT('',(-0.0215384390469319,0.016125,-0.0261521745845676));
#1243=CARTESIAN_POINT('',(-0.0215384390469319,0.00924607110209763,-0.0217179860919714));
#1244=CARTESIAN_POINT('',(-0.0215384390469319,0.002625,-0.0261521745845676));
#1245=CARTESIAN_POINT('',(-0.0215384390469319,0.002625,-0.0261521745845676));
#1246=CARTESIAN_POINT('',(-0.0215384390469319,0.01875,-0.0261521745845676));
#1247=CARTESIAN_POINT('',(-0.0215384390469319,0.01875,0.0263478254154325));
#1248=CARTESIAN_POINT('',(-0.0215384390469319,0.01875,0.0263478254154325));
#1249=CARTESIAN_POINT('',(-0.0215384390469319,0.01875,9.78254154324534E-5));
#1250=CARTESIAN_POINT('',(-0.0202259390469319,0.01875,-0.0261521745845676));
#1251=CARTESIAN_POINT('',(0.0142365609530681,0.002625,-0.0261521745845676));
#1252=CARTESIAN_POINT('',(0.0108990609530681,0.01875,-0.0261521745845676));
#1253=CARTESIAN_POINT('',(0.0142365609530681,0.002625,-0.0261521745845676));
#1254=CARTESIAN_POINT('',(-0.00466343904693191,0.01875,9.78254154324586E-5));
#1255=CARTESIAN_POINT('',(-0.00466343904693192,0.01875,0.0263478254154325));
#1256=CARTESIAN_POINT('',(-0.00466343904693192,0.009375,0.0263478254154325));
#1257=CARTESIAN_POINT('',(-0.0226634390469319,0.009375,0.0263478254154325));
#1258=CARTESIAN_POINT('',(-0.0226634390469319,-0.001125,0.0263478254154325));
#1259=CARTESIAN_POINT('',(-0.0226634390469319,0.019875,0.0263478254154325));
#1260=CARTESIAN_POINT('',(-0.00466343904693192,0.019875,0.0263478254154325));
#1261=CARTESIAN_POINT('',(0.0133365609530681,0.019875,0.0263478254154325));
#1262=CARTESIAN_POINT('',(0.0133365609530681,0.009375,0.0263478254154325));
#1263=CARTESIAN_POINT('',(0.0133365609530681,-0.001125,0.0263478254154325));
#1264=CARTESIAN_POINT('',(-0.00466343904693191,-0.001125,0.0263478254154325));
#1265=CARTESIAN_POINT('',(-0.0226634390469319,0.009375,0.0274728254154325));
#1266=CARTESIAN_POINT('',(-0.0226634390469319,-0.001125,0.0274728254154325));
#1267=CARTESIAN_POINT('',(-0.0226634390469319,-0.001125,0.0274728254154325));
#1268=CARTESIAN_POINT('',(-0.0226634390469319,0.009375,0.0274728254154325));
#1269=CARTESIAN_POINT('',(-0.0226634390469319,0.019875,0.0274728254154325));
#1270=CARTESIAN_POINT('',(-0.0226634390469319,0.019875,0.0274728254154325));
#1271=CARTESIAN_POINT('',(-0.00466343904693191,-0.001125,0.0274728254154325));
#1272=CARTESIAN_POINT('',(0.0133365609530681,-0.001125,0.0274728254154325));
#1273=CARTESIAN_POINT('',(0.0133365609530681,-0.001125,0.0274728254154325));
#1274=CARTESIAN_POINT('',(-0.00466343904693191,-0.001125,0.0274728254154325));
#1275=CARTESIAN_POINT('',(0.0133365609530681,0.009375,0.0274728254154325));
#1276=CARTESIAN_POINT('',(0.0133365609530681,0.019875,0.0274728254154325));
#1277=CARTESIAN_POINT('',(0.0133365609530681,0.019875,0.0274728254154325));
#1278=CARTESIAN_POINT('',(0.0133365609530681,0.009375,0.0274728254154325));
#1279=CARTESIAN_POINT('',(-0.00466343904693192,0.019875,0.0274728254154325));
#1280=CARTESIAN_POINT('',(-0.00466343904693192,0.019875,0.0274728254154325));
#1281=CARTESIAN_POINT('',(-0.00466343904693192,0.009375,0.0274728254154325));
#1282=CARTESIAN_POINT('',(-0.00428843904693191,0.00015,0.0240373192671686));
#1283=CARTESIAN_POINT('',(-0.00428843904693191,0.00015,0.0179293668103526));
#1284=CARTESIAN_POINT('',(-0.00428843904693191,0.00015,0.0179293668103526));
#1285=CARTESIAN_POINT('',(-0.00428843904693191,0.00015,0.0240373192671686));
#1286=CARTESIAN_POINT('',(-0.00428843904693191,0.00015,0.0252228254154324));
#1287=CARTESIAN_POINT('',(-0.00428843904693191,0.00015,0.0252228254154324));
#1288=CARTESIAN_POINT('',(0.00339906095306809,0.00015,0.0179293668103526));
#1289=CARTESIAN_POINT('',(0.0110865609530681,0.00015,0.0179293668103526));
#1290=CARTESIAN_POINT('',(0.0110865609530681,0.00015,0.0179293668103526));
#1291=CARTESIAN_POINT('',(0.00339906095306809,0.00015,0.0179293668103526));
#1292=CARTESIAN_POINT('',(0.0110865609530681,0.00015,0.0215760961128926));
#1293=CARTESIAN_POINT('',(0.0110865609530681,0.00015,0.0252228254154324));
#1294=CARTESIAN_POINT('',(0.0110865609530681,0.00015,0.0252228254154324));
#1295=CARTESIAN_POINT('',(0.0110865609530681,0.00015,0.0215760961128926));
#1296=CARTESIAN_POINT('',(0.00339906095306808,0.00015,0.0252228254154324));
#1297=CARTESIAN_POINT('',(0.00339906095306808,0.00015,0.0252228254154324));
#1298=CARTESIAN_POINT('',(-0.00466343904693191,0.00015,9.78254154324586E-5));
#1299=CARTESIAN_POINT('',(-0.0204134390469319,0.00015,0.0125129230603526));
#1300=CARTESIAN_POINT('',(-0.0204134390469319,0.00015,0.0078464793103526));
#1301=CARTESIAN_POINT('',(-0.0204134390469319,0.00015,0.0078464793103526));
#1302=CARTESIAN_POINT('',(-0.0204134390469319,0.00015,0.0125129230603526));
#1303=CARTESIAN_POINT('',(-0.0204134390469319,0.00015,0.0171793668103526));
#1304=CARTESIAN_POINT('',(-0.0204134390469319,0.00015,0.0171793668103526));
#1305=CARTESIAN_POINT('',(-0.0125384390469319,0.00015,0.0078464793103526));
#1306=CARTESIAN_POINT('',(0.0110865609530681,0.00015,0.00784647931035261));
#1307=CARTESIAN_POINT('',(0.0110865609530681,0.00015,0.00784647931035261));
#1308=CARTESIAN_POINT('',(-0.0125384390469319,0.00015,0.0078464793103526));
#1309=CARTESIAN_POINT('',(0.0110865609530681,0.00015,0.0125129230603526));
#1310=CARTESIAN_POINT('',(0.0110865609530681,0.00015,0.0171793668103526));
#1311=CARTESIAN_POINT('',(0.0110865609530681,0.00015,0.0171793668103526));
#1312=CARTESIAN_POINT('',(0.0110865609530681,0.00015,0.0125129230603526));
#1313=CARTESIAN_POINT('',(-0.0125384390469319,0.00015,0.0171793668103526));
#1314=CARTESIAN_POINT('',(-0.0125384390469319,0.00015,0.0171793668103526));
#1315=CARTESIAN_POINT('',(-0.00466343904693191,0.00015,9.78254154324586E-5));
#1316=CARTESIAN_POINT('',(-0.0144249835407201,0.00015,-0.0130692899529275));
#1317=CARTESIAN_POINT('',(-0.0204134390469319,0.00015,-0.0130692899529275));
#1318=CARTESIAN_POINT('',(-0.0204134390469319,0.00015,-0.0130692899529275));
#1319=CARTESIAN_POINT('',(-0.0144249835407201,0.00015,-0.0130692899529275));
#1320=CARTESIAN_POINT('',(0.0110865609530681,0.00015,-0.0130692899529275));
#1321=CARTESIAN_POINT('',(0.0110865609530681,0.00015,-0.0130692899529275));
#1322=CARTESIAN_POINT('',(-0.0204134390469319,0.00015,-0.0177357322687476));
#1323=CARTESIAN_POINT('',(-0.0204134390469319,0.00015,-0.0224021745845676));
#1324=CARTESIAN_POINT('',(-0.0204134390469319,0.00015,-0.0224021745845676));
#1325=CARTESIAN_POINT('',(-0.0204134390469319,0.00015,-0.0177357322687476));
#1326=CARTESIAN_POINT('',(-0.0144249835407201,0.00015,-0.0224021745845676));
#1327=CARTESIAN_POINT('',(0.0110865609530681,0.00015,-0.0224021745845676));
#1328=CARTESIAN_POINT('',(0.0110865609530681,0.00015,-0.0224021745845676));
#1329=CARTESIAN_POINT('',(-0.0144249835407201,0.00015,-0.0224021745845676));
#1330=CARTESIAN_POINT('',(0.0110865609530681,0.00015,-0.0177357322687475));
#1331=CARTESIAN_POINT('',(0.0110865609530681,0.00015,-0.0177357322687475));
#1332=CARTESIAN_POINT('',(-0.00466343904693191,0.00015,9.78254154324586E-5));
#1333=CARTESIAN_POINT('',(-0.014427696134134,0.00015,-0.00298640532128746));
#1334=CARTESIAN_POINT('',(-0.0204134390469319,0.00015,-0.00298640532128746));
#1335=CARTESIAN_POINT('',(-0.0204134390469319,0.00015,-0.00298640532128746));
#1336=CARTESIAN_POINT('',(-0.014427696134134,0.00015,-0.00298640532128746));
#1337=CARTESIAN_POINT('',(0.0110865609530681,0.00015,-0.00298640532128745));
#1338=CARTESIAN_POINT('',(0.0110865609530681,0.00015,-0.00298640532128745));
#1339=CARTESIAN_POINT('',(-0.0204134390469319,0.00015,-0.00765284763710748));
#1340=CARTESIAN_POINT('',(-0.0204134390469319,0.00015,-0.0123192899529275));
#1341=CARTESIAN_POINT('',(-0.0204134390469319,0.00015,-0.0123192899529275));
#1342=CARTESIAN_POINT('',(-0.0204134390469319,0.00015,-0.00765284763710748));
#1343=CARTESIAN_POINT('',(-0.014427696134134,0.00015,-0.0123192899529275));
#1344=CARTESIAN_POINT('',(0.0110865609530681,0.00015,-0.0123192899529275));
#1345=CARTESIAN_POINT('',(0.0110865609530681,0.00015,-0.0123192899529275));
#1346=CARTESIAN_POINT('',(-0.014427696134134,0.00015,-0.0123192899529275));
#1347=CARTESIAN_POINT('',(0.0110865609530681,0.00015,-0.00765284763710747));
#1348=CARTESIAN_POINT('',(0.0110865609530681,0.00015,-0.00765284763710747));
#1349=CARTESIAN_POINT('',(-0.00466343904693191,0.00015,9.78254154324586E-5));
#1350=CARTESIAN_POINT('',(-0.0144249835407201,0.00015,0.0070964793103526));
#1351=CARTESIAN_POINT('',(-0.0204134390469319,0.00015,0.0070964793103526));
#1352=CARTESIAN_POINT('',(-0.0204134390469319,0.00015,0.0070964793103526));
#1353=CARTESIAN_POINT('',(-0.0144249835407201,0.00015,0.0070964793103526));
#1354=CARTESIAN_POINT('',(0.0110865609530681,0.00015,0.00709647931035261));
#1355=CARTESIAN_POINT('',(0.0110865609530681,0.00015,0.00709647931035261));
#1356=CARTESIAN_POINT('',(-0.0204134390469319,0.00015,0.00243003699453257));
#1357=CARTESIAN_POINT('',(-0.0204134390469319,0.00015,-0.00223640532128746));
#1358=CARTESIAN_POINT('',(-0.0204134390469319,0.00015,-0.00223640532128746));
#1359=CARTESIAN_POINT('',(-0.0204134390469319,0.00015,0.00243003699453257));
#1360=CARTESIAN_POINT('',(-0.0144249835407201,0.00015,-0.00223640532128745));
#1361=CARTESIAN_POINT('',(0.0110865609530681,0.00015,-0.00223640532128745));
#1362=CARTESIAN_POINT('',(0.0110865609530681,0.00015,-0.00223640532128745));
#1363=CARTESIAN_POINT('',(-0.0144249835407201,0.00015,-0.00223640532128745));
#1364=CARTESIAN_POINT('',(0.0110865609530681,0.00015,0.00243003699453258));
#1365=CARTESIAN_POINT('',(0.0110865609530681,0.00015,0.00243003699453258));
#1366=CARTESIAN_POINT('',(-0.00466343904693191,0.00015,9.78254154324586E-5));
#1367=CARTESIAN_POINT('',(-0.0138445388415668,0.00015,0.0252228254154324));
#1368=CARTESIAN_POINT('',(-0.0204134390469319,0.00015,0.0252228254154324));
#1369=CARTESIAN_POINT('',(-0.0204134390469319,0.00015,0.0252228254154324));
#1370=CARTESIAN_POINT('',(-0.0138445388415668,0.00015,0.0252228254154324));
#1371=CARTESIAN_POINT('',(-0.00503843904693191,0.00015,0.0252228254154324));
#1372=CARTESIAN_POINT('',(-0.00503843904693191,0.00015,0.0252228254154324));
#1373=CARTESIAN_POINT('',(-0.0204134390469319,0.00015,0.0215760961128926));
#1374=CARTESIAN_POINT('',(-0.0204134390469319,0.00015,0.0179293668103526));
#1375=CARTESIAN_POINT('',(-0.0204134390469319,0.00015,0.0179293668103526));
#1376=CARTESIAN_POINT('',(-0.0204134390469319,0.00015,0.0215760961128926));
#1377=CARTESIAN_POINT('',(-0.0127259390469319,0.00015,0.0179293668103526));
#1378=CARTESIAN_POINT('',(-0.00503843904693191,0.00015,0.0179293668103526));
#1379=CARTESIAN_POINT('',(-0.00503843904693191,0.00015,0.0179293668103526));
#1380=CARTESIAN_POINT('',(-0.0127259390469319,0.00015,0.0179293668103526));
#1381=CARTESIAN_POINT('',(-0.00503843904693191,0.00015,0.0207260623677229));
#1382=CARTESIAN_POINT('',(-0.00503843904693191,0.00015,0.0207260623677229));
#1383=CARTESIAN_POINT('',(-0.00466343904693191,0.00015,9.78254154324586E-5));
#1384=CARTESIAN_POINT('',(0.0122115609530681,0.016125,-0.0261521745845676));
#1385=CARTESIAN_POINT('',(-0.0215384390469319,0.016125,-0.0261521745845676));
#1386=CARTESIAN_POINT('',(0.0122115609530681,0.0115390474013984,-0.0231960489228368));
#1387=CARTESIAN_POINT('',(-0.0215384390469319,0.0115390474013984,-0.0231960489228368));
#1388=CARTESIAN_POINT('',(0.0122115609530681,0.00703904740139842,-0.0231960489228368));
#1389=CARTESIAN_POINT('',(-0.0215384390469319,0.00703904740139842,-0.0231960489228368));
#1390=CARTESIAN_POINT('',(0.0122115609530681,0.002625,-0.0261521745845676));
#1391=CARTESIAN_POINT('',(-0.0215384390469319,0.002625,-0.0261521745845676));
#1392=MECHANICAL_DESIGN_GEOMETRIC_PRESENTATION_REPRESENTATION('',(#855),
#1393);
#1393=(
GEOMETRIC_REPRESENTATION_CONTEXT(3)
GLOBAL_UNCERTAINTY_ASSIGNED_CONTEXT((#1394))
GLOBAL_UNIT_ASSIGNED_CONTEXT((#1397,#1396,#1395))
REPRESENTATION_CONTEXT('Part 1','TOP_LEVEL_ASSEMBLY_PART')
);
#1394=UNCERTAINTY_MEASURE_WITH_UNIT(LENGTH_MEASURE(2.E-5),#1397,
'DISTANCE_ACCURACY_VALUE','Maximum Tolerance applied to model');
#1395=(
NAMED_UNIT(*)
SI_UNIT($,.STERADIAN.)
SOLID_ANGLE_UNIT()
);
#1396=(
NAMED_UNIT(*)
PLANE_ANGLE_UNIT()
SI_UNIT($,.RADIAN.)
);
#1397=(
LENGTH_UNIT()
NAMED_UNIT(*)
SI_UNIT($,.METRE.)
);
#1398=PRODUCT_DEFINITION_SHAPE('','',#1399);
#1399=PRODUCT_DEFINITION('','',#1401,#1400);
#1400=PRODUCT_DEFINITION_CONTEXT('',#1407,'design');
#1401=PRODUCT_DEFINITION_FORMATION_WITH_SPECIFIED_SOURCE('','',#1403,
 .NOT_KNOWN.);
#1402=PRODUCT_RELATED_PRODUCT_CATEGORY('','',(#1403));
#1403=PRODUCT('Part 1','Part 1','Part 1',(#1405));
#1404=PRODUCT_CATEGORY('','');
#1405=PRODUCT_CONTEXT('',#1407,'mechanical');
#1406=APPLICATION_PROTOCOL_DEFINITION('international standard',
'ap242_managed_model_based_3d_engineering',2020,#1407);
#1407=APPLICATION_CONTEXT('managed model based 3d engineering');
ENDSEC;
END-ISO-10303-21;
