ISO-10303-21;
HEADER;
/* Generated by software containing ST-Developer
 * from STEP Tools, Inc. (www.steptools.com) 
 */
/* OPTION: using custom renumber hook */

FILE_DESCRIPTION(
/* description */ ('STEP AP242 Edition 2',
'CAx-IF Rec.Pracs.---Representation and Presentation of Product Manufa
cturing Information (PMI)---4.0---2014-10-13',
'CAx-IF Rec.Pracs.---3D Tessellated Geometry---0.4---2014-09-14','2;1',
'CAx-IF Rec.Pracs.---User Defined Attributes---1.5---2016-08-15'),
/* implementation_level */ '2;1');

FILE_NAME(
/* name */ 'dresser 2 - Part 1',
/* time_stamp */ '2026-09-07T14:06:31Z',
/* author */ (''),
/* organization */ (''),
/* preprocessor_version */ 'ST-DEVELOPER v20',
/* originating_system */ 'ONSHAPE BY PTC INC, 1.220',
/* authorisation */ '  ');

FILE_SCHEMA (('AP242_MANAGED_MODEL_BASED_3D_ENGINEERING_MIM_LF { 1 0 10303 442 3 1 4 }'));
ENDSEC;

DATA;
#10=SHAPE_REPRESENTATION_RELATIONSHIP('','',#1177,#11);
#11=ADVANCED_BREP_SHAPE_REPRESENTATION('',(#1175),#1851);
#12=ORIENTED_EDGE('',*,*,#324,.T.);
#13=ORIENTED_EDGE('',*,*,#325,.T.);
#14=ORIENTED_EDGE('',*,*,#326,.F.);
#15=ORIENTED_EDGE('',*,*,#327,.T.);
#16=ORIENTED_EDGE('',*,*,#328,.T.);
#17=ORIENTED_EDGE('',*,*,#329,.F.);
#18=ORIENTED_EDGE('',*,*,#330,.F.);
#19=ORIENTED_EDGE('',*,*,#331,.F.);
#20=ORIENTED_EDGE('',*,*,#332,.F.);
#21=ORIENTED_EDGE('',*,*,#333,.T.);
#22=ORIENTED_EDGE('',*,*,#334,.T.);
#23=ORIENTED_EDGE('',*,*,#335,.F.);
#24=ORIENTED_EDGE('',*,*,#336,.T.);
#25=ORIENTED_EDGE('',*,*,#337,.T.);
#26=ORIENTED_EDGE('',*,*,#338,.T.);
#27=ORIENTED_EDGE('',*,*,#339,.F.);
#28=ORIENTED_EDGE('',*,*,#340,.T.);
#29=ORIENTED_EDGE('',*,*,#341,.T.);
#30=ORIENTED_EDGE('',*,*,#342,.F.);
#31=ORIENTED_EDGE('',*,*,#343,.F.);
#32=ORIENTED_EDGE('',*,*,#344,.T.);
#33=ORIENTED_EDGE('',*,*,#345,.T.);
#34=ORIENTED_EDGE('',*,*,#346,.F.);
#35=ORIENTED_EDGE('',*,*,#347,.F.);
#36=ORIENTED_EDGE('',*,*,#326,.T.);
#37=ORIENTED_EDGE('',*,*,#348,.T.);
#38=ORIENTED_EDGE('',*,*,#349,.F.);
#39=ORIENTED_EDGE('',*,*,#350,.T.);
#40=ORIENTED_EDGE('',*,*,#351,.T.);
#41=ORIENTED_EDGE('',*,*,#352,.T.);
#42=ORIENTED_EDGE('',*,*,#336,.F.);
#43=ORIENTED_EDGE('',*,*,#353,.T.);
#44=ORIENTED_EDGE('',*,*,#354,.F.);
#45=ORIENTED_EDGE('',*,*,#355,.F.);
#46=ORIENTED_EDGE('',*,*,#356,.F.);
#47=ORIENTED_EDGE('',*,*,#349,.T.);
#48=ORIENTED_EDGE('',*,*,#357,.T.);
#49=ORIENTED_EDGE('',*,*,#358,.T.);
#50=ORIENTED_EDGE('',*,*,#351,.F.);
#51=ORIENTED_EDGE('',*,*,#359,.T.);
#52=ORIENTED_EDGE('',*,*,#360,.F.);
#53=ORIENTED_EDGE('',*,*,#361,.F.);
#54=ORIENTED_EDGE('',*,*,#362,.T.);
#55=ORIENTED_EDGE('',*,*,#363,.T.);
#56=ORIENTED_EDGE('',*,*,#364,.F.);
#57=ORIENTED_EDGE('',*,*,#365,.T.);
#58=ORIENTED_EDGE('',*,*,#329,.T.);
#59=ORIENTED_EDGE('',*,*,#366,.F.);
#60=ORIENTED_EDGE('',*,*,#341,.F.);
#61=ORIENTED_EDGE('',*,*,#367,.T.);
#62=ORIENTED_EDGE('',*,*,#368,.T.);
#63=ORIENTED_EDGE('',*,*,#369,.T.);
#64=ORIENTED_EDGE('',*,*,#370,.F.);
#65=ORIENTED_EDGE('',*,*,#371,.T.);
#66=ORIENTED_EDGE('',*,*,#372,.T.);
#67=ORIENTED_EDGE('',*,*,#373,.F.);
#68=ORIENTED_EDGE('',*,*,#374,.F.);
#69=ORIENTED_EDGE('',*,*,#375,.T.);
#70=ORIENTED_EDGE('',*,*,#376,.T.);
#71=ORIENTED_EDGE('',*,*,#377,.F.);
#72=ORIENTED_EDGE('',*,*,#378,.F.);
#73=ORIENTED_EDGE('',*,*,#379,.T.);
#74=ORIENTED_EDGE('',*,*,#380,.T.);
#75=ORIENTED_EDGE('',*,*,#381,.F.);
#76=ORIENTED_EDGE('',*,*,#382,.F.);
#77=ORIENTED_EDGE('',*,*,#383,.T.);
#78=ORIENTED_EDGE('',*,*,#384,.T.);
#79=ORIENTED_EDGE('',*,*,#385,.F.);
#80=ORIENTED_EDGE('',*,*,#386,.T.);
#81=ORIENTED_EDGE('',*,*,#387,.T.);
#82=ORIENTED_EDGE('',*,*,#388,.T.);
#83=ORIENTED_EDGE('',*,*,#389,.T.);
#84=ORIENTED_EDGE('',*,*,#390,.F.);
#85=ORIENTED_EDGE('',*,*,#391,.T.);
#86=ORIENTED_EDGE('',*,*,#392,.T.);
#87=ORIENTED_EDGE('',*,*,#364,.T.);
#88=ORIENTED_EDGE('',*,*,#393,.F.);
#89=ORIENTED_EDGE('',*,*,#330,.T.);
#90=ORIENTED_EDGE('',*,*,#365,.F.);
#91=ORIENTED_EDGE('',*,*,#392,.F.);
#92=ORIENTED_EDGE('',*,*,#394,.F.);
#93=ORIENTED_EDGE('',*,*,#395,.T.);
#94=ORIENTED_EDGE('',*,*,#367,.F.);
#95=ORIENTED_EDGE('',*,*,#340,.F.);
#96=ORIENTED_EDGE('',*,*,#396,.F.);
#97=ORIENTED_EDGE('',*,*,#397,.T.);
#98=ORIENTED_EDGE('',*,*,#368,.F.);
#99=ORIENTED_EDGE('',*,*,#395,.F.);
#100=ORIENTED_EDGE('',*,*,#397,.F.);
#101=ORIENTED_EDGE('',*,*,#398,.T.);
#102=ORIENTED_EDGE('',*,*,#338,.F.);
#103=ORIENTED_EDGE('',*,*,#399,.F.);
#104=ORIENTED_EDGE('',*,*,#357,.F.);
#105=ORIENTED_EDGE('',*,*,#400,.T.);
#106=ORIENTED_EDGE('',*,*,#355,.T.);
#107=ORIENTED_EDGE('',*,*,#401,.F.);
#108=ORIENTED_EDGE('',*,*,#324,.F.);
#109=ORIENTED_EDGE('',*,*,#402,.T.);
#110=ORIENTED_EDGE('',*,*,#390,.T.);
#111=ORIENTED_EDGE('',*,*,#369,.F.);
#112=ORIENTED_EDGE('',*,*,#356,.T.);
#113=ORIENTED_EDGE('',*,*,#400,.F.);
#114=ORIENTED_EDGE('',*,*,#359,.F.);
#115=ORIENTED_EDGE('',*,*,#353,.F.);
#116=ORIENTED_EDGE('',*,*,#343,.T.);
#117=ORIENTED_EDGE('',*,*,#403,.T.);
#118=ORIENTED_EDGE('',*,*,#327,.F.);
#119=ORIENTED_EDGE('',*,*,#350,.F.);
#120=ORIENTED_EDGE('',*,*,#404,.T.);
#121=ORIENTED_EDGE('',*,*,#405,.T.);
#122=ORIENTED_EDGE('',*,*,#406,.F.);
#123=ORIENTED_EDGE('',*,*,#407,.F.);
#124=ORIENTED_EDGE('',*,*,#342,.T.);
#125=ORIENTED_EDGE('',*,*,#366,.T.);
#126=ORIENTED_EDGE('',*,*,#328,.F.);
#127=ORIENTED_EDGE('',*,*,#403,.F.);
#128=ORIENTED_EDGE('',*,*,#404,.F.);
#129=ORIENTED_EDGE('',*,*,#408,.F.);
#130=ORIENTED_EDGE('',*,*,#409,.T.);
#131=ORIENTED_EDGE('',*,*,#410,.T.);
#132=ORIENTED_EDGE('',*,*,#407,.T.);
#133=ORIENTED_EDGE('',*,*,#411,.F.);
#134=ORIENTED_EDGE('',*,*,#412,.F.);
#135=ORIENTED_EDGE('',*,*,#408,.T.);
#136=ORIENTED_EDGE('',*,*,#406,.T.);
#137=ORIENTED_EDGE('',*,*,#413,.F.);
#138=ORIENTED_EDGE('',*,*,#414,.F.);
#139=ORIENTED_EDGE('',*,*,#411,.T.);
#140=ORIENTED_EDGE('',*,*,#405,.F.);
#141=ORIENTED_EDGE('',*,*,#410,.F.);
#142=ORIENTED_EDGE('',*,*,#415,.T.);
#143=ORIENTED_EDGE('',*,*,#413,.T.);
#144=ORIENTED_EDGE('',*,*,#409,.F.);
#145=ORIENTED_EDGE('',*,*,#412,.T.);
#146=ORIENTED_EDGE('',*,*,#414,.T.);
#147=ORIENTED_EDGE('',*,*,#415,.F.);
#148=ORIENTED_EDGE('',*,*,#360,.T.);
#149=ORIENTED_EDGE('',*,*,#416,.F.);
#150=ORIENTED_EDGE('',*,*,#417,.F.);
#151=ORIENTED_EDGE('',*,*,#418,.T.);
#152=ORIENTED_EDGE('',*,*,#363,.F.);
#153=ORIENTED_EDGE('',*,*,#419,.F.);
#154=ORIENTED_EDGE('',*,*,#420,.T.);
#155=ORIENTED_EDGE('',*,*,#416,.T.);
#156=ORIENTED_EDGE('',*,*,#362,.F.);
#157=ORIENTED_EDGE('',*,*,#421,.F.);
#158=ORIENTED_EDGE('',*,*,#422,.T.);
#159=ORIENTED_EDGE('',*,*,#419,.T.);
#160=ORIENTED_EDGE('',*,*,#361,.T.);
#161=ORIENTED_EDGE('',*,*,#418,.F.);
#162=ORIENTED_EDGE('',*,*,#423,.F.);
#163=ORIENTED_EDGE('',*,*,#421,.T.);
#164=ORIENTED_EDGE('',*,*,#417,.T.);
#165=ORIENTED_EDGE('',*,*,#420,.F.);
#166=ORIENTED_EDGE('',*,*,#422,.F.);
#167=ORIENTED_EDGE('',*,*,#423,.T.);
#168=ORIENTED_EDGE('',*,*,#371,.F.);
#169=ORIENTED_EDGE('',*,*,#424,.F.);
#170=ORIENTED_EDGE('',*,*,#425,.T.);
#171=ORIENTED_EDGE('',*,*,#426,.T.);
#172=ORIENTED_EDGE('',*,*,#370,.T.);
#173=ORIENTED_EDGE('',*,*,#427,.F.);
#174=ORIENTED_EDGE('',*,*,#428,.F.);
#175=ORIENTED_EDGE('',*,*,#424,.T.);
#176=ORIENTED_EDGE('',*,*,#373,.T.);
#177=ORIENTED_EDGE('',*,*,#429,.F.);
#178=ORIENTED_EDGE('',*,*,#430,.F.);
#179=ORIENTED_EDGE('',*,*,#427,.T.);
#180=ORIENTED_EDGE('',*,*,#372,.F.);
#181=ORIENTED_EDGE('',*,*,#426,.F.);
#182=ORIENTED_EDGE('',*,*,#431,.T.);
#183=ORIENTED_EDGE('',*,*,#429,.T.);
#184=ORIENTED_EDGE('',*,*,#425,.F.);
#185=ORIENTED_EDGE('',*,*,#428,.T.);
#186=ORIENTED_EDGE('',*,*,#430,.T.);
#187=ORIENTED_EDGE('',*,*,#431,.F.);
#188=ORIENTED_EDGE('',*,*,#375,.F.);
#189=ORIENTED_EDGE('',*,*,#432,.F.);
#190=ORIENTED_EDGE('',*,*,#433,.T.);
#191=ORIENTED_EDGE('',*,*,#434,.T.);
#192=ORIENTED_EDGE('',*,*,#374,.T.);
#193=ORIENTED_EDGE('',*,*,#435,.F.);
#194=ORIENTED_EDGE('',*,*,#436,.F.);
#195=ORIENTED_EDGE('',*,*,#432,.T.);
#196=ORIENTED_EDGE('',*,*,#377,.T.);
#197=ORIENTED_EDGE('',*,*,#437,.F.);
#198=ORIENTED_EDGE('',*,*,#438,.F.);
#199=ORIENTED_EDGE('',*,*,#435,.T.);
#200=ORIENTED_EDGE('',*,*,#376,.F.);
#201=ORIENTED_EDGE('',*,*,#434,.F.);
#202=ORIENTED_EDGE('',*,*,#439,.T.);
#203=ORIENTED_EDGE('',*,*,#437,.T.);
#204=ORIENTED_EDGE('',*,*,#433,.F.);
#205=ORIENTED_EDGE('',*,*,#436,.T.);
#206=ORIENTED_EDGE('',*,*,#438,.T.);
#207=ORIENTED_EDGE('',*,*,#439,.F.);
#208=ORIENTED_EDGE('',*,*,#379,.F.);
#209=ORIENTED_EDGE('',*,*,#440,.F.);
#210=ORIENTED_EDGE('',*,*,#441,.T.);
#211=ORIENTED_EDGE('',*,*,#442,.T.);
#212=ORIENTED_EDGE('',*,*,#378,.T.);
#213=ORIENTED_EDGE('',*,*,#443,.F.);
#214=ORIENTED_EDGE('',*,*,#444,.F.);
#215=ORIENTED_EDGE('',*,*,#440,.T.);
#216=ORIENTED_EDGE('',*,*,#381,.T.);
#217=ORIENTED_EDGE('',*,*,#445,.F.);
#218=ORIENTED_EDGE('',*,*,#446,.F.);
#219=ORIENTED_EDGE('',*,*,#443,.T.);
#220=ORIENTED_EDGE('',*,*,#380,.F.);
#221=ORIENTED_EDGE('',*,*,#442,.F.);
#222=ORIENTED_EDGE('',*,*,#447,.T.);
#223=ORIENTED_EDGE('',*,*,#445,.T.);
#224=ORIENTED_EDGE('',*,*,#441,.F.);
#225=ORIENTED_EDGE('',*,*,#444,.T.);
#226=ORIENTED_EDGE('',*,*,#446,.T.);
#227=ORIENTED_EDGE('',*,*,#447,.F.);
#228=ORIENTED_EDGE('',*,*,#383,.F.);
#229=ORIENTED_EDGE('',*,*,#448,.F.);
#230=ORIENTED_EDGE('',*,*,#449,.T.);
#231=ORIENTED_EDGE('',*,*,#450,.T.);
#232=ORIENTED_EDGE('',*,*,#382,.T.);
#233=ORIENTED_EDGE('',*,*,#451,.F.);
#234=ORIENTED_EDGE('',*,*,#452,.F.);
#235=ORIENTED_EDGE('',*,*,#448,.T.);
#236=ORIENTED_EDGE('',*,*,#385,.T.);
#237=ORIENTED_EDGE('',*,*,#453,.F.);
#238=ORIENTED_EDGE('',*,*,#454,.F.);
#239=ORIENTED_EDGE('',*,*,#451,.T.);
#240=ORIENTED_EDGE('',*,*,#384,.F.);
#241=ORIENTED_EDGE('',*,*,#450,.F.);
#242=ORIENTED_EDGE('',*,*,#455,.T.);
#243=ORIENTED_EDGE('',*,*,#453,.T.);
#244=ORIENTED_EDGE('',*,*,#449,.F.);
#245=ORIENTED_EDGE('',*,*,#452,.T.);
#246=ORIENTED_EDGE('',*,*,#454,.T.);
#247=ORIENTED_EDGE('',*,*,#455,.F.);
#248=ORIENTED_EDGE('',*,*,#387,.F.);
#249=ORIENTED_EDGE('',*,*,#456,.F.);
#250=ORIENTED_EDGE('',*,*,#457,.T.);
#251=ORIENTED_EDGE('',*,*,#458,.T.);
#252=ORIENTED_EDGE('',*,*,#386,.F.);
#253=ORIENTED_EDGE('',*,*,#459,.F.);
#254=ORIENTED_EDGE('',*,*,#460,.T.);
#255=ORIENTED_EDGE('',*,*,#456,.T.);
#256=ORIENTED_EDGE('',*,*,#389,.F.);
#257=ORIENTED_EDGE('',*,*,#461,.F.);
#258=ORIENTED_EDGE('',*,*,#462,.T.);
#259=ORIENTED_EDGE('',*,*,#459,.T.);
#260=ORIENTED_EDGE('',*,*,#388,.F.);
#261=ORIENTED_EDGE('',*,*,#458,.F.);
#262=ORIENTED_EDGE('',*,*,#463,.T.);
#263=ORIENTED_EDGE('',*,*,#461,.T.);
#264=ORIENTED_EDGE('',*,*,#457,.F.);
#265=ORIENTED_EDGE('',*,*,#460,.F.);
#266=ORIENTED_EDGE('',*,*,#462,.F.);
#267=ORIENTED_EDGE('',*,*,#463,.F.);
#268=ORIENTED_EDGE('',*,*,#396,.T.);
#269=ORIENTED_EDGE('',*,*,#394,.T.);
#270=ORIENTED_EDGE('',*,*,#339,.T.);
#271=ORIENTED_EDGE('',*,*,#398,.F.);
#272=ORIENTED_EDGE('',*,*,#399,.T.);
#273=ORIENTED_EDGE('',*,*,#337,.F.);
#274=ORIENTED_EDGE('',*,*,#352,.F.);
#275=ORIENTED_EDGE('',*,*,#358,.F.);
#276=ORIENTED_EDGE('',*,*,#354,.T.);
#277=ORIENTED_EDGE('',*,*,#348,.F.);
#278=ORIENTED_EDGE('',*,*,#325,.F.);
#279=ORIENTED_EDGE('',*,*,#401,.T.);
#280=ORIENTED_EDGE('',*,*,#402,.F.);
#281=ORIENTED_EDGE('',*,*,#331,.T.);
#282=ORIENTED_EDGE('',*,*,#393,.T.);
#283=ORIENTED_EDGE('',*,*,#391,.F.);
#284=ORIENTED_EDGE('',*,*,#344,.F.);
#285=ORIENTED_EDGE('',*,*,#464,.F.);
#286=ORIENTED_EDGE('',*,*,#465,.T.);
#287=ORIENTED_EDGE('',*,*,#466,.T.);
#288=ORIENTED_EDGE('',*,*,#347,.T.);
#289=ORIENTED_EDGE('',*,*,#467,.F.);
#290=ORIENTED_EDGE('',*,*,#468,.F.);
#291=ORIENTED_EDGE('',*,*,#464,.T.);
#292=ORIENTED_EDGE('',*,*,#346,.T.);
#293=ORIENTED_EDGE('',*,*,#469,.F.);
#294=ORIENTED_EDGE('',*,*,#470,.F.);
#295=ORIENTED_EDGE('',*,*,#467,.T.);
#296=ORIENTED_EDGE('',*,*,#345,.F.);
#297=ORIENTED_EDGE('',*,*,#466,.F.);
#298=ORIENTED_EDGE('',*,*,#471,.T.);
#299=ORIENTED_EDGE('',*,*,#469,.T.);
#300=ORIENTED_EDGE('',*,*,#465,.F.);
#301=ORIENTED_EDGE('',*,*,#468,.T.);
#302=ORIENTED_EDGE('',*,*,#470,.T.);
#303=ORIENTED_EDGE('',*,*,#471,.F.);
#304=ORIENTED_EDGE('',*,*,#333,.F.);
#305=ORIENTED_EDGE('',*,*,#472,.F.);
#306=ORIENTED_EDGE('',*,*,#473,.T.);
#307=ORIENTED_EDGE('',*,*,#474,.T.);
#308=ORIENTED_EDGE('',*,*,#332,.T.);
#309=ORIENTED_EDGE('',*,*,#475,.F.);
#310=ORIENTED_EDGE('',*,*,#476,.F.);
#311=ORIENTED_EDGE('',*,*,#472,.T.);
#312=ORIENTED_EDGE('',*,*,#335,.T.);
#313=ORIENTED_EDGE('',*,*,#477,.F.);
#314=ORIENTED_EDGE('',*,*,#478,.F.);
#315=ORIENTED_EDGE('',*,*,#475,.T.);
#316=ORIENTED_EDGE('',*,*,#334,.F.);
#317=ORIENTED_EDGE('',*,*,#474,.F.);
#318=ORIENTED_EDGE('',*,*,#479,.T.);
#319=ORIENTED_EDGE('',*,*,#477,.T.);
#320=ORIENTED_EDGE('',*,*,#473,.F.);
#321=ORIENTED_EDGE('',*,*,#476,.T.);
#322=ORIENTED_EDGE('',*,*,#478,.T.);
#323=ORIENTED_EDGE('',*,*,#479,.F.);
#324=EDGE_CURVE('',#480,#481,#584,.T.);
#325=EDGE_CURVE('',#481,#482,#585,.T.);
#326=EDGE_CURVE('',#483,#482,#586,.T.);
#327=EDGE_CURVE('',#483,#484,#587,.T.);
#328=EDGE_CURVE('',#484,#485,#588,.T.);
#329=EDGE_CURVE('',#486,#485,#589,.T.);
#330=EDGE_CURVE('',#487,#486,#590,.T.);
#331=EDGE_CURVE('',#480,#487,#591,.T.);
#332=EDGE_CURVE('',#488,#489,#592,.T.);
#333=EDGE_CURVE('',#488,#490,#593,.T.);
#334=EDGE_CURVE('',#490,#491,#594,.T.);
#335=EDGE_CURVE('',#489,#491,#595,.T.);
#336=EDGE_CURVE('',#492,#493,#596,.T.);
#337=EDGE_CURVE('',#493,#494,#597,.T.);
#338=EDGE_CURVE('',#494,#495,#598,.T.);
#339=EDGE_CURVE('',#496,#495,#599,.T.);
#340=EDGE_CURVE('',#496,#497,#600,.T.);
#341=EDGE_CURVE('',#497,#498,#601,.T.);
#342=EDGE_CURVE('',#499,#498,#602,.T.);
#343=EDGE_CURVE('',#492,#499,#603,.T.);
#344=EDGE_CURVE('',#500,#501,#604,.T.);
#345=EDGE_CURVE('',#501,#502,#605,.T.);
#346=EDGE_CURVE('',#503,#502,#606,.T.);
#347=EDGE_CURVE('',#500,#503,#607,.T.);
#348=EDGE_CURVE('',#482,#504,#608,.T.);
#349=EDGE_CURVE('',#505,#504,#609,.T.);
#350=EDGE_CURVE('',#505,#483,#610,.T.);
#351=EDGE_CURVE('',#506,#507,#611,.T.);
#352=EDGE_CURVE('',#507,#493,#612,.T.);
#353=EDGE_CURVE('',#492,#506,#613,.T.);
#354=EDGE_CURVE('',#508,#504,#614,.T.);
#355=EDGE_CURVE('',#509,#508,#615,.T.);
#356=EDGE_CURVE('',#505,#509,#616,.T.);
#357=EDGE_CURVE('',#510,#511,#617,.T.);
#358=EDGE_CURVE('',#511,#507,#618,.T.);
#359=EDGE_CURVE('',#506,#510,#619,.T.);
#360=EDGE_CURVE('',#512,#513,#620,.T.);
#361=EDGE_CURVE('',#514,#512,#621,.T.);
#362=EDGE_CURVE('',#514,#515,#622,.T.);
#363=EDGE_CURVE('',#515,#513,#623,.T.);
#364=EDGE_CURVE('',#516,#517,#624,.T.);
#365=EDGE_CURVE('',#516,#486,#625,.T.);
#366=EDGE_CURVE('',#498,#485,#626,.T.);
#367=EDGE_CURVE('',#497,#518,#627,.T.);
#368=EDGE_CURVE('',#518,#519,#628,.T.);
#369=EDGE_CURVE('',#519,#517,#629,.T.);
#370=EDGE_CURVE('',#520,#521,#630,.T.);
#371=EDGE_CURVE('',#520,#522,#631,.T.);
#372=EDGE_CURVE('',#522,#523,#632,.T.);
#373=EDGE_CURVE('',#521,#523,#633,.T.);
#374=EDGE_CURVE('',#524,#525,#634,.T.);
#375=EDGE_CURVE('',#524,#526,#635,.T.);
#376=EDGE_CURVE('',#526,#527,#636,.T.);
#377=EDGE_CURVE('',#525,#527,#637,.T.);
#378=EDGE_CURVE('',#528,#529,#638,.T.);
#379=EDGE_CURVE('',#528,#530,#639,.T.);
#380=EDGE_CURVE('',#530,#531,#640,.T.);
#381=EDGE_CURVE('',#529,#531,#641,.T.);
#382=EDGE_CURVE('',#532,#533,#642,.T.);
#383=EDGE_CURVE('',#532,#534,#643,.T.);
#384=EDGE_CURVE('',#534,#535,#644,.T.);
#385=EDGE_CURVE('',#533,#535,#645,.T.);
#386=EDGE_CURVE('',#536,#537,#646,.T.);
#387=EDGE_CURVE('',#537,#538,#647,.T.);
#388=EDGE_CURVE('',#538,#539,#648,.T.);
#389=EDGE_CURVE('',#539,#536,#649,.T.);
#390=EDGE_CURVE('',#540,#517,#650,.T.);
#391=EDGE_CURVE('',#540,#541,#651,.T.);
#392=EDGE_CURVE('',#541,#516,#652,.T.);
#393=EDGE_CURVE('',#487,#541,#653,.T.);
#394=EDGE_CURVE('',#542,#496,#654,.T.);
#395=EDGE_CURVE('',#542,#518,#655,.T.);
#396=EDGE_CURVE('',#543,#542,#656,.T.);
#397=EDGE_CURVE('',#543,#519,#657,.T.);
#398=EDGE_CURVE('',#543,#495,#658,.T.);
#399=EDGE_CURVE('',#511,#494,#659,.T.);
#400=EDGE_CURVE('',#510,#509,#660,.T.);
#401=EDGE_CURVE('',#481,#508,#661,.T.);
#402=EDGE_CURVE('',#480,#540,#662,.T.);
#403=EDGE_CURVE('',#499,#484,#663,.T.);
#404=EDGE_CURVE('',#544,#545,#664,.T.);
#405=EDGE_CURVE('',#545,#546,#665,.T.);
#406=EDGE_CURVE('',#547,#546,#666,.T.);
#407=EDGE_CURVE('',#544,#547,#667,.T.);
#408=EDGE_CURVE('',#548,#544,#668,.T.);
#409=EDGE_CURVE('',#548,#549,#669,.T.);
#410=EDGE_CURVE('',#549,#545,#670,.T.);
#411=EDGE_CURVE('',#550,#547,#671,.T.);
#412=EDGE_CURVE('',#548,#550,#672,.T.);
#413=EDGE_CURVE('',#551,#546,#673,.T.);
#414=EDGE_CURVE('',#550,#551,#674,.T.);
#415=EDGE_CURVE('',#549,#551,#675,.T.);
#416=EDGE_CURVE('',#552,#513,#676,.T.);
#417=EDGE_CURVE('',#553,#552,#677,.T.);
#418=EDGE_CURVE('',#553,#512,#678,.T.);
#419=EDGE_CURVE('',#554,#515,#679,.T.);
#420=EDGE_CURVE('',#554,#552,#680,.T.);
#421=EDGE_CURVE('',#555,#514,#681,.T.);
#422=EDGE_CURVE('',#555,#554,#682,.T.);
#423=EDGE_CURVE('',#555,#553,#683,.T.);
#424=EDGE_CURVE('',#556,#520,#684,.T.);
#425=EDGE_CURVE('',#556,#557,#685,.T.);
#426=EDGE_CURVE('',#557,#522,#686,.T.);
#427=EDGE_CURVE('',#558,#521,#687,.T.);
#428=EDGE_CURVE('',#556,#558,#688,.T.);
#429=EDGE_CURVE('',#559,#523,#689,.T.);
#430=EDGE_CURVE('',#558,#559,#690,.T.);
#431=EDGE_CURVE('',#557,#559,#691,.T.);
#432=EDGE_CURVE('',#560,#524,#692,.T.);
#433=EDGE_CURVE('',#560,#561,#693,.T.);
#434=EDGE_CURVE('',#561,#526,#694,.T.);
#435=EDGE_CURVE('',#562,#525,#695,.T.);
#436=EDGE_CURVE('',#560,#562,#696,.T.);
#437=EDGE_CURVE('',#563,#527,#697,.T.);
#438=EDGE_CURVE('',#562,#563,#698,.T.);
#439=EDGE_CURVE('',#561,#563,#699,.T.);
#440=EDGE_CURVE('',#564,#528,#700,.T.);
#441=EDGE_CURVE('',#564,#565,#701,.T.);
#442=EDGE_CURVE('',#565,#530,#702,.T.);
#443=EDGE_CURVE('',#566,#529,#703,.T.);
#444=EDGE_CURVE('',#564,#566,#704,.T.);
#445=EDGE_CURVE('',#567,#531,#705,.T.);
#446=EDGE_CURVE('',#566,#567,#706,.T.);
#447=EDGE_CURVE('',#565,#567,#707,.T.);
#448=EDGE_CURVE('',#568,#532,#708,.T.);
#449=EDGE_CURVE('',#568,#569,#709,.T.);
#450=EDGE_CURVE('',#569,#534,#710,.T.);
#451=EDGE_CURVE('',#570,#533,#711,.T.);
#452=EDGE_CURVE('',#568,#570,#712,.T.);
#453=EDGE_CURVE('',#571,#535,#713,.T.);
#454=EDGE_CURVE('',#570,#571,#714,.T.);
#455=EDGE_CURVE('',#569,#571,#715,.T.);
#456=EDGE_CURVE('',#572,#537,#716,.T.);
#457=EDGE_CURVE('',#572,#573,#717,.T.);
#458=EDGE_CURVE('',#573,#538,#718,.T.);
#459=EDGE_CURVE('',#574,#536,#719,.T.);
#460=EDGE_CURVE('',#574,#572,#720,.T.);
#461=EDGE_CURVE('',#575,#539,#721,.T.);
#462=EDGE_CURVE('',#575,#574,#722,.T.);
#463=EDGE_CURVE('',#573,#575,#723,.T.);
#464=EDGE_CURVE('',#576,#500,#724,.T.);
#465=EDGE_CURVE('',#576,#577,#725,.T.);
#466=EDGE_CURVE('',#577,#501,#726,.T.);
#467=EDGE_CURVE('',#578,#503,#727,.T.);
#468=EDGE_CURVE('',#576,#578,#728,.T.);
#469=EDGE_CURVE('',#579,#502,#729,.T.);
#470=EDGE_CURVE('',#578,#579,#730,.T.);
#471=EDGE_CURVE('',#577,#579,#731,.T.);
#472=EDGE_CURVE('',#580,#488,#732,.T.);
#473=EDGE_CURVE('',#580,#581,#733,.T.);
#474=EDGE_CURVE('',#581,#490,#734,.T.);
#475=EDGE_CURVE('',#582,#489,#735,.T.);
#476=EDGE_CURVE('',#580,#582,#736,.T.);
#477=EDGE_CURVE('',#583,#491,#737,.T.);
#478=EDGE_CURVE('',#582,#583,#738,.T.);
#479=EDGE_CURVE('',#581,#583,#739,.T.);
#480=VERTEX_POINT('',#1529);
#481=VERTEX_POINT('',#1530);
#482=VERTEX_POINT('',#1532);
#483=VERTEX_POINT('',#1534);
#484=VERTEX_POINT('',#1536);
#485=VERTEX_POINT('',#1538);
#486=VERTEX_POINT('',#1540);
#487=VERTEX_POINT('',#1542);
#488=VERTEX_POINT('',#1545);
#489=VERTEX_POINT('',#1546);
#490=VERTEX_POINT('',#1548);
#491=VERTEX_POINT('',#1550);
#492=VERTEX_POINT('',#1554);
#493=VERTEX_POINT('',#1555);
#494=VERTEX_POINT('',#1557);
#495=VERTEX_POINT('',#1559);
#496=VERTEX_POINT('',#1561);
#497=VERTEX_POINT('',#1563);
#498=VERTEX_POINT('',#1565);
#499=VERTEX_POINT('',#1567);
#500=VERTEX_POINT('',#1570);
#501=VERTEX_POINT('',#1571);
#502=VERTEX_POINT('',#1573);
#503=VERTEX_POINT('',#1575);
#504=VERTEX_POINT('',#1579);
#505=VERTEX_POINT('',#1581);
#506=VERTEX_POINT('',#1585);
#507=VERTEX_POINT('',#1586);
#508=VERTEX_POINT('',#1591);
#509=VERTEX_POINT('',#1593);
#510=VERTEX_POINT('',#1597);
#511=VERTEX_POINT('',#1598);
#512=VERTEX_POINT('',#1603);
#513=VERTEX_POINT('',#1604);
#514=VERTEX_POINT('',#1606);
#515=VERTEX_POINT('',#1608);
#516=VERTEX_POINT('',#1611);
#517=VERTEX_POINT('',#1612);
#518=VERTEX_POINT('',#1616);
#519=VERTEX_POINT('',#1618);
#520=VERTEX_POINT('',#1621);
#521=VERTEX_POINT('',#1622);
#522=VERTEX_POINT('',#1624);
#523=VERTEX_POINT('',#1626);
#524=VERTEX_POINT('',#1629);
#525=VERTEX_POINT('',#1630);
#526=VERTEX_POINT('',#1632);
#527=VERTEX_POINT('',#1634);
#528=VERTEX_POINT('',#1637);
#529=VERTEX_POINT('',#1638);
#530=VERTEX_POINT('',#1640);
#531=VERTEX_POINT('',#1642);
#532=VERTEX_POINT('',#1645);
#533=VERTEX_POINT('',#1646);
#534=VERTEX_POINT('',#1648);
#535=VERTEX_POINT('',#1650);
#536=VERTEX_POINT('',#1653);
#537=VERTEX_POINT('',#1654);
#538=VERTEX_POINT('',#1656);
#539=VERTEX_POINT('',#1658);
#540=VERTEX_POINT('',#1662);
#541=VERTEX_POINT('',#1664);
#542=VERTEX_POINT('',#1670);
#543=VERTEX_POINT('',#1674);
#544=VERTEX_POINT('',#1686);
#545=VERTEX_POINT('',#1687);
#546=VERTEX_POINT('',#1689);
#547=VERTEX_POINT('',#1691);
#548=VERTEX_POINT('',#1695);
#549=VERTEX_POINT('',#1697);
#550=VERTEX_POINT('',#1701);
#551=VERTEX_POINT('',#1705);
#552=VERTEX_POINT('',#1712);
#553=VERTEX_POINT('',#1714);
#554=VERTEX_POINT('',#1718);
#555=VERTEX_POINT('',#1722);
#556=VERTEX_POINT('',#1729);
#557=VERTEX_POINT('',#1731);
#558=VERTEX_POINT('',#1735);
#559=VERTEX_POINT('',#1739);
#560=VERTEX_POINT('',#1746);
#561=VERTEX_POINT('',#1748);
#562=VERTEX_POINT('',#1752);
#563=VERTEX_POINT('',#1756);
#564=VERTEX_POINT('',#1763);
#565=VERTEX_POINT('',#1765);
#566=VERTEX_POINT('',#1769);
#567=VERTEX_POINT('',#1773);
#568=VERTEX_POINT('',#1780);
#569=VERTEX_POINT('',#1782);
#570=VERTEX_POINT('',#1786);
#571=VERTEX_POINT('',#1790);
#572=VERTEX_POINT('',#1797);
#573=VERTEX_POINT('',#1799);
#574=VERTEX_POINT('',#1803);
#575=VERTEX_POINT('',#1807);
#576=VERTEX_POINT('',#1818);
#577=VERTEX_POINT('',#1820);
#578=VERTEX_POINT('',#1824);
#579=VERTEX_POINT('',#1828);
#580=VERTEX_POINT('',#1835);
#581=VERTEX_POINT('',#1837);
#582=VERTEX_POINT('',#1841);
#583=VERTEX_POINT('',#1845);
#584=LINE('',#1528,#740);
#585=LINE('',#1531,#741);
#586=LINE('',#1533,#742);
#587=LINE('',#1535,#743);
#588=LINE('',#1537,#744);
#589=LINE('',#1539,#745);
#590=LINE('',#1541,#746);
#591=LINE('',#1543,#747);
#592=LINE('',#1544,#748);
#593=LINE('',#1547,#749);
#594=LINE('',#1549,#750);
#595=LINE('',#1551,#751);
#596=LINE('',#1553,#752);
#597=LINE('',#1556,#753);
#598=LINE('',#1558,#754);
#599=LINE('',#1560,#755);
#600=LINE('',#1562,#756);
#601=LINE('',#1564,#757);
#602=LINE('',#1566,#758);
#603=LINE('',#1568,#759);
#604=LINE('',#1569,#760);
#605=LINE('',#1572,#761);
#606=LINE('',#1574,#762);
#607=LINE('',#1576,#763);
#608=LINE('',#1578,#764);
#609=LINE('',#1580,#765);
#610=LINE('',#1582,#766);
#611=LINE('',#1584,#767);
#612=LINE('',#1587,#768);
#613=LINE('',#1588,#769);
#614=LINE('',#1590,#770);
#615=LINE('',#1592,#771);
#616=LINE('',#1594,#772);
#617=LINE('',#1596,#773);
#618=LINE('',#1599,#774);
#619=LINE('',#1600,#775);
#620=LINE('',#1602,#776);
#621=LINE('',#1605,#777);
#622=LINE('',#1607,#778);
#623=LINE('',#1609,#779);
#624=LINE('',#1610,#780);
#625=LINE('',#1613,#781);
#626=LINE('',#1614,#782);
#627=LINE('',#1615,#783);
#628=LINE('',#1617,#784);
#629=LINE('',#1619,#785);
#630=LINE('',#1620,#786);
#631=LINE('',#1623,#787);
#632=LINE('',#1625,#788);
#633=LINE('',#1627,#789);
#634=LINE('',#1628,#790);
#635=LINE('',#1631,#791);
#636=LINE('',#1633,#792);
#637=LINE('',#1635,#793);
#638=LINE('',#1636,#794);
#639=LINE('',#1639,#795);
#640=LINE('',#1641,#796);
#641=LINE('',#1643,#797);
#642=LINE('',#1644,#798);
#643=LINE('',#1647,#799);
#644=LINE('',#1649,#800);
#645=LINE('',#1651,#801);
#646=LINE('',#1652,#802);
#647=LINE('',#1655,#803);
#648=LINE('',#1657,#804);
#649=LINE('',#1659,#805);
#650=LINE('',#1661,#806);
#651=LINE('',#1663,#807);
#652=LINE('',#1665,#808);
#653=LINE('',#1667,#809);
#654=LINE('',#1669,#810);
#655=LINE('',#1671,#811);
#656=LINE('',#1673,#812);
#657=LINE('',#1675,#813);
#658=LINE('',#1677,#814);
#659=LINE('',#1678,#815);
#660=LINE('',#1679,#816);
#661=LINE('',#1680,#817);
#662=LINE('',#1681,#818);
#663=LINE('',#1683,#819);
#664=LINE('',#1685,#820);
#665=LINE('',#1688,#821);
#666=LINE('',#1690,#822);
#667=LINE('',#1692,#823);
#668=LINE('',#1694,#824);
#669=LINE('',#1696,#825);
#670=LINE('',#1698,#826);
#671=LINE('',#1700,#827);
#672=LINE('',#1702,#828);
#673=LINE('',#1704,#829);
#674=LINE('',#1706,#830);
#675=LINE('',#1708,#831);
#676=LINE('',#1711,#832);
#677=LINE('',#1713,#833);
#678=LINE('',#1715,#834);
#679=LINE('',#1717,#835);
#680=LINE('',#1719,#836);
#681=LINE('',#1721,#837);
#682=LINE('',#1723,#838);
#683=LINE('',#1725,#839);
#684=LINE('',#1728,#840);
#685=LINE('',#1730,#841);
#686=LINE('',#1732,#842);
#687=LINE('',#1734,#843);
#688=LINE('',#1736,#844);
#689=LINE('',#1738,#845);
#690=LINE('',#1740,#846);
#691=LINE('',#1742,#847);
#692=LINE('',#1745,#848);
#693=LINE('',#1747,#849);
#694=LINE('',#1749,#850);
#695=LINE('',#1751,#851);
#696=LINE('',#1753,#852);
#697=LINE('',#1755,#853);
#698=LINE('',#1757,#854);
#699=LINE('',#1759,#855);
#700=LINE('',#1762,#856);
#701=LINE('',#1764,#857);
#702=LINE('',#1766,#858);
#703=LINE('',#1768,#859);
#704=LINE('',#1770,#860);
#705=LINE('',#1772,#861);
#706=LINE('',#1774,#862);
#707=LINE('',#1776,#863);
#708=LINE('',#1779,#864);
#709=LINE('',#1781,#865);
#710=LINE('',#1783,#866);
#711=LINE('',#1785,#867);
#712=LINE('',#1787,#868);
#713=LINE('',#1789,#869);
#714=LINE('',#1791,#870);
#715=LINE('',#1793,#871);
#716=LINE('',#1796,#872);
#717=LINE('',#1798,#873);
#718=LINE('',#1800,#874);
#719=LINE('',#1802,#875);
#720=LINE('',#1804,#876);
#721=LINE('',#1806,#877);
#722=LINE('',#1808,#878);
#723=LINE('',#1810,#879);
#724=LINE('',#1817,#880);
#725=LINE('',#1819,#881);
#726=LINE('',#1821,#882);
#727=LINE('',#1823,#883);
#728=LINE('',#1825,#884);
#729=LINE('',#1827,#885);
#730=LINE('',#1829,#886);
#731=LINE('',#1831,#887);
#732=LINE('',#1834,#888);
#733=LINE('',#1836,#889);
#734=LINE('',#1838,#890);
#735=LINE('',#1840,#891);
#736=LINE('',#1842,#892);
#737=LINE('',#1844,#893);
#738=LINE('',#1846,#894);
#739=LINE('',#1848,#895);
#740=VECTOR('',#1246,1.);
#741=VECTOR('',#1247,1.);
#742=VECTOR('',#1248,1.);
#743=VECTOR('',#1249,1.);
#744=VECTOR('',#1250,1.);
#745=VECTOR('',#1251,1.);
#746=VECTOR('',#1252,1.);
#747=VECTOR('',#1253,1.);
#748=VECTOR('',#1254,1.);
#749=VECTOR('',#1255,1.);
#750=VECTOR('',#1256,1.);
#751=VECTOR('',#1257,1.);
#752=VECTOR('',#1260,1.);
#753=VECTOR('',#1261,1.);
#754=VECTOR('',#1262,1.);
#755=VECTOR('',#1263,1.);
#756=VECTOR('',#1264,1.);
#757=VECTOR('',#1265,1.);
#758=VECTOR('',#1266,1.);
#759=VECTOR('',#1267,1.);
#760=VECTOR('',#1268,1.);
#761=VECTOR('',#1269,1.);
#762=VECTOR('',#1270,1.);
#763=VECTOR('',#1271,1.);
#764=VECTOR('',#1274,1.);
#765=VECTOR('',#1275,1.);
#766=VECTOR('',#1276,1.);
#767=VECTOR('',#1279,1.);
#768=VECTOR('',#1280,1.);
#769=VECTOR('',#1281,1.);
#770=VECTOR('',#1284,1.);
#771=VECTOR('',#1285,1.);
#772=VECTOR('',#1286,1.);
#773=VECTOR('',#1289,1.);
#774=VECTOR('',#1290,1.);
#775=VECTOR('',#1291,1.);
#776=VECTOR('',#1294,1.);
#777=VECTOR('',#1295,1.);
#778=VECTOR('',#1296,1.);
#779=VECTOR('',#1297,1.);
#780=VECTOR('',#1298,1.);
#781=VECTOR('',#1299,1.);
#782=VECTOR('',#1300,1.);
#783=VECTOR('',#1301,1.);
#784=VECTOR('',#1302,1.);
#785=VECTOR('',#1303,1.);
#786=VECTOR('',#1304,1.);
#787=VECTOR('',#1305,1.);
#788=VECTOR('',#1306,1.);
#789=VECTOR('',#1307,1.);
#790=VECTOR('',#1308,1.);
#791=VECTOR('',#1309,1.);
#792=VECTOR('',#1310,1.);
#793=VECTOR('',#1311,1.);
#794=VECTOR('',#1312,1.);
#795=VECTOR('',#1313,1.);
#796=VECTOR('',#1314,1.);
#797=VECTOR('',#1315,1.);
#798=VECTOR('',#1316,1.);
#799=VECTOR('',#1317,1.);
#800=VECTOR('',#1318,1.);
#801=VECTOR('',#1319,1.);
#802=VECTOR('',#1320,1.);
#803=VECTOR('',#1321,1.);
#804=VECTOR('',#1322,1.);
#805=VECTOR('',#1323,1.);
#806=VECTOR('',#1326,1.);
#807=VECTOR('',#1327,1.);
#808=VECTOR('',#1328,1.);
#809=VECTOR('',#1331,1.);
#810=VECTOR('',#1334,1.);
#811=VECTOR('',#1335,1.);
#812=VECTOR('',#1338,1.);
#813=VECTOR('',#1339,1.);
#814=VECTOR('',#1342,1.);
#815=VECTOR('',#1343,1.);
#816=VECTOR('',#1344,1.);
#817=VECTOR('',#1345,1.);
#818=VECTOR('',#1346,1.);
#819=VECTOR('',#1349,1.);
#820=VECTOR('',#1352,1.);
#821=VECTOR('',#1353,1.);
#822=VECTOR('',#1354,1.);
#823=VECTOR('',#1355,1.);
#824=VECTOR('',#1358,1.);
#825=VECTOR('',#1359,1.);
#826=VECTOR('',#1360,1.);
#827=VECTOR('',#1363,1.);
#828=VECTOR('',#1364,1.);
#829=VECTOR('',#1367,1.);
#830=VECTOR('',#1368,1.);
#831=VECTOR('',#1371,1.);
#832=VECTOR('',#1376,1.);
#833=VECTOR('',#1377,1.);
#834=VECTOR('',#1378,1.);
#835=VECTOR('',#1381,1.);
#836=VECTOR('',#1382,1.);
#837=VECTOR('',#1385,1.);
#838=VECTOR('',#1386,1.);
#839=VECTOR('',#1389,1.);
#840=VECTOR('',#1394,1.);
#841=VECTOR('',#1395,1.);
#842=VECTOR('',#1396,1.);
#843=VECTOR('',#1399,1.);
#844=VECTOR('',#1400,1.);
#845=VECTOR('',#1403,1.);
#846=VECTOR('',#1404,1.);
#847=VECTOR('',#1407,1.);
#848=VECTOR('',#1412,1.);
#849=VECTOR('',#1413,1.);
#850=VECTOR('',#1414,1.);
#851=VECTOR('',#1417,1.);
#852=VECTOR('',#1418,1.);
#853=VECTOR('',#1421,1.);
#854=VECTOR('',#1422,1.);
#855=VECTOR('',#1425,1.);
#856=VECTOR('',#1430,1.);
#857=VECTOR('',#1431,1.);
#858=VECTOR('',#1432,1.);
#859=VECTOR('',#1435,1.);
#860=VECTOR('',#1436,1.);
#861=VECTOR('',#1439,1.);
#862=VECTOR('',#1440,1.);
#863=VECTOR('',#1443,1.);
#864=VECTOR('',#1448,1.);
#865=VECTOR('',#1449,1.);
#866=VECTOR('',#1450,1.);
#867=VECTOR('',#1453,1.);
#868=VECTOR('',#1454,1.);
#869=VECTOR('',#1457,1.);
#870=VECTOR('',#1458,1.);
#871=VECTOR('',#1461,1.);
#872=VECTOR('',#1466,1.);
#873=VECTOR('',#1467,1.);
#874=VECTOR('',#1468,1.);
#875=VECTOR('',#1471,1.);
#876=VECTOR('',#1472,1.);
#877=VECTOR('',#1475,1.);
#878=VECTOR('',#1476,1.);
#879=VECTOR('',#1479,1.);
#880=VECTOR('',#1492,1.);
#881=VECTOR('',#1493,1.);
#882=VECTOR('',#1494,1.);
#883=VECTOR('',#1497,1.);
#884=VECTOR('',#1498,1.);
#885=VECTOR('',#1501,1.);
#886=VECTOR('',#1502,1.);
#887=VECTOR('',#1505,1.);
#888=VECTOR('',#1510,1.);
#889=VECTOR('',#1511,1.);
#890=VECTOR('',#1512,1.);
#891=VECTOR('',#1515,1.);
#892=VECTOR('',#1516,1.);
#893=VECTOR('',#1519,1.);
#894=VECTOR('',#1520,1.);
#895=VECTOR('',#1523,1.);
#896=EDGE_LOOP('',(#12,#13,#14,#15,#16,#17,#18,#19));
#897=EDGE_LOOP('',(#20,#21,#22,#23));
#898=EDGE_LOOP('',(#24,#25,#26,#27,#28,#29,#30,#31));
#899=EDGE_LOOP('',(#32,#33,#34,#35));
#900=EDGE_LOOP('',(#36,#37,#38,#39));
#901=EDGE_LOOP('',(#40,#41,#42,#43));
#902=EDGE_LOOP('',(#44,#45,#46,#47));
#903=EDGE_LOOP('',(#48,#49,#50,#51));
#904=EDGE_LOOP('',(#52,#53,#54,#55));
#905=EDGE_LOOP('',(#56,#57,#58,#59,#60,#61,#62,#63));
#906=EDGE_LOOP('',(#64,#65,#66,#67));
#907=EDGE_LOOP('',(#68,#69,#70,#71));
#908=EDGE_LOOP('',(#72,#73,#74,#75));
#909=EDGE_LOOP('',(#76,#77,#78,#79));
#910=EDGE_LOOP('',(#80,#81,#82,#83));
#911=EDGE_LOOP('',(#84,#85,#86,#87));
#912=EDGE_LOOP('',(#88,#89,#90,#91));
#913=EDGE_LOOP('',(#92,#93,#94,#95));
#914=EDGE_LOOP('',(#96,#97,#98,#99));
#915=EDGE_LOOP('',(#100,#101,#102,#103,#104,#105,#106,#107,#108,#109,#110,
#111));
#916=EDGE_LOOP('',(#112,#113,#114,#115,#116,#117,#118,#119));
#917=EDGE_LOOP('',(#120,#121,#122,#123));
#918=EDGE_LOOP('',(#124,#125,#126,#127));
#919=EDGE_LOOP('',(#128,#129,#130,#131));
#920=EDGE_LOOP('',(#132,#133,#134,#135));
#921=EDGE_LOOP('',(#136,#137,#138,#139));
#922=EDGE_LOOP('',(#140,#141,#142,#143));
#923=EDGE_LOOP('',(#144,#145,#146,#147));
#924=EDGE_LOOP('',(#148,#149,#150,#151));
#925=EDGE_LOOP('',(#152,#153,#154,#155));
#926=EDGE_LOOP('',(#156,#157,#158,#159));
#927=EDGE_LOOP('',(#160,#161,#162,#163));
#928=EDGE_LOOP('',(#164,#165,#166,#167));
#929=EDGE_LOOP('',(#168,#169,#170,#171));
#930=EDGE_LOOP('',(#172,#173,#174,#175));
#931=EDGE_LOOP('',(#176,#177,#178,#179));
#932=EDGE_LOOP('',(#180,#181,#182,#183));
#933=EDGE_LOOP('',(#184,#185,#186,#187));
#934=EDGE_LOOP('',(#188,#189,#190,#191));
#935=EDGE_LOOP('',(#192,#193,#194,#195));
#936=EDGE_LOOP('',(#196,#197,#198,#199));
#937=EDGE_LOOP('',(#200,#201,#202,#203));
#938=EDGE_LOOP('',(#204,#205,#206,#207));
#939=EDGE_LOOP('',(#208,#209,#210,#211));
#940=EDGE_LOOP('',(#212,#213,#214,#215));
#941=EDGE_LOOP('',(#216,#217,#218,#219));
#942=EDGE_LOOP('',(#220,#221,#222,#223));
#943=EDGE_LOOP('',(#224,#225,#226,#227));
#944=EDGE_LOOP('',(#228,#229,#230,#231));
#945=EDGE_LOOP('',(#232,#233,#234,#235));
#946=EDGE_LOOP('',(#236,#237,#238,#239));
#947=EDGE_LOOP('',(#240,#241,#242,#243));
#948=EDGE_LOOP('',(#244,#245,#246,#247));
#949=EDGE_LOOP('',(#248,#249,#250,#251));
#950=EDGE_LOOP('',(#252,#253,#254,#255));
#951=EDGE_LOOP('',(#256,#257,#258,#259));
#952=EDGE_LOOP('',(#260,#261,#262,#263));
#953=EDGE_LOOP('',(#264,#265,#266,#267));
#954=EDGE_LOOP('',(#268,#269,#270,#271));
#955=EDGE_LOOP('',(#272,#273,#274,#275));
#956=EDGE_LOOP('',(#276,#277,#278,#279));
#957=EDGE_LOOP('',(#280,#281,#282,#283));
#958=EDGE_LOOP('',(#284,#285,#286,#287));
#959=EDGE_LOOP('',(#288,#289,#290,#291));
#960=EDGE_LOOP('',(#292,#293,#294,#295));
#961=EDGE_LOOP('',(#296,#297,#298,#299));
#962=EDGE_LOOP('',(#300,#301,#302,#303));
#963=EDGE_LOOP('',(#304,#305,#306,#307));
#964=EDGE_LOOP('',(#308,#309,#310,#311));
#965=EDGE_LOOP('',(#312,#313,#314,#315));
#966=EDGE_LOOP('',(#316,#317,#318,#319));
#967=EDGE_LOOP('',(#320,#321,#322,#323));
#968=FACE_BOUND('',#896,.T.);
#969=FACE_BOUND('',#897,.T.);
#970=FACE_BOUND('',#898,.T.);
#971=FACE_BOUND('',#899,.T.);
#972=FACE_BOUND('',#900,.T.);
#973=FACE_BOUND('',#901,.T.);
#974=FACE_BOUND('',#902,.T.);
#975=FACE_BOUND('',#903,.T.);
#976=FACE_BOUND('',#904,.T.);
#977=FACE_BOUND('',#905,.T.);
#978=FACE_BOUND('',#906,.T.);
#979=FACE_BOUND('',#907,.T.);
#980=FACE_BOUND('',#908,.T.);
#981=FACE_BOUND('',#909,.T.);
#982=FACE_BOUND('',#910,.T.);
#983=FACE_BOUND('',#911,.T.);
#984=FACE_BOUND('',#912,.T.);
#985=FACE_BOUND('',#913,.T.);
#986=FACE_BOUND('',#914,.T.);
#987=FACE_BOUND('',#915,.T.);
#988=FACE_BOUND('',#916,.T.);
#989=FACE_BOUND('',#917,.T.);
#990=FACE_BOUND('',#918,.T.);
#991=FACE_BOUND('',#919,.T.);
#992=FACE_BOUND('',#920,.T.);
#993=FACE_BOUND('',#921,.T.);
#994=FACE_BOUND('',#922,.T.);
#995=FACE_BOUND('',#923,.T.);
#996=FACE_BOUND('',#924,.T.);
#997=FACE_BOUND('',#925,.T.);
#998=FACE_BOUND('',#926,.T.);
#999=FACE_BOUND('',#927,.T.);
#1000=FACE_BOUND('',#928,.T.);
#1001=FACE_BOUND('',#929,.T.);
#1002=FACE_BOUND('',#930,.T.);
#1003=FACE_BOUND('',#931,.T.);
#1004=FACE_BOUND('',#932,.T.);
#1005=FACE_BOUND('',#933,.T.);
#1006=FACE_BOUND('',#934,.T.);
#1007=FACE_BOUND('',#935,.T.);
#1008=FACE_BOUND('',#936,.T.);
#1009=FACE_BOUND('',#937,.T.);
#1010=FACE_BOUND('',#938,.T.);
#1011=FACE_BOUND('',#939,.T.);
#1012=FACE_BOUND('',#940,.T.);
#1013=FACE_BOUND('',#941,.T.);
#1014=FACE_BOUND('',#942,.T.);
#1015=FACE_BOUND('',#943,.T.);
#1016=FACE_BOUND('',#944,.T.);
#1017=FACE_BOUND('',#945,.T.);
#1018=FACE_BOUND('',#946,.T.);
#1019=FACE_BOUND('',#947,.T.);
#1020=FACE_BOUND('',#948,.T.);
#1021=FACE_BOUND('',#949,.T.);
#1022=FACE_BOUND('',#950,.T.);
#1023=FACE_BOUND('',#951,.T.);
#1024=FACE_BOUND('',#952,.T.);
#1025=FACE_BOUND('',#953,.T.);
#1026=FACE_BOUND('',#954,.T.);
#1027=FACE_BOUND('',#955,.T.);
#1028=FACE_BOUND('',#956,.T.);
#1029=FACE_BOUND('',#957,.T.);
#1030=FACE_BOUND('',#958,.T.);
#1031=FACE_BOUND('',#959,.T.);
#1032=FACE_BOUND('',#960,.T.);
#1033=FACE_BOUND('',#961,.T.);
#1034=FACE_BOUND('',#962,.T.);
#1035=FACE_BOUND('',#963,.T.);
#1036=FACE_BOUND('',#964,.T.);
#1037=FACE_BOUND('',#965,.T.);
#1038=FACE_BOUND('',#966,.T.);
#1039=FACE_BOUND('',#967,.T.);
#1040=PLANE('',#1179);
#1041=PLANE('',#1180);
#1042=PLANE('',#1181);
#1043=PLANE('',#1182);
#1044=PLANE('',#1183);
#1045=PLANE('',#1184);
#1046=PLANE('',#1185);
#1047=PLANE('',#1186);
#1048=PLANE('',#1187);
#1049=PLANE('',#1188);
#1050=PLANE('',#1189);
#1051=PLANE('',#1190);
#1052=PLANE('',#1191);
#1053=PLANE('',#1192);
#1054=PLANE('',#1193);
#1055=PLANE('',#1194);
#1056=PLANE('',#1195);
#1057=PLANE('',#1196);
#1058=PLANE('',#1197);
#1059=PLANE('',#1198);
#1060=PLANE('',#1199);
#1061=PLANE('',#1200);
#1062=PLANE('',#1201);
#1063=PLANE('',#1202);
#1064=PLANE('',#1203);
#1065=PLANE('',#1204);
#1066=PLANE('',#1205);
#1067=PLANE('',#1206);
#1068=PLANE('',#1207);
#1069=PLANE('',#1208);
#1070=PLANE('',#1209);
#1071=PLANE('',#1210);
#1072=PLANE('',#1211);
#1073=PLANE('',#1212);
#1074=PLANE('',#1213);
#1075=PLANE('',#1214);
#1076=PLANE('',#1215);
#1077=PLANE('',#1216);
#1078=PLANE('',#1217);
#1079=PLANE('',#1218);
#1080=PLANE('',#1219);
#1081=PLANE('',#1220);
#1082=PLANE('',#1221);
#1083=PLANE('',#1222);
#1084=PLANE('',#1223);
#1085=PLANE('',#1224);
#1086=PLANE('',#1225);
#1087=PLANE('',#1226);
#1088=PLANE('',#1227);
#1089=PLANE('',#1228);
#1090=PLANE('',#1229);
#1091=PLANE('',#1230);
#1092=PLANE('',#1231);
#1093=PLANE('',#1232);
#1094=PLANE('',#1233);
#1095=PLANE('',#1234);
#1096=PLANE('',#1235);
#1097=PLANE('',#1236);
#1098=PLANE('',#1237);
#1099=PLANE('',#1238);
#1100=PLANE('',#1239);
#1101=PLANE('',#1240);
#1102=PLANE('',#1241);
#1103=ADVANCED_FACE('',(#968,#969),#1040,.T.);
#1104=ADVANCED_FACE('',(#970,#971),#1041,.F.);
#1105=ADVANCED_FACE('',(#972),#1042,.T.);
#1106=ADVANCED_FACE('',(#973),#1043,.T.);
#1107=ADVANCED_FACE('',(#974),#1044,.F.);
#1108=ADVANCED_FACE('',(#975),#1045,.T.);
#1109=ADVANCED_FACE('',(#976,#977,#978,#979,#980,#981,#982),#1046,.T.);
#1110=ADVANCED_FACE('',(#983),#1047,.F.);
#1111=ADVANCED_FACE('',(#984),#1048,.T.);
#1112=ADVANCED_FACE('',(#985),#1049,.T.);
#1113=ADVANCED_FACE('',(#986),#1050,.T.);
#1114=ADVANCED_FACE('',(#987),#1051,.T.);
#1115=ADVANCED_FACE('',(#988),#1052,.F.);
#1116=ADVANCED_FACE('',(#989,#990),#1053,.F.);
#1117=ADVANCED_FACE('',(#991),#1054,.T.);
#1118=ADVANCED_FACE('',(#992),#1055,.F.);
#1119=ADVANCED_FACE('',(#993),#1056,.F.);
#1120=ADVANCED_FACE('',(#994),#1057,.T.);
#1121=ADVANCED_FACE('',(#995),#1058,.T.);
#1122=ADVANCED_FACE('',(#996),#1059,.F.);
#1123=ADVANCED_FACE('',(#997),#1060,.T.);
#1124=ADVANCED_FACE('',(#998),#1061,.T.);
#1125=ADVANCED_FACE('',(#999),#1062,.F.);
#1126=ADVANCED_FACE('',(#1000),#1063,.T.);
#1127=ADVANCED_FACE('',(#1001),#1064,.T.);
#1128=ADVANCED_FACE('',(#1002),#1065,.F.);
#1129=ADVANCED_FACE('',(#1003),#1066,.F.);
#1130=ADVANCED_FACE('',(#1004),#1067,.T.);
#1131=ADVANCED_FACE('',(#1005),#1068,.T.);
#1132=ADVANCED_FACE('',(#1006),#1069,.T.);
#1133=ADVANCED_FACE('',(#1007),#1070,.F.);
#1134=ADVANCED_FACE('',(#1008),#1071,.F.);
#1135=ADVANCED_FACE('',(#1009),#1072,.T.);
#1136=ADVANCED_FACE('',(#1010),#1073,.T.);
#1137=ADVANCED_FACE('',(#1011),#1074,.T.);
#1138=ADVANCED_FACE('',(#1012),#1075,.F.);
#1139=ADVANCED_FACE('',(#1013),#1076,.F.);
#1140=ADVANCED_FACE('',(#1014),#1077,.T.);
#1141=ADVANCED_FACE('',(#1015),#1078,.T.);
#1142=ADVANCED_FACE('',(#1016),#1079,.T.);
#1143=ADVANCED_FACE('',(#1017),#1080,.F.);
#1144=ADVANCED_FACE('',(#1018),#1081,.F.);
#1145=ADVANCED_FACE('',(#1019),#1082,.T.);
#1146=ADVANCED_FACE('',(#1020),#1083,.T.);
#1147=ADVANCED_FACE('',(#1021),#1084,.T.);
#1148=ADVANCED_FACE('',(#1022),#1085,.T.);
#1149=ADVANCED_FACE('',(#1023),#1086,.T.);
#1150=ADVANCED_FACE('',(#1024),#1087,.T.);
#1151=ADVANCED_FACE('',(#1025),#1088,.T.);
#1152=ADVANCED_FACE('',(#1026),#1089,.F.);
#1153=ADVANCED_FACE('',(#1027),#1090,.T.);
#1154=ADVANCED_FACE('',(#1028),#1091,.T.);
#1155=ADVANCED_FACE('',(#1029),#1092,.F.);
#1156=ADVANCED_FACE('',(#1030),#1093,.T.);
#1157=ADVANCED_FACE('',(#1031),#1094,.F.);
#1158=ADVANCED_FACE('',(#1032),#1095,.F.);
#1159=ADVANCED_FACE('',(#1033),#1096,.T.);
#1160=ADVANCED_FACE('',(#1034),#1097,.T.);
#1161=ADVANCED_FACE('',(#1035),#1098,.T.);
#1162=ADVANCED_FACE('',(#1036),#1099,.F.);
#1163=ADVANCED_FACE('',(#1037),#1100,.F.);
#1164=ADVANCED_FACE('',(#1038),#1101,.T.);
#1165=ADVANCED_FACE('',(#1039),#1102,.T.);
#1166=CLOSED_SHELL('',(#1103,#1104,#1105,#1106,#1107,#1108,#1109,#1110,
#1111,#1112,#1113,#1114,#1115,#1116,#1117,#1118,#1119,#1120,#1121,#1122,
#1123,#1124,#1125,#1126,#1127,#1128,#1129,#1130,#1131,#1132,#1133,#1134,
#1135,#1136,#1137,#1138,#1139,#1140,#1141,#1142,#1143,#1144,#1145,#1146,
#1147,#1148,#1149,#1150,#1151,#1152,#1153,#1154,#1155,#1156,#1157,#1158,
#1159,#1160,#1161,#1162,#1163,#1164,#1165));
#1167=STYLED_ITEM('',(#1168),#1175);
#1168=PRESENTATION_STYLE_ASSIGNMENT((#1169));
#1169=SURFACE_STYLE_USAGE(.BOTH.,#1170);
#1170=SURFACE_SIDE_STYLE('',(#1171));
#1171=SURFACE_STYLE_FILL_AREA(#1172);
#1172=FILL_AREA_STYLE('',(#1173));
#1173=FILL_AREA_STYLE_COLOUR('',#1174);
#1174=COLOUR_RGB('',0.262745098039216,0.282352941176471,0.301960784313725);
#1175=MANIFOLD_SOLID_BREP('Part 1',#1166);
#1176=SHAPE_DEFINITION_REPRESENTATION(#1856,#1177);
#1177=SHAPE_REPRESENTATION('Part 1',(#1178),#1851);
#1178=AXIS2_PLACEMENT_3D('',#1526,#1242,#1243);
#1179=AXIS2_PLACEMENT_3D('',#1527,#1244,#1245);
#1180=AXIS2_PLACEMENT_3D('',#1552,#1258,#1259);
#1181=AXIS2_PLACEMENT_3D('',#1577,#1272,#1273);
#1182=AXIS2_PLACEMENT_3D('',#1583,#1277,#1278);
#1183=AXIS2_PLACEMENT_3D('',#1589,#1282,#1283);
#1184=AXIS2_PLACEMENT_3D('',#1595,#1287,#1288);
#1185=AXIS2_PLACEMENT_3D('',#1601,#1292,#1293);
#1186=AXIS2_PLACEMENT_3D('',#1660,#1324,#1325);
#1187=AXIS2_PLACEMENT_3D('',#1666,#1329,#1330);
#1188=AXIS2_PLACEMENT_3D('',#1668,#1332,#1333);
#1189=AXIS2_PLACEMENT_3D('',#1672,#1336,#1337);
#1190=AXIS2_PLACEMENT_3D('',#1676,#1340,#1341);
#1191=AXIS2_PLACEMENT_3D('',#1682,#1347,#1348);
#1192=AXIS2_PLACEMENT_3D('',#1684,#1350,#1351);
#1193=AXIS2_PLACEMENT_3D('',#1693,#1356,#1357);
#1194=AXIS2_PLACEMENT_3D('',#1699,#1361,#1362);
#1195=AXIS2_PLACEMENT_3D('',#1703,#1365,#1366);
#1196=AXIS2_PLACEMENT_3D('',#1707,#1369,#1370);
#1197=AXIS2_PLACEMENT_3D('',#1709,#1372,#1373);
#1198=AXIS2_PLACEMENT_3D('',#1710,#1374,#1375);
#1199=AXIS2_PLACEMENT_3D('',#1716,#1379,#1380);
#1200=AXIS2_PLACEMENT_3D('',#1720,#1383,#1384);
#1201=AXIS2_PLACEMENT_3D('',#1724,#1387,#1388);
#1202=AXIS2_PLACEMENT_3D('',#1726,#1390,#1391);
#1203=AXIS2_PLACEMENT_3D('',#1727,#1392,#1393);
#1204=AXIS2_PLACEMENT_3D('',#1733,#1397,#1398);
#1205=AXIS2_PLACEMENT_3D('',#1737,#1401,#1402);
#1206=AXIS2_PLACEMENT_3D('',#1741,#1405,#1406);
#1207=AXIS2_PLACEMENT_3D('',#1743,#1408,#1409);
#1208=AXIS2_PLACEMENT_3D('',#1744,#1410,#1411);
#1209=AXIS2_PLACEMENT_3D('',#1750,#1415,#1416);
#1210=AXIS2_PLACEMENT_3D('',#1754,#1419,#1420);
#1211=AXIS2_PLACEMENT_3D('',#1758,#1423,#1424);
#1212=AXIS2_PLACEMENT_3D('',#1760,#1426,#1427);
#1213=AXIS2_PLACEMENT_3D('',#1761,#1428,#1429);
#1214=AXIS2_PLACEMENT_3D('',#1767,#1433,#1434);
#1215=AXIS2_PLACEMENT_3D('',#1771,#1437,#1438);
#1216=AXIS2_PLACEMENT_3D('',#1775,#1441,#1442);
#1217=AXIS2_PLACEMENT_3D('',#1777,#1444,#1445);
#1218=AXIS2_PLACEMENT_3D('',#1778,#1446,#1447);
#1219=AXIS2_PLACEMENT_3D('',#1784,#1451,#1452);
#1220=AXIS2_PLACEMENT_3D('',#1788,#1455,#1456);
#1221=AXIS2_PLACEMENT_3D('',#1792,#1459,#1460);
#1222=AXIS2_PLACEMENT_3D('',#1794,#1462,#1463);
#1223=AXIS2_PLACEMENT_3D('',#1795,#1464,#1465);
#1224=AXIS2_PLACEMENT_3D('',#1801,#1469,#1470);
#1225=AXIS2_PLACEMENT_3D('',#1805,#1473,#1474);
#1226=AXIS2_PLACEMENT_3D('',#1809,#1477,#1478);
#1227=AXIS2_PLACEMENT_3D('',#1811,#1480,#1481);
#1228=AXIS2_PLACEMENT_3D('',#1812,#1482,#1483);
#1229=AXIS2_PLACEMENT_3D('',#1813,#1484,#1485);
#1230=AXIS2_PLACEMENT_3D('',#1814,#1486,#1487);
#1231=AXIS2_PLACEMENT_3D('',#1815,#1488,#1489);
#1232=AXIS2_PLACEMENT_3D('',#1816,#1490,#1491);
#1233=AXIS2_PLACEMENT_3D('',#1822,#1495,#1496);
#1234=AXIS2_PLACEMENT_3D('',#1826,#1499,#1500);
#1235=AXIS2_PLACEMENT_3D('',#1830,#1503,#1504);
#1236=AXIS2_PLACEMENT_3D('',#1832,#1506,#1507);
#1237=AXIS2_PLACEMENT_3D('',#1833,#1508,#1509);
#1238=AXIS2_PLACEMENT_3D('',#1839,#1513,#1514);
#1239=AXIS2_PLACEMENT_3D('',#1843,#1517,#1518);
#1240=AXIS2_PLACEMENT_3D('',#1847,#1521,#1522);
#1241=AXIS2_PLACEMENT_3D('',#1849,#1524,#1525);
#1242=DIRECTION('',(0.,0.,1.));
#1243=DIRECTION('',(1.,0.,0.));
#1244=DIRECTION('',(1.,0.,1.48690583655155E-16));
#1245=DIRECTION('',(1.48690583655155E-16,0.,-1.));
#1246=DIRECTION('',(0.,1.,0.));
#1247=DIRECTION('',(1.48690583655155E-16,0.,-1.));
#1248=DIRECTION('',(0.,-1.,0.));
#1249=DIRECTION('',(-1.48690583655155E-16,0.,1.));
#1250=DIRECTION('',(0.,-1.,0.));
#1251=DIRECTION('',(-1.48690583655155E-16,0.,1.));
#1252=DIRECTION('',(0.,-1.,0.));
#1253=DIRECTION('',(1.48690583655155E-16,0.,-1.));
#1254=DIRECTION('',(1.48690583655155E-16,1.23908819712629E-16,-1.));
#1255=DIRECTION('',(-3.27539106188305E-32,1.,2.20282346155785E-16));
#1256=DIRECTION('',(1.48690583655155E-16,1.4685489743719E-16,-1.));
#1257=DIRECTION('',(-3.27539106188305E-32,1.,2.20282346155785E-16));
#1258=DIRECTION('',(1.,0.,0.));
#1259=DIRECTION('',(0.,0.,-1.));
#1260=DIRECTION('',(0.,-1.,0.));
#1261=DIRECTION('',(0.,0.,1.));
#1262=DIRECTION('',(0.,-1.,0.));
#1263=DIRECTION('',(0.,0.,1.));
#1264=DIRECTION('',(0.,-1.,0.));
#1265=DIRECTION('',(0.,0.,1.));
#1266=DIRECTION('',(0.,-1.,0.));
#1267=DIRECTION('',(0.,0.,1.));
#1268=DIRECTION('',(0.,-1.,0.));
#1269=DIRECTION('',(0.,0.,-1.));
#1270=DIRECTION('',(0.,-1.,0.));
#1271=DIRECTION('',(0.,0.,-1.));
#1272=DIRECTION('',(0.,0.,-1.));
#1273=DIRECTION('',(-1.,0.,0.));
#1274=DIRECTION('',(-1.,0.,0.));
#1275=DIRECTION('',(0.,-1.,0.));
#1276=DIRECTION('',(1.,0.,0.));
#1277=DIRECTION('',(0.,0.,-1.));
#1278=DIRECTION('',(-1.,0.,0.));
#1279=DIRECTION('',(0.,-1.,0.));
#1280=DIRECTION('',(-1.,0.,0.));
#1281=DIRECTION('',(1.,0.,0.));
#1282=DIRECTION('',(1.,0.,0.));
#1283=DIRECTION('',(0.,0.,-1.));
#1284=DIRECTION('',(0.,0.,-1.));
#1285=DIRECTION('',(0.,-1.,0.));
#1286=DIRECTION('',(0.,0.,1.));
#1287=DIRECTION('',(1.,0.,0.));
#1288=DIRECTION('',(0.,0.,-1.));
#1289=DIRECTION('',(0.,-1.,0.));
#1290=DIRECTION('',(0.,0.,-1.));
#1291=DIRECTION('',(0.,0.,1.));
#1292=DIRECTION('',(0.,-1.,0.));
#1293=DIRECTION('',(1.,0.,0.));
#1294=DIRECTION('',(2.74364373581695E-16,0.,-1.));
#1295=DIRECTION('',(-1.,0.,0.));
#1296=DIRECTION('',(3.31348040612628E-16,0.,-1.));
#1297=DIRECTION('',(-1.,0.,0.));
#1298=DIRECTION('',(0.,0.,1.));
#1299=DIRECTION('',(1.,0.,0.));
#1300=DIRECTION('',(1.,0.,0.));
#1301=DIRECTION('',(1.,0.,0.));
#1302=DIRECTION('',(0.,0.,1.));
#1303=DIRECTION('',(1.,0.,1.82602471155453E-16));
#1304=DIRECTION('',(-1.,0.,-1.65211759616839E-16));
#1305=DIRECTION('',(3.07336954025198E-16,0.,-1.));
#1306=DIRECTION('',(-1.,0.,-3.30423519233678E-16));
#1307=DIRECTION('',(4.09782605366929E-16,0.,-1.));
#1308=DIRECTION('',(2.78808248110525E-16,0.,-1.));
#1309=DIRECTION('',(1.,0.,3.25887686474342E-16));
#1310=DIRECTION('',(4.18212372165788E-16,0.,-1.));
#1311=DIRECTION('',(1.,0.,3.25887686474342E-16));
#1312=DIRECTION('',(2.78808248110525E-16,0.,-1.));
#1313=DIRECTION('',(1.,0.,3.26035370864546E-16));
#1314=DIRECTION('',(1.39404124055263E-16,0.,-1.));
#1315=DIRECTION('',(1.,0.,2.17356913909698E-16));
#1316=DIRECTION('',(2.78808248110526E-16,0.,-1.));
#1317=DIRECTION('',(1.,0.,4.34516915299122E-16));
#1318=DIRECTION('',(1.39404124055263E-16,0.,-1.));
#1319=DIRECTION('',(1.,0.,2.17258457649561E-16));
#1320=DIRECTION('',(0.,0.,1.));
#1321=DIRECTION('',(1.,0.,0.));
#1322=DIRECTION('',(0.,0.,-1.));
#1323=DIRECTION('',(-1.,0.,-1.86165446202389E-15));
#1324=DIRECTION('',(1.,0.,0.));
#1325=DIRECTION('',(0.,0.,-1.));
#1326=DIRECTION('',(0.,-1.,0.));
#1327=DIRECTION('',(0.,0.,-1.));
#1328=DIRECTION('',(0.,-1.,0.));
#1329=DIRECTION('',(0.,0.,-1.));
#1330=DIRECTION('',(-1.,0.,0.));
#1331=DIRECTION('',(-1.,0.,0.));
#1332=DIRECTION('',(0.,0.,-1.));
#1333=DIRECTION('',(-1.,0.,0.));
#1334=DIRECTION('',(-1.,0.,0.));
#1335=DIRECTION('',(0.,-1.,0.));
#1336=DIRECTION('',(1.,0.,0.));
#1337=DIRECTION('',(0.,0.,-1.));
#1338=DIRECTION('',(0.,0.,-1.));
#1339=DIRECTION('',(0.,-1.,0.));
#1340=DIRECTION('',(1.82602471155453E-16,0.,-1.));
#1341=DIRECTION('',(-1.,0.,-1.82602471155453E-16));
#1342=DIRECTION('',(-1.,0.,0.));
#1343=DIRECTION('',(-1.,0.,0.));
#1344=DIRECTION('',(1.,0.,1.82602471155453E-16));
#1345=DIRECTION('',(-1.,0.,0.));
#1346=DIRECTION('',(-1.,0.,0.));
#1347=DIRECTION('',(0.,-1.,0.));
#1348=DIRECTION('',(1.,0.,0.));
#1349=DIRECTION('',(1.,0.,0.));
#1350=DIRECTION('',(0.,0.,1.));
#1351=DIRECTION('',(1.,0.,0.));
#1352=DIRECTION('',(0.,1.,0.));
#1353=DIRECTION('',(1.,0.,0.));
#1354=DIRECTION('',(0.,1.,0.));
#1355=DIRECTION('',(1.,0.,0.));
#1356=DIRECTION('',(-1.,0.,0.));
#1357=DIRECTION('',(0.,0.,1.));
#1358=DIRECTION('',(0.,0.,-1.));
#1359=DIRECTION('',(0.,1.,0.));
#1360=DIRECTION('',(0.,0.,-1.));
#1361=DIRECTION('',(0.,1.,0.));
#1362=DIRECTION('',(0.,0.,1.));
#1363=DIRECTION('',(0.,0.,-1.));
#1364=DIRECTION('',(1.,0.,0.));
#1365=DIRECTION('',(-1.,0.,0.));
#1366=DIRECTION('',(0.,0.,1.));
#1367=DIRECTION('',(0.,0.,-1.));
#1368=DIRECTION('',(0.,1.,0.));
#1369=DIRECTION('',(0.,1.,0.));
#1370=DIRECTION('',(0.,0.,1.));
#1371=DIRECTION('',(1.,0.,0.));
#1372=DIRECTION('',(0.,0.,1.));
#1373=DIRECTION('',(1.,0.,0.));
#1374=DIRECTION('',(-1.,0.,-2.74364373581695E-16));
#1375=DIRECTION('',(-2.74364373581695E-16,0.,1.));
#1376=DIRECTION('',(0.,-1.,0.));
#1377=DIRECTION('',(2.74364373581695E-16,0.,-1.));
#1378=DIRECTION('',(0.,-1.,0.));
#1379=DIRECTION('',(0.,0.,1.));
#1380=DIRECTION('',(1.,0.,0.));
#1381=DIRECTION('',(0.,-1.,0.));
#1382=DIRECTION('',(-1.,0.,0.));
#1383=DIRECTION('',(-1.,0.,-3.31348040612628E-16));
#1384=DIRECTION('',(-3.31348040612628E-16,0.,1.));
#1385=DIRECTION('',(0.,-1.,0.));
#1386=DIRECTION('',(3.31348040612628E-16,0.,-1.));
#1387=DIRECTION('',(0.,0.,1.));
#1388=DIRECTION('',(1.,0.,0.));
#1389=DIRECTION('',(-1.,0.,0.));
#1390=DIRECTION('',(0.,-1.,0.));
#1391=DIRECTION('',(1.,0.,0.));
#1392=DIRECTION('',(-1.,0.,-3.07336954025198E-16));
#1393=DIRECTION('',(-3.07336954025198E-16,0.,1.));
#1394=DIRECTION('',(0.,-1.,0.));
#1395=DIRECTION('',(3.07336954025198E-16,0.,-1.));
#1396=DIRECTION('',(0.,-1.,0.));
#1397=DIRECTION('',(-1.65211759616839E-16,0.,1.));
#1398=DIRECTION('',(1.,0.,1.65211759616839E-16));
#1399=DIRECTION('',(0.,-1.,0.));
#1400=DIRECTION('',(-1.,0.,-1.65211759616839E-16));
#1401=DIRECTION('',(-1.,0.,-4.09782605366929E-16));
#1402=DIRECTION('',(-4.09782605366929E-16,0.,1.));
#1403=DIRECTION('',(0.,-1.,0.));
#1404=DIRECTION('',(4.09782605366929E-16,0.,-1.));
#1405=DIRECTION('',(-3.30423519233678E-16,0.,1.));
#1406=DIRECTION('',(1.,0.,3.30423519233678E-16));
#1407=DIRECTION('',(-1.,0.,-3.30423519233678E-16));
#1408=DIRECTION('',(0.,-1.,0.));
#1409=DIRECTION('',(1.,0.,0.));
#1410=DIRECTION('',(3.25887686474342E-16,0.,-1.));
#1411=DIRECTION('',(-1.,0.,-3.25887686474342E-16));
#1412=DIRECTION('',(0.,-1.,0.));
#1413=DIRECTION('',(1.,0.,3.25887686474342E-16));
#1414=DIRECTION('',(0.,-1.,0.));
#1415=DIRECTION('',(-1.,0.,-2.78808248110525E-16));
#1416=DIRECTION('',(-2.78808248110525E-16,0.,1.));
#1417=DIRECTION('',(0.,-1.,0.));
#1418=DIRECTION('',(2.78808248110525E-16,0.,-1.));
#1419=DIRECTION('',(3.25887686474342E-16,0.,-1.));
#1420=DIRECTION('',(-1.,0.,-3.25887686474342E-16));
#1421=DIRECTION('',(0.,-1.,0.));
#1422=DIRECTION('',(1.,0.,3.25887686474342E-16));
#1423=DIRECTION('',(-1.,0.,-4.18212372165788E-16));
#1424=DIRECTION('',(-4.18212372165788E-16,0.,1.));
#1425=DIRECTION('',(4.18212372165788E-16,0.,-1.));
#1426=DIRECTION('',(0.,-1.,0.));
#1427=DIRECTION('',(1.,0.,0.));
#1428=DIRECTION('',(3.26035370864546E-16,0.,-1.));
#1429=DIRECTION('',(-1.,0.,-3.26035370864546E-16));
#1430=DIRECTION('',(0.,-1.,0.));
#1431=DIRECTION('',(1.,0.,3.26035370864546E-16));
#1432=DIRECTION('',(0.,-1.,0.));
#1433=DIRECTION('',(-1.,0.,-2.78808248110525E-16));
#1434=DIRECTION('',(-2.78808248110525E-16,0.,1.));
#1435=DIRECTION('',(0.,-1.,0.));
#1436=DIRECTION('',(2.78808248110525E-16,0.,-1.));
#1437=DIRECTION('',(2.17356913909698E-16,0.,-1.));
#1438=DIRECTION('',(-1.,0.,-2.17356913909698E-16));
#1439=DIRECTION('',(0.,-1.,0.));
#1440=DIRECTION('',(1.,0.,2.17356913909698E-16));
#1441=DIRECTION('',(-1.,0.,-1.39404124055263E-16));
#1442=DIRECTION('',(-1.39404124055263E-16,0.,1.));
#1443=DIRECTION('',(1.39404124055263E-16,0.,-1.));
#1444=DIRECTION('',(0.,-1.,0.));
#1445=DIRECTION('',(1.,0.,0.));
#1446=DIRECTION('',(4.34516915299122E-16,0.,-1.));
#1447=DIRECTION('',(-1.,0.,-4.34516915299122E-16));
#1448=DIRECTION('',(0.,-1.,0.));
#1449=DIRECTION('',(1.,0.,4.34516915299122E-16));
#1450=DIRECTION('',(0.,-1.,0.));
#1451=DIRECTION('',(-1.,0.,-2.78808248110526E-16));
#1452=DIRECTION('',(-2.78808248110526E-16,0.,1.));
#1453=DIRECTION('',(0.,-1.,0.));
#1454=DIRECTION('',(2.78808248110526E-16,0.,-1.));
#1455=DIRECTION('',(2.17258457649561E-16,0.,-1.));
#1456=DIRECTION('',(-1.,0.,-2.17258457649561E-16));
#1457=DIRECTION('',(0.,-1.,0.));
#1458=DIRECTION('',(1.,0.,2.17258457649561E-16));
#1459=DIRECTION('',(-1.,0.,-1.39404124055263E-16));
#1460=DIRECTION('',(-1.39404124055263E-16,0.,1.));
#1461=DIRECTION('',(1.39404124055263E-16,0.,-1.));
#1462=DIRECTION('',(0.,-1.,0.));
#1463=DIRECTION('',(1.,0.,0.));
#1464=DIRECTION('',(0.,0.,-1.));
#1465=DIRECTION('',(-1.,0.,0.));
#1466=DIRECTION('',(0.,-1.,0.));
#1467=DIRECTION('',(1.,0.,0.));
#1468=DIRECTION('',(0.,-1.,0.));
#1469=DIRECTION('',(1.,0.,0.));
#1470=DIRECTION('',(0.,0.,-1.));
#1471=DIRECTION('',(0.,-1.,0.));
#1472=DIRECTION('',(0.,0.,1.));
#1473=DIRECTION('',(-1.86165446202389E-15,0.,1.));
#1474=DIRECTION('',(1.,0.,1.86165446202389E-15));
#1475=DIRECTION('',(0.,-1.,0.));
#1476=DIRECTION('',(-1.,0.,-1.86165446202389E-15));
#1477=DIRECTION('',(-1.,0.,0.));
#1478=DIRECTION('',(0.,0.,1.));
#1479=DIRECTION('',(0.,0.,-1.));
#1480=DIRECTION('',(0.,-1.,0.));
#1481=DIRECTION('',(1.,0.,0.));
#1482=DIRECTION('',(0.,-1.,0.));
#1483=DIRECTION('',(0.,0.,-1.));
#1484=DIRECTION('',(0.,-1.,0.));
#1485=DIRECTION('',(0.,0.,-1.));
#1486=DIRECTION('',(0.,-1.,0.));
#1487=DIRECTION('',(0.,0.,-1.));
#1488=DIRECTION('',(0.,-1.,0.));
#1489=DIRECTION('',(0.,0.,-1.));
#1490=DIRECTION('',(0.,0.,-1.));
#1491=DIRECTION('',(-1.,0.,0.));
#1492=DIRECTION('',(-1.,0.,0.));
#1493=DIRECTION('',(0.,-1.,0.));
#1494=DIRECTION('',(-1.,0.,0.));
#1495=DIRECTION('',(0.,1.,0.));
#1496=DIRECTION('',(0.,0.,1.));
#1497=DIRECTION('',(-1.,0.,0.));
#1498=DIRECTION('',(0.,0.,-1.));
#1499=DIRECTION('',(0.,0.,-1.));
#1500=DIRECTION('',(-1.,0.,0.));
#1501=DIRECTION('',(-1.,0.,0.));
#1502=DIRECTION('',(0.,-1.,0.));
#1503=DIRECTION('',(0.,1.,0.));
#1504=DIRECTION('',(0.,0.,1.));
#1505=DIRECTION('',(0.,0.,-1.));
#1506=DIRECTION('',(-1.,0.,0.));
#1507=DIRECTION('',(0.,-1.,0.));
#1508=DIRECTION('',(1.48690583655155E-16,2.20282346155785E-16,-1.));
#1509=DIRECTION('',(0.,1.,2.20282346155785E-16));
#1510=DIRECTION('',(1.,0.,1.48690583655155E-16));
#1511=DIRECTION('',(-3.27539106188305E-32,1.,2.20282346155785E-16));
#1512=DIRECTION('',(1.,0.,1.48690583655155E-16));
#1513=DIRECTION('',(1.84240747230922E-32,-1.,-1.23908819712629E-16));
#1514=DIRECTION('',(0.,1.23908819712629E-16,-1.));
#1515=DIRECTION('',(1.,0.,1.48690583655155E-16));
#1516=DIRECTION('',(1.48690583655155E-16,1.23908819712629E-16,-1.));
#1517=DIRECTION('',(1.48690583655155E-16,2.20282346155785E-16,-1.));
#1518=DIRECTION('',(0.,1.,2.20282346155785E-16));
#1519=DIRECTION('',(1.,0.,1.48690583655155E-16));
#1520=DIRECTION('',(-3.27539106188305E-32,1.,2.20282346155785E-16));
#1521=DIRECTION('',(2.18359404125537E-32,-1.,-1.4685489743719E-16));
#1522=DIRECTION('',(0.,1.4685489743719E-16,-1.));
#1523=DIRECTION('',(1.48690583655155E-16,1.4685489743719E-16,-1.));
#1524=DIRECTION('',(1.,0.,1.48690583655155E-16));
#1525=DIRECTION('',(0.,1.,0.));
#1526=CARTESIAN_POINT('',(0.,0.,0.));
#1527=CARTESIAN_POINT('',(0.0122115609530681,0.01875,9.78254154324534E-5));
#1528=CARTESIAN_POINT('',(0.0122115609530681,0.01875,-0.0239021745845676));
#1529=CARTESIAN_POINT('',(0.0122115609530681,0.002625,-0.0239021745845676));
#1530=CARTESIAN_POINT('',(0.0122115609530681,0.016125,-0.0239021745845676));
#1531=CARTESIAN_POINT('',(0.0122115609530681,0.016125,9.78254154324534E-5));
#1532=CARTESIAN_POINT('',(0.0122115609530681,0.016125,-0.0261521745845676));
#1533=CARTESIAN_POINT('',(0.0122115609530681,0.01875,-0.0261521745845676));
#1534=CARTESIAN_POINT('',(0.0122115609530681,0.01875,-0.0261521745845676));
#1535=CARTESIAN_POINT('',(0.0122115609530681,0.01875,9.78254154324534E-5));
#1536=CARTESIAN_POINT('',(0.0122115609530681,0.01875,0.0263478254154325));
#1537=CARTESIAN_POINT('',(0.0122115609530681,0.01875,0.0263478254154325));
#1538=CARTESIAN_POINT('',(0.0122115609530681,0.,0.0263478254154325));
#1539=CARTESIAN_POINT('',(0.0122115609530681,0.,9.78254154324534E-5));
#1540=CARTESIAN_POINT('',(0.0122115609530681,0.,-0.0261521745845676));
#1541=CARTESIAN_POINT('',(0.0122115609530681,0.01875,-0.0261521745845676));
#1542=CARTESIAN_POINT('',(0.0122115609530681,0.002625,-0.0261521745845676));
#1543=CARTESIAN_POINT('',(0.0122115609530681,0.002625,9.78254154324534E-5));
#1544=CARTESIAN_POINT('',(0.0122115609530681,0.0015,0.00122282541543245));
#1545=CARTESIAN_POINT('',(0.0122115609530681,0.0015,0.0248478254154324));
#1546=CARTESIAN_POINT('',(0.0122115609530681,0.0015,-0.0224021745845676));
#1547=CARTESIAN_POINT('',(0.0122115609530681,0.009375,0.0248478254154324));
#1548=CARTESIAN_POINT('',(0.0122115609530681,0.01725,0.0248478254154324));
#1549=CARTESIAN_POINT('',(0.0122115609530681,0.01725,0.00122282541543245));
#1550=CARTESIAN_POINT('',(0.0122115609530681,0.01725,-0.0224021745845676));
#1551=CARTESIAN_POINT('',(0.0122115609530681,0.009375,-0.0224021745845676));
#1552=CARTESIAN_POINT('',(-0.0215384390469319,0.01875,9.78254154324534E-5));
#1553=CARTESIAN_POINT('',(-0.0215384390469319,0.01875,-0.0261521745845676));
#1554=CARTESIAN_POINT('',(-0.0215384390469319,0.01875,-0.0261521745845676));
#1555=CARTESIAN_POINT('',(-0.0215384390469319,0.016125,-0.0261521745845676));
#1556=CARTESIAN_POINT('',(-0.0215384390469319,0.016125,-0.0250271745845675));
#1557=CARTESIAN_POINT('',(-0.0215384390469319,0.016125,-0.0239021745845676));
#1558=CARTESIAN_POINT('',(-0.0215384390469319,0.009375,-0.0239021745845676));
#1559=CARTESIAN_POINT('',(-0.0215384390469319,0.002625,-0.0239021745845676));
#1560=CARTESIAN_POINT('',(-0.0215384390469319,0.002625,-0.0250271745845675));
#1561=CARTESIAN_POINT('',(-0.0215384390469319,0.002625,-0.0261521745845676));
#1562=CARTESIAN_POINT('',(-0.0215384390469319,0.01875,-0.0261521745845676));
#1563=CARTESIAN_POINT('',(-0.0215384390469319,0.,-0.0261521745845676));
#1564=CARTESIAN_POINT('',(-0.0215384390469319,0.,9.78254154324534E-5));
#1565=CARTESIAN_POINT('',(-0.0215384390469319,0.,0.0263478254154325));
#1566=CARTESIAN_POINT('',(-0.0215384390469319,0.01875,0.0263478254154325));
#1567=CARTESIAN_POINT('',(-0.0215384390469319,0.01875,0.0263478254154325));
#1568=CARTESIAN_POINT('',(-0.0215384390469319,0.01875,9.78254154324534E-5));
#1569=CARTESIAN_POINT('',(-0.0215384390469319,0.009375,0.0248478254154324));
#1570=CARTESIAN_POINT('',(-0.0215384390469319,0.01725,0.0248478254154324));
#1571=CARTESIAN_POINT('',(-0.0215384390469319,0.0015,0.0248478254154324));
#1572=CARTESIAN_POINT('',(-0.0215384390469319,0.0015,0.00122282541543245));
#1573=CARTESIAN_POINT('',(-0.0215384390469319,0.0015,-0.0224021745845676));
#1574=CARTESIAN_POINT('',(-0.0215384390469319,0.009375,-0.0224021745845676));
#1575=CARTESIAN_POINT('',(-0.0215384390469319,0.01725,-0.0224021745845676));
#1576=CARTESIAN_POINT('',(-0.0215384390469319,0.01725,0.00122282541543245));
#1577=CARTESIAN_POINT('',(0.0108990609530681,0.01875,-0.0261521745845676));
#1578=CARTESIAN_POINT('',(0.0142365609530681,0.016125,-0.0261521745845676));
#1579=CARTESIAN_POINT('',(0.00958656095306809,0.016125,-0.0261521745845676));
#1580=CARTESIAN_POINT('',(0.00958656095306809,0.01875,-0.0261521745845676));
#1581=CARTESIAN_POINT('',(0.00958656095306809,0.01875,-0.0261521745845676));
#1582=CARTESIAN_POINT('',(0.0108990609530681,0.01875,-0.0261521745845676));
#1583=CARTESIAN_POINT('',(-0.0202259390469319,0.01875,-0.0261521745845676));
#1584=CARTESIAN_POINT('',(-0.0189134390469319,0.01875,-0.0261521745845676));
#1585=CARTESIAN_POINT('',(-0.0189134390469319,0.01875,-0.0261521745845676));
#1586=CARTESIAN_POINT('',(-0.0189134390469319,0.016125,-0.0261521745845676));
#1587=CARTESIAN_POINT('',(0.0142365609530681,0.016125,-0.0261521745845676));
#1588=CARTESIAN_POINT('',(-0.0202259390469319,0.01875,-0.0261521745845676));
#1589=CARTESIAN_POINT('',(0.00958656095306809,0.01875,-0.0250271745845675));
#1590=CARTESIAN_POINT('',(0.00958656095306809,0.016125,-0.0250271745845675));
#1591=CARTESIAN_POINT('',(0.00958656095306809,0.016125,-0.0239021745845676));
#1592=CARTESIAN_POINT('',(0.00958656095306809,0.01875,-0.0239021745845676));
#1593=CARTESIAN_POINT('',(0.00958656095306809,0.01875,-0.0239021745845676));
#1594=CARTESIAN_POINT('',(0.00958656095306809,0.01875,-0.0250271745845675));
#1595=CARTESIAN_POINT('',(-0.0189134390469319,0.01875,-0.0250271745845675));
#1596=CARTESIAN_POINT('',(-0.0189134390469319,0.01875,-0.0239021745845676));
#1597=CARTESIAN_POINT('',(-0.0189134390469319,0.01875,-0.0239021745845676));
#1598=CARTESIAN_POINT('',(-0.0189134390469319,0.016125,-0.0239021745845676));
#1599=CARTESIAN_POINT('',(-0.0189134390469319,0.016125,-0.0250271745845675));
#1600=CARTESIAN_POINT('',(-0.0189134390469319,0.01875,-0.0250271745845675));
#1601=CARTESIAN_POINT('',(-0.00466343904693191,0.,9.78254154324586E-5));
#1602=CARTESIAN_POINT('',(-0.00428843904693191,0.,0.0240373192671686));
#1603=CARTESIAN_POINT('',(-0.00428843904693191,0.,0.0252228254154324));
#1604=CARTESIAN_POINT('',(-0.00428843904693191,0.,0.0212963117575364));
#1605=CARTESIAN_POINT('',(0.00339906095306808,0.,0.0252228254154324));
#1606=CARTESIAN_POINT('',(0.0110865609530681,0.,0.0252228254154324));
#1607=CARTESIAN_POINT('',(0.0110865609530681,0.,0.0232595685864844));
#1608=CARTESIAN_POINT('',(0.0110865609530681,0.,0.0212963117575364));
#1609=CARTESIAN_POINT('',(0.00339906095306808,0.,0.0212963117575364));
#1610=CARTESIAN_POINT('',(0.00958656095306809,0.,-0.0250271745845675));
#1611=CARTESIAN_POINT('',(0.00958656095306809,0.,-0.0261521745845676));
#1612=CARTESIAN_POINT('',(0.00958656095306809,0.,-0.0239021745845676));
#1613=CARTESIAN_POINT('',(0.0108990609530681,0.,-0.0261521745845676));
#1614=CARTESIAN_POINT('',(-0.00466343904693192,0.,0.0263478254154325));
#1615=CARTESIAN_POINT('',(-0.0202259390469319,0.,-0.0261521745845676));
#1616=CARTESIAN_POINT('',(-0.0189134390469319,0.,-0.0261521745845676));
#1617=CARTESIAN_POINT('',(-0.0189134390469319,0.,-0.0250271745845675));
#1618=CARTESIAN_POINT('',(-0.0189134390469319,0.,-0.0239021745845676));
#1619=CARTESIAN_POINT('',(-0.00466343904693191,0.,-0.0239021745845676));
#1620=CARTESIAN_POINT('',(0.00321156095306809,0.,0.0205463117575364));
#1621=CARTESIAN_POINT('',(0.0110865609530681,0.,0.0205463117575364));
#1622=CARTESIAN_POINT('',(-0.0204134390469319,0.,0.0205463117575364));
#1623=CARTESIAN_POINT('',(0.0110865609530681,0.,0.0141963955339445));
#1624=CARTESIAN_POINT('',(0.0110865609530681,0.,0.00784647931035261));
#1625=CARTESIAN_POINT('',(0.00321156095306809,0.,0.00784647931035261));
#1626=CARTESIAN_POINT('',(-0.0204134390469319,0.,0.0078464793103526));
#1627=CARTESIAN_POINT('',(-0.0204134390469319,0.,0.0141963955339445));
#1628=CARTESIAN_POINT('',(-0.0204134390469319,0.,0.00243003699453257));
#1629=CARTESIAN_POINT('',(-0.0204134390469319,0.,0.0070964793103526));
#1630=CARTESIAN_POINT('',(-0.0204134390469319,0.,-0.00223640532128746));
#1631=CARTESIAN_POINT('',(-0.0144249835407201,0.,0.0070964793103526));
#1632=CARTESIAN_POINT('',(0.0110865609530681,0.,0.00709647931035261));
#1633=CARTESIAN_POINT('',(0.0110865609530681,0.,0.00243003699453258));
#1634=CARTESIAN_POINT('',(0.0110865609530681,0.,-0.00223640532128745));
#1635=CARTESIAN_POINT('',(-0.0144249835407201,0.,-0.00223640532128745));
#1636=CARTESIAN_POINT('',(-0.0204134390469319,0.,-0.00765284763710748));
#1637=CARTESIAN_POINT('',(-0.0204134390469319,0.,-0.00298640532128746));
#1638=CARTESIAN_POINT('',(-0.0204134390469319,0.,-0.0123192899529275));
#1639=CARTESIAN_POINT('',(-0.014427696134134,0.,-0.00298640532128746));
#1640=CARTESIAN_POINT('',(0.0110865609530681,0.,-0.00298640532128745));
#1641=CARTESIAN_POINT('',(0.0110865609530681,0.,-0.00765284763710747));
#1642=CARTESIAN_POINT('',(0.0110865609530681,0.,-0.0123192899529275));
#1643=CARTESIAN_POINT('',(-0.014427696134134,0.,-0.0123192899529275));
#1644=CARTESIAN_POINT('',(-0.0204134390469319,0.,-0.0177357322687476));
#1645=CARTESIAN_POINT('',(-0.0204134390469319,0.,-0.0130692899529275));
#1646=CARTESIAN_POINT('',(-0.0204134390469319,0.,-0.0224021745845676));
#1647=CARTESIAN_POINT('',(-0.0144249835407201,0.,-0.0130692899529275));
#1648=CARTESIAN_POINT('',(0.0110865609530681,0.,-0.0130692899529275));
#1649=CARTESIAN_POINT('',(0.0110865609530681,0.,-0.0177357322687475));
#1650=CARTESIAN_POINT('',(0.0110865609530681,0.,-0.0224021745845676));
#1651=CARTESIAN_POINT('',(-0.0144249835407201,0.,-0.0224021745845676));
#1652=CARTESIAN_POINT('',(-0.0204134390469319,0.,0.0232595685864844));
#1653=CARTESIAN_POINT('',(-0.0204134390469319,0.,0.0212963117575363));
#1654=CARTESIAN_POINT('',(-0.0204134390469319,0.,0.0252228254154324));
#1655=CARTESIAN_POINT('',(-0.0138445388415668,0.,0.0252228254154324));
#1656=CARTESIAN_POINT('',(-0.00503843904693191,0.,0.0252228254154324));
#1657=CARTESIAN_POINT('',(-0.00503843904693191,0.,0.0224095348413147));
#1658=CARTESIAN_POINT('',(-0.00503843904693191,0.,0.0212963117575364));
#1659=CARTESIAN_POINT('',(-0.0127259390469319,0.,0.0212963117575364));
#1660=CARTESIAN_POINT('',(0.00958656095306809,0.01875,-0.0250271745845675));
#1661=CARTESIAN_POINT('',(0.00958656095306809,0.01875,-0.0239021745845676));
#1662=CARTESIAN_POINT('',(0.00958656095306809,0.002625,-0.0239021745845676));
#1663=CARTESIAN_POINT('',(0.00958656095306809,0.002625,-0.0250271745845675));
#1664=CARTESIAN_POINT('',(0.00958656095306809,0.002625,-0.0261521745845676));
#1665=CARTESIAN_POINT('',(0.00958656095306809,0.01875,-0.0261521745845676));
#1666=CARTESIAN_POINT('',(0.0108990609530681,0.01875,-0.0261521745845676));
#1667=CARTESIAN_POINT('',(0.0142365609530681,0.002625,-0.0261521745845676));
#1668=CARTESIAN_POINT('',(-0.0202259390469319,0.01875,-0.0261521745845676));
#1669=CARTESIAN_POINT('',(0.0142365609530681,0.002625,-0.0261521745845676));
#1670=CARTESIAN_POINT('',(-0.0189134390469319,0.002625,-0.0261521745845676));
#1671=CARTESIAN_POINT('',(-0.0189134390469319,0.01875,-0.0261521745845676));
#1672=CARTESIAN_POINT('',(-0.0189134390469319,0.01875,-0.0250271745845675));
#1673=CARTESIAN_POINT('',(-0.0189134390469319,0.002625,-0.0250271745845675));
#1674=CARTESIAN_POINT('',(-0.0189134390469319,0.002625,-0.0239021745845676));
#1675=CARTESIAN_POINT('',(-0.0189134390469319,0.01875,-0.0239021745845676));
#1676=CARTESIAN_POINT('',(-0.00466343904693191,0.01875,-0.0239021745845676));
#1677=CARTESIAN_POINT('',(0.0142365609530681,0.002625,-0.0239021745845676));
#1678=CARTESIAN_POINT('',(0.0142365609530681,0.016125,-0.0239021745845676));
#1679=CARTESIAN_POINT('',(-0.00466343904693191,0.01875,-0.0239021745845676));
#1680=CARTESIAN_POINT('',(0.0142365609530681,0.016125,-0.0239021745845676));
#1681=CARTESIAN_POINT('',(0.0142365609530681,0.002625,-0.0239021745845676));
#1682=CARTESIAN_POINT('',(-0.00466343904693191,0.01875,9.78254154324586E-5));
#1683=CARTESIAN_POINT('',(-0.00466343904693192,0.01875,0.0263478254154325));
#1684=CARTESIAN_POINT('',(-0.00466343904693191,0.009375,0.0263478254154325));
#1685=CARTESIAN_POINT('',(-0.0226634390469319,0.009375,0.0263478254154325));
#1686=CARTESIAN_POINT('',(-0.0226634390469319,-0.001125,0.0263478254154325));
#1687=CARTESIAN_POINT('',(-0.0226634390469319,0.019875,0.0263478254154325));
#1688=CARTESIAN_POINT('',(-0.00466343904693191,0.019875,0.0263478254154325));
#1689=CARTESIAN_POINT('',(0.0133365609530681,0.019875,0.0263478254154325));
#1690=CARTESIAN_POINT('',(0.0133365609530681,0.009375,0.0263478254154325));
#1691=CARTESIAN_POINT('',(0.0133365609530681,-0.001125,0.0263478254154325));
#1692=CARTESIAN_POINT('',(-0.00466343904693191,-0.001125,0.0263478254154325));
#1693=CARTESIAN_POINT('',(-0.0226634390469319,0.009375,0.0274728254154325));
#1694=CARTESIAN_POINT('',(-0.0226634390469319,-0.001125,0.0274728254154325));
#1695=CARTESIAN_POINT('',(-0.0226634390469319,-0.001125,0.0274728254154325));
#1696=CARTESIAN_POINT('',(-0.0226634390469319,0.009375,0.0274728254154325));
#1697=CARTESIAN_POINT('',(-0.0226634390469319,0.019875,0.0274728254154325));
#1698=CARTESIAN_POINT('',(-0.0226634390469319,0.019875,0.0274728254154325));
#1699=CARTESIAN_POINT('',(-0.00466343904693191,-0.001125,0.0274728254154325));
#1700=CARTESIAN_POINT('',(0.0133365609530681,-0.001125,0.0274728254154325));
#1701=CARTESIAN_POINT('',(0.0133365609530681,-0.001125,0.0274728254154325));
#1702=CARTESIAN_POINT('',(-0.00466343904693191,-0.001125,0.0274728254154325));
#1703=CARTESIAN_POINT('',(0.0133365609530681,0.009375,0.0274728254154325));
#1704=CARTESIAN_POINT('',(0.0133365609530681,0.019875,0.0274728254154325));
#1705=CARTESIAN_POINT('',(0.0133365609530681,0.019875,0.0274728254154325));
#1706=CARTESIAN_POINT('',(0.0133365609530681,0.009375,0.0274728254154325));
#1707=CARTESIAN_POINT('',(-0.00466343904693191,0.019875,0.0274728254154325));
#1708=CARTESIAN_POINT('',(-0.00466343904693191,0.019875,0.0274728254154325));
#1709=CARTESIAN_POINT('',(-0.00466343904693191,0.009375,0.0274728254154325));
#1710=CARTESIAN_POINT('',(-0.00428843904693191,0.00015,0.0240373192671686));
#1711=CARTESIAN_POINT('',(-0.00428843904693191,0.00015,0.0212963117575364));
#1712=CARTESIAN_POINT('',(-0.00428843904693191,0.00015,0.0212963117575364));
#1713=CARTESIAN_POINT('',(-0.00428843904693191,0.00015,0.0240373192671686));
#1714=CARTESIAN_POINT('',(-0.00428843904693191,0.00015,0.0252228254154324));
#1715=CARTESIAN_POINT('',(-0.00428843904693191,0.00015,0.0252228254154324));
#1716=CARTESIAN_POINT('',(0.00339906095306808,0.00015,0.0212963117575364));
#1717=CARTESIAN_POINT('',(0.0110865609530681,0.00015,0.0212963117575364));
#1718=CARTESIAN_POINT('',(0.0110865609530681,0.00015,0.0212963117575364));
#1719=CARTESIAN_POINT('',(0.00339906095306808,0.00015,0.0212963117575364));
#1720=CARTESIAN_POINT('',(0.0110865609530681,0.00015,0.0232595685864844));
#1721=CARTESIAN_POINT('',(0.0110865609530681,0.00015,0.0252228254154324));
#1722=CARTESIAN_POINT('',(0.0110865609530681,0.00015,0.0252228254154324));
#1723=CARTESIAN_POINT('',(0.0110865609530681,0.00015,0.0232595685864844));
#1724=CARTESIAN_POINT('',(0.00339906095306808,0.00015,0.0252228254154324));
#1725=CARTESIAN_POINT('',(0.00339906095306808,0.00015,0.0252228254154324));
#1726=CARTESIAN_POINT('',(-0.00466343904693191,0.00015,9.78254154324586E-5));
#1727=CARTESIAN_POINT('',(0.0110865609530681,0.00015,0.0141963955339445));
#1728=CARTESIAN_POINT('',(0.0110865609530681,0.00015,0.0205463117575364));
#1729=CARTESIAN_POINT('',(0.0110865609530681,0.00015,0.0205463117575364));
#1730=CARTESIAN_POINT('',(0.0110865609530681,0.00015,0.0141963955339445));
#1731=CARTESIAN_POINT('',(0.0110865609530681,0.00015,0.00784647931035261));
#1732=CARTESIAN_POINT('',(0.0110865609530681,0.00015,0.00784647931035261));
#1733=CARTESIAN_POINT('',(0.00321156095306809,0.00015,0.0205463117575364));
#1734=CARTESIAN_POINT('',(-0.0204134390469319,0.00015,0.0205463117575364));
#1735=CARTESIAN_POINT('',(-0.0204134390469319,0.00015,0.0205463117575364));
#1736=CARTESIAN_POINT('',(0.00321156095306809,0.00015,0.0205463117575364));
#1737=CARTESIAN_POINT('',(-0.0204134390469319,0.00015,0.0141963955339445));
#1738=CARTESIAN_POINT('',(-0.0204134390469319,0.00015,0.0078464793103526));
#1739=CARTESIAN_POINT('',(-0.0204134390469319,0.00015,0.0078464793103526));
#1740=CARTESIAN_POINT('',(-0.0204134390469319,0.00015,0.0141963955339445));
#1741=CARTESIAN_POINT('',(0.00321156095306809,0.00015,0.00784647931035261));
#1742=CARTESIAN_POINT('',(0.00321156095306809,0.00015,0.00784647931035261));
#1743=CARTESIAN_POINT('',(-0.00466343904693191,0.00015,9.78254154324586E-5));
#1744=CARTESIAN_POINT('',(-0.0144249835407201,0.00015,0.0070964793103526));
#1745=CARTESIAN_POINT('',(-0.0204134390469319,0.00015,0.0070964793103526));
#1746=CARTESIAN_POINT('',(-0.0204134390469319,0.00015,0.0070964793103526));
#1747=CARTESIAN_POINT('',(-0.0144249835407201,0.00015,0.0070964793103526));
#1748=CARTESIAN_POINT('',(0.0110865609530681,0.00015,0.00709647931035261));
#1749=CARTESIAN_POINT('',(0.0110865609530681,0.00015,0.00709647931035261));
#1750=CARTESIAN_POINT('',(-0.0204134390469319,0.00015,0.00243003699453257));
#1751=CARTESIAN_POINT('',(-0.0204134390469319,0.00015,-0.00223640532128746));
#1752=CARTESIAN_POINT('',(-0.0204134390469319,0.00015,-0.00223640532128746));
#1753=CARTESIAN_POINT('',(-0.0204134390469319,0.00015,0.00243003699453257));
#1754=CARTESIAN_POINT('',(-0.0144249835407201,0.00015,-0.00223640532128745));
#1755=CARTESIAN_POINT('',(0.0110865609530681,0.00015,-0.00223640532128745));
#1756=CARTESIAN_POINT('',(0.0110865609530681,0.00015,-0.00223640532128745));
#1757=CARTESIAN_POINT('',(-0.0144249835407201,0.00015,-0.00223640532128745));
#1758=CARTESIAN_POINT('',(0.0110865609530681,0.00015,0.00243003699453258));
#1759=CARTESIAN_POINT('',(0.0110865609530681,0.00015,0.00243003699453258));
#1760=CARTESIAN_POINT('',(-0.00466343904693191,0.00015,9.78254154324586E-5));
#1761=CARTESIAN_POINT('',(-0.014427696134134,0.00015,-0.00298640532128746));
#1762=CARTESIAN_POINT('',(-0.0204134390469319,0.00015,-0.00298640532128746));
#1763=CARTESIAN_POINT('',(-0.0204134390469319,0.00015,-0.00298640532128746));
#1764=CARTESIAN_POINT('',(-0.014427696134134,0.00015,-0.00298640532128746));
#1765=CARTESIAN_POINT('',(0.0110865609530681,0.00015,-0.00298640532128745));
#1766=CARTESIAN_POINT('',(0.0110865609530681,0.00015,-0.00298640532128745));
#1767=CARTESIAN_POINT('',(-0.0204134390469319,0.00015,-0.00765284763710748));
#1768=CARTESIAN_POINT('',(-0.0204134390469319,0.00015,-0.0123192899529275));
#1769=CARTESIAN_POINT('',(-0.0204134390469319,0.00015,-0.0123192899529275));
#1770=CARTESIAN_POINT('',(-0.0204134390469319,0.00015,-0.00765284763710748));
#1771=CARTESIAN_POINT('',(-0.014427696134134,0.00015,-0.0123192899529275));
#1772=CARTESIAN_POINT('',(0.0110865609530681,0.00015,-0.0123192899529275));
#1773=CARTESIAN_POINT('',(0.0110865609530681,0.00015,-0.0123192899529275));
#1774=CARTESIAN_POINT('',(-0.014427696134134,0.00015,-0.0123192899529275));
#1775=CARTESIAN_POINT('',(0.0110865609530681,0.00015,-0.00765284763710747));
#1776=CARTESIAN_POINT('',(0.0110865609530681,0.00015,-0.00765284763710747));
#1777=CARTESIAN_POINT('',(-0.00466343904693191,0.00015,9.78254154324586E-5));
#1778=CARTESIAN_POINT('',(-0.0144249835407201,0.00015,-0.0130692899529275));
#1779=CARTESIAN_POINT('',(-0.0204134390469319,0.00015,-0.0130692899529275));
#1780=CARTESIAN_POINT('',(-0.0204134390469319,0.00015,-0.0130692899529275));
#1781=CARTESIAN_POINT('',(-0.0144249835407201,0.00015,-0.0130692899529275));
#1782=CARTESIAN_POINT('',(0.0110865609530681,0.00015,-0.0130692899529275));
#1783=CARTESIAN_POINT('',(0.0110865609530681,0.00015,-0.0130692899529275));
#1784=CARTESIAN_POINT('',(-0.0204134390469319,0.00015,-0.0177357322687476));
#1785=CARTESIAN_POINT('',(-0.0204134390469319,0.00015,-0.0224021745845676));
#1786=CARTESIAN_POINT('',(-0.0204134390469319,0.00015,-0.0224021745845676));
#1787=CARTESIAN_POINT('',(-0.0204134390469319,0.00015,-0.0177357322687476));
#1788=CARTESIAN_POINT('',(-0.0144249835407201,0.00015,-0.0224021745845676));
#1789=CARTESIAN_POINT('',(0.0110865609530681,0.00015,-0.0224021745845676));
#1790=CARTESIAN_POINT('',(0.0110865609530681,0.00015,-0.0224021745845676));
#1791=CARTESIAN_POINT('',(-0.0144249835407201,0.00015,-0.0224021745845676));
#1792=CARTESIAN_POINT('',(0.0110865609530681,0.00015,-0.0177357322687475));
#1793=CARTESIAN_POINT('',(0.0110865609530681,0.00015,-0.0177357322687475));
#1794=CARTESIAN_POINT('',(-0.00466343904693191,0.00015,9.78254154324586E-5));
#1795=CARTESIAN_POINT('',(-0.0138445388415668,0.00015,0.0252228254154324));
#1796=CARTESIAN_POINT('',(-0.0204134390469319,0.00015,0.0252228254154324));
#1797=CARTESIAN_POINT('',(-0.0204134390469319,0.00015,0.0252228254154324));
#1798=CARTESIAN_POINT('',(-0.0138445388415668,0.00015,0.0252228254154324));
#1799=CARTESIAN_POINT('',(-0.00503843904693191,0.00015,0.0252228254154324));
#1800=CARTESIAN_POINT('',(-0.00503843904693191,0.00015,0.0252228254154324));
#1801=CARTESIAN_POINT('',(-0.0204134390469319,0.00015,0.0232595685864844));
#1802=CARTESIAN_POINT('',(-0.0204134390469319,0.00015,0.0212963117575363));
#1803=CARTESIAN_POINT('',(-0.0204134390469319,0.00015,0.0212963117575363));
#1804=CARTESIAN_POINT('',(-0.0204134390469319,0.00015,0.0232595685864844));
#1805=CARTESIAN_POINT('',(-0.0127259390469319,0.00015,0.0212963117575364));
#1806=CARTESIAN_POINT('',(-0.00503843904693191,0.00015,0.0212963117575364));
#1807=CARTESIAN_POINT('',(-0.00503843904693191,0.00015,0.0212963117575364));
#1808=CARTESIAN_POINT('',(-0.0127259390469319,0.00015,0.0212963117575364));
#1809=CARTESIAN_POINT('',(-0.00503843904693191,0.00015,0.0224095348413147));
#1810=CARTESIAN_POINT('',(-0.00503843904693191,0.00015,0.0224095348413147));
#1811=CARTESIAN_POINT('',(-0.00466343904693191,0.00015,9.78254154324586E-5));
#1812=CARTESIAN_POINT('',(0.0142365609530681,0.002625,-0.0250271745845675));
#1813=CARTESIAN_POINT('',(0.0142365609530681,0.016125,-0.0250271745845675));
#1814=CARTESIAN_POINT('',(0.0142365609530681,0.016125,-0.0250271745845675));
#1815=CARTESIAN_POINT('',(0.0142365609530681,0.002625,-0.0250271745845675));
#1816=CARTESIAN_POINT('',(-0.0214384390469319,0.009375,0.0248478254154324));
#1817=CARTESIAN_POINT('',(-0.0214384390469319,0.01725,0.0248478254154324));
#1818=CARTESIAN_POINT('',(-0.0214384390469319,0.01725,0.0248478254154324));
#1819=CARTESIAN_POINT('',(-0.0214384390469319,0.009375,0.0248478254154324));
#1820=CARTESIAN_POINT('',(-0.0214384390469319,0.0015,0.0248478254154324));
#1821=CARTESIAN_POINT('',(-0.0214384390469319,0.0015,0.0248478254154324));
#1822=CARTESIAN_POINT('',(-0.0214384390469319,0.01725,0.00122282541543245));
#1823=CARTESIAN_POINT('',(-0.0214384390469319,0.01725,-0.0224021745845676));
#1824=CARTESIAN_POINT('',(-0.0214384390469319,0.01725,-0.0224021745845676));
#1825=CARTESIAN_POINT('',(-0.0214384390469319,0.01725,0.00122282541543245));
#1826=CARTESIAN_POINT('',(-0.0214384390469319,0.009375,-0.0224021745845676));
#1827=CARTESIAN_POINT('',(-0.0214384390469319,0.0015,-0.0224021745845676));
#1828=CARTESIAN_POINT('',(-0.0214384390469319,0.0015,-0.0224021745845676));
#1829=CARTESIAN_POINT('',(-0.0214384390469319,0.009375,-0.0224021745845676));
#1830=CARTESIAN_POINT('',(-0.0214384390469319,0.0015,0.00122282541543245));
#1831=CARTESIAN_POINT('',(-0.0214384390469319,0.0015,0.00122282541543245));
#1832=CARTESIAN_POINT('',(-0.0214384390469319,0.009375,9.78254154324551E-5));
#1833=CARTESIAN_POINT('',(0.0121115609530681,0.009375,0.0248478254154324));
#1834=CARTESIAN_POINT('',(0.0121115609530681,0.0015,0.0248478254154324));
#1835=CARTESIAN_POINT('',(0.0121115609530681,0.0015,0.0248478254154324));
#1836=CARTESIAN_POINT('',(0.0121115609530681,0.009375,0.0248478254154324));
#1837=CARTESIAN_POINT('',(0.0121115609530681,0.01725,0.0248478254154324));
#1838=CARTESIAN_POINT('',(0.0121115609530681,0.01725,0.0248478254154324));
#1839=CARTESIAN_POINT('',(0.0121115609530681,0.0015,0.00122282541543245));
#1840=CARTESIAN_POINT('',(0.0121115609530681,0.0015,-0.0224021745845676));
#1841=CARTESIAN_POINT('',(0.0121115609530681,0.0015,-0.0224021745845676));
#1842=CARTESIAN_POINT('',(0.0121115609530681,0.0015,0.00122282541543245));
#1843=CARTESIAN_POINT('',(0.0121115609530681,0.009375,-0.0224021745845676));
#1844=CARTESIAN_POINT('',(0.0121115609530681,0.01725,-0.0224021745845676));
#1845=CARTESIAN_POINT('',(0.0121115609530681,0.01725,-0.0224021745845676));
#1846=CARTESIAN_POINT('',(0.0121115609530681,0.009375,-0.0224021745845676));
#1847=CARTESIAN_POINT('',(0.0121115609530681,0.01725,0.00122282541543245));
#1848=CARTESIAN_POINT('',(0.0121115609530681,0.01725,0.00122282541543245));
#1849=CARTESIAN_POINT('',(0.0121115609530681,0.009375,9.78254154324569E-5));
#1850=MECHANICAL_DESIGN_GEOMETRIC_PRESENTATION_REPRESENTATION('',(#1167),
#1851);
#1851=(
GEOMETRIC_REPRESENTATION_CONTEXT(3)
GLOBAL_UNCERTAINTY_ASSIGNED_CONTEXT((#1852))
GLOBAL_UNIT_ASSIGNED_CONTEXT((#1855,#1854,#1853))
REPRESENTATION_CONTEXT('Part 1','TOP_LEVEL_ASSEMBLY_PART')
);
#1852=UNCERTAINTY_MEASURE_WITH_UNIT(LENGTH_MEASURE(1.E-8),#1855,
'DISTANCE_ACCURACY_VALUE','Maximum Tolerance applied to model');
#1853=(
NAMED_UNIT(*)
SI_UNIT($,.STERADIAN.)
SOLID_ANGLE_UNIT()
);
#1854=(
NAMED_UNIT(*)
PLANE_ANGLE_UNIT()
SI_UNIT($,.RADIAN.)
);
#1855=(
LENGTH_UNIT()
NAMED_UNIT(*)
SI_UNIT($,.METRE.)
);
#1856=PRODUCT_DEFINITION_SHAPE('','',#1857);
#1857=PRODUCT_DEFINITION('','',#1859,#1858);
#1858=PRODUCT_DEFINITION_CONTEXT('',#1865,'design');
#1859=PRODUCT_DEFINITION_FORMATION_WITH_SPECIFIED_SOURCE('','',#1861,
 .NOT_KNOWN.);
#1860=PRODUCT_RELATED_PRODUCT_CATEGORY('','',(#1861));
#1861=PRODUCT('Part 1','Part 1','Part 1',(#1863));
#1862=PRODUCT_CATEGORY('','');
#1863=PRODUCT_CONTEXT('',#1865,'mechanical');
#1864=APPLICATION_PROTOCOL_DEFINITION('international standard',
'ap242_managed_model_based_3d_engineering',2020,#1865);
#1865=APPLICATION_CONTEXT('managed model based 3d engineering');
ENDSEC;
END-ISO-10303-21;
