ISO-10303-21;
HEADER;
/* Generated by software containing ST-Developer
 * from STEP Tools, Inc. (www.steptools.com) 
 */
/* OPTION: using custom renumber hook */

FILE_DESCRIPTION(
/* description */ ('STEP AP242 Edition 2',
'CAx-IF Rec.Pracs.---Representation and Presentation of Product Manufa
cturing Information (PMI)---4.0---2014-10-13',
'CAx-IF Rec.Pracs.---3D Tessellated Geometry---0.4---2014-09-14','2;1',
'CAx-IF Rec.Pracs.---User Defined Attributes---1.5---2016-08-15'),
/* implementation_level */ '2;1');

FILE_NAME(
/* name */ 'Part Studio 1 - Part 3',
/* time_stamp */ '2026-09-07T14:06:39Z',
/* author */ (''),
/* organization */ (''),
/* preprocessor_version */ 'ST-DEVELOPER v20',
/* originating_system */ 'ONSHAPE BY PTC INC, 1.220',
/* authorisation */ '  ');

FILE_SCHEMA (('AP242_MANAGED_MODEL_BASED_3D_ENGINEERING_MIM_LF { 1 0 10303 442 3 1 4 }'));
ENDSEC;

DATA;
#10=SHAPE_REPRESENTATION_RELATIONSHIP('','',#168,#11);
#11=ADVANCED_BREP_SHAPE_REPRESENTATION('',(#166),#336);
#12=(
BOUNDED_SURFACE()
B_SPLINE_SURFACE(3,2,((#280,#281,#282),(#283,#284,#285),(#286,#287,#288),
(#289,#290,#291),(#292,#293,#294),(#295,#296,#297),(#298,#299,#300),(#301,
#302,#303)),.UNSPECIFIED.,.F.,.F.,.F.)
B_SPLINE_SURFACE_WITH_KNOTS((4,1,1,1,1,4),(3,3),(0.0658191974080278,0.253941338581386,
0.442063479754745,0.818307762101462,1.19455204444818,1.5707963267949),(0.,
1.),.UNSPECIFIED.)
GEOMETRIC_REPRESENTATION_ITEM()
RATIONAL_B_SPLINE_SURFACE(((1.,0.226356396522165,1.),(1.,0.230454920784365,
1.),(1.,0.250399475520785,1.),(1.,0.321776793967893,1.),(1.,0.438584048173306,
1.),(1.,0.580586526009299,1.),(1.,0.667223344534958,1.),(1.,0.707106781186548,
1.)))
REPRESENTATION_ITEM('')
SURFACE()
);
#13=(
BOUNDED_SURFACE()
B_SPLINE_SURFACE(3,2,((#311,#312,#313),(#314,#315,#316),(#317,#318,#319),
(#320,#321,#322),(#323,#324,#325),(#326,#327,#328),(#329,#330,#331),(#332,
#333,#334)),.UNSPECIFIED.,.F.,.F.,.F.)
B_SPLINE_SURFACE_WITH_KNOTS((4,1,1,1,1,4),(3,3),(1.5707963267949,1.94704060914161,
2.32328489148833,2.69952917383505,2.88765131500841,3.07577345618177),(0.,
1.),.UNSPECIFIED.)
GEOMETRIC_REPRESENTATION_ITEM()
RATIONAL_B_SPLINE_SURFACE(((1.,0.707106781186548,1.),(1.,0.667223344534958,
1.),(1.,0.580586526009302,1.),(1.,0.438584048173299,1.),(1.,0.321776793967895,
1.),(1.,0.250399475520784,1.),(1.,0.230454920784368,1.),(1.,0.226356396522165,
1.)))
REPRESENTATION_ITEM('')
SURFACE()
);
#14=ELLIPSE('',#174,0.000288159642480214,0.000125918830920368);
#15=ELLIPSE('',#175,0.000288159642480214,0.000125918830920368);
#16=ELLIPSE('',#179,0.000416417473123394,0.000325918830920368);
#17=ELLIPSE('',#181,0.000416417473123394,0.000325918830920368);
#18=PLANE('',#173);
#19=PLANE('',#176);
#20=PLANE('',#177);
#21=CIRCLE('',#171,0.0026825141855064);
#22=CIRCLE('',#172,0.0026825141855064);
#23=CIRCLE('',#183,0.0002);
#24=CIRCLE('',#185,0.0002);
#25=B_SPLINE_CURVE_WITH_KNOTS('',3,(#233,#234,#235,#236),.UNSPECIFIED.,
 .F.,.F.,(4,4),(0.,0.000357773551566675),.UNSPECIFIED.);
#26=B_SPLINE_CURVE_WITH_KNOTS('',3,(#240,#241,#242,#243),.UNSPECIFIED.,
 .F.,.F.,(4,4),(0.,0.000476456810022407),.UNSPECIFIED.);
#27=B_SPLINE_CURVE_WITH_KNOTS('',3,(#245,#246,#247,#248),.UNSPECIFIED.,
 .F.,.F.,(4,4),(4.33093649699125E-5,0.00051948829099394),.UNSPECIFIED.);
#28=B_SPLINE_CURVE_WITH_KNOTS('',3,(#252,#253,#254,#255),.UNSPECIFIED.,
 .F.,.F.,(4,4),(0.,0.000356859001841729),.UNSPECIFIED.);
#29=B_SPLINE_CURVE_WITH_KNOTS('',3,(#304,#305,#306,#307,#308),
 .UNSPECIFIED.,.F.,.F.,(4,1,4),(0.,0.000273164302361387,0.000546328604722775),
 .UNSPECIFIED.);
#30=ORIENTED_EDGE('',*,*,#72,.F.);
#31=ORIENTED_EDGE('',*,*,#73,.T.);
#32=ORIENTED_EDGE('',*,*,#74,.F.);
#33=ORIENTED_EDGE('',*,*,#75,.T.);
#34=ORIENTED_EDGE('',*,*,#76,.T.);
#35=ORIENTED_EDGE('',*,*,#77,.T.);
#36=ORIENTED_EDGE('',*,*,#78,.T.);
#37=ORIENTED_EDGE('',*,*,#79,.T.);
#38=ORIENTED_EDGE('',*,*,#80,.T.);
#39=ORIENTED_EDGE('',*,*,#72,.T.);
#40=ORIENTED_EDGE('',*,*,#81,.T.);
#41=ORIENTED_EDGE('',*,*,#82,.T.);
#42=ORIENTED_EDGE('',*,*,#74,.T.);
#43=ORIENTED_EDGE('',*,*,#83,.T.);
#44=ORIENTED_EDGE('',*,*,#84,.T.);
#45=ORIENTED_EDGE('',*,*,#85,.T.);
#46=ORIENTED_EDGE('',*,*,#86,.T.);
#47=ORIENTED_EDGE('',*,*,#77,.F.);
#48=ORIENTED_EDGE('',*,*,#84,.F.);
#49=ORIENTED_EDGE('',*,*,#87,.T.);
#50=ORIENTED_EDGE('',*,*,#88,.F.);
#51=ORIENTED_EDGE('',*,*,#75,.F.);
#52=ORIENTED_EDGE('',*,*,#88,.T.);
#53=ORIENTED_EDGE('',*,*,#89,.T.);
#54=ORIENTED_EDGE('',*,*,#85,.F.);
#55=ORIENTED_EDGE('',*,*,#76,.F.);
#56=ORIENTED_EDGE('',*,*,#78,.F.);
#57=ORIENTED_EDGE('',*,*,#86,.F.);
#58=ORIENTED_EDGE('',*,*,#90,.F.);
#59=ORIENTED_EDGE('',*,*,#81,.F.);
#60=ORIENTED_EDGE('',*,*,#90,.T.);
#61=ORIENTED_EDGE('',*,*,#89,.F.);
#62=ORIENTED_EDGE('',*,*,#91,.F.);
#63=ORIENTED_EDGE('',*,*,#82,.F.);
#64=ORIENTED_EDGE('',*,*,#73,.F.);
#65=ORIENTED_EDGE('',*,*,#80,.F.);
#66=ORIENTED_EDGE('',*,*,#92,.F.);
#67=ORIENTED_EDGE('',*,*,#83,.F.);
#68=ORIENTED_EDGE('',*,*,#91,.T.);
#69=ORIENTED_EDGE('',*,*,#87,.F.);
#70=ORIENTED_EDGE('',*,*,#92,.T.);
#71=ORIENTED_EDGE('',*,*,#79,.F.);
#72=EDGE_CURVE('',#93,#94,#106,.T.);
#73=EDGE_CURVE('',#93,#95,#25,.T.);
#74=EDGE_CURVE('',#96,#95,#21,.T.);
#75=EDGE_CURVE('',#96,#97,#26,.T.);
#76=EDGE_CURVE('',#97,#98,#27,.T.);
#77=EDGE_CURVE('',#98,#99,#22,.T.);
#78=EDGE_CURVE('',#99,#94,#28,.T.);
#79=EDGE_CURVE('',#100,#101,#14,.F.);
#80=EDGE_CURVE('',#101,#93,#107,.T.);
#81=EDGE_CURVE('',#94,#102,#108,.F.);
#82=EDGE_CURVE('',#102,#100,#15,.F.);
#83=EDGE_CURVE('',#95,#103,#109,.F.);
#84=EDGE_CURVE('',#103,#96,#110,.F.);
#85=EDGE_CURVE('',#98,#104,#111,.T.);
#86=EDGE_CURVE('',#104,#99,#112,.T.);
#87=EDGE_CURVE('',#103,#105,#16,.F.);
#88=EDGE_CURVE('',#97,#105,#113,.F.);
#89=EDGE_CURVE('',#105,#104,#17,.F.);
#90=EDGE_CURVE('',#102,#104,#23,.T.);
#91=EDGE_CURVE('',#100,#105,#29,.F.);
#92=EDGE_CURVE('',#103,#101,#24,.T.);
#93=VERTEX_POINT('',#231);
#94=VERTEX_POINT('',#232);
#95=VERTEX_POINT('',#237);
#96=VERTEX_POINT('',#239);
#97=VERTEX_POINT('',#244);
#98=VERTEX_POINT('',#249);
#99=VERTEX_POINT('',#251);
#100=VERTEX_POINT('',#258);
#101=VERTEX_POINT('',#259);
#102=VERTEX_POINT('',#262);
#103=VERTEX_POINT('',#266);
#104=VERTEX_POINT('',#270);
#105=VERTEX_POINT('',#274);
#106=LINE('',#230,#114);
#107=LINE('',#260,#115);
#108=LINE('',#261,#116);
#109=LINE('',#265,#117);
#110=LINE('',#267,#118);
#111=LINE('',#269,#119);
#112=LINE('',#271,#120);
#113=LINE('',#275,#121);
#114=VECTOR('',#190,1.);
#115=VECTOR('',#199,1.);
#116=VECTOR('',#200,1.);
#117=VECTOR('',#205,1.);
#118=VECTOR('',#206,1.);
#119=VECTOR('',#209,1.);
#120=VECTOR('',#210,1.);
#121=VECTOR('',#215,1.);
#122=EDGE_LOOP('',(#30,#31,#32,#33,#34,#35,#36));
#123=EDGE_LOOP('',(#37,#38,#39,#40,#41));
#124=EDGE_LOOP('',(#42,#43,#44));
#125=EDGE_LOOP('',(#45,#46,#47));
#126=EDGE_LOOP('',(#48,#49,#50,#51));
#127=EDGE_LOOP('',(#52,#53,#54,#55));
#128=EDGE_LOOP('',(#56,#57,#58,#59));
#129=EDGE_LOOP('',(#60,#61,#62,#63));
#130=EDGE_LOOP('',(#64,#65,#66,#67));
#131=EDGE_LOOP('',(#68,#69,#70,#71));
#132=FACE_BOUND('',#122,.T.);
#133=FACE_BOUND('',#123,.T.);
#134=FACE_BOUND('',#124,.T.);
#135=FACE_BOUND('',#125,.T.);
#136=FACE_BOUND('',#126,.T.);
#137=FACE_BOUND('',#127,.T.);
#138=FACE_BOUND('',#128,.T.);
#139=FACE_BOUND('',#129,.T.);
#140=FACE_BOUND('',#130,.T.);
#141=FACE_BOUND('',#131,.T.);
#142=CYLINDRICAL_SURFACE('',#170,0.0026825141855064);
#143=CYLINDRICAL_SURFACE('',#178,0.000325918830920368);
#144=CYLINDRICAL_SURFACE('',#180,0.000325918830920368);
#145=CYLINDRICAL_SURFACE('',#182,0.0002);
#146=CYLINDRICAL_SURFACE('',#184,0.0002);
#147=ADVANCED_FACE('',(#132),#142,.F.);
#148=ADVANCED_FACE('',(#133),#18,.F.);
#149=ADVANCED_FACE('',(#134),#19,.T.);
#150=ADVANCED_FACE('',(#135),#20,.F.);
#151=ADVANCED_FACE('',(#136),#143,.T.);
#152=ADVANCED_FACE('',(#137),#144,.T.);
#153=ADVANCED_FACE('',(#138),#145,.T.);
#154=ADVANCED_FACE('',(#139),#12,.T.);
#155=ADVANCED_FACE('',(#140),#146,.T.);
#156=ADVANCED_FACE('',(#141),#13,.T.);
#157=CLOSED_SHELL('',(#147,#148,#149,#150,#151,#152,#153,#154,#155,#156));
#158=STYLED_ITEM('',(#159),#166);
#159=PRESENTATION_STYLE_ASSIGNMENT((#160));
#160=SURFACE_STYLE_USAGE(.BOTH.,#161);
#161=SURFACE_SIDE_STYLE('',(#162));
#162=SURFACE_STYLE_FILL_AREA(#163);
#163=FILL_AREA_STYLE('',(#164));
#164=FILL_AREA_STYLE_COLOUR('',#165);
#165=COLOUR_RGB('',0.372549019607843,0.654901960784314,0.23921568627451);
#166=MANIFOLD_SOLID_BREP('Part 3',#157);
#167=SHAPE_DEFINITION_REPRESENTATION(#341,#168);
#168=SHAPE_REPRESENTATION('Part 3',(#169),#336);
#169=AXIS2_PLACEMENT_3D('',#228,#186,#187);
#170=AXIS2_PLACEMENT_3D('',#229,#188,#189);
#171=AXIS2_PLACEMENT_3D('',#238,#191,#192);
#172=AXIS2_PLACEMENT_3D('',#250,#193,#194);
#173=AXIS2_PLACEMENT_3D('',#256,#195,#196);
#174=AXIS2_PLACEMENT_3D('',#257,#197,#198);
#175=AXIS2_PLACEMENT_3D('',#263,#201,#202);
#176=AXIS2_PLACEMENT_3D('',#264,#203,#204);
#177=AXIS2_PLACEMENT_3D('',#268,#207,#208);
#178=AXIS2_PLACEMENT_3D('',#272,#211,#212);
#179=AXIS2_PLACEMENT_3D('',#273,#213,#214);
#180=AXIS2_PLACEMENT_3D('',#276,#216,#217);
#181=AXIS2_PLACEMENT_3D('',#277,#218,#219);
#182=AXIS2_PLACEMENT_3D('',#278,#220,#221);
#183=AXIS2_PLACEMENT_3D('',#279,#222,#223);
#184=AXIS2_PLACEMENT_3D('',#309,#224,#225);
#185=AXIS2_PLACEMENT_3D('',#310,#226,#227);
#186=DIRECTION('',(0.,0.,1.));
#187=DIRECTION('',(1.,0.,0.));
#188=DIRECTION('',(0.,1.,0.));
#189=DIRECTION('',(0.,0.,1.));
#190=DIRECTION('',(0.,1.,0.));
#191=DIRECTION('',(0.,1.,0.));
#192=DIRECTION('',(0.,0.,-1.));
#193=DIRECTION('',(0.,1.,0.));
#194=DIRECTION('',(0.,0.,-1.));
#195=DIRECTION('',(-0.436975940963051,0.,0.899473194163926));
#196=DIRECTION('',(-0.899473194163926,0.,-0.436975940963051));
#197=DIRECTION('',(-0.436975940963051,0.,0.899473194163926));
#198=DIRECTION('',(-0.899473194163926,0.,-0.436975940963051));
#199=DIRECTION('',(-0.899473194163926,0.,-0.436975940963051));
#200=DIRECTION('',(-0.899473194163926,0.,-0.436975940963051));
#201=DIRECTION('',(-0.436975940963051,0.,0.899473194163926));
#202=DIRECTION('',(0.899473194163926,0.,0.436975940963051));
#203=DIRECTION('',(0.,-1.,0.));
#204=DIRECTION('',(-1.,0.,0.));
#205=DIRECTION('',(-0.899473194163926,0.,-0.436975940963051));
#206=DIRECTION('',(1.,0.,0.));
#207=DIRECTION('',(0.,-1.,0.));
#208=DIRECTION('',(-1.,0.,0.));
#209=DIRECTION('',(1.,0.,0.));
#210=DIRECTION('',(-0.899473194163926,0.,-0.436975940963051));
#211=DIRECTION('',(-1.,0.,0.));
#212=DIRECTION('',(0.,0.,1.));
#213=DIRECTION('',(0.782673283317753,0.,-0.622432752657353));
#214=DIRECTION('',(-0.622432752657353,0.,-0.782673283317753));
#215=DIRECTION('',(-1.,0.,0.));
#216=DIRECTION('',(1.,0.,0.));
#217=DIRECTION('',(0.,0.,-1.));
#218=DIRECTION('',(0.782673283317753,0.,-0.622432752657353));
#219=DIRECTION('',(0.622432752657353,0.,0.782673283317753));
#220=DIRECTION('',(-0.899473194163926,0.,-0.436975940963051));
#221=DIRECTION('',(-0.436975940963051,0.,0.899473194163926));
#222=DIRECTION('',(0.899473194163926,0.,0.436975940963052));
#223=DIRECTION('',(0.436975940963052,0.,-0.899473194163926));
#224=DIRECTION('',(0.899473194163926,0.,0.436975940963051));
#225=DIRECTION('',(0.436975940963051,0.,-0.899473194163926));
#226=DIRECTION('',(0.899473194163926,0.,0.436975940963052));
#227=DIRECTION('',(0.436975940963052,0.,-0.899473194163926));
#228=CARTESIAN_POINT('',(0.,0.,0.));
#229=CARTESIAN_POINT('',(-4.77048955893622E-18,-0.00032,0.0148924188688397));
#230=CARTESIAN_POINT('',(0.00258217576813092,-0.00032,0.0141656103260167));
#231=CARTESIAN_POINT('',(0.00258217576813092,-0.00012,0.0141656103260167));
#232=CARTESIAN_POINT('',(0.00258217576813092,4.5E-5,0.0141656103260167));
#233=CARTESIAN_POINT('',(0.00258217576813092,-0.00012,0.0141656103260167));
#234=CARTESIAN_POINT('',(0.00258217576813092,-0.000241295668185812,0.0141656103260167));
#235=CARTESIAN_POINT('',(0.0026184648674981,-0.000319999999999986,0.0142974018422332));
#236=CARTESIAN_POINT('',(0.00263986699553733,-0.00032,0.0144159898591061));
#237=CARTESIAN_POINT('',(0.00263986699553733,-0.00032,0.0144159898591061));
#238=CARTESIAN_POINT('',(-4.77048955893622E-18,-0.00032,0.0148924188688397));
#239=CARTESIAN_POINT('',(0.00261557320895556,-0.00032,0.0154879515245665));
#240=CARTESIAN_POINT('',(0.00261557320895556,-0.00032,0.0154879515245665));
#241=CARTESIAN_POINT('',(0.00257980016317883,-0.00032,0.0156450663682893));
#242=CARTESIAN_POINT('',(0.0025281421178466,-0.000196596454850799,0.0157895798739195));
#243=CARTESIAN_POINT('',(0.00252034815783191,-3.75000000000006E-5,0.0158109652850629));
#244=CARTESIAN_POINT('',(0.00252034815783191,-3.74999999999982E-5,0.0158109652850628));
#245=CARTESIAN_POINT('',(0.00252034815783215,-3.74999999999976E-5,0.0158109652850629));
#246=CARTESIAN_POINT('',(0.0025280489509715,0.000119694659159176,0.0157898355093));
#247=CARTESIAN_POINT('',(0.00257984673812002,0.000245,0.0156448618116337));
#248=CARTESIAN_POINT('',(0.00261557320895556,0.000245,0.0154879515245665));
#249=CARTESIAN_POINT('',(0.00261557320895556,0.000245,0.0154879515245665));
#250=CARTESIAN_POINT('',(-4.77048955893622E-18,0.000245,0.0148924188688397));
#251=CARTESIAN_POINT('',(0.00263986699553733,0.000245,0.0144159898591061));
#252=CARTESIAN_POINT('',(0.00263986699553733,0.000245,0.0144159898591061));
#253=CARTESIAN_POINT('',(0.00261844938427821,0.000245,0.0142973160505616));
#254=CARTESIAN_POINT('',(0.00258217576813093,0.000166448917832733,0.0141656103260167));
#255=CARTESIAN_POINT('',(0.00258217576813093,4.5E-5,0.0141656103260167));
#256=CARTESIAN_POINT('',(0.00427856860643322,-0.00032,0.0149897403407518));
#257=CARTESIAN_POINT('',(0.00493379277927693,5.91883092036799E-6,0.0153080568857337));
#258=CARTESIAN_POINT('',(0.00517708849011849,-3.75E-5,0.015426253150911));
#259=CARTESIAN_POINT('',(0.00493379277927693,-0.00012,0.0153080568857337));
#260=CARTESIAN_POINT('',(0.00258217576813092,-0.00012,0.0141656103260167));
#261=CARTESIAN_POINT('',(0.00427856860643322,4.5E-5,0.0149897403407518));
#262=CARTESIAN_POINT('',(0.00493379277927693,4.5E-5,0.0153080568857337));
#263=CARTESIAN_POINT('',(0.00493379277927693,-8.0918830920368E-5,0.0153080568857337));
#264=CARTESIAN_POINT('',(0.00164622362961456,-0.00032,0.00999892130494118));
#265=CARTESIAN_POINT('',(0.00521669350496753,-0.00032,0.0156678461633993));
#266=CARTESIAN_POINT('',(0.00484639759108432,-0.00032,0.0154879515245665));
#267=CARTESIAN_POINT('',(0.00251928750110003,-0.00032,0.0154879515245665));
#268=CARTESIAN_POINT('',(0.00164622362961456,0.000245,0.00999892130494118));
#269=CARTESIAN_POINT('',(0.00164622362961456,0.000245,0.0154879515245665));
#270=CARTESIAN_POINT('',(0.00484639759108432,0.000245,0.0154879515245665));
#271=CARTESIAN_POINT('',(9.98372129244183E-5,0.000245,0.0131820098900164));
#272=CARTESIAN_POINT('',(0.00424712447291778,5.91883092036799E-6,0.0154879515245665));
#273=CARTESIAN_POINT('',(0.00484639759108432,5.91883092036799E-6,0.0154879515245665));
#274=CARTESIAN_POINT('',(0.00510327916399261,-3.75E-5,0.0158109652850628));
#275=CARTESIAN_POINT('',(0.00424712447291778,-3.75E-5,0.0158109652850628));
#276=CARTESIAN_POINT('',(0.00164622362961456,-8.0918830920368E-5,0.0154879515245665));
#277=CARTESIAN_POINT('',(0.00484639759108432,-8.0918830920368E-5,0.0154879515245665));
#278=CARTESIAN_POINT('',(9.98372129244181E-5,4.5E-5,0.0131820098900164));
#279=CARTESIAN_POINT('',(0.00484639759108432,4.5E-5,0.0154879515245665));
#280=CARTESIAN_POINT('',(0.00519242342477396,-7.26369373116487E-5,0.0154337030644206));
#281=CARTESIAN_POINT('',(0.00595787691946804,5.57300714021282E-5,0.0158055704677825));
#282=CARTESIAN_POINT('',(0.00510502823658135,-5.94826004294125E-5,0.0158131646429533));
#283=CARTESIAN_POINT('',(0.00519135439753074,-6.47578319981861E-5,0.0154331837168863));
#284=CARTESIAN_POINT('',(0.00592648409294815,0.000178881648402497,0.0157903194186161));
#285=CARTESIAN_POINT('',(0.00510395920933813,-3.90889167022268E-5,0.0158118204053435));
#286=CARTESIAN_POINT('',(0.00518615425386749,-4.90990256163E-5,0.0154306574185095));
#287=CARTESIAN_POINT('',(0.00578941360386364,0.000366140064352735,0.0157237287671831));
#288=CARTESIAN_POINT('',(0.00509875906567488,1.44115971691955E-6,0.0158052815210327));
#289=CARTESIAN_POINT('',(0.00516389847172469,-1.92723798077932E-5,0.0154198452660109));
#290=CARTESIAN_POINT('',(0.0054880571809842,0.000463265417247464,0.0155773258423295));
#291=CARTESIAN_POINT('',(0.00507650328353207,7.86422064135634E-5,0.0157772961605183));
#292=CARTESIAN_POINT('',(0.00511517375106144,1.31955969047021E-5,0.0153961741540777));
#293=CARTESIAN_POINT('',(0.00525514318591544,0.000398023656737912,0.0154641731516));
#294=CARTESIAN_POINT('',(0.00502777856286883,0.000162679875248496,0.0157160276339517));
#295=CARTESIAN_POINT('',(0.00503129804108151,3.89877550921535E-5,0.0153554262279246));
#296=CARTESIAN_POINT('',(0.00507871781867231,0.000318113769568662,0.0153784633813022));
#297=CARTESIAN_POINT('',(0.00494390285288889,0.000229438357299473,0.0156105587670533));
#298=CARTESIAN_POINT('',(0.00496629939664872,4.4999999835002E-5,0.0153238490291858));
#299=CARTESIAN_POINT('',(0.00497869065640168,0.000268910033280172,0.0153298688666033));
#300=CARTESIAN_POINT('',(0.00487890420845612,0.000245,0.0155288267208656));
#301=CARTESIAN_POINT('',(0.00493379277927693,4.5E-5,0.0153080568857337));
#302=CARTESIAN_POINT('',(0.00493379277927693,0.000245,0.0153080568857337));
#303=CARTESIAN_POINT('',(0.00484639759108432,0.000245,0.0154879515245665));
#304=CARTESIAN_POINT('',(0.00510327916399261,-3.75E-5,0.0158109652850629));
#305=CARTESIAN_POINT('',(0.00519564338274111,-3.75E-5,0.0158109652850629));
#306=CARTESIAN_POINT('',(0.0053697739939453,-3.75000000000002E-5,0.0156615156702858));
#307=CARTESIAN_POINT('',(0.00525899017709966,-3.75E-5,0.0154660420706557));
#308=CARTESIAN_POINT('',(0.00517708849011849,-3.75E-5,0.015426253150911));
#309=CARTESIAN_POINT('',(0.00419117341824061,-0.00012,0.0151696349795846));
#310=CARTESIAN_POINT('',(0.00484639759108432,-0.00012,0.0154879515245665));
#311=CARTESIAN_POINT('',(0.00493379277927693,-0.00012,0.0153080568857337));
#312=CARTESIAN_POINT('',(0.00493379277927693,-0.00032,0.0153080568857337));
#313=CARTESIAN_POINT('',(0.00484639759108432,-0.00032,0.0154879515245665));
#314=CARTESIAN_POINT('',(0.00496629939664872,-0.000119999999835002,0.0153238490291858));
#315=CARTESIAN_POINT('',(0.00497869065640168,-0.000343910033280176,0.0153298688666033));
#316=CARTESIAN_POINT('',(0.00487890420845612,-0.00032,0.0155288267208656));
#317=CARTESIAN_POINT('',(0.00503129804108151,-0.000113987755092153,0.0153554262279246));
#318=CARTESIAN_POINT('',(0.00507871781867231,-0.00039311376956866,0.0153784633813022));
#319=CARTESIAN_POINT('',(0.0049439028528889,-0.000304438357299473,0.0156105587670533));
#320=CARTESIAN_POINT('',(0.00511517375106144,-8.8195596904702E-5,0.0153961741540777));
#321=CARTESIAN_POINT('',(0.00525514318591544,-0.000473023656737919,0.0154641731516));
#322=CARTESIAN_POINT('',(0.00502777856286883,-0.000237679875248494,0.0157160276339517));
#323=CARTESIAN_POINT('',(0.00516389847172469,-5.57276201922067E-5,0.0154198452660109));
#324=CARTESIAN_POINT('',(0.00548805718098421,-0.000538265417247461,0.0155773258423295));
#325=CARTESIAN_POINT('',(0.00507650328353208,-0.000153642206413563,0.0157772961605183));
#326=CARTESIAN_POINT('',(0.00518615425386749,-2.59009743836998E-5,0.0154306574185095));
#327=CARTESIAN_POINT('',(0.00578941360386363,-0.000441140064352735,0.0157237287671831));
#328=CARTESIAN_POINT('',(0.00509875906567488,-7.64411597169191E-5,0.0158052815210327));
#329=CARTESIAN_POINT('',(0.00519135439753074,-1.02421680018139E-5,0.0154331837168863));
#330=CARTESIAN_POINT('',(0.00592648409294816,-0.000253881648402495,0.0157903194186161));
#331=CARTESIAN_POINT('',(0.00510395920933813,-3.59110832977732E-5,0.0158118204053435));
#332=CARTESIAN_POINT('',(0.00519242342477396,-2.36306268835126E-6,0.0154337030644206));
#333=CARTESIAN_POINT('',(0.00595787691946804,-0.000130730071402127,0.0158055704677825));
#334=CARTESIAN_POINT('',(0.00510502823658135,-1.55173995705874E-5,0.0158131646429533));
#335=MECHANICAL_DESIGN_GEOMETRIC_PRESENTATION_REPRESENTATION('',(#158),
#336);
#336=(
GEOMETRIC_REPRESENTATION_CONTEXT(3)
GLOBAL_UNCERTAINTY_ASSIGNED_CONTEXT((#337))
GLOBAL_UNIT_ASSIGNED_CONTEXT((#340,#339,#338))
REPRESENTATION_CONTEXT('Part 3','TOP_LEVEL_ASSEMBLY_PART')
);
#337=UNCERTAINTY_MEASURE_WITH_UNIT(LENGTH_MEASURE(2.E-5),#340,
'DISTANCE_ACCURACY_VALUE','Maximum Tolerance applied to model');
#338=(
NAMED_UNIT(*)
SI_UNIT($,.STERADIAN.)
SOLID_ANGLE_UNIT()
);
#339=(
NAMED_UNIT(*)
PLANE_ANGLE_UNIT()
SI_UNIT($,.RADIAN.)
);
#340=(
LENGTH_UNIT()
NAMED_UNIT(*)
SI_UNIT($,.METRE.)
);
#341=PRODUCT_DEFINITION_SHAPE('','',#342);
#342=PRODUCT_DEFINITION('','',#344,#343);
#343=PRODUCT_DEFINITION_CONTEXT('',#350,'design');
#344=PRODUCT_DEFINITION_FORMATION_WITH_SPECIFIED_SOURCE('','',#346,
 .NOT_KNOWN.);
#345=PRODUCT_RELATED_PRODUCT_CATEGORY('','',(#346));
#346=PRODUCT('Part 3','Part 3','Part 3',(#348));
#347=PRODUCT_CATEGORY('','');
#348=PRODUCT_CONTEXT('',#350,'mechanical');
#349=APPLICATION_PROTOCOL_DEFINITION('international standard',
'ap242_managed_model_based_3d_engineering',2020,#350);
#350=APPLICATION_CONTEXT('managed model based 3d engineering');
ENDSEC;
END-ISO-10303-21;
