ISO-10303-21;
HEADER;
/* Generated by software containing ST-Developer
 * from STEP Tools, Inc. (www.steptools.com) 
 */
/* OPTION: using custom renumber hook */

FILE_DESCRIPTION(
/* description */ ('STEP AP242 Edition 2',
'CAx-IF Rec.Pracs.---Representation and Presentation of Product Manufa
cturing Information (PMI)---4.0---2014-10-13',
'CAx-IF Rec.Pracs.---3D Tessellated Geometry---0.4---2014-09-14','2;1',
'CAx-IF Rec.Pracs.---User Defined Attributes---1.5---2016-08-15'),
/* implementation_level */ '2;1');

FILE_NAME(
/* name */ 'Part Studio 3 - Part 1',
/* time_stamp */ '2026-09-07T14:06:35Z',
/* author */ (''),
/* organization */ (''),
/* preprocessor_version */ 'ST-DEVELOPER v20',
/* originating_system */ 'ONSHAPE BY PTC INC, 1.220',
/* authorisation */ '  ');

FILE_SCHEMA (('AP242_MANAGED_MODEL_BASED_3D_ENGINEERING_MIM_LF { 1 0 10303 442 3 1 4 }'));
ENDSEC;

DATA;
#10=SHAPE_REPRESENTATION_RELATIONSHIP('','',#159,#11);
#11=ADVANCED_BREP_SHAPE_REPRESENTATION('',(#157),#236);
#12=ORIENTED_CLOSED_SHELL('',*,#102,.F.);
#13=SPHERICAL_SURFACE('',#173,0.00025990407448262);
#14=SPHERICAL_SURFACE('',#174,0.000204593412427406);
#15=PLANE('',#164);
#16=PLANE('',#166);
#17=PLANE('',#169);
#18=PLANE('',#176);
#19=ORIENTED_EDGE('',*,*,#33,.F.);
#20=ORIENTED_EDGE('',*,*,#34,.T.);
#21=ORIENTED_EDGE('',*,*,#35,.F.);
#22=ORIENTED_EDGE('',*,*,#33,.T.);
#23=ORIENTED_EDGE('',*,*,#34,.F.);
#24=ORIENTED_EDGE('',*,*,#36,.F.);
#25=ORIENTED_EDGE('',*,*,#35,.T.);
#26=ORIENTED_EDGE('',*,*,#37,.F.);
#27=ORIENTED_EDGE('',*,*,#36,.T.);
#28=ORIENTED_EDGE('',*,*,#38,.T.);
#29=ORIENTED_EDGE('',*,*,#37,.T.);
#30=ORIENTED_EDGE('',*,*,#38,.F.);
#31=ORIENTED_EDGE('',*,*,#39,.F.);
#32=ORIENTED_EDGE('',*,*,#39,.T.);
#33=EDGE_CURVE('',#40,#40,#47,.T.);
#34=EDGE_CURVE('',#41,#41,#48,.T.);
#35=EDGE_CURVE('',#42,#42,#49,.T.);
#36=EDGE_CURVE('',#43,#43,#50,.T.);
#37=EDGE_CURVE('',#44,#44,#51,.T.);
#38=EDGE_CURVE('',#45,#45,#52,.F.);
#39=EDGE_CURVE('',#46,#46,#53,.T.);
#40=VERTEX_POINT('',#214);
#41=VERTEX_POINT('',#216);
#42=VERTEX_POINT('',#219);
#43=VERTEX_POINT('',#223);
#44=VERTEX_POINT('',#226);
#45=VERTEX_POINT('',#229);
#46=VERTEX_POINT('',#233);
#47=CIRCLE('',#162,0.00193866983432269);
#48=CIRCLE('',#163,0.00193866983432269);
#49=CIRCLE('',#165,0.00173866983432269);
#50=CIRCLE('',#168,0.00173866983432269);
#51=CIRCLE('',#170,0.000204593412427406);
#52=CIRCLE('',#172,0.000204593412427406);
#53=CIRCLE('',#175,0.000204593412427406);
#54=EDGE_LOOP('',(#19));
#55=EDGE_LOOP('',(#20));
#56=EDGE_LOOP('',(#21));
#57=EDGE_LOOP('',(#22));
#58=EDGE_LOOP('',(#23));
#59=EDGE_LOOP('',(#24));
#60=EDGE_LOOP('',(#25));
#61=EDGE_LOOP('',(#26));
#62=EDGE_LOOP('',(#27));
#63=EDGE_LOOP('',(#28));
#64=EDGE_LOOP('',(#29));
#65=EDGE_LOOP('',(#30));
#66=EDGE_LOOP('',(#31));
#67=EDGE_LOOP('',(#32));
#68=FACE_BOUND('',#54,.T.);
#69=FACE_BOUND('',#55,.T.);
#70=FACE_BOUND('',#56,.T.);
#71=FACE_BOUND('',#57,.T.);
#72=FACE_BOUND('',#58,.T.);
#73=FACE_BOUND('',#59,.T.);
#74=FACE_BOUND('',#60,.T.);
#75=FACE_BOUND('',#61,.T.);
#76=FACE_BOUND('',#62,.T.);
#77=FACE_BOUND('',#63,.T.);
#78=FACE_BOUND('',#64,.T.);
#79=FACE_BOUND('',#65,.T.);
#80=FACE_BOUND('',#66,.T.);
#81=FACE_BOUND('',#67,.T.);
#82=CYLINDRICAL_SURFACE('',#161,0.00193866983432269);
#83=CYLINDRICAL_SURFACE('',#167,0.00173866983432269);
#84=CYLINDRICAL_SURFACE('',#171,0.000204593412427406);
#85=OVER_RIDING_STYLED_ITEM('',(#105),#92,#103);
#86=OVER_RIDING_STYLED_ITEM('',(#106),#93,#103);
#87=OVER_RIDING_STYLED_ITEM('',(#107),#94,#103);
#88=OVER_RIDING_STYLED_ITEM('',(#108),#95,#103);
#89=OVER_RIDING_STYLED_ITEM('',(#109),#96,#103);
#90=OVER_RIDING_STYLED_ITEM('',(#110),#97,#103);
#91=OVER_RIDING_STYLED_ITEM('',(#111),#98,#103);
#92=ADVANCED_FACE('Face appearance 5',(#68,#69),#82,.T.);
#93=ADVANCED_FACE('Face appearance 5',(#70,#71),#15,.T.);
#94=ADVANCED_FACE('Face appearance 5',(#72),#16,.F.);
#95=ADVANCED_FACE('Face appearance 5',(#73,#74),#83,.F.);
#96=ADVANCED_FACE('Face appearance 2',(#75,#76),#17,.T.);
#97=ADVANCED_FACE('Face appearance 3',(#77,#78),#84,.T.);
#98=ADVANCED_FACE('Face appearance 1',(#79),#13,.T.);
#99=ADVANCED_FACE('',(#80),#14,.F.);
#100=ADVANCED_FACE('',(#81),#18,.T.);
#101=CLOSED_SHELL('',(#92,#93,#94,#95,#96,#97,#98));
#102=CLOSED_SHELL('',(#99,#100));
#103=STYLED_ITEM('',(#104),#157);
#104=PRESENTATION_STYLE_ASSIGNMENT((#112));
#105=PRESENTATION_STYLE_ASSIGNMENT((#113));
#106=PRESENTATION_STYLE_ASSIGNMENT((#114));
#107=PRESENTATION_STYLE_ASSIGNMENT((#115));
#108=PRESENTATION_STYLE_ASSIGNMENT((#116));
#109=PRESENTATION_STYLE_ASSIGNMENT((#117));
#110=PRESENTATION_STYLE_ASSIGNMENT((#118));
#111=PRESENTATION_STYLE_ASSIGNMENT((#119));
#112=SURFACE_STYLE_USAGE(.BOTH.,#120);
#113=SURFACE_STYLE_USAGE(.BOTH.,#121);
#114=SURFACE_STYLE_USAGE(.BOTH.,#122);
#115=SURFACE_STYLE_USAGE(.BOTH.,#123);
#116=SURFACE_STYLE_USAGE(.BOTH.,#124);
#117=SURFACE_STYLE_USAGE(.BOTH.,#125);
#118=SURFACE_STYLE_USAGE(.BOTH.,#126);
#119=SURFACE_STYLE_USAGE(.BOTH.,#127);
#120=SURFACE_SIDE_STYLE('',(#128));
#121=SURFACE_SIDE_STYLE('',(#129));
#122=SURFACE_SIDE_STYLE('',(#130));
#123=SURFACE_SIDE_STYLE('',(#131));
#124=SURFACE_SIDE_STYLE('',(#132));
#125=SURFACE_SIDE_STYLE('',(#133));
#126=SURFACE_SIDE_STYLE('',(#134));
#127=SURFACE_SIDE_STYLE('',(#135));
#128=SURFACE_STYLE_FILL_AREA(#136);
#129=SURFACE_STYLE_FILL_AREA(#137);
#130=SURFACE_STYLE_FILL_AREA(#138);
#131=SURFACE_STYLE_FILL_AREA(#139);
#132=SURFACE_STYLE_FILL_AREA(#140);
#133=SURFACE_STYLE_FILL_AREA(#141);
#134=SURFACE_STYLE_FILL_AREA(#142);
#135=SURFACE_STYLE_FILL_AREA(#143);
#136=FILL_AREA_STYLE('',(#144));
#137=FILL_AREA_STYLE('',(#145));
#138=FILL_AREA_STYLE('',(#146));
#139=FILL_AREA_STYLE('',(#147));
#140=FILL_AREA_STYLE('',(#148));
#141=FILL_AREA_STYLE('',(#149));
#142=FILL_AREA_STYLE('',(#150));
#143=FILL_AREA_STYLE('',(#151));
#144=FILL_AREA_STYLE_COLOUR('',#152);
#145=FILL_AREA_STYLE_COLOUR('',#153);
#146=FILL_AREA_STYLE_COLOUR('',#153);
#147=FILL_AREA_STYLE_COLOUR('',#153);
#148=FILL_AREA_STYLE_COLOUR('',#153);
#149=FILL_AREA_STYLE_COLOUR('',#154);
#150=FILL_AREA_STYLE_COLOUR('',#155);
#151=FILL_AREA_STYLE_COLOUR('',#156);
#152=COLOUR_RGB('',0.615686274509804,0.811764705882353,0.929411764705882);
#153=COLOUR_RGB('',0.768627450980392,0.886274509803922,0.952941176470588);
#154=COLOUR_RGB('',0.941176470588235,0.874509803921569,0.67843137254902);
#155=COLOUR_RGB('',0.4,0.4,0.4);
#156=COLOUR_RGB('',1.,0.756862745098039,0.0549019607843137);
#157=BREP_WITH_VOIDS('Part 1',#101,(#12));
#158=SHAPE_DEFINITION_REPRESENTATION(#241,#159);
#159=SHAPE_REPRESENTATION('Part 1',(#160),#236);
#160=AXIS2_PLACEMENT_3D('',#211,#177,#178);
#161=AXIS2_PLACEMENT_3D('',#212,#179,#180);
#162=AXIS2_PLACEMENT_3D('',#213,#181,#182);
#163=AXIS2_PLACEMENT_3D('',#215,#183,#184);
#164=AXIS2_PLACEMENT_3D('',#217,#185,#186);
#165=AXIS2_PLACEMENT_3D('',#218,#187,#188);
#166=AXIS2_PLACEMENT_3D('',#220,#189,#190);
#167=AXIS2_PLACEMENT_3D('',#221,#191,#192);
#168=AXIS2_PLACEMENT_3D('',#222,#193,#194);
#169=AXIS2_PLACEMENT_3D('',#224,#195,#196);
#170=AXIS2_PLACEMENT_3D('',#225,#197,#198);
#171=AXIS2_PLACEMENT_3D('',#227,#199,#200);
#172=AXIS2_PLACEMENT_3D('',#228,#201,#202);
#173=AXIS2_PLACEMENT_3D('',#230,#203,#204);
#174=AXIS2_PLACEMENT_3D('',#231,#205,#206);
#175=AXIS2_PLACEMENT_3D('',#232,#207,#208);
#176=AXIS2_PLACEMENT_3D('',#234,#209,#210);
#177=DIRECTION('',(0.,0.,1.));
#178=DIRECTION('',(1.,0.,0.));
#179=DIRECTION('',(0.,0.,-1.));
#180=DIRECTION('',(-1.,0.,0.));
#181=DIRECTION('',(0.,0.,1.));
#182=DIRECTION('',(1.,0.,0.));
#183=DIRECTION('',(0.,0.,1.));
#184=DIRECTION('',(1.,0.,0.));
#185=DIRECTION('',(0.,0.,1.));
#186=DIRECTION('',(1.,0.,0.));
#187=DIRECTION('',(0.,0.,1.));
#188=DIRECTION('',(1.,0.,0.));
#189=DIRECTION('',(0.,0.,1.));
#190=DIRECTION('',(1.,0.,0.));
#191=DIRECTION('',(0.,0.,-1.));
#192=DIRECTION('',(-1.,0.,0.));
#193=DIRECTION('',(0.,0.,1.));
#194=DIRECTION('',(1.,0.,0.));
#195=DIRECTION('',(0.,0.,1.));
#196=DIRECTION('',(1.,0.,0.));
#197=DIRECTION('',(0.,0.,1.));
#198=DIRECTION('',(1.,0.,0.));
#199=DIRECTION('',(0.,0.,-1.));
#200=DIRECTION('',(-1.,0.,0.));
#201=DIRECTION('',(0.,0.,1.));
#202=DIRECTION('',(1.,0.,0.));
#203=DIRECTION('',(0.,1.,0.));
#204=DIRECTION('',(1.,0.,0.));
#205=DIRECTION('',(0.,1.,0.));
#206=DIRECTION('',(1.,0.,0.));
#207=DIRECTION('',(0.,0.,1.));
#208=DIRECTION('',(1.,0.,0.));
#209=DIRECTION('',(0.,0.,1.));
#210=DIRECTION('',(1.,0.,0.));
#211=CARTESIAN_POINT('',(0.,0.,0.));
#212=CARTESIAN_POINT('',(0.,1.18709290360341E-19,0.00274));
#213=CARTESIAN_POINT('',(0.,1.18709290360341E-19,0.00274));
#214=CARTESIAN_POINT('',(0.00193866983432269,1.18709290360341E-19,0.00274));
#215=CARTESIAN_POINT('',(0.,1.18709290360341E-19,0.));
#216=CARTESIAN_POINT('',(0.00193866983432269,1.18709290360341E-19,0.));
#217=CARTESIAN_POINT('',(0.,0.,0.00274));
#218=CARTESIAN_POINT('',(0.,1.18709290360341E-19,0.00274));
#219=CARTESIAN_POINT('',(0.00173866983432269,1.18709290360341E-19,0.00274));
#220=CARTESIAN_POINT('',(0.,0.,0.));
#221=CARTESIAN_POINT('',(0.,1.18709290360341E-19,0.00274));
#222=CARTESIAN_POINT('',(0.,1.18709290360341E-19,0.00084));
#223=CARTESIAN_POINT('',(0.00173866983432269,1.18709290360341E-19,0.00084));
#224=CARTESIAN_POINT('',(0.,0.,0.00084));
#225=CARTESIAN_POINT('',(0.,1.31237023743134E-19,0.00084));
#226=CARTESIAN_POINT('',(0.000204593412427406,1.31237023743134E-19,0.00084));
#227=CARTESIAN_POINT('',(0.,1.31237023743134E-19,0.00166));
#228=CARTESIAN_POINT('',(0.,1.31237023743134E-19,0.00149971380744438));
#229=CARTESIAN_POINT('',(0.000204593412427406,1.31237023743134E-19,0.00149971380744438));
#230=CARTESIAN_POINT('',(-1.59145346450248E-20,1.30104260698261E-19,0.00166));
#231=CARTESIAN_POINT('',(0.,1.31237023743134E-19,0.00166));
#232=CARTESIAN_POINT('',(0.,1.31237023743134E-19,0.00166));
#233=CARTESIAN_POINT('',(0.000204593412427406,1.31237023743134E-19,0.00166));
#234=CARTESIAN_POINT('',(0.,0.,0.00166));
#235=MECHANICAL_DESIGN_GEOMETRIC_PRESENTATION_REPRESENTATION('',(#103,#85,
#86,#87,#88,#89,#90,#91),#236);
#236=(
GEOMETRIC_REPRESENTATION_CONTEXT(3)
GLOBAL_UNCERTAINTY_ASSIGNED_CONTEXT((#237))
GLOBAL_UNIT_ASSIGNED_CONTEXT((#240,#239,#238))
REPRESENTATION_CONTEXT('Part 1','TOP_LEVEL_ASSEMBLY_PART')
);
#237=UNCERTAINTY_MEASURE_WITH_UNIT(LENGTH_MEASURE(1.E-8),#240,
'DISTANCE_ACCURACY_VALUE','Maximum Tolerance applied to model');
#238=(
NAMED_UNIT(*)
SI_UNIT($,.STERADIAN.)
SOLID_ANGLE_UNIT()
);
#239=(
NAMED_UNIT(*)
PLANE_ANGLE_UNIT()
SI_UNIT($,.RADIAN.)
);
#240=(
LENGTH_UNIT()
NAMED_UNIT(*)
SI_UNIT($,.METRE.)
);
#241=PRODUCT_DEFINITION_SHAPE('','',#242);
#242=PRODUCT_DEFINITION('','',#244,#243);
#243=PRODUCT_DEFINITION_CONTEXT('',#250,'design');
#244=PRODUCT_DEFINITION_FORMATION_WITH_SPECIFIED_SOURCE('','',#246,
 .NOT_KNOWN.);
#245=PRODUCT_RELATED_PRODUCT_CATEGORY('','',(#246));
#246=PRODUCT('Part 1','Part 1','Part 1',(#248));
#247=PRODUCT_CATEGORY('','');
#248=PRODUCT_CONTEXT('',#250,'mechanical');
#249=APPLICATION_PROTOCOL_DEFINITION('international standard',
'ap242_managed_model_based_3d_engineering',2020,#250);
#250=APPLICATION_CONTEXT('managed model based 3d engineering');
ENDSEC;
END-ISO-10303-21;
