ISO-10303-21;
HEADER;
/* Generated by software containing ST-Developer
 * from STEP Tools, Inc. (www.steptools.com) 
 */
/* OPTION: using custom renumber hook */

FILE_DESCRIPTION(
/* description */ ('STEP AP242 Edition 2',
'CAx-IF Rec.Pracs.---Representation and Presentation of Product Manufa
cturing Information (PMI)---4.0---2014-10-13',
'CAx-IF Rec.Pracs.---3D Tessellated Geometry---0.4---2014-09-14','2;1',
'CAx-IF Rec.Pracs.---User Defined Attributes---1.5---2016-08-15'),
/* implementation_level */ '2;1');

FILE_NAME(
/* name */ 'Part Studio 1 - Part 1',
/* time_stamp */ '2026-09-07T14:06:39Z',
/* author */ (''),
/* organization */ (''),
/* preprocessor_version */ 'ST-DEVELOPER v20',
/* originating_system */ 'ONSHAPE BY PTC INC, 1.220',
/* authorisation */ '  ');

FILE_SCHEMA (('AP242_MANAGED_MODEL_BASED_3D_ENGINEERING_MIM_LF { 1 0 10303 442 3 1 4 }'));
ENDSEC;

DATA;
#10=SHAPE_REPRESENTATION_RELATIONSHIP('','',#458,#11);
#11=ADVANCED_BREP_SHAPE_REPRESENTATION('',(#456),#932);
#12=TOROIDAL_SURFACE('',#494,0.00250019966880452,0.0005);
#13=B_SPLINE_SURFACE_WITH_KNOTS('',3,3,((#678,#679,#680,#681,#682,#683,
#684,#685,#686,#687,#688),(#689,#690,#691,#692,#693,#694,#695,#696,#697,
#698,#699),(#700,#701,#702,#703,#704,#705,#706,#707,#708,#709,#710),(#711,
#712,#713,#714,#715,#716,#717,#718,#719,#720,#721)),.UNSPECIFIED.,.F.,.T.,
 .F.,(4,4),(1,1,1,1,1,1,1,1,1,1,1,1,1,1,1),(0.391865815365703,0.530179045416159),
(-2.35619449019234,-1.5707963267949,-0.785398163397448,0.,0.785398163397448,
1.5707963267949,2.35619449019234,3.14159265358979,3.92699081698724,4.71238898038469,
5.49778714378214,6.28318530717959,7.06858347057703,7.85398163397448,8.63937979737193),
 .UNSPECIFIED.);
#14=B_SPLINE_SURFACE_WITH_KNOTS('',3,3,((#727,#728,#729,#730,#731,#732,
#733,#734,#735,#736,#737),(#738,#739,#740,#741,#742,#743,#744,#745,#746,
#747,#748),(#749,#750,#751,#752,#753,#754,#755,#756,#757,#758,#759),(#760,
#761,#762,#763,#764,#765,#766,#767,#768,#769,#770)),.UNSPECIFIED.,.F.,.T.,
 .F.,(4,4),(1,1,1,1,1,1,1,1,1,1,1,1,1,1,1),(0.152184683886822,0.526814746406214),
(-2.35619449019234,-1.5707963267949,-0.785398163397448,0.,0.785398163397448,
1.5707963267949,2.35619449019234,3.14159265358979,3.92699081698724,4.71238898038469,
5.49778714378214,6.28318530717959,7.06858347057703,7.85398163397448,8.63937979737193),
 .UNSPECIFIED.);
#15=B_SPLINE_SURFACE_WITH_KNOTS('',3,3,((#777,#778,#779,#780,#781,#782,
#783,#784,#785,#786,#787),(#788,#789,#790,#791,#792,#793,#794,#795,#796,
#797,#798),(#799,#800,#801,#802,#803,#804,#805,#806,#807,#808,#809),(#810,
#811,#812,#813,#814,#815,#816,#817,#818,#819,#820)),.UNSPECIFIED.,.F.,.T.,
 .F.,(4,4),(1,1,1,1,1,1,1,1,1,1,1,1,1,1,1),(0.318605834255341,0.550569177389832),
(-2.35619449019234,-1.5707963267949,-0.785398163397448,0.,0.785398163397448,
1.5707963267949,2.35619449019234,3.14159265358979,3.92699081698724,4.71238898038469,
5.49778714378214,6.28318530717959,7.06858347057703,7.85398163397448,8.63937979737193),
 .UNSPECIFIED.);
#16=B_SPLINE_SURFACE_WITH_KNOTS('',3,3,((#824,#825,#826,#827,#828,#829,
#830,#831,#832,#833,#834),(#835,#836,#837,#838,#839,#840,#841,#842,#843,
#844,#845),(#846,#847,#848,#849,#850,#851,#852,#853,#854,#855,#856),(#857,
#858,#859,#860,#861,#862,#863,#864,#865,#866,#867)),.UNSPECIFIED.,.F.,.T.,
 .F.,(4,4),(1,1,1,1,1,1,1,1,1,1,1,1,1,1,1),(0.152184683886852,0.526814746406214),
(-2.35619449019234,-1.5707963267949,-0.785398163397448,0.,0.785398163397448,
1.5707963267949,2.35619449019234,3.14159265358979,3.92699081698724,4.71238898038469,
5.49778714378214,6.28318530717959,7.06858347057703,7.85398163397448,8.63937979737193),
 .UNSPECIFIED.);
#17=B_SPLINE_SURFACE_WITH_KNOTS('',3,3,((#877,#878,#879,#880,#881,#882,
#883,#884,#885,#886,#887),(#888,#889,#890,#891,#892,#893,#894,#895,#896,
#897,#898),(#899,#900,#901,#902,#903,#904,#905,#906,#907,#908,#909),(#910,
#911,#912,#913,#914,#915,#916,#917,#918,#919,#920)),.UNSPECIFIED.,.F.,.T.,
 .F.,(4,4),(1,1,1,1,1,1,1,1,1,1,1,1,1,1,1),(0.318605834255376,0.550569177389832),
(-2.35619449019234,-1.5707963267949,-0.785398163397448,0.,0.785398163397448,
1.5707963267949,2.35619449019234,3.14159265358979,3.92699081698724,4.71238898038469,
5.49778714378214,6.28318530717959,7.06858347057703,7.85398163397448,8.63937979737193),
 .UNSPECIFIED.);
#18=VERTEX_LOOP('',#152);
#19=VERTEX_LOOP('',#158);
#20=VERTEX_LOOP('',#161);
#21=VERTEX_LOOP('',#163);
#22=VERTEX_LOOP('',#167);
#23=CONICAL_SURFACE('',#465,0.0012298834596961,0.294237823979551);
#24=CONICAL_SURFACE('',#478,0.000827162990215251,0.00714772927650804);
#25=CONICAL_SURFACE('',#481,0.00060925915201255,0.00211493376054073);
#26=CONICAL_SURFACE('',#485,0.000827162990215251,0.00714772927650804);
#27=CONICAL_SURFACE('',#487,0.00060925915201255,0.00211493376054073);
#28=SPHERICAL_SURFACE('',#463,0.0175847623519755);
#29=SPHERICAL_SURFACE('',#471,0.0175847623519755);
#30=SPHERICAL_SURFACE('',#474,0.00268251418550639);
#31=SPHERICAL_SURFACE('',#495,0.000444043247584681);
#32=SPHERICAL_SURFACE('',#496,0.000444043247584681);
#33=B_SPLINE_CURVE_WITH_KNOTS('',3,(#578,#579,#580,#581,#582),
 .UNSPECIFIED.,.F.,.F.,(4,1,4),(0.,0.000765105981457878,0.00153021196291576),
 .UNSPECIFIED.);
#34=B_SPLINE_CURVE_WITH_KNOTS('',3,(#586,#587,#588,#589,#590),
 .UNSPECIFIED.,.F.,.F.,(4,1,4),(0.,0.000765105981457878,0.00153021196291576),
 .UNSPECIFIED.);
#35=B_SPLINE_CURVE_WITH_KNOTS('',3,(#595,#596,#597,#598),.UNSPECIFIED.,
 .F.,.F.,(4,4),(6.36671184074442E-13,0.000684709318072415),
 .UNSPECIFIED.);
#36=B_SPLINE_CURVE_WITH_KNOTS('',3,(#599,#600,#601,#602),.UNSPECIFIED.,
 .F.,.F.,(4,4),(6.3729981414658E-13,0.000684709328684402),.UNSPECIFIED.);
#37=B_SPLINE_CURVE_WITH_KNOTS('',3,(#606,#607,#608,#609,#610,#611,#612,
#613,#614,#615,#616,#617,#618),.UNSPECIFIED.,.T.,.F.,(1,1,1,1,1,1,1,1,1,
1,1,1,1,1,1,1,1),(-0.00109241459315468,-0.000546207296577342,-0.00027310364828867,
5.35324822664718E-19,0.000273103648288672,0.000546207296577344,0.00109241459315469,
0.00163862188973203,0.00218482918630937,0.00273103648288672,0.00327724377946406,
0.0038234510760414,0.00409655472433007,0.00436965837261875,0.00464276202090742,
0.00491586566919609,0.00546207296577343),.UNSPECIFIED.);
#38=B_SPLINE_CURVE_WITH_KNOTS('',3,(#622,#623,#624,#625,#626,#627,#628,
#629,#630,#631,#632,#633,#634),.UNSPECIFIED.,.T.,.F.,(1,1,1,1,1,1,1,1,1,
1,1,1,1,1,1,1,1),(-0.00109241459315468,-0.000546207296577342,-0.00027310364828867,
5.35324822664718E-19,0.000273103648288672,0.000546207296577344,0.00109241459315469,
0.00163862188973203,0.00218482918630937,0.00273103648288672,0.00327724377946406,
0.0038234510760414,0.00409655472433007,0.00436965837261875,0.00464276202090742,
0.00491586566919609,0.00546207296577343),.UNSPECIFIED.);
#39=B_SPLINE_CURVE_WITH_KNOTS('',3,(#638,#639,#640,#641,#642),
 .UNSPECIFIED.,.F.,.F.,(4,1,4),(0.,0.000765099820465372,0.00153019964093074),
 .UNSPECIFIED.);
#40=B_SPLINE_CURVE_WITH_KNOTS('',3,(#646,#647,#648,#649,#650),
 .UNSPECIFIED.,.F.,.F.,(4,1,4),(0.,0.000765099820465372,0.00153019964093074),
 .UNSPECIFIED.);
#41=B_SPLINE_CURVE_WITH_KNOTS('',3,(#652,#653,#654,#655),.UNSPECIFIED.,
 .F.,.F.,(4,4),(1.04430753998111E-14,0.000684799587635595),
 .UNSPECIFIED.);
#42=B_SPLINE_CURVE_WITH_KNOTS('',3,(#659,#660,#661,#662),.UNSPECIFIED.,
 .F.,.F.,(4,4),(1.05902240966794E-14,0.000684799598037472),
 .UNSPECIFIED.);
#43=B_SPLINE_CURVE_WITH_KNOTS('',3,(#665,#666,#667,#668),.UNSPECIFIED.,
 .F.,.F.,(4,4),(7.12920640257192E-17,0.000755816393306612),
 .UNSPECIFIED.);
#44=B_SPLINE_CURVE_WITH_KNOTS('',3,(#669,#670,#671,#672),.UNSPECIFIED.,
 .F.,.F.,(4,4),(7.13930665666375E-17,0.000755816393306612),
 .UNSPECIFIED.);
#45=ORIENTED_EDGE('',*,*,#107,.F.);
#46=ORIENTED_EDGE('',*,*,#108,.T.);
#47=ORIENTED_EDGE('',*,*,#109,.T.);
#48=ORIENTED_EDGE('',*,*,#110,.F.);
#49=ORIENTED_EDGE('',*,*,#111,.F.);
#50=ORIENTED_EDGE('',*,*,#112,.T.);
#51=ORIENTED_EDGE('',*,*,#107,.T.);
#52=ORIENTED_EDGE('',*,*,#113,.F.);
#53=ORIENTED_EDGE('',*,*,#114,.T.);
#54=ORIENTED_EDGE('',*,*,#115,.T.);
#55=ORIENTED_EDGE('',*,*,#116,.T.);
#56=ORIENTED_EDGE('',*,*,#117,.F.);
#57=ORIENTED_EDGE('',*,*,#118,.T.);
#58=ORIENTED_EDGE('',*,*,#119,.T.);
#59=ORIENTED_EDGE('',*,*,#120,.F.);
#60=ORIENTED_EDGE('',*,*,#121,.F.);
#61=ORIENTED_EDGE('',*,*,#120,.T.);
#62=ORIENTED_EDGE('',*,*,#122,.T.);
#63=ORIENTED_EDGE('',*,*,#123,.F.);
#64=ORIENTED_EDGE('',*,*,#124,.F.);
#65=ORIENTED_EDGE('',*,*,#123,.T.);
#66=ORIENTED_EDGE('',*,*,#125,.T.);
#67=ORIENTED_EDGE('',*,*,#111,.T.);
#68=ORIENTED_EDGE('',*,*,#126,.F.);
#69=ORIENTED_EDGE('',*,*,#127,.T.);
#70=ORIENTED_EDGE('',*,*,#128,.T.);
#71=ORIENTED_EDGE('',*,*,#116,.F.);
#72=ORIENTED_EDGE('',*,*,#129,.T.);
#73=ORIENTED_EDGE('',*,*,#118,.F.);
#74=ORIENTED_EDGE('',*,*,#109,.F.);
#75=ORIENTED_EDGE('',*,*,#130,.T.);
#76=ORIENTED_EDGE('',*,*,#113,.T.);
#77=ORIENTED_EDGE('',*,*,#110,.T.);
#78=ORIENTED_EDGE('',*,*,#121,.T.);
#79=ORIENTED_EDGE('',*,*,#124,.T.);
#80=ORIENTED_EDGE('',*,*,#126,.T.);
#81=ORIENTED_EDGE('',*,*,#131,.T.);
#82=ORIENTED_EDGE('',*,*,#132,.T.);
#83=ORIENTED_EDGE('',*,*,#117,.T.);
#84=ORIENTED_EDGE('',*,*,#133,.T.);
#85=ORIENTED_EDGE('',*,*,#134,.T.);
#86=ORIENTED_EDGE('',*,*,#135,.T.);
#87=ORIENTED_EDGE('',*,*,#112,.F.);
#88=ORIENTED_EDGE('',*,*,#125,.F.);
#89=ORIENTED_EDGE('',*,*,#122,.F.);
#90=ORIENTED_EDGE('',*,*,#119,.F.);
#91=ORIENTED_EDGE('',*,*,#108,.F.);
#92=ORIENTED_EDGE('',*,*,#136,.T.);
#93=ORIENTED_EDGE('',*,*,#115,.F.);
#94=ORIENTED_EDGE('',*,*,#137,.T.);
#95=ORIENTED_EDGE('',*,*,#137,.F.);
#96=ORIENTED_EDGE('',*,*,#136,.F.);
#97=ORIENTED_EDGE('',*,*,#132,.F.);
#98=ORIENTED_EDGE('',*,*,#133,.F.);
#99=ORIENTED_EDGE('',*,*,#134,.F.);
#100=ORIENTED_EDGE('',*,*,#135,.F.);
#101=ORIENTED_EDGE('',*,*,#130,.F.);
#102=ORIENTED_EDGE('',*,*,#131,.F.);
#103=ORIENTED_EDGE('',*,*,#114,.F.);
#104=ORIENTED_EDGE('',*,*,#129,.F.);
#105=ORIENTED_EDGE('',*,*,#128,.F.);
#106=ORIENTED_EDGE('',*,*,#127,.F.);
#107=EDGE_CURVE('',#138,#139,#168,.T.);
#108=EDGE_CURVE('',#138,#140,#33,.T.);
#109=EDGE_CURVE('',#140,#141,#169,.T.);
#110=EDGE_CURVE('',#139,#141,#34,.T.);
#111=EDGE_CURVE('',#142,#143,#170,.T.);
#112=EDGE_CURVE('',#142,#138,#35,.T.);
#113=EDGE_CURVE('',#143,#139,#36,.T.);
#114=EDGE_CURVE('',#144,#144,#171,.T.);
#115=EDGE_CURVE('',#145,#145,#37,.T.);
#116=EDGE_CURVE('',#146,#146,#172,.T.);
#117=EDGE_CURVE('',#147,#147,#38,.T.);
#118=EDGE_CURVE('',#141,#140,#173,.T.);
#119=EDGE_CURVE('',#140,#148,#39,.T.);
#120=EDGE_CURVE('',#149,#148,#174,.T.);
#121=EDGE_CURVE('',#141,#149,#40,.T.);
#122=EDGE_CURVE('',#148,#150,#41,.T.);
#123=EDGE_CURVE('',#151,#150,#175,.T.);
#124=EDGE_CURVE('',#149,#151,#42,.T.);
#125=EDGE_CURVE('',#150,#142,#43,.T.);
#126=EDGE_CURVE('',#151,#143,#44,.T.);
#127=EDGE_CURVE('',#153,#153,#176,.F.);
#128=EDGE_CURVE('',#154,#154,#177,.F.);
#129=EDGE_CURVE('',#155,#155,#178,.T.);
#130=EDGE_CURVE('',#156,#156,#179,.F.);
#131=EDGE_CURVE('',#157,#157,#180,.T.);
#132=EDGE_CURVE('',#159,#159,#181,.F.);
#133=EDGE_CURVE('',#160,#160,#182,.T.);
#134=EDGE_CURVE('',#162,#162,#183,.T.);
#135=EDGE_CURVE('',#164,#164,#184,.F.);
#136=EDGE_CURVE('',#165,#165,#185,.F.);
#137=EDGE_CURVE('',#166,#166,#186,.T.);
#138=VERTEX_POINT('',#576);
#139=VERTEX_POINT('',#577);
#140=VERTEX_POINT('',#583);
#141=VERTEX_POINT('',#585);
#142=VERTEX_POINT('',#593);
#143=VERTEX_POINT('',#594);
#144=VERTEX_POINT('',#605);
#145=VERTEX_POINT('',#619);
#146=VERTEX_POINT('',#621);
#147=VERTEX_POINT('',#635);
#148=VERTEX_POINT('',#643);
#149=VERTEX_POINT('',#645);
#150=VERTEX_POINT('',#656);
#151=VERTEX_POINT('',#658);
#152=VERTEX_POINT('',#664);
#153=VERTEX_POINT('',#675);
#154=VERTEX_POINT('',#677);
#155=VERTEX_POINT('',#723);
#156=VERTEX_POINT('',#726);
#157=VERTEX_POINT('',#772);
#158=VERTEX_POINT('',#773);
#159=VERTEX_POINT('',#776);
#160=VERTEX_POINT('',#822);
#161=VERTEX_POINT('',#823);
#162=VERTEX_POINT('',#869);
#163=VERTEX_POINT('',#870);
#164=VERTEX_POINT('',#873);
#165=VERTEX_POINT('',#876);
#166=VERTEX_POINT('',#922);
#167=VERTEX_POINT('',#923);
#168=CIRCLE('',#461,0.00143568205398688);
#169=CIRCLE('',#462,0.00225808713226255);
#170=CIRCLE('',#464,0.000775386906423823);
#171=CIRCLE('',#466,0.00297871139847076);
#172=CIRCLE('',#467,0.0012298834596961);
#173=CIRCLE('',#469,0.00225808713226255);
#174=CIRCLE('',#470,0.00143568205398688);
#175=CIRCLE('',#472,0.000775386906423823);
#176=CIRCLE('',#475,0.000443205862194777);
#177=CIRCLE('',#476,0.000442598557848703);
#178=CIRCLE('',#477,0.00264587142791132);
#179=CIRCLE('',#479,0.000813292012565615);
#180=CIRCLE('',#480,0.000577392406397153);
#181=CIRCLE('',#482,0.000604136256948396);
#182=CIRCLE('',#483,0.000253782312341369);
#183=CIRCLE('',#484,0.000577392406397106);
#184=CIRCLE('',#486,0.000813292012565615);
#185=CIRCLE('',#488,0.000604136256948396);
#186=CIRCLE('',#489,0.000253782312341348);
#187=EDGE_LOOP('',(#45,#46,#47,#48));
#188=EDGE_LOOP('',(#49,#50,#51,#52));
#189=EDGE_LOOP('',(#53));
#190=EDGE_LOOP('',(#54));
#191=EDGE_LOOP('',(#55));
#192=EDGE_LOOP('',(#56));
#193=EDGE_LOOP('',(#57,#58,#59,#60));
#194=EDGE_LOOP('',(#61,#62,#63,#64));
#195=EDGE_LOOP('',(#65,#66,#67,#68));
#196=EDGE_LOOP('',(#69));
#197=EDGE_LOOP('',(#70));
#198=EDGE_LOOP('',(#71));
#199=EDGE_LOOP('',(#72));
#200=EDGE_LOOP('',(#73,#74));
#201=EDGE_LOOP('',(#75));
#202=EDGE_LOOP('',(#76,#77,#78,#79,#80));
#203=EDGE_LOOP('',(#81));
#204=EDGE_LOOP('',(#82));
#205=EDGE_LOOP('',(#83));
#206=EDGE_LOOP('',(#84));
#207=EDGE_LOOP('',(#85));
#208=EDGE_LOOP('',(#86));
#209=EDGE_LOOP('',(#87,#88,#89,#90,#91));
#210=EDGE_LOOP('',(#92));
#211=EDGE_LOOP('',(#93));
#212=EDGE_LOOP('',(#94));
#213=EDGE_LOOP('',(#95));
#214=EDGE_LOOP('',(#96));
#215=EDGE_LOOP('',(#97));
#216=EDGE_LOOP('',(#98));
#217=EDGE_LOOP('',(#99));
#218=EDGE_LOOP('',(#100));
#219=EDGE_LOOP('',(#101));
#220=EDGE_LOOP('',(#102));
#221=EDGE_LOOP('',(#103));
#222=EDGE_LOOP('',(#104));
#223=EDGE_LOOP('',(#105));
#224=EDGE_LOOP('',(#106));
#225=FACE_BOUND('',#187,.T.);
#226=FACE_BOUND('',#188,.T.);
#227=FACE_BOUND('',#189,.T.);
#228=FACE_BOUND('',#190,.T.);
#229=FACE_BOUND('',#191,.T.);
#230=FACE_BOUND('',#192,.T.);
#231=FACE_BOUND('',#193,.T.);
#232=FACE_BOUND('',#194,.T.);
#233=FACE_BOUND('',#18,.T.);
#234=FACE_BOUND('',#195,.T.);
#235=FACE_BOUND('',#196,.T.);
#236=FACE_BOUND('',#197,.T.);
#237=FACE_BOUND('',#198,.T.);
#238=FACE_BOUND('',#199,.T.);
#239=FACE_BOUND('',#200,.T.);
#240=FACE_BOUND('',#201,.T.);
#241=FACE_BOUND('',#202,.T.);
#242=FACE_BOUND('',#203,.T.);
#243=FACE_BOUND('',#19,.T.);
#244=FACE_BOUND('',#204,.T.);
#245=FACE_BOUND('',#205,.T.);
#246=FACE_BOUND('',#206,.T.);
#247=FACE_BOUND('',#20,.T.);
#248=FACE_BOUND('',#207,.T.);
#249=FACE_BOUND('',#21,.T.);
#250=FACE_BOUND('',#208,.T.);
#251=FACE_BOUND('',#209,.T.);
#252=FACE_BOUND('',#210,.T.);
#253=FACE_BOUND('',#211,.T.);
#254=FACE_BOUND('',#212,.T.);
#255=FACE_BOUND('',#22,.T.);
#256=FACE_BOUND('',#213,.T.);
#257=FACE_BOUND('',#214,.T.);
#258=FACE_BOUND('',#215,.T.);
#259=FACE_BOUND('',#216,.T.);
#260=FACE_BOUND('',#217,.T.);
#261=FACE_BOUND('',#218,.T.);
#262=FACE_BOUND('',#219,.T.);
#263=FACE_BOUND('',#220,.T.);
#264=FACE_BOUND('',#221,.T.);
#265=FACE_BOUND('',#222,.T.);
#266=FACE_BOUND('',#223,.T.);
#267=FACE_BOUND('',#224,.T.);
#268=DEGENERATE_TOROIDAL_SURFACE('',#460,0.000757735631835319,0.00907480638611154,
 .T.);
#269=DEGENERATE_TOROIDAL_SURFACE('',#468,0.000757735631833606,0.00907480638612682,
 .T.);
#270=DEGENERATE_TOROIDAL_SURFACE('',#473,0.000592654995500691,0.0299205298535699,
 .F.);
#271=DEGENERATE_TOROIDAL_SURFACE('',#490,0.000104137375184182,0.0005,.T.);
#272=DEGENERATE_TOROIDAL_SURFACE('',#491,0.000104137375184182,0.0005,.T.);
#273=DEGENERATE_TOROIDAL_SURFACE('',#492,0.000313304785019689,0.0005,.T.);
#274=DEGENERATE_TOROIDAL_SURFACE('',#493,0.000313304785019688,0.0005,.T.);
#275=OVER_RIDING_STYLED_ITEM('',(#324),#298,#322);
#276=OVER_RIDING_STYLED_ITEM('',(#325),#299,#322);
#277=OVER_RIDING_STYLED_ITEM('',(#326),#300,#322);
#278=OVER_RIDING_STYLED_ITEM('',(#327),#301,#322);
#279=OVER_RIDING_STYLED_ITEM('',(#328),#302,#322);
#280=OVER_RIDING_STYLED_ITEM('',(#329),#303,#322);
#281=OVER_RIDING_STYLED_ITEM('',(#330),#304,#322);
#282=OVER_RIDING_STYLED_ITEM('',(#331),#305,#322);
#283=OVER_RIDING_STYLED_ITEM('',(#332),#306,#322);
#284=OVER_RIDING_STYLED_ITEM('',(#333),#307,#322);
#285=OVER_RIDING_STYLED_ITEM('',(#334),#308,#322);
#286=OVER_RIDING_STYLED_ITEM('',(#335),#309,#322);
#287=OVER_RIDING_STYLED_ITEM('',(#336),#310,#322);
#288=OVER_RIDING_STYLED_ITEM('',(#337),#311,#322);
#289=OVER_RIDING_STYLED_ITEM('',(#338),#312,#322);
#290=OVER_RIDING_STYLED_ITEM('',(#339),#313,#322);
#291=OVER_RIDING_STYLED_ITEM('',(#340),#314,#322);
#292=OVER_RIDING_STYLED_ITEM('',(#341),#315,#322);
#293=OVER_RIDING_STYLED_ITEM('',(#342),#316,#322);
#294=OVER_RIDING_STYLED_ITEM('',(#343),#317,#322);
#295=OVER_RIDING_STYLED_ITEM('',(#344),#318,#322);
#296=COLOUR_RGB('',0.545098039215686,0.270588235294118,0.0745098039215686);
#297=COLOUR_RGB('',0.372549019607843,0.654901960784314,0.23921568627451);
#298=ADVANCED_FACE('Face appearance 4',(#225),#268,.T.);
#299=ADVANCED_FACE('Face appearance 4',(#226),#28,.T.);
#300=ADVANCED_FACE('Face appearance 4',(#227,#228,#229,#230),#23,.T.);
#301=ADVANCED_FACE('Face appearance 4',(#231),#269,.T.);
#302=ADVANCED_FACE('Face appearance 4',(#232),#29,.T.);
#303=ADVANCED_FACE('Face appearance 4',(#233,#234),#270,.F.);
#304=ADVANCED_FACE('Face appearance 1',(#235,#236,#237),#30,.T.);
#305=ADVANCED_FACE('Face appearance 4',(#238,#239),#13,.F.);
#306=ADVANCED_FACE('Face appearance 4',(#240,#241),#24,.T.);
#307=ADVANCED_FACE('Face appearance 3',(#242,#243),#14,.F.);
#308=ADVANCED_FACE('Face appearance 4',(#244,#245),#25,.T.);
#309=ADVANCED_FACE('Face appearance 2',(#246,#247),#15,.F.);
#310=ADVANCED_FACE('Face appearance 3',(#248,#249),#16,.F.);
#311=ADVANCED_FACE('Face appearance 4',(#250,#251),#26,.T.);
#312=ADVANCED_FACE('Face appearance 4',(#252,#253),#27,.T.);
#313=ADVANCED_FACE('Face appearance 2',(#254,#255),#17,.F.);
#314=ADVANCED_FACE('Face appearance 2',(#256,#257),#271,.T.);
#315=ADVANCED_FACE('Face appearance 2',(#258,#259),#272,.T.);
#316=ADVANCED_FACE('Face appearance 3',(#260,#261),#273,.T.);
#317=ADVANCED_FACE('Face appearance 3',(#262,#263),#274,.T.);
#318=ADVANCED_FACE('Face appearance 4',(#264,#265),#12,.T.);
#319=ADVANCED_FACE('',(#266),#31,.T.);
#320=ADVANCED_FACE('',(#267),#32,.T.);
#321=CLOSED_SHELL('',(#298,#299,#300,#301,#302,#303,#304,#305,#306,#307,
#308,#309,#310,#311,#312,#313,#314,#315,#316,#317,#318,#319,#320));
#322=STYLED_ITEM('',(#323),#456);
#323=PRESENTATION_STYLE_ASSIGNMENT((#345));
#324=PRESENTATION_STYLE_ASSIGNMENT((#346));
#325=PRESENTATION_STYLE_ASSIGNMENT((#347));
#326=PRESENTATION_STYLE_ASSIGNMENT((#348));
#327=PRESENTATION_STYLE_ASSIGNMENT((#349));
#328=PRESENTATION_STYLE_ASSIGNMENT((#350));
#329=PRESENTATION_STYLE_ASSIGNMENT((#351));
#330=PRESENTATION_STYLE_ASSIGNMENT((#352));
#331=PRESENTATION_STYLE_ASSIGNMENT((#353));
#332=PRESENTATION_STYLE_ASSIGNMENT((#354));
#333=PRESENTATION_STYLE_ASSIGNMENT((#355));
#334=PRESENTATION_STYLE_ASSIGNMENT((#356));
#335=PRESENTATION_STYLE_ASSIGNMENT((#357));
#336=PRESENTATION_STYLE_ASSIGNMENT((#358));
#337=PRESENTATION_STYLE_ASSIGNMENT((#359));
#338=PRESENTATION_STYLE_ASSIGNMENT((#360));
#339=PRESENTATION_STYLE_ASSIGNMENT((#361));
#340=PRESENTATION_STYLE_ASSIGNMENT((#362));
#341=PRESENTATION_STYLE_ASSIGNMENT((#363));
#342=PRESENTATION_STYLE_ASSIGNMENT((#364));
#343=PRESENTATION_STYLE_ASSIGNMENT((#365));
#344=PRESENTATION_STYLE_ASSIGNMENT((#366));
#345=SURFACE_STYLE_USAGE(.BOTH.,#367);
#346=SURFACE_STYLE_USAGE(.BOTH.,#368);
#347=SURFACE_STYLE_USAGE(.BOTH.,#369);
#348=SURFACE_STYLE_USAGE(.BOTH.,#370);
#349=SURFACE_STYLE_USAGE(.BOTH.,#371);
#350=SURFACE_STYLE_USAGE(.BOTH.,#372);
#351=SURFACE_STYLE_USAGE(.BOTH.,#373);
#352=SURFACE_STYLE_USAGE(.BOTH.,#374);
#353=SURFACE_STYLE_USAGE(.BOTH.,#375);
#354=SURFACE_STYLE_USAGE(.BOTH.,#376);
#355=SURFACE_STYLE_USAGE(.BOTH.,#377);
#356=SURFACE_STYLE_USAGE(.BOTH.,#378);
#357=SURFACE_STYLE_USAGE(.BOTH.,#379);
#358=SURFACE_STYLE_USAGE(.BOTH.,#380);
#359=SURFACE_STYLE_USAGE(.BOTH.,#381);
#360=SURFACE_STYLE_USAGE(.BOTH.,#382);
#361=SURFACE_STYLE_USAGE(.BOTH.,#383);
#362=SURFACE_STYLE_USAGE(.BOTH.,#384);
#363=SURFACE_STYLE_USAGE(.BOTH.,#385);
#364=SURFACE_STYLE_USAGE(.BOTH.,#386);
#365=SURFACE_STYLE_USAGE(.BOTH.,#387);
#366=SURFACE_STYLE_USAGE(.BOTH.,#388);
#367=SURFACE_SIDE_STYLE('',(#389));
#368=SURFACE_SIDE_STYLE('',(#390));
#369=SURFACE_SIDE_STYLE('',(#391));
#370=SURFACE_SIDE_STYLE('',(#392));
#371=SURFACE_SIDE_STYLE('',(#393));
#372=SURFACE_SIDE_STYLE('',(#394));
#373=SURFACE_SIDE_STYLE('',(#395));
#374=SURFACE_SIDE_STYLE('',(#396));
#375=SURFACE_SIDE_STYLE('',(#397));
#376=SURFACE_SIDE_STYLE('',(#398));
#377=SURFACE_SIDE_STYLE('',(#399));
#378=SURFACE_SIDE_STYLE('',(#400));
#379=SURFACE_SIDE_STYLE('',(#401));
#380=SURFACE_SIDE_STYLE('',(#402));
#381=SURFACE_SIDE_STYLE('',(#403));
#382=SURFACE_SIDE_STYLE('',(#404));
#383=SURFACE_SIDE_STYLE('',(#405));
#384=SURFACE_SIDE_STYLE('',(#406));
#385=SURFACE_SIDE_STYLE('',(#407));
#386=SURFACE_SIDE_STYLE('',(#408));
#387=SURFACE_SIDE_STYLE('',(#409));
#388=SURFACE_SIDE_STYLE('',(#410));
#389=SURFACE_STYLE_FILL_AREA(#411);
#390=SURFACE_STYLE_FILL_AREA(#412);
#391=SURFACE_STYLE_FILL_AREA(#413);
#392=SURFACE_STYLE_FILL_AREA(#414);
#393=SURFACE_STYLE_FILL_AREA(#415);
#394=SURFACE_STYLE_FILL_AREA(#416);
#395=SURFACE_STYLE_FILL_AREA(#417);
#396=SURFACE_STYLE_FILL_AREA(#418);
#397=SURFACE_STYLE_FILL_AREA(#419);
#398=SURFACE_STYLE_FILL_AREA(#420);
#399=SURFACE_STYLE_FILL_AREA(#421);
#400=SURFACE_STYLE_FILL_AREA(#422);
#401=SURFACE_STYLE_FILL_AREA(#423);
#402=SURFACE_STYLE_FILL_AREA(#424);
#403=SURFACE_STYLE_FILL_AREA(#425);
#404=SURFACE_STYLE_FILL_AREA(#426);
#405=SURFACE_STYLE_FILL_AREA(#427);
#406=SURFACE_STYLE_FILL_AREA(#428);
#407=SURFACE_STYLE_FILL_AREA(#429);
#408=SURFACE_STYLE_FILL_AREA(#430);
#409=SURFACE_STYLE_FILL_AREA(#431);
#410=SURFACE_STYLE_FILL_AREA(#432);
#411=FILL_AREA_STYLE('',(#433));
#412=FILL_AREA_STYLE('',(#434));
#413=FILL_AREA_STYLE('',(#435));
#414=FILL_AREA_STYLE('',(#436));
#415=FILL_AREA_STYLE('',(#437));
#416=FILL_AREA_STYLE('',(#438));
#417=FILL_AREA_STYLE('',(#439));
#418=FILL_AREA_STYLE('',(#440));
#419=FILL_AREA_STYLE('',(#441));
#420=FILL_AREA_STYLE('',(#442));
#421=FILL_AREA_STYLE('',(#443));
#422=FILL_AREA_STYLE('',(#444));
#423=FILL_AREA_STYLE('',(#445));
#424=FILL_AREA_STYLE('',(#446));
#425=FILL_AREA_STYLE('',(#447));
#426=FILL_AREA_STYLE('',(#448));
#427=FILL_AREA_STYLE('',(#449));
#428=FILL_AREA_STYLE('',(#450));
#429=FILL_AREA_STYLE('',(#451));
#430=FILL_AREA_STYLE('',(#452));
#431=FILL_AREA_STYLE('',(#453));
#432=FILL_AREA_STYLE('',(#454));
#433=FILL_AREA_STYLE_COLOUR('',#455);
#434=FILL_AREA_STYLE_COLOUR('',#296);
#435=FILL_AREA_STYLE_COLOUR('',#296);
#436=FILL_AREA_STYLE_COLOUR('',#296);
#437=FILL_AREA_STYLE_COLOUR('',#296);
#438=FILL_AREA_STYLE_COLOUR('',#296);
#439=FILL_AREA_STYLE_COLOUR('',#296);
#440=FILL_AREA_STYLE_COLOUR('',#297);
#441=FILL_AREA_STYLE_COLOUR('',#296);
#442=FILL_AREA_STYLE_COLOUR('',#296);
#443=FILL_AREA_STYLE_COLOUR('',#297);
#444=FILL_AREA_STYLE_COLOUR('',#296);
#445=FILL_AREA_STYLE_COLOUR('',#297);
#446=FILL_AREA_STYLE_COLOUR('',#297);
#447=FILL_AREA_STYLE_COLOUR('',#296);
#448=FILL_AREA_STYLE_COLOUR('',#296);
#449=FILL_AREA_STYLE_COLOUR('',#297);
#450=FILL_AREA_STYLE_COLOUR('',#297);
#451=FILL_AREA_STYLE_COLOUR('',#297);
#452=FILL_AREA_STYLE_COLOUR('',#297);
#453=FILL_AREA_STYLE_COLOUR('',#297);
#454=FILL_AREA_STYLE_COLOUR('',#296);
#455=DRAUGHTING_PRE_DEFINED_COLOUR('black');
#456=MANIFOLD_SOLID_BREP('Part 1',#321);
#457=SHAPE_DEFINITION_REPRESENTATION(#937,#458);
#458=SHAPE_REPRESENTATION('Part 1',(#459),#932);
#459=AXIS2_PLACEMENT_3D('',#573,#497,#498);
#460=AXIS2_PLACEMENT_3D('',#574,#499,#500);
#461=AXIS2_PLACEMENT_3D('',#575,#501,#502);
#462=AXIS2_PLACEMENT_3D('',#584,#503,#504);
#463=AXIS2_PLACEMENT_3D('',#591,#505,#506);
#464=AXIS2_PLACEMENT_3D('',#592,#507,#508);
#465=AXIS2_PLACEMENT_3D('',#603,#509,#510);
#466=AXIS2_PLACEMENT_3D('',#604,#511,#512);
#467=AXIS2_PLACEMENT_3D('',#620,#513,#514);
#468=AXIS2_PLACEMENT_3D('',#636,#515,#516);
#469=AXIS2_PLACEMENT_3D('',#637,#517,#518);
#470=AXIS2_PLACEMENT_3D('',#644,#519,#520);
#471=AXIS2_PLACEMENT_3D('',#651,#521,#522);
#472=AXIS2_PLACEMENT_3D('',#657,#523,#524);
#473=AXIS2_PLACEMENT_3D('',#663,#525,#526);
#474=AXIS2_PLACEMENT_3D('',#673,#527,#528);
#475=AXIS2_PLACEMENT_3D('',#674,#529,#530);
#476=AXIS2_PLACEMENT_3D('',#676,#531,#532);
#477=AXIS2_PLACEMENT_3D('',#722,#533,#534);
#478=AXIS2_PLACEMENT_3D('',#724,#535,#536);
#479=AXIS2_PLACEMENT_3D('',#725,#537,#538);
#480=AXIS2_PLACEMENT_3D('',#771,#539,#540);
#481=AXIS2_PLACEMENT_3D('',#774,#541,#542);
#482=AXIS2_PLACEMENT_3D('',#775,#543,#544);
#483=AXIS2_PLACEMENT_3D('',#821,#545,#546);
#484=AXIS2_PLACEMENT_3D('',#868,#547,#548);
#485=AXIS2_PLACEMENT_3D('',#871,#549,#550);
#486=AXIS2_PLACEMENT_3D('',#872,#551,#552);
#487=AXIS2_PLACEMENT_3D('',#874,#553,#554);
#488=AXIS2_PLACEMENT_3D('',#875,#555,#556);
#489=AXIS2_PLACEMENT_3D('',#921,#557,#558);
#490=AXIS2_PLACEMENT_3D('',#924,#559,#560);
#491=AXIS2_PLACEMENT_3D('',#925,#561,#562);
#492=AXIS2_PLACEMENT_3D('',#926,#563,#564);
#493=AXIS2_PLACEMENT_3D('',#927,#565,#566);
#494=AXIS2_PLACEMENT_3D('',#928,#567,#568);
#495=AXIS2_PLACEMENT_3D('',#929,#569,#570);
#496=AXIS2_PLACEMENT_3D('',#930,#571,#572);
#497=DIRECTION('',(0.,0.,1.));
#498=DIRECTION('',(1.,0.,0.));
#499=DIRECTION('',(0.,0.,-1.));
#500=DIRECTION('',(-1.,0.,4.60712563410907E-16));
#501=DIRECTION('',(0.,0.,-1.));
#502=DIRECTION('',(-1.,0.,0.));
#503=DIRECTION('',(0.,0.,-1.));
#504=DIRECTION('',(-1.,0.,0.));
#505=DIRECTION('',(0.,0.,-1.));
#506=DIRECTION('',(-1.,-7.15235909235802E-19,-7.74744012138561E-16));
#507=DIRECTION('',(0.,0.,-1.));
#508=DIRECTION('',(-1.,0.,0.));
#509=DIRECTION('',(0.,0.,-1.));
#510=DIRECTION('',(-1.,0.,0.));
#511=DIRECTION('',(0.,0.,1.));
#512=DIRECTION('',(1.,0.,0.));
#513=DIRECTION('',(0.,0.,-1.));
#514=DIRECTION('',(-1.,0.,0.));
#515=DIRECTION('',(0.,0.,-1.));
#516=DIRECTION('',(-1.,0.,4.60712563410907E-16));
#517=DIRECTION('',(0.,0.,-1.));
#518=DIRECTION('',(-1.,0.,0.));
#519=DIRECTION('',(0.,0.,-1.));
#520=DIRECTION('',(-1.,0.,0.));
#521=DIRECTION('',(0.,0.,-1.));
#522=DIRECTION('',(-1.,-7.15235909235802E-19,-7.74744012138561E-16));
#523=DIRECTION('',(0.,0.,-1.));
#524=DIRECTION('',(-1.,0.,0.));
#525=DIRECTION('',(0.,0.,-1.));
#526=DIRECTION('',(-1.,0.,0.));
#527=DIRECTION('',(0.,0.,-1.));
#528=DIRECTION('',(1.,0.,0.));
#529=DIRECTION('',(0.439189164623476,-0.87919323458955,0.184748840129776));
#530=DIRECTION('',(0.894592965309167,0.446881893143313,0.));
#531=DIRECTION('',(-0.445057672641909,-0.876362357397922,0.184153975136363));
#532=DIRECTION('',(0.891611220880825,-0.452801756621378,0.));
#533=DIRECTION('',(0.,0.,-1.));
#534=DIRECTION('',(-1.,0.,0.));
#535=DIRECTION('',(0.218134832478319,0.,0.975918641516625));
#536=DIRECTION('',(0.975918641516625,0.,-0.218134832478319));
#537=DIRECTION('',(-0.218134832478319,0.,-0.975918641516625));
#538=DIRECTION('',(-0.975918641516625,0.,0.218134832478319));
#539=DIRECTION('',(-0.218134832478319,0.,-0.975918641516625));
#540=DIRECTION('',(-0.975918641516625,0.,0.218134832478319));
#541=DIRECTION('',(0.932010293729156,0.,0.362431803768504));
#542=DIRECTION('',(0.362431803768504,0.,-0.932010293729156));
#543=DIRECTION('',(-0.932010293729156,0.,-0.362431803768504));
#544=DIRECTION('',(-0.362431803768504,0.,0.932010293729156));
#545=DIRECTION('',(-0.932010293729156,0.,-0.362431803768504));
#546=DIRECTION('',(-0.362431803768504,0.,0.932010293729156));
#547=DIRECTION('',(0.218134832478319,0.,-0.975918641516625));
#548=DIRECTION('',(-0.975918641516625,0.,-0.218134832478319));
#549=DIRECTION('',(-0.218134832478319,0.,0.975918641516625));
#550=DIRECTION('',(-0.975918641516625,0.,-0.218134832478319));
#551=DIRECTION('',(0.218134832478319,0.,-0.975918641516625));
#552=DIRECTION('',(-0.975918641516625,0.,-0.218134832478319));
#553=DIRECTION('',(-0.932010293729156,0.,0.362431803768504));
#554=DIRECTION('',(-0.362431803768504,0.,-0.932010293729156));
#555=DIRECTION('',(0.932010293729156,0.,-0.362431803768504));
#556=DIRECTION('',(-0.362431803768504,0.,-0.932010293729156));
#557=DIRECTION('',(0.932010293729156,0.,-0.362431803768504));
#558=DIRECTION('',(-0.362431803768504,0.,-0.932010293729156));
#559=DIRECTION('',(0.932010293729156,0.,-0.362431803768504));
#560=DIRECTION('',(-0.362431803768504,0.,-0.932010293729156));
#561=DIRECTION('',(0.932010293729156,0.,0.362431803768504));
#562=DIRECTION('',(0.362431803768504,0.,-0.932010293729156));
#563=DIRECTION('',(0.218134832478319,0.,-0.975918641516625));
#564=DIRECTION('',(-0.975918641516625,0.,-0.218134832478319));
#565=DIRECTION('',(0.218134832478319,0.,0.975918641516625));
#566=DIRECTION('',(0.975918641516625,0.,-0.218134832478319));
#567=DIRECTION('',(0.,0.,1.));
#568=DIRECTION('',(1.,0.,0.));
#569=DIRECTION('',(0.,0.,1.));
#570=DIRECTION('',(1.,0.,0.));
#571=DIRECTION('',(0.,0.,1.));
#572=DIRECTION('',(1.,0.,0.));
#573=CARTESIAN_POINT('',(0.,0.,0.));
#574=CARTESIAN_POINT('',(0.,0.,0.0149736642457248));
#575=CARTESIAN_POINT('',(0.,0.,0.00592370927674382));
#576=CARTESIAN_POINT('',(0.00119741424806882,-0.000792074541101878,0.00592370927674382));
#577=CARTESIAN_POINT('',(-0.00119741424806882,-0.000792074541101878,0.00592370927674382));
#578=CARTESIAN_POINT('',(0.00119741424806882,-0.000792074541101878,0.00592370927674382));
#579=CARTESIAN_POINT('',(0.00144506126637309,-0.000864074833572261,0.00594406506225814));
#580=CARTESIAN_POINT('',(0.00199815625070822,-0.0007631609257913,0.00599370115436374));
#581=CARTESIAN_POINT('',(0.00225808713121556,-0.000258761320143399,0.00602433004406754));
#582=CARTESIAN_POINT('',(0.00225808713118816,8.74434737239616E-14,0.00602433004406443));
#583=CARTESIAN_POINT('',(0.00225808713226255,2.00558426067814E-18,0.00602433004425649));
#584=CARTESIAN_POINT('',(0.,0.,0.00602433004425649));
#585=CARTESIAN_POINT('',(-0.00225808713226255,2.00558426067814E-18,0.00602433004425649));
#586=CARTESIAN_POINT('',(-0.00119741424806882,-0.000792074541101878,0.00592370927674382));
#587=CARTESIAN_POINT('',(-0.00144506126637309,-0.000864074833572261,0.00594406506225814));
#588=CARTESIAN_POINT('',(-0.00199815625070822,-0.0007631609257913,0.00599370115436374));
#589=CARTESIAN_POINT('',(-0.00225808713121556,-0.000258761320143399,0.00602433004406754));
#590=CARTESIAN_POINT('',(-0.00225808713118816,8.74434737239616E-14,0.00602433004406443));
#591=CARTESIAN_POINT('',(1.3696749790453E-9,8.00739665730427E-22,0.0234497933370147));
#592=CARTESIAN_POINT('',(0.,0.,0.0058819183069257));
#593=CARTESIAN_POINT('',(0.000684949955087719,-0.000363412181522357,0.0058819183069257));
#594=CARTESIAN_POINT('',(-0.000684949955087719,-0.000363412181522357,0.0058819183069257));
#595=CARTESIAN_POINT('',(0.000684906642255458,-0.000363424994458387,0.00588213287762365));
#596=CARTESIAN_POINT('',(0.000787340539505854,-0.000570919444728069,0.00589041890899895));
#597=CARTESIAN_POINT('',(0.000975782157191404,-0.000727652364342069,0.00590568216421735));
#598=CARTESIAN_POINT('',(0.00119741174134509,-0.000792075721081534,0.00592373583883935));
#599=CARTESIAN_POINT('',(-0.000684906620832664,-0.000363425000779958,0.00588213298371767));
#600=CARTESIAN_POINT('',(-0.00078734051813738,-0.00057091945431872,0.00589041903113517));
#601=CARTESIAN_POINT('',(-0.000975782137443796,-0.000727652376737812,0.00590568231594469));
#602=CARTESIAN_POINT('',(-0.00119741172375687,-0.00079207572935778,0.00592373602516904));
#603=CARTESIAN_POINT('',(0.,0.,0.0125084580824573));
#604=CARTESIAN_POINT('',(0.,0.,0.00673739364726072));
#605=CARTESIAN_POINT('',(0.00297871139847076,0.,0.00673739364726072));
#606=CARTESIAN_POINT('',(0.00199893651304805,0.000222178395393855,0.00994809669849218));
#607=CARTESIAN_POINT('',(0.00202793639859174,-6.32037488460129E-5,0.00989411198419673));
#608=CARTESIAN_POINT('',(0.00196421877379286,-0.000317196584055039,0.0100143763716738));
#609=CARTESIAN_POINT('',(0.00183306679867732,-0.0005385592263445,0.0102803464064987));
#610=CARTESIAN_POINT('',(0.00164979652322194,-0.000657597925761266,0.0106955929490662));
#611=CARTESIAN_POINT('',(0.00154284179873896,-0.000506010281302439,0.0112556683697406));
#612=CARTESIAN_POINT('',(0.00157683475559237,6.80274662702777E-5,0.011493897215418));
#613=CARTESIAN_POINT('',(0.00154515594769285,0.000576589831444002,0.0111460336381745));
#614=CARTESIAN_POINT('',(0.00169418908743999,0.000644091240655051,0.0105821125238593));
#615=CARTESIAN_POINT('',(0.00187777442682706,0.000489991778602255,0.0101857951132427));
#616=CARTESIAN_POINT('',(0.00199893651304805,0.000222178395393855,0.00994809669849218));
#617=CARTESIAN_POINT('',(0.00202793639859174,-6.32037488460129E-5,0.00989411198419673));
#618=CARTESIAN_POINT('',(0.00196421877379286,-0.000317196584055039,0.0100143763716738));
#619=CARTESIAN_POINT('',(0.00201248348020132,-5.79721973408731E-5,0.00992315350115882));
#620=CARTESIAN_POINT('',(0.,0.,0.0125084580824573));
#621=CARTESIAN_POINT('',(-0.0012298834596961,0.,0.0125084580824573));
#622=CARTESIAN_POINT('',(-0.00199893651304805,0.000222178395393855,0.00994809669849218));
#623=CARTESIAN_POINT('',(-0.00202793639859174,-6.32037488460129E-5,0.00989411198419673));
#624=CARTESIAN_POINT('',(-0.00196421877379286,-0.000317196584055039,0.0100143763716738));
#625=CARTESIAN_POINT('',(-0.00183306679867732,-0.0005385592263445,0.0102803464064987));
#626=CARTESIAN_POINT('',(-0.00164979652322194,-0.000657597925761266,0.0106955929490662));
#627=CARTESIAN_POINT('',(-0.00154284179873896,-0.000506010281302439,0.0112556683697406));
#628=CARTESIAN_POINT('',(-0.00157683475559237,6.80274662702777E-5,0.011493897215418));
#629=CARTESIAN_POINT('',(-0.00154515594769285,0.000576589831444002,0.0111460336381745));
#630=CARTESIAN_POINT('',(-0.00169418908743999,0.000644091240655051,0.0105821125238593));
#631=CARTESIAN_POINT('',(-0.00187777442682706,0.000489991778602255,0.0101857951132427));
#632=CARTESIAN_POINT('',(-0.00199893651304805,0.000222178395393855,0.00994809669849218));
#633=CARTESIAN_POINT('',(-0.00202793639859174,-6.32037488460129E-5,0.00989411198419673));
#634=CARTESIAN_POINT('',(-0.00196421877379286,-0.000317196584055039,0.0100143763716738));
#635=CARTESIAN_POINT('',(-0.00201248348020132,-5.79721973408731E-5,0.00992315350115882));
#636=CARTESIAN_POINT('',(0.,0.,0.01497366424574));
#637=CARTESIAN_POINT('',(0.,0.,0.00602433004425649));
#638=CARTESIAN_POINT('',(0.00225808713172949,0.,0.00602433004414133));
#639=CARTESIAN_POINT('',(0.00225808713172949,0.000258711579117242,0.00602433004414133));
#640=CARTESIAN_POINT('',(0.00200056598019873,0.000761420390378748,0.00599394104446197));
#641=CARTESIAN_POINT('',(0.00144501254694256,0.000864060669003386,0.00594406105767821));
#642=CARTESIAN_POINT('',(0.00119741424806882,0.000792074541101879,0.00592370927674382));
#643=CARTESIAN_POINT('',(0.00119741424806882,0.000792074541101879,0.00592370927674382));
#644=CARTESIAN_POINT('',(0.,0.,0.00592370927674382));
#645=CARTESIAN_POINT('',(-0.00119741424806882,0.000792074541101879,0.00592370927674382));
#646=CARTESIAN_POINT('',(-0.00225808713172949,0.,0.00602433004414133));
#647=CARTESIAN_POINT('',(-0.00225808713172949,0.000258711579117242,0.00602433004414133));
#648=CARTESIAN_POINT('',(-0.00200056598019873,0.000761420390378747,0.00599394104446197));
#649=CARTESIAN_POINT('',(-0.00144501254694256,0.000864060669003386,0.00594406105767821));
#650=CARTESIAN_POINT('',(-0.00119741424806882,0.000792074541101879,0.00592370927674382));
#651=CARTESIAN_POINT('',(1.3696749790453E-9,8.00739665730427E-22,0.0234497933370147));
#652=CARTESIAN_POINT('',(0.00119741174134517,0.00079207572108136,0.00592373583883937));
#653=CARTESIAN_POINT('',(0.000975761203364349,0.000727646273476889,0.00590568045734427));
#654=CARTESIAN_POINT('',(0.000787349637988929,0.000570937875001626,0.00589041964498885));
#655=CARTESIAN_POINT('',(0.00068490664225543,0.000363424994458318,0.00588213287762362));
#656=CARTESIAN_POINT('',(0.000684949955087779,0.000363412181522244,0.0058819183069257));
#657=CARTESIAN_POINT('',(0.,0.,0.0058819183069257));
#658=CARTESIAN_POINT('',(-0.000684949955087779,0.000363412181522244,0.0058819183069257));
#659=CARTESIAN_POINT('',(-0.00119741172375695,0.000792075729357606,0.00592373602516907));
#660=CARTESIAN_POINT('',(-0.000975761183666037,0.00072764628588741,0.00590568060907237));
#661=CARTESIAN_POINT('',(-0.00078734961659822,0.000570937884547516,0.0058904197671247));
#662=CARTESIAN_POINT('',(-0.000684906620832636,0.000363425000779889,0.00588213298371764));
#663=CARTESIAN_POINT('',(0.,0.,0.035771093067446));
#664=CARTESIAN_POINT('',(0.,0.,0.00585637334734201));
#665=CARTESIAN_POINT('',(0.000684949955087738,0.000363412181522241,0.00588191830692568));
#666=CARTESIAN_POINT('',(0.000573181407203341,0.000136730537040851,0.0058722934397299));
#667=CARTESIAN_POINT('',(0.000573182000530263,-0.000136731740387856,0.00587229349082384));
#668=CARTESIAN_POINT('',(0.000684949955087719,-0.000363412181522357,0.0058819183069257));
#669=CARTESIAN_POINT('',(-0.000684949955087738,0.000363412181522241,0.00588191830692568));
#670=CARTESIAN_POINT('',(-0.000573181407203341,0.000136730537040851,0.0058722934397299));
#671=CARTESIAN_POINT('',(-0.000573182000530263,-0.000136731740387856,0.00587229349082384));
#672=CARTESIAN_POINT('',(-0.000684949955087719,-0.000363412181522357,0.0058819183069257));
#673=CARTESIAN_POINT('',(-1.34712124223406E-19,0.,0.0148924188688397));
#674=CARTESIAN_POINT('',(0.00116193973408063,-0.00232603542047828,0.0153811991837096));
#675=CARTESIAN_POINT('',(0.00155842858058386,-0.00212797474572846,0.0153811991837096));
#676=CARTESIAN_POINT('',(-0.00117751098494035,-0.00231863501307292,0.0153796441027207));
#677=CARTESIAN_POINT('',(-0.000782885144416777,-0.0025190444175449,0.0153796441027207));
#678=CARTESIAN_POINT('',(-0.00207333560887885,-0.00207333560887885,0.00611407914025028));
#679=CARTESIAN_POINT('',(-0.00293213933742755,-4.87890977618477E-19,0.00611407914025028));
#680=CARTESIAN_POINT('',(-0.00207333560887885,0.00207333560887885,0.00611407914025028));
#681=CARTESIAN_POINT('',(-4.60785923306339E-19,0.00293213933742755,0.00611407914025028));
#682=CARTESIAN_POINT('',(0.00207333560887885,0.00207333560887885,0.00611407914025028));
#683=CARTESIAN_POINT('',(0.00293213933742755,2.96461531539005E-19,0.00611407914025028));
#684=CARTESIAN_POINT('',(0.00207333560887885,-0.00207333560887885,0.00611407914025028));
#685=CARTESIAN_POINT('',(1.24683249835833E-18,-0.00293213933742755,0.00611407914025028));
#686=CARTESIAN_POINT('',(-0.00207333560887885,-0.00207333560887885,0.00611407914025028));
#687=CARTESIAN_POINT('',(-0.00293213933742755,-4.87890977618477E-19,0.00611407914025028));
#688=CARTESIAN_POINT('',(-0.00207333560887885,0.00207333560887885,0.00611407914025028));
#689=CARTESIAN_POINT('',(-0.00198850003345097,-0.00198850003345097,0.00608110725916929));
#690=CARTESIAN_POINT('',(-0.00281216371608571,-5.96311194867027E-19,0.00608110725916929));
#691=CARTESIAN_POINT('',(-0.00198850003345097,0.00198850003345097,0.00608110725916929));
#692=CARTESIAN_POINT('',(-5.01443504774546E-19,0.00281216371608571,0.00608110725916929));
#693=CARTESIAN_POINT('',(0.00198850003345097,0.00198850003345097,0.00608110725916929));
#694=CARTESIAN_POINT('',(0.00281216371608571,3.79894276843554E-19,0.00608110725916929));
#695=CARTESIAN_POINT('',(0.00198850003345097,-0.00198850003345097,0.00608110725916929));
#696=CARTESIAN_POINT('',(3.25260651745651E-19,-0.00281216371608572,0.00608110725916929));
#697=CARTESIAN_POINT('',(-0.00198850003345097,-0.00198850003345097,0.00608110725916929));
#698=CARTESIAN_POINT('',(-0.00281216371608571,-5.96311194867027E-19,0.00608110725916929));
#699=CARTESIAN_POINT('',(-0.00198850003345097,0.00198850003345097,0.00608110725916929));
#700=CARTESIAN_POINT('',(-0.00188720927277743,-0.00188720927277742,0.00605119089383802));
#701=CARTESIAN_POINT('',(-0.0026689169485981,-6.23416249179165E-19,0.00605119089383802));
#702=CARTESIAN_POINT('',(-0.00188720927277743,0.00188720927277743,0.00605119089383802));
#703=CARTESIAN_POINT('',(-1.07064964532944E-18,0.0026689169485981,0.00605119089383802));
#704=CARTESIAN_POINT('',(0.00188720927277743,0.00188720927277743,0.00605119089383802));
#705=CARTESIAN_POINT('',(0.0026689169485981,3.88788122789724E-19,0.00605119089383802));
#706=CARTESIAN_POINT('',(0.00188720927277742,-0.00188720927277743,0.00605119089383802));
#707=CARTESIAN_POINT('',(1.54498809579184E-18,-0.0026689169485981,0.00605119089383802));
#708=CARTESIAN_POINT('',(-0.00188720927277743,-0.00188720927277742,0.00605119089383802));
#709=CARTESIAN_POINT('',(-0.0026689169485981,-6.23416249179165E-19,0.00605119089383802));
#710=CARTESIAN_POINT('',(-0.00188720927277743,0.00188720927277743,0.00605119089383802));
#711=CARTESIAN_POINT('',(-0.00176946332685822,-0.00176946332685822,0.00602433004425649));
#712=CARTESIAN_POINT('',(-0.00250239903496471,-4.87890977618477E-19,0.00602433004425649));
#713=CARTESIAN_POINT('',(-0.00176946332685822,0.00176946332685822,0.00602433004425649));
#714=CARTESIAN_POINT('',(-7.18283939271647E-19,0.00250239903496471,0.00602433004425649));
#715=CARTESIAN_POINT('',(0.00176946332685822,0.00176946332685822,0.00602433004425649));
#716=CARTESIAN_POINT('',(0.00250239903496471,3.36272080059957E-19,0.00602433004425649));
#717=CARTESIAN_POINT('',(0.00176946332685822,-0.00176946332685822,0.00602433004425649));
#718=CARTESIAN_POINT('',(1.21972744404619E-18,-0.00250239903496471,0.00602433004425649));
#719=CARTESIAN_POINT('',(-0.00176946332685822,-0.00176946332685822,0.00602433004425649));
#720=CARTESIAN_POINT('',(-0.00250239903496471,-4.87890977618477E-19,0.00602433004425649));
#721=CARTESIAN_POINT('',(-0.00176946332685822,0.00176946332685822,0.00602433004425649));
#722=CARTESIAN_POINT('',(0.,0.,0.00611407914025028));
#723=CARTESIAN_POINT('',(-0.00264587142791132,0.,0.00611407914025028));
#724=CARTESIAN_POINT('',(-0.00137363173759171,0.,0.00620131769289354));
#725=CARTESIAN_POINT('',(-0.00179693985968842,0.,0.00430746936630573));
#726=CARTESIAN_POINT('',(-0.00259064669574778,0.,0.00448487668322269));
#727=CARTESIAN_POINT('',(-0.00233032904251468,-0.000452451401776725,0.00399530901963798));
#728=CARTESIAN_POINT('',(-0.00251322742576301,-1.01643953670516E-19,0.0040361899973068));
#729=CARTESIAN_POINT('',(-0.00233032904251468,0.000452451401776726,0.00399530901963798));
#730=CARTESIAN_POINT('',(-0.00188877328514045,0.000639862908707364,0.00389661360890683));
#731=CARTESIAN_POINT('',(-0.00144721752776621,0.000452451401776726,0.00379791819817568));
#732=CARTESIAN_POINT('',(-0.00126431914451788,7.34801081743106E-20,0.00375703722050686));
#733=CARTESIAN_POINT('',(-0.00144721752776621,-0.000452451401776726,0.00379791819817568));
#734=CARTESIAN_POINT('',(-0.00188877328514045,-0.000639862908707364,0.00389661360890683));
#735=CARTESIAN_POINT('',(-0.00233032904251468,-0.000452451401776725,0.00399530901963798));
#736=CARTESIAN_POINT('',(-0.00251322742576301,-1.01643953670516E-19,0.0040361899973068));
#737=CARTESIAN_POINT('',(-0.00233032904251468,0.000452451401776726,0.00399530901963798));
#738=CARTESIAN_POINT('',(-0.00220939877873984,-0.000301809706451426,0.00384575199468577));
#739=CARTESIAN_POINT('',(-0.00233140195331694,-1.15196480826585E-19,0.00387302183144884));
#740=CARTESIAN_POINT('',(-0.00220939877873984,0.000301809706451427,0.00384575199468577));
#741=CARTESIAN_POINT('',(-0.00191485706002323,0.00042682338011945,0.00377991678492865));
#742=CARTESIAN_POINT('',(-0.00162031534130662,0.000301809706451427,0.00371408157517154));
#743=CARTESIAN_POINT('',(-0.00149831216672952,5.55865371635635E-20,0.00368681173840847));
#744=CARTESIAN_POINT('',(-0.00162031534130662,-0.000301809706451426,0.00371408157517154));
#745=CARTESIAN_POINT('',(-0.00191485706002323,-0.00042682338011945,0.00377991678492865));
#746=CARTESIAN_POINT('',(-0.00220939877873984,-0.000301809706451426,0.00384575199468577));
#747=CARTESIAN_POINT('',(-0.00233140195331694,-1.15196480826585E-19,0.00387302183144884));
#748=CARTESIAN_POINT('',(-0.00220939877873984,0.000301809706451427,0.00384575199468577));
#749=CARTESIAN_POINT('',(-0.00207372296675263,-0.000150992572563997,0.00376136116376225));
#750=CARTESIAN_POINT('',(-0.00213476001359571,-1.35525271560688E-20,0.00377500400797249));
#751=CARTESIAN_POINT('',(-0.00207372296675263,0.000150992572563997,0.00376136116376225));
#752=CARTESIAN_POINT('',(-0.00192636650045687,0.000213535743937608,0.00372842442424053));
#753=CARTESIAN_POINT('',(-0.00177901003416112,0.000150992572563997,0.00369548768471881));
#754=CARTESIAN_POINT('',(-0.00171797298731804,5.33101361178175E-20,0.00368184484050857));
#755=CARTESIAN_POINT('',(-0.00177901003416112,-0.000150992572563997,0.00369548768471881));
#756=CARTESIAN_POINT('',(-0.00192636650045687,-0.000213535743937608,0.00372842442424053));
#757=CARTESIAN_POINT('',(-0.00207372296675263,-0.000150992572563997,0.00376136116376225));
#758=CARTESIAN_POINT('',(-0.00213476001359571,-1.35525271560688E-20,0.00377500400797249));
#759=CARTESIAN_POINT('',(-0.00207372296675263,0.000150992572563997,0.00376136116376225));
#760=CARTESIAN_POINT('',(-0.00192330160655306,-1.14438917624777E-13,0.00374213652686742));
#761=CARTESIAN_POINT('',(-0.00192330160659932,-2.83989925879564E-29,0.00374213652687776));
#762=CARTESIAN_POINT('',(-0.00192330160655306,1.14438917624777E-13,0.00374213652686742));
#763=CARTESIAN_POINT('',(-0.00192330160644138,1.61841069368257E-13,0.00374213652684245));
#764=CARTESIAN_POINT('',(-0.00192330160632969,1.14438917624777E-13,0.00374213652681749));
#765=CARTESIAN_POINT('',(-0.00192330160628343,2.90645939767367E-29,0.00374213652680715));
#766=CARTESIAN_POINT('',(-0.00192330160632969,-1.14438917624777E-13,0.00374213652681749));
#767=CARTESIAN_POINT('',(-0.00192330160644138,-1.61841069368257E-13,0.00374213652684245));
#768=CARTESIAN_POINT('',(-0.00192330160655306,-1.14438917624777E-13,0.00374213652686742));
#769=CARTESIAN_POINT('',(-0.00192330160659932,-2.83989925879564E-29,0.00374213652687776));
#770=CARTESIAN_POINT('',(-0.00192330160655306,1.14438917624777E-13,0.00374213652686742));
#771=CARTESIAN_POINT('',(-0.00188877328514045,0.,0.00389661360890682));
#772=CARTESIAN_POINT('',(-0.00245226129801357,0.,0.00402256300475052));
#773=CARTESIAN_POINT('',(-0.0019233016065839,0.,0.00374213652687431));
#774=CARTESIAN_POINT('',(-0.00134526538711991,0.,0.0108311857992231));
#775=CARTESIAN_POINT('',(-0.00360282252850102,0.,0.00995328722624986));
#776=CARTESIAN_POINT('',(-0.00382178072182878,0.,0.0105163484365408));
#777=CARTESIAN_POINT('',(-0.00411855711398988,-0.000198866770142481,0.00996610699244592));
#778=CARTESIAN_POINT('',(-0.00414841182251099,-5.42101086242752E-20,0.0100428797683686));
#779=CARTESIAN_POINT('',(-0.00411855711398988,0.000198866770142481,0.00996610699244592));
#780=CARTESIAN_POINT('',(-0.00404648147177752,0.00028124008344083,0.00978076111559246));
#781=CARTESIAN_POINT('',(-0.00397440582956516,0.000198866770142481,0.009595415238739));
#782=CARTESIAN_POINT('',(-0.00394455112104406,6.18863447087673E-20,0.00951864246281636));
#783=CARTESIAN_POINT('',(-0.00397440582956517,-0.000198866770142481,0.009595415238739));
#784=CARTESIAN_POINT('',(-0.00404648147177752,-0.00028124008344083,0.00978076111559246));
#785=CARTESIAN_POINT('',(-0.00411855711398988,-0.000198866770142481,0.00996610699244592));
#786=CARTESIAN_POINT('',(-0.00414841182251099,-5.42101086242752E-20,0.0100428797683686));
#787=CARTESIAN_POINT('',(-0.00411855711398988,0.000198866770142481,0.00996610699244592));
#788=CARTESIAN_POINT('',(-0.00411926329976358,-0.000132480984973552,0.00989460378073134));
#789=CARTESIAN_POINT('',(-0.00413915189748225,-3.04931861011548E-20,0.00994574823772684));
#790=CARTESIAN_POINT('',(-0.00411926329976358,0.000132480984973552,0.00989460378073134));
#791=CARTESIAN_POINT('',(-0.00407124797741459,0.000187356405706143,0.00977113013901261));
#792=CARTESIAN_POINT('',(-0.0040232326550656,0.000132480984973552,0.00964765649729388));
#793=CARTESIAN_POINT('',(-0.00400334405734693,3.23460706732736E-20,0.00959651204029838));
#794=CARTESIAN_POINT('',(-0.0040232326550656,-0.000132480984973552,0.00964765649729388));
#795=CARTESIAN_POINT('',(-0.00407124797741459,-0.000187356405706143,0.00977113013901261));
#796=CARTESIAN_POINT('',(-0.00411926329976358,-0.000132480984973552,0.00989460378073134));
#797=CARTESIAN_POINT('',(-0.00413915189748225,-3.04931861011548E-20,0.00994574823772684));
#798=CARTESIAN_POINT('',(-0.00411926329976358,0.000132480984973552,0.00989460378073134));
#799=CARTESIAN_POINT('',(-0.00410406259893222,-6.61920612586089E-5,0.00982939022386075));
#800=CARTESIAN_POINT('',(-0.00411399962709369,-2.20228566286118E-20,0.0098549437554197));
#801=CARTESIAN_POINT('',(-0.00410406259893222,6.6192061258609E-5,0.00982939022386076));
#802=CARTESIAN_POINT('',(-0.0040800724907751,9.36097107533556E-5,0.00976769854140457));
#803=CARTESIAN_POINT('',(-0.00405608238261799,6.6192061258609E-5,0.0097060068589484));
#804=CARTESIAN_POINT('',(-0.00404614535445651,7.25271961086495E-21,0.00968045332738944));
#805=CARTESIAN_POINT('',(-0.00405608238261799,-6.6192061258609E-5,0.0097060068589484));
#806=CARTESIAN_POINT('',(-0.0040800724907751,-9.36097107533556E-5,0.00976769854140457));
#807=CARTESIAN_POINT('',(-0.00410406259893222,-6.61920612586089E-5,0.00982939022386075));
#808=CARTESIAN_POINT('',(-0.00411399962709369,-2.20228566286118E-20,0.0098549437554197));
#809=CARTESIAN_POINT('',(-0.00410406259893222,6.6192061258609E-5,0.00982939022386076));
#810=CARTESIAN_POINT('',(-0.00407295501149577,1.00234887979447E-12,0.00977046632183414));
#811=CARTESIAN_POINT('',(-0.0040729550113453,3.02922587604869E-28,0.00977046632144719));
#812=CARTESIAN_POINT('',(-0.00407295501149577,-1.00234887979447E-12,0.00977046632183414));
#813=CARTESIAN_POINT('',(-0.00407295501185906,-1.41753538003482E-12,0.00977046632276834));
#814=CARTESIAN_POINT('',(-0.00407295501222234,-1.00234887979447E-12,0.00977046632370254));
#815=CARTESIAN_POINT('',(-0.00407295501237282,-1.81438008200833E-28,0.0097704663240895));
#816=CARTESIAN_POINT('',(-0.00407295501222234,1.00234887979447E-12,0.00977046632370254));
#817=CARTESIAN_POINT('',(-0.00407295501185906,1.41753538003482E-12,0.00977046632276834));
#818=CARTESIAN_POINT('',(-0.00407295501149577,1.00234887979447E-12,0.00977046632183414));
#819=CARTESIAN_POINT('',(-0.0040729550113453,3.02922587604869E-28,0.00977046632144719));
#820=CARTESIAN_POINT('',(-0.00407295501149577,-1.00234887979447E-12,0.00977046632183414));
#821=CARTESIAN_POINT('',(-0.00404648147177753,0.,0.00978076111559247));
#822=CARTESIAN_POINT('',(-0.00413846025300395,0.,0.010017288843061));
#823=CARTESIAN_POINT('',(-0.00407295501196683,0.,0.00977046632272644));
#824=CARTESIAN_POINT('',(0.00233032904251465,0.000452451401776689,0.00399530901963794));
#825=CARTESIAN_POINT('',(0.00251322742576297,1.49077798716757E-19,0.00403618999730676));
#826=CARTESIAN_POINT('',(0.00233032904251465,-0.000452451401776689,0.00399530901963794));
#827=CARTESIAN_POINT('',(0.00188877328514045,-0.000639862908707312,0.0038966136089068));
#828=CARTESIAN_POINT('',(0.00144721752776626,-0.000452451401776689,0.00379791819817566));
#829=CARTESIAN_POINT('',(0.00126431914451794,-9.19030747770916E-20,0.00375703722050684));
#830=CARTESIAN_POINT('',(0.00144721752776625,0.000452451401776689,0.00379791819817566));
#831=CARTESIAN_POINT('',(0.00188877328514045,0.000639862908707313,0.0038966136089068));
#832=CARTESIAN_POINT('',(0.00233032904251465,0.000452451401776689,0.00399530901963794));
#833=CARTESIAN_POINT('',(0.00251322742576297,1.49077798716757E-19,0.00403618999730676));
#834=CARTESIAN_POINT('',(0.00233032904251465,-0.000452451401776689,0.00399530901963794));
#835=CARTESIAN_POINT('',(0.00220939877873982,0.000301809706451403,0.00384575199468576));
#836=CARTESIAN_POINT('',(0.00233140195331691,6.09863722023096E-20,0.00387302183144883));
#837=CARTESIAN_POINT('',(0.00220939877873982,-0.000301809706451404,0.00384575199468575));
#838=CARTESIAN_POINT('',(0.00191485706002323,-0.000426823380119418,0.00377991678492865));
#839=CARTESIAN_POINT('',(0.00162031534130665,-0.000301809706451404,0.00371408157517154));
#840=CARTESIAN_POINT('',(0.00149831216672956,-1.32348898008484E-20,0.00368681173840847));
#841=CARTESIAN_POINT('',(0.00162031534130665,0.000301809706451404,0.00371408157517154));
#842=CARTESIAN_POINT('',(0.00191485706002323,0.000426823380119418,0.00377991678492865));
#843=CARTESIAN_POINT('',(0.00220939877873982,0.000301809706451403,0.00384575199468576));
#844=CARTESIAN_POINT('',(0.00233140195331691,6.09863722023096E-20,0.00387302183144883));
#845=CARTESIAN_POINT('',(0.00220939877873982,-0.000301809706451404,0.00384575199468575));
#846=CARTESIAN_POINT('',(0.00207372296675262,0.000150992572563983,0.00376136116376224));
#847=CARTESIAN_POINT('',(0.00213476001359569,3.3881317890172E-20,0.00377500400797249));
#848=CARTESIAN_POINT('',(0.00207372296675262,-0.000150992572563983,0.00376136116376224));
#849=CARTESIAN_POINT('',(0.00192636650045687,-0.000213535743937589,0.00372842442424053));
#850=CARTESIAN_POINT('',(0.00177901003416113,-0.000150992572563983,0.00369548768471881));
#851=CARTESIAN_POINT('',(0.00171797298731806,-4.36751363427999E-20,0.00368184484050857));
#852=CARTESIAN_POINT('',(0.00177901003416113,0.000150992572563983,0.00369548768471881));
#853=CARTESIAN_POINT('',(0.00192636650045687,0.000213535743937589,0.00372842442424053));
#854=CARTESIAN_POINT('',(0.00207372296675262,0.000150992572563983,0.00376136116376224));
#855=CARTESIAN_POINT('',(0.00213476001359569,3.3881317890172E-20,0.00377500400797249));
#856=CARTESIAN_POINT('',(0.00207372296675262,-0.000150992572563983,0.00376136116376224));
#857=CARTESIAN_POINT('',(0.00192330160655306,1.14438917624777E-13,0.00374213652686742));
#858=CARTESIAN_POINT('',(0.00192330160659932,2.83989925879564E-29,0.00374213652687776));
#859=CARTESIAN_POINT('',(0.00192330160655306,-1.14438917624777E-13,0.00374213652686742));
#860=CARTESIAN_POINT('',(0.00192330160644138,-1.61841069368257E-13,0.00374213652684245));
#861=CARTESIAN_POINT('',(0.00192330160632969,-1.14438917624777E-13,0.00374213652681749));
#862=CARTESIAN_POINT('',(0.00192330160628343,-2.90645939767367E-29,0.00374213652680715));
#863=CARTESIAN_POINT('',(0.00192330160632969,1.14438917624777E-13,0.00374213652681749));
#864=CARTESIAN_POINT('',(0.00192330160644138,1.61841069368257E-13,0.00374213652684245));
#865=CARTESIAN_POINT('',(0.00192330160655306,1.14438917624777E-13,0.00374213652686742));
#866=CARTESIAN_POINT('',(0.00192330160659932,2.83989925879564E-29,0.00374213652687776));
#867=CARTESIAN_POINT('',(0.00192330160655306,-1.14438917624777E-13,0.00374213652686742));
#868=CARTESIAN_POINT('',(0.00188877328514045,0.,0.0038966136089068));
#869=CARTESIAN_POINT('',(0.00132528527226738,0.,0.00377066421306311));
#870=CARTESIAN_POINT('',(0.0019233016065839,0.,0.00374213652687431));
#871=CARTESIAN_POINT('',(0.00137363173759171,0.,0.00620131769289354));
#872=CARTESIAN_POINT('',(0.00179693985968842,0.,0.00430746936630571));
#873=CARTESIAN_POINT('',(0.00100323302362906,0.,0.00413006204938876));
#874=CARTESIAN_POINT('',(0.00134526538711991,0.,0.0108311857992231));
#875=CARTESIAN_POINT('',(0.00360282252850102,0.,0.00995328722624986));
#876=CARTESIAN_POINT('',(0.00338386433517327,0.,0.00939022601595895));
#877=CARTESIAN_POINT('',(0.00411855711398988,0.00019886677014245,0.00996610699244589));
#878=CARTESIAN_POINT('',(0.00414841182251098,5.75982404132924E-20,0.0100428797683685));
#879=CARTESIAN_POINT('',(0.00411855711398988,-0.00019886677014245,0.00996610699244589));
#880=CARTESIAN_POINT('',(0.00404648147177753,-0.000281240083440786,0.00978076111559245));
#881=CARTESIAN_POINT('',(0.00397440582956519,-0.00019886677014245,0.00959541523873902));
#882=CARTESIAN_POINT('',(0.00394455112104408,-2.52521697400188E-20,0.0095186424628164));
#883=CARTESIAN_POINT('',(0.00397440582956519,0.00019886677014245,0.00959541523873902));
#884=CARTESIAN_POINT('',(0.00404648147177753,0.000281240083440786,0.00978076111559246));
#885=CARTESIAN_POINT('',(0.00411855711398988,0.00019886677014245,0.00996610699244589));
#886=CARTESIAN_POINT('',(0.00414841182251098,5.75982404132924E-20,0.0100428797683685));
#887=CARTESIAN_POINT('',(0.00411855711398988,-0.00019886677014245,0.00996610699244589));
#888=CARTESIAN_POINT('',(0.00411926329976358,0.000132480984973534,0.00989460378073132));
#889=CARTESIAN_POINT('',(0.00413915189748224,5.0821976835258E-20,0.0099457482377268));
#890=CARTESIAN_POINT('',(0.00411926329976358,-0.000132480984973534,0.00989460378073132));
#891=CARTESIAN_POINT('',(0.00407124797741458,-0.000187356405706118,0.0097711301390126));
#892=CARTESIAN_POINT('',(0.0040232326550656,-0.000132480984973534,0.0096476564972939));
#893=CARTESIAN_POINT('',(0.00400334405734694,-3.60518398175112E-20,0.00959651204029841));
#894=CARTESIAN_POINT('',(0.0040232326550656,0.000132480984973534,0.0096476564972939));
#895=CARTESIAN_POINT('',(0.00407124797741459,0.000187356405706118,0.0097711301390126));
#896=CARTESIAN_POINT('',(0.00411926329976358,0.000132480984973534,0.00989460378073132));
#897=CARTESIAN_POINT('',(0.00413915189748224,5.0821976835258E-20,0.0099457482377268));
#898=CARTESIAN_POINT('',(0.00411926329976358,-0.000132480984973534,0.00989460378073132));
#899=CARTESIAN_POINT('',(0.00410406259893221,6.61920612585949E-5,0.00982939022386074));
#900=CARTESIAN_POINT('',(0.00411399962709368,1.01643953670516E-20,0.00985494375541969));
#901=CARTESIAN_POINT('',(0.00410406259893221,-6.61920612585949E-5,0.00982939022386074));
#902=CARTESIAN_POINT('',(0.00408007249077511,-9.36097107533357E-5,0.00976769854140458));
#903=CARTESIAN_POINT('',(0.004056082382618,-6.6192061258595E-5,0.00970600685894841));
#904=CARTESIAN_POINT('',(0.00404614535445653,-8.25857123572943E-21,0.00968045332738946));
#905=CARTESIAN_POINT('',(0.004056082382618,6.61920612585949E-5,0.00970600685894841));
#906=CARTESIAN_POINT('',(0.00408007249077511,9.36097107533357E-5,0.00976769854140458));
#907=CARTESIAN_POINT('',(0.00410406259893221,6.61920612585949E-5,0.00982939022386074));
#908=CARTESIAN_POINT('',(0.00411399962709368,1.01643953670516E-20,0.00985494375541969));
#909=CARTESIAN_POINT('',(0.00410406259893221,-6.61920612585949E-5,0.00982939022386074));
#910=CARTESIAN_POINT('',(0.00407295501149577,-1.00234887979447E-12,0.00977046632183414));
#911=CARTESIAN_POINT('',(0.0040729550113453,-3.02922587604869E-28,0.00977046632144719));
#912=CARTESIAN_POINT('',(0.00407295501149577,1.00234887979447E-12,0.00977046632183414));
#913=CARTESIAN_POINT('',(0.00407295501185906,1.41753538003482E-12,0.00977046632276834));
#914=CARTESIAN_POINT('',(0.00407295501222234,1.00234887979447E-12,0.00977046632370254));
#915=CARTESIAN_POINT('',(0.00407295501237282,1.81438008200833E-28,0.0097704663240895));
#916=CARTESIAN_POINT('',(0.00407295501222234,-1.00234887979447E-12,0.00977046632370254));
#917=CARTESIAN_POINT('',(0.00407295501185906,-1.41753538003482E-12,0.00977046632276834));
#918=CARTESIAN_POINT('',(0.00407295501149577,-1.00234887979447E-12,0.00977046632183414));
#919=CARTESIAN_POINT('',(0.0040729550113453,-3.02922587604869E-28,0.00977046632144719));
#920=CARTESIAN_POINT('',(0.00407295501149577,1.00234887979447E-12,0.00977046632183414));
#921=CARTESIAN_POINT('',(0.00404648147177753,0.,0.00978076111559247));
#922=CARTESIAN_POINT('',(0.00395450269055111,0.,0.00954423338812394));
#923=CARTESIAN_POINT('',(0.00407295501196683,0.,0.00977046632272644));
#924=CARTESIAN_POINT('',(0.00360183695921805,0.,0.00995367048559298));
#925=CARTESIAN_POINT('',(-0.00360183695921805,0.,0.00995367048559298));
#926=CARTESIAN_POINT('',(0.00179616028196241,0.,0.00431095713772988));
#927=CARTESIAN_POINT('',(-0.00179616028196241,0.,0.00431095713772988));
#928=CARTESIAN_POINT('',(0.,0.,0.00659238839021178));
#929=CARTESIAN_POINT('',(-0.00119343958795071,-0.00235,0.0153862349689007));
#930=CARTESIAN_POINT('',(0.00117391091771424,-0.00235,0.0153862349689007));
#931=MECHANICAL_DESIGN_GEOMETRIC_PRESENTATION_REPRESENTATION('',(#322,#275,
#276,#277,#278,#279,#280,#281,#282,#283,#284,#285,#286,#287,#288,#289,#290,
#291,#292,#293,#294,#295),#932);
#932=(
GEOMETRIC_REPRESENTATION_CONTEXT(3)
GLOBAL_UNCERTAINTY_ASSIGNED_CONTEXT((#933))
GLOBAL_UNIT_ASSIGNED_CONTEXT((#936,#935,#934))
REPRESENTATION_CONTEXT('Part 1','TOP_LEVEL_ASSEMBLY_PART')
);
#933=UNCERTAINTY_MEASURE_WITH_UNIT(LENGTH_MEASURE(2.E-5),#936,
'DISTANCE_ACCURACY_VALUE','Maximum Tolerance applied to model');
#934=(
NAMED_UNIT(*)
SI_UNIT($,.STERADIAN.)
SOLID_ANGLE_UNIT()
);
#935=(
NAMED_UNIT(*)
PLANE_ANGLE_UNIT()
SI_UNIT($,.RADIAN.)
);
#936=(
LENGTH_UNIT()
NAMED_UNIT(*)
SI_UNIT($,.METRE.)
);
#937=PRODUCT_DEFINITION_SHAPE('','',#938);
#938=PRODUCT_DEFINITION('','',#940,#939);
#939=PRODUCT_DEFINITION_CONTEXT('',#946,'design');
#940=PRODUCT_DEFINITION_FORMATION_WITH_SPECIFIED_SOURCE('','',#942,
 .NOT_KNOWN.);
#941=PRODUCT_RELATED_PRODUCT_CATEGORY('','',(#942));
#942=PRODUCT('Part 1','Part 1','Part 1',(#944));
#943=PRODUCT_CATEGORY('','');
#944=PRODUCT_CONTEXT('',#946,'mechanical');
#945=APPLICATION_PROTOCOL_DEFINITION('international standard',
'ap242_managed_model_based_3d_engineering',2020,#946);
#946=APPLICATION_CONTEXT('managed model based 3d engineering');
ENDSEC;
END-ISO-10303-21;
