ISO-10303-21;
HEADER;
/* Generated by software containing ST-Developer
 * from STEP Tools, Inc. (www.steptools.com) 
 */
/* OPTION: using custom renumber hook */

FILE_DESCRIPTION(
/* description */ ('STEP AP242 Edition 2',
'CAx-IF Rec.Pracs.---Representation and Presentation of Product Manufa
cturing Information (PMI)---4.0---2014-10-13',
'CAx-IF Rec.Pracs.---3D Tessellated Geometry---0.4---2014-09-14','2;1',
'CAx-IF Rec.Pracs.---User Defined Attributes---1.5---2016-08-15'),
/* implementation_level */ '2;1');

FILE_NAME(
/* name */ 'shelves - Part 1',
/* time_stamp */ '2026-09-07T14:06:49Z',
/* author */ (''),
/* organization */ (''),
/* preprocessor_version */ 'ST-DEVELOPER v20',
/* originating_system */ 'ONSHAPE BY PTC INC, 1.220',
/* authorisation */ '  ');

FILE_SCHEMA (('AP242_MANAGED_MODEL_BASED_3D_ENGINEERING_MIM_LF { 1 0 10303 442 3 1 4 }'));
ENDSEC;

DATA;
#10=SHAPE_REPRESENTATION_RELATIONSHIP('','',#424,#11);
#11=ADVANCED_BREP_SHAPE_REPRESENTATION('',(#422),#634);
#12=ORIENTED_EDGE('',*,*,#112,.T.);
#13=ORIENTED_EDGE('',*,*,#113,.F.);
#14=ORIENTED_EDGE('',*,*,#114,.F.);
#15=ORIENTED_EDGE('',*,*,#115,.T.);
#16=ORIENTED_EDGE('',*,*,#116,.F.);
#17=ORIENTED_EDGE('',*,*,#117,.T.);
#18=ORIENTED_EDGE('',*,*,#118,.F.);
#19=ORIENTED_EDGE('',*,*,#119,.F.);
#20=ORIENTED_EDGE('',*,*,#120,.F.);
#21=ORIENTED_EDGE('',*,*,#121,.T.);
#22=ORIENTED_EDGE('',*,*,#122,.F.);
#23=ORIENTED_EDGE('',*,*,#123,.F.);
#24=ORIENTED_EDGE('',*,*,#114,.T.);
#25=ORIENTED_EDGE('',*,*,#124,.T.);
#26=ORIENTED_EDGE('',*,*,#125,.T.);
#27=ORIENTED_EDGE('',*,*,#126,.F.);
#28=ORIENTED_EDGE('',*,*,#127,.T.);
#29=ORIENTED_EDGE('',*,*,#128,.T.);
#30=ORIENTED_EDGE('',*,*,#129,.F.);
#31=ORIENTED_EDGE('',*,*,#130,.F.);
#32=ORIENTED_EDGE('',*,*,#131,.T.);
#33=ORIENTED_EDGE('',*,*,#132,.T.);
#34=ORIENTED_EDGE('',*,*,#133,.T.);
#35=ORIENTED_EDGE('',*,*,#134,.F.);
#36=ORIENTED_EDGE('',*,*,#135,.T.);
#37=ORIENTED_EDGE('',*,*,#129,.T.);
#38=ORIENTED_EDGE('',*,*,#136,.F.);
#39=ORIENTED_EDGE('',*,*,#125,.F.);
#40=ORIENTED_EDGE('',*,*,#137,.T.);
#41=ORIENTED_EDGE('',*,*,#138,.F.);
#42=ORIENTED_EDGE('',*,*,#139,.F.);
#43=ORIENTED_EDGE('',*,*,#122,.T.);
#44=ORIENTED_EDGE('',*,*,#138,.T.);
#45=ORIENTED_EDGE('',*,*,#140,.F.);
#46=ORIENTED_EDGE('',*,*,#112,.F.);
#47=ORIENTED_EDGE('',*,*,#141,.T.);
#48=ORIENTED_EDGE('',*,*,#115,.F.);
#49=ORIENTED_EDGE('',*,*,#123,.T.);
#50=ORIENTED_EDGE('',*,*,#139,.T.);
#51=ORIENTED_EDGE('',*,*,#141,.F.);
#52=ORIENTED_EDGE('',*,*,#142,.F.);
#53=ORIENTED_EDGE('',*,*,#120,.T.);
#54=ORIENTED_EDGE('',*,*,#143,.T.);
#55=ORIENTED_EDGE('',*,*,#144,.F.);
#56=ORIENTED_EDGE('',*,*,#145,.T.);
#57=ORIENTED_EDGE('',*,*,#118,.T.);
#58=ORIENTED_EDGE('',*,*,#146,.F.);
#59=ORIENTED_EDGE('',*,*,#144,.T.);
#60=ORIENTED_EDGE('',*,*,#147,.F.);
#61=ORIENTED_EDGE('',*,*,#116,.T.);
#62=ORIENTED_EDGE('',*,*,#148,.T.);
#63=ORIENTED_EDGE('',*,*,#149,.F.);
#64=ORIENTED_EDGE('',*,*,#117,.F.);
#65=ORIENTED_EDGE('',*,*,#147,.T.);
#66=ORIENTED_EDGE('',*,*,#150,.T.);
#67=ORIENTED_EDGE('',*,*,#121,.F.);
#68=ORIENTED_EDGE('',*,*,#142,.T.);
#69=ORIENTED_EDGE('',*,*,#146,.T.);
#70=ORIENTED_EDGE('',*,*,#148,.F.);
#71=ORIENTED_EDGE('',*,*,#119,.T.);
#72=ORIENTED_EDGE('',*,*,#145,.F.);
#73=ORIENTED_EDGE('',*,*,#143,.F.);
#74=ORIENTED_EDGE('',*,*,#130,.T.);
#75=ORIENTED_EDGE('',*,*,#151,.F.);
#76=ORIENTED_EDGE('',*,*,#135,.F.);
#77=ORIENTED_EDGE('',*,*,#150,.F.);
#78=ORIENTED_EDGE('',*,*,#149,.T.);
#79=ORIENTED_EDGE('',*,*,#151,.T.);
#80=ORIENTED_EDGE('',*,*,#113,.T.);
#81=ORIENTED_EDGE('',*,*,#140,.T.);
#82=ORIENTED_EDGE('',*,*,#137,.F.);
#83=ORIENTED_EDGE('',*,*,#124,.F.);
#84=ORIENTED_EDGE('',*,*,#152,.T.);
#85=ORIENTED_EDGE('',*,*,#153,.T.);
#86=ORIENTED_EDGE('',*,*,#154,.F.);
#87=ORIENTED_EDGE('',*,*,#127,.F.);
#88=ORIENTED_EDGE('',*,*,#155,.F.);
#89=ORIENTED_EDGE('',*,*,#153,.F.);
#90=ORIENTED_EDGE('',*,*,#156,.T.);
#91=ORIENTED_EDGE('',*,*,#133,.F.);
#92=ORIENTED_EDGE('',*,*,#157,.T.);
#93=ORIENTED_EDGE('',*,*,#158,.T.);
#94=ORIENTED_EDGE('',*,*,#159,.F.);
#95=ORIENTED_EDGE('',*,*,#131,.F.);
#96=ORIENTED_EDGE('',*,*,#134,.T.);
#97=ORIENTED_EDGE('',*,*,#156,.F.);
#98=ORIENTED_EDGE('',*,*,#152,.F.);
#99=ORIENTED_EDGE('',*,*,#126,.T.);
#100=ORIENTED_EDGE('',*,*,#160,.F.);
#101=ORIENTED_EDGE('',*,*,#157,.F.);
#102=ORIENTED_EDGE('',*,*,#159,.T.);
#103=ORIENTED_EDGE('',*,*,#161,.T.);
#104=ORIENTED_EDGE('',*,*,#128,.F.);
#105=ORIENTED_EDGE('',*,*,#154,.T.);
#106=ORIENTED_EDGE('',*,*,#155,.T.);
#107=ORIENTED_EDGE('',*,*,#132,.F.);
#108=ORIENTED_EDGE('',*,*,#136,.T.);
#109=ORIENTED_EDGE('',*,*,#161,.F.);
#110=ORIENTED_EDGE('',*,*,#158,.F.);
#111=ORIENTED_EDGE('',*,*,#160,.T.);
#112=EDGE_CURVE('',#162,#163,#194,.T.);
#113=EDGE_CURVE('',#164,#163,#195,.T.);
#114=EDGE_CURVE('',#165,#164,#196,.T.);
#115=EDGE_CURVE('',#165,#162,#197,.T.);
#116=EDGE_CURVE('',#166,#167,#198,.T.);
#117=EDGE_CURVE('',#166,#168,#199,.T.);
#118=EDGE_CURVE('',#169,#168,#200,.T.);
#119=EDGE_CURVE('',#167,#169,#201,.T.);
#120=EDGE_CURVE('',#170,#171,#202,.T.);
#121=EDGE_CURVE('',#170,#172,#203,.T.);
#122=EDGE_CURVE('',#173,#172,#204,.T.);
#123=EDGE_CURVE('',#165,#173,#205,.T.);
#124=EDGE_CURVE('',#164,#174,#206,.T.);
#125=EDGE_CURVE('',#174,#175,#207,.T.);
#126=EDGE_CURVE('',#176,#175,#208,.T.);
#127=EDGE_CURVE('',#176,#177,#209,.T.);
#128=EDGE_CURVE('',#177,#178,#210,.T.);
#129=EDGE_CURVE('',#179,#178,#211,.T.);
#130=EDGE_CURVE('',#171,#179,#212,.T.);
#131=EDGE_CURVE('',#180,#181,#213,.T.);
#132=EDGE_CURVE('',#181,#182,#214,.T.);
#133=EDGE_CURVE('',#182,#183,#215,.T.);
#134=EDGE_CURVE('',#180,#183,#216,.T.);
#135=EDGE_CURVE('',#172,#179,#217,.T.);
#136=EDGE_CURVE('',#175,#178,#218,.T.);
#137=EDGE_CURVE('',#174,#184,#219,.T.);
#138=EDGE_CURVE('',#185,#184,#220,.T.);
#139=EDGE_CURVE('',#173,#185,#221,.T.);
#140=EDGE_CURVE('',#163,#184,#222,.T.);
#141=EDGE_CURVE('',#162,#185,#223,.T.);
#142=EDGE_CURVE('',#170,#186,#224,.T.);
#143=EDGE_CURVE('',#171,#187,#225,.T.);
#144=EDGE_CURVE('',#186,#187,#226,.T.);
#145=EDGE_CURVE('',#187,#169,#227,.T.);
#146=EDGE_CURVE('',#186,#168,#228,.T.);
#147=EDGE_CURVE('',#166,#188,#229,.T.);
#148=EDGE_CURVE('',#167,#189,#230,.T.);
#149=EDGE_CURVE('',#188,#189,#231,.T.);
#150=EDGE_CURVE('',#188,#172,#232,.T.);
#151=EDGE_CURVE('',#189,#179,#233,.T.);
#152=EDGE_CURVE('',#176,#190,#234,.T.);
#153=EDGE_CURVE('',#190,#191,#235,.T.);
#154=EDGE_CURVE('',#177,#191,#236,.T.);
#155=EDGE_CURVE('',#191,#182,#237,.T.);
#156=EDGE_CURVE('',#190,#183,#238,.T.);
#157=EDGE_CURVE('',#180,#192,#239,.T.);
#158=EDGE_CURVE('',#192,#193,#240,.T.);
#159=EDGE_CURVE('',#181,#193,#241,.T.);
#160=EDGE_CURVE('',#192,#175,#242,.T.);
#161=EDGE_CURVE('',#193,#178,#243,.T.);
#162=VERTEX_POINT('',#535);
#163=VERTEX_POINT('',#536);
#164=VERTEX_POINT('',#538);
#165=VERTEX_POINT('',#540);
#166=VERTEX_POINT('',#544);
#167=VERTEX_POINT('',#545);
#168=VERTEX_POINT('',#547);
#169=VERTEX_POINT('',#549);
#170=VERTEX_POINT('',#552);
#171=VERTEX_POINT('',#553);
#172=VERTEX_POINT('',#555);
#173=VERTEX_POINT('',#557);
#174=VERTEX_POINT('',#560);
#175=VERTEX_POINT('',#562);
#176=VERTEX_POINT('',#564);
#177=VERTEX_POINT('',#566);
#178=VERTEX_POINT('',#568);
#179=VERTEX_POINT('',#570);
#180=VERTEX_POINT('',#573);
#181=VERTEX_POINT('',#574);
#182=VERTEX_POINT('',#576);
#183=VERTEX_POINT('',#578);
#184=VERTEX_POINT('',#584);
#185=VERTEX_POINT('',#586);
#186=VERTEX_POINT('',#594);
#187=VERTEX_POINT('',#596);
#188=VERTEX_POINT('',#603);
#189=VERTEX_POINT('',#605);
#190=VERTEX_POINT('',#615);
#191=VERTEX_POINT('',#617);
#192=VERTEX_POINT('',#624);
#193=VERTEX_POINT('',#626);
#194=LINE('',#534,#244);
#195=LINE('',#537,#245);
#196=LINE('',#539,#246);
#197=LINE('',#541,#247);
#198=LINE('',#543,#248);
#199=LINE('',#546,#249);
#200=LINE('',#548,#250);
#201=LINE('',#550,#251);
#202=LINE('',#551,#252);
#203=LINE('',#554,#253);
#204=LINE('',#556,#254);
#205=LINE('',#558,#255);
#206=LINE('',#559,#256);
#207=LINE('',#561,#257);
#208=LINE('',#563,#258);
#209=LINE('',#565,#259);
#210=LINE('',#567,#260);
#211=LINE('',#569,#261);
#212=LINE('',#571,#262);
#213=LINE('',#572,#263);
#214=LINE('',#575,#264);
#215=LINE('',#577,#265);
#216=LINE('',#579,#266);
#217=LINE('',#581,#267);
#218=LINE('',#582,#268);
#219=LINE('',#583,#269);
#220=LINE('',#585,#270);
#221=LINE('',#587,#271);
#222=LINE('',#589,#272);
#223=LINE('',#590,#273);
#224=LINE('',#593,#274);
#225=LINE('',#595,#275);
#226=LINE('',#597,#276);
#227=LINE('',#599,#277);
#228=LINE('',#600,#278);
#229=LINE('',#602,#279);
#230=LINE('',#604,#280);
#231=LINE('',#606,#281);
#232=LINE('',#608,#282);
#233=LINE('',#610,#283);
#234=LINE('',#614,#284);
#235=LINE('',#616,#285);
#236=LINE('',#618,#286);
#237=LINE('',#620,#287);
#238=LINE('',#621,#288);
#239=LINE('',#623,#289);
#240=LINE('',#625,#290);
#241=LINE('',#627,#291);
#242=LINE('',#629,#292);
#243=LINE('',#631,#293);
#244=VECTOR('',#448,1.);
#245=VECTOR('',#449,1.);
#246=VECTOR('',#450,1.);
#247=VECTOR('',#451,1.);
#248=VECTOR('',#454,1.);
#249=VECTOR('',#455,1.);
#250=VECTOR('',#456,1.);
#251=VECTOR('',#457,1.);
#252=VECTOR('',#458,1.);
#253=VECTOR('',#459,1.);
#254=VECTOR('',#460,1.);
#255=VECTOR('',#461,1.);
#256=VECTOR('',#462,1.);
#257=VECTOR('',#463,1.);
#258=VECTOR('',#464,1.);
#259=VECTOR('',#465,1.);
#260=VECTOR('',#466,1.);
#261=VECTOR('',#467,1.);
#262=VECTOR('',#468,1.);
#263=VECTOR('',#469,1.);
#264=VECTOR('',#470,1.);
#265=VECTOR('',#471,1.);
#266=VECTOR('',#472,1.);
#267=VECTOR('',#475,1.);
#268=VECTOR('',#476,1.);
#269=VECTOR('',#477,1.);
#270=VECTOR('',#478,1.);
#271=VECTOR('',#479,1.);
#272=VECTOR('',#482,1.);
#273=VECTOR('',#483,1.);
#274=VECTOR('',#488,1.);
#275=VECTOR('',#489,1.);
#276=VECTOR('',#490,1.);
#277=VECTOR('',#493,1.);
#278=VECTOR('',#494,1.);
#279=VECTOR('',#497,1.);
#280=VECTOR('',#498,1.);
#281=VECTOR('',#499,1.);
#282=VECTOR('',#502,1.);
#283=VECTOR('',#505,1.);
#284=VECTOR('',#512,1.);
#285=VECTOR('',#513,1.);
#286=VECTOR('',#514,1.);
#287=VECTOR('',#517,1.);
#288=VECTOR('',#518,1.);
#289=VECTOR('',#521,1.);
#290=VECTOR('',#522,1.);
#291=VECTOR('',#523,1.);
#292=VECTOR('',#526,1.);
#293=VECTOR('',#529,1.);
#294=EDGE_LOOP('',(#12,#13,#14,#15));
#295=EDGE_LOOP('',(#16,#17,#18,#19));
#296=EDGE_LOOP('',(#20,#21,#22,#23,#24,#25,#26,#27,#28,#29,#30,#31));
#297=EDGE_LOOP('',(#32,#33,#34,#35));
#298=EDGE_LOOP('',(#36,#37,#38,#39,#40,#41,#42,#43));
#299=EDGE_LOOP('',(#44,#45,#46,#47));
#300=EDGE_LOOP('',(#48,#49,#50,#51));
#301=EDGE_LOOP('',(#52,#53,#54,#55));
#302=EDGE_LOOP('',(#56,#57,#58,#59));
#303=EDGE_LOOP('',(#60,#61,#62,#63));
#304=EDGE_LOOP('',(#64,#65,#66,#67,#68,#69));
#305=EDGE_LOOP('',(#70,#71,#72,#73,#74,#75));
#306=EDGE_LOOP('',(#76,#77,#78,#79));
#307=EDGE_LOOP('',(#80,#81,#82,#83));
#308=EDGE_LOOP('',(#84,#85,#86,#87));
#309=EDGE_LOOP('',(#88,#89,#90,#91));
#310=EDGE_LOOP('',(#92,#93,#94,#95));
#311=EDGE_LOOP('',(#96,#97,#98,#99,#100,#101));
#312=EDGE_LOOP('',(#102,#103,#104,#105,#106,#107));
#313=EDGE_LOOP('',(#108,#109,#110,#111));
#314=FACE_BOUND('',#294,.T.);
#315=FACE_BOUND('',#295,.T.);
#316=FACE_BOUND('',#296,.T.);
#317=FACE_BOUND('',#297,.T.);
#318=FACE_BOUND('',#298,.T.);
#319=FACE_BOUND('',#299,.T.);
#320=FACE_BOUND('',#300,.T.);
#321=FACE_BOUND('',#301,.T.);
#322=FACE_BOUND('',#302,.T.);
#323=FACE_BOUND('',#303,.T.);
#324=FACE_BOUND('',#304,.T.);
#325=FACE_BOUND('',#305,.T.);
#326=FACE_BOUND('',#306,.T.);
#327=FACE_BOUND('',#307,.T.);
#328=FACE_BOUND('',#308,.T.);
#329=FACE_BOUND('',#309,.T.);
#330=FACE_BOUND('',#310,.T.);
#331=FACE_BOUND('',#311,.T.);
#332=FACE_BOUND('',#312,.T.);
#333=FACE_BOUND('',#313,.T.);
#334=PLANE('',#426);
#335=PLANE('',#427);
#336=PLANE('',#428);
#337=PLANE('',#429);
#338=PLANE('',#430);
#339=PLANE('',#431);
#340=PLANE('',#432);
#341=PLANE('',#433);
#342=PLANE('',#434);
#343=PLANE('',#435);
#344=PLANE('',#436);
#345=PLANE('',#437);
#346=PLANE('',#438);
#347=PLANE('',#439);
#348=PLANE('',#440);
#349=PLANE('',#441);
#350=PLANE('',#442);
#351=PLANE('',#443);
#352=OVER_RIDING_STYLED_ITEM('',(#379),#358,#377);
#353=OVER_RIDING_STYLED_ITEM('',(#380),#359,#377);
#354=OVER_RIDING_STYLED_ITEM('',(#381),#360,#377);
#355=OVER_RIDING_STYLED_ITEM('',(#382),#361,#377);
#356=OVER_RIDING_STYLED_ITEM('',(#383),#362,#377);
#357=OVER_RIDING_STYLED_ITEM('',(#384),#369,#377);
#358=ADVANCED_FACE('Face appearance 1',(#314),#334,.T.);
#359=ADVANCED_FACE('Face appearance 2',(#315,#316,#317),#335,.F.);
#360=ADVANCED_FACE('Face appearance 2',(#318),#336,.F.);
#361=ADVANCED_FACE('Face appearance 2',(#319),#337,.T.);
#362=ADVANCED_FACE('Face appearance 2',(#320),#338,.T.);
#363=ADVANCED_FACE('',(#321),#339,.F.);
#364=ADVANCED_FACE('',(#322),#340,.F.);
#365=ADVANCED_FACE('',(#323),#341,.F.);
#366=ADVANCED_FACE('',(#324),#342,.T.);
#367=ADVANCED_FACE('',(#325),#343,.F.);
#368=ADVANCED_FACE('',(#326),#344,.F.);
#369=ADVANCED_FACE('Face appearance 2',(#327),#345,.T.);
#370=ADVANCED_FACE('',(#328),#346,.F.);
#371=ADVANCED_FACE('',(#329),#347,.F.);
#372=ADVANCED_FACE('',(#330),#348,.F.);
#373=ADVANCED_FACE('',(#331),#349,.T.);
#374=ADVANCED_FACE('',(#332),#350,.F.);
#375=ADVANCED_FACE('',(#333),#351,.F.);
#376=CLOSED_SHELL('',(#358,#359,#360,#361,#362,#363,#364,#365,#366,#367,
#368,#369,#370,#371,#372,#373,#374,#375));
#377=STYLED_ITEM('',(#378),#422);
#378=PRESENTATION_STYLE_ASSIGNMENT((#385));
#379=PRESENTATION_STYLE_ASSIGNMENT((#386));
#380=PRESENTATION_STYLE_ASSIGNMENT((#387));
#381=PRESENTATION_STYLE_ASSIGNMENT((#388));
#382=PRESENTATION_STYLE_ASSIGNMENT((#389));
#383=PRESENTATION_STYLE_ASSIGNMENT((#390));
#384=PRESENTATION_STYLE_ASSIGNMENT((#391));
#385=SURFACE_STYLE_USAGE(.BOTH.,#392);
#386=SURFACE_STYLE_USAGE(.BOTH.,#393);
#387=SURFACE_STYLE_USAGE(.BOTH.,#394);
#388=SURFACE_STYLE_USAGE(.BOTH.,#395);
#389=SURFACE_STYLE_USAGE(.BOTH.,#396);
#390=SURFACE_STYLE_USAGE(.BOTH.,#397);
#391=SURFACE_STYLE_USAGE(.BOTH.,#398);
#392=SURFACE_SIDE_STYLE('',(#399));
#393=SURFACE_SIDE_STYLE('',(#400));
#394=SURFACE_SIDE_STYLE('',(#401));
#395=SURFACE_SIDE_STYLE('',(#402));
#396=SURFACE_SIDE_STYLE('',(#403));
#397=SURFACE_SIDE_STYLE('',(#404));
#398=SURFACE_SIDE_STYLE('',(#405));
#399=SURFACE_STYLE_FILL_AREA(#406);
#400=SURFACE_STYLE_FILL_AREA(#407);
#401=SURFACE_STYLE_FILL_AREA(#408);
#402=SURFACE_STYLE_FILL_AREA(#409);
#403=SURFACE_STYLE_FILL_AREA(#410);
#404=SURFACE_STYLE_FILL_AREA(#411);
#405=SURFACE_STYLE_FILL_AREA(#412);
#406=FILL_AREA_STYLE('',(#413));
#407=FILL_AREA_STYLE('',(#414));
#408=FILL_AREA_STYLE('',(#415));
#409=FILL_AREA_STYLE('',(#416));
#410=FILL_AREA_STYLE('',(#417));
#411=FILL_AREA_STYLE('',(#418));
#412=FILL_AREA_STYLE('',(#419));
#413=FILL_AREA_STYLE_COLOUR('',#420);
#414=FILL_AREA_STYLE_COLOUR('',#421);
#415=FILL_AREA_STYLE_COLOUR('',#421);
#416=FILL_AREA_STYLE_COLOUR('',#421);
#417=FILL_AREA_STYLE_COLOUR('',#421);
#418=FILL_AREA_STYLE_COLOUR('',#421);
#419=FILL_AREA_STYLE_COLOUR('',#421);
#420=COLOUR_RGB('',0.301960784313725,0.301960784313725,0.301960784313725);
#421=COLOUR_RGB('',0.6,0.352941176470589,0.0549019607843137);
#422=MANIFOLD_SOLID_BREP('Part 1',#376);
#423=SHAPE_DEFINITION_REPRESENTATION(#639,#424);
#424=SHAPE_REPRESENTATION('Part 1',(#425),#634);
#425=AXIS2_PLACEMENT_3D('',#532,#444,#445);
#426=AXIS2_PLACEMENT_3D('',#533,#446,#447);
#427=AXIS2_PLACEMENT_3D('',#542,#452,#453);
#428=AXIS2_PLACEMENT_3D('',#580,#473,#474);
#429=AXIS2_PLACEMENT_3D('',#588,#480,#481);
#430=AXIS2_PLACEMENT_3D('',#591,#484,#485);
#431=AXIS2_PLACEMENT_3D('',#592,#486,#487);
#432=AXIS2_PLACEMENT_3D('',#598,#491,#492);
#433=AXIS2_PLACEMENT_3D('',#601,#495,#496);
#434=AXIS2_PLACEMENT_3D('',#607,#500,#501);
#435=AXIS2_PLACEMENT_3D('',#609,#503,#504);
#436=AXIS2_PLACEMENT_3D('',#611,#506,#507);
#437=AXIS2_PLACEMENT_3D('',#612,#508,#509);
#438=AXIS2_PLACEMENT_3D('',#613,#510,#511);
#439=AXIS2_PLACEMENT_3D('',#619,#515,#516);
#440=AXIS2_PLACEMENT_3D('',#622,#519,#520);
#441=AXIS2_PLACEMENT_3D('',#628,#524,#525);
#442=AXIS2_PLACEMENT_3D('',#630,#527,#528);
#443=AXIS2_PLACEMENT_3D('',#632,#530,#531);
#444=DIRECTION('',(0.,0.,1.));
#445=DIRECTION('',(1.,0.,0.));
#446=DIRECTION('',(0.,-1.,0.));
#447=DIRECTION('',(0.,0.,-1.));
#448=DIRECTION('',(-1.,0.,0.));
#449=DIRECTION('',(0.,0.,1.));
#450=DIRECTION('',(-1.,0.,0.));
#451=DIRECTION('',(0.,0.,1.));
#452=DIRECTION('',(0.,0.,1.));
#453=DIRECTION('',(1.,0.,0.));
#454=DIRECTION('',(-1.,0.,0.));
#455=DIRECTION('',(0.,1.,0.));
#456=DIRECTION('',(1.,0.,0.));
#457=DIRECTION('',(0.,1.,0.));
#458=DIRECTION('',(-1.,0.,0.));
#459=DIRECTION('',(0.,1.,0.));
#460=DIRECTION('',(-1.,0.,0.));
#461=DIRECTION('',(0.,1.,0.));
#462=DIRECTION('',(0.,1.,0.));
#463=DIRECTION('',(1.,0.,0.));
#464=DIRECTION('',(0.,1.,0.));
#465=DIRECTION('',(1.,0.,0.));
#466=DIRECTION('',(0.,1.,0.));
#467=DIRECTION('',(-1.,0.,0.));
#468=DIRECTION('',(0.,1.,0.));
#469=DIRECTION('',(1.,0.,0.));
#470=DIRECTION('',(0.,1.,0.));
#471=DIRECTION('',(-1.,0.,0.));
#472=DIRECTION('',(0.,1.,0.));
#473=DIRECTION('',(0.,-1.,0.));
#474=DIRECTION('',(0.,0.,-1.));
#475=DIRECTION('',(-1.,0.,0.));
#476=DIRECTION('',(1.,0.,0.));
#477=DIRECTION('',(0.,0.,1.));
#478=DIRECTION('',(-1.,0.,0.));
#479=DIRECTION('',(0.,0.,1.));
#480=DIRECTION('',(0.,0.,1.));
#481=DIRECTION('',(1.,0.,0.));
#482=DIRECTION('',(0.,1.,0.));
#483=DIRECTION('',(0.,1.,0.));
#484=DIRECTION('',(1.,0.,0.));
#485=DIRECTION('',(0.,1.,0.));
#486=DIRECTION('',(0.,1.,2.22131428429484E-16));
#487=DIRECTION('',(0.,-2.22131428429484E-16,1.));
#488=DIRECTION('',(0.,2.22131428429484E-16,-1.));
#489=DIRECTION('',(0.,2.22131428429484E-16,-1.));
#490=DIRECTION('',(-1.,0.,0.));
#491=DIRECTION('',(0.,-0.440157175182423,-0.89792074323708));
#492=DIRECTION('',(0.,0.89792074323708,-0.440157175182423));
#493=DIRECTION('',(0.,-0.89792074323708,0.440157175182423));
#494=DIRECTION('',(0.,-0.89792074323708,0.440157175182423));
#495=DIRECTION('',(0.,0.440157175182423,0.89792074323708));
#496=DIRECTION('',(0.,-0.89792074323708,0.440157175182423));
#497=DIRECTION('',(0.,0.89792074323708,-0.440157175182423));
#498=DIRECTION('',(0.,0.89792074323708,-0.440157175182423));
#499=DIRECTION('',(-1.,0.,0.));
#500=DIRECTION('',(1.,0.,0.));
#501=DIRECTION('',(0.,1.,0.));
#502=DIRECTION('',(0.,0.,1.));
#503=DIRECTION('',(1.,0.,0.));
#504=DIRECTION('',(0.,1.,0.));
#505=DIRECTION('',(0.,0.,1.));
#506=DIRECTION('',(0.,-1.,0.));
#507=DIRECTION('',(0.,0.,-1.));
#508=DIRECTION('',(-1.,0.,0.));
#509=DIRECTION('',(0.,1.,0.));
#510=DIRECTION('',(0.,1.,2.22131428429484E-16));
#511=DIRECTION('',(0.,-2.22131428429484E-16,1.));
#512=DIRECTION('',(0.,2.22131428429484E-16,-1.));
#513=DIRECTION('',(1.,0.,0.));
#514=DIRECTION('',(0.,2.22131428429484E-16,-1.));
#515=DIRECTION('',(0.,-0.440157175182423,-0.89792074323708));
#516=DIRECTION('',(0.,0.89792074323708,-0.440157175182423));
#517=DIRECTION('',(0.,-0.89792074323708,0.440157175182423));
#518=DIRECTION('',(0.,-0.89792074323708,0.440157175182423));
#519=DIRECTION('',(0.,0.440157175182423,0.89792074323708));
#520=DIRECTION('',(0.,-0.89792074323708,0.440157175182423));
#521=DIRECTION('',(0.,0.89792074323708,-0.440157175182423));
#522=DIRECTION('',(1.,0.,0.));
#523=DIRECTION('',(0.,0.89792074323708,-0.440157175182423));
#524=DIRECTION('',(-1.,0.,0.));
#525=DIRECTION('',(0.,1.,0.));
#526=DIRECTION('',(0.,0.,1.));
#527=DIRECTION('',(-1.,0.,0.));
#528=DIRECTION('',(0.,1.,0.));
#529=DIRECTION('',(0.,0.,1.));
#530=DIRECTION('',(0.,-1.,0.));
#531=DIRECTION('',(0.,0.,-1.));
#532=CARTESIAN_POINT('',(0.,0.,0.));
#533=CARTESIAN_POINT('',(0.0175,-0.00587397664785385,0.0142653673887253));
#534=CARTESIAN_POINT('',(0.0175,-0.00587397664785385,0.0149108586832881));
#535=CARTESIAN_POINT('',(0.0175,-0.00587397664785385,0.0149108586832881));
#536=CARTESIAN_POINT('',(-0.0175,-0.00587397664785385,0.0149108586832881));
#537=CARTESIAN_POINT('',(-0.0175,-0.00587397664785385,0.0142653673887253));
#538=CARTESIAN_POINT('',(-0.0175,-0.00587397664785385,0.0136198760941625));
#539=CARTESIAN_POINT('',(0.0175,-0.00587397664785385,0.0136198760941625));
#540=CARTESIAN_POINT('',(0.0175,-0.00587397664785385,0.0136198760941625));
#541=CARTESIAN_POINT('',(0.0175,-0.00587397664785385,0.0142653673887253));
#542=CARTESIAN_POINT('',(0.0175,0.,0.0136198760941625));
#543=CARTESIAN_POINT('',(0.0175,-0.00458702279610865,0.0136198760941625));
#544=CARTESIAN_POINT('',(0.01498,-0.00458702279610865,0.0136198760941625));
#545=CARTESIAN_POINT('',(0.01442,-0.00458702279610865,0.0136198760941625));
#546=CARTESIAN_POINT('',(0.01498,0.,0.0136198760941625));
#547=CARTESIAN_POINT('',(0.01498,-0.0036328181990214,0.0136198760941625));
#548=CARTESIAN_POINT('',(0.0175,-0.0036328181990214,0.0136198760941625));
#549=CARTESIAN_POINT('',(0.01442,-0.0036328181990214,0.0136198760941625));
#550=CARTESIAN_POINT('',(0.01442,0.,0.0136198760941625));
#551=CARTESIAN_POINT('',(0.0175,0.00545374136418104,0.0136198760941625));
#552=CARTESIAN_POINT('',(0.01498,0.00545374136418104,0.0136198760941625));
#553=CARTESIAN_POINT('',(0.01442,0.00545374136418104,0.0136198760941625));
#554=CARTESIAN_POINT('',(0.01498,0.,0.0136198760941625));
#555=CARTESIAN_POINT('',(0.01498,0.00587380018509924,0.0136198760941625));
#556=CARTESIAN_POINT('',(0.0175,0.00587397664785385,0.0136198760941625));
#557=CARTESIAN_POINT('',(0.0175,0.00587397664785385,0.0136198760941625));
#558=CARTESIAN_POINT('',(0.0175,0.,0.0136198760941625));
#559=CARTESIAN_POINT('',(-0.0175,0.,0.0136198760941625));
#560=CARTESIAN_POINT('',(-0.0175,0.00587397664785385,0.0136198760941625));
#561=CARTESIAN_POINT('',(-0.0175,0.00587397664785385,0.0136198760941625));
#562=CARTESIAN_POINT('',(-0.01498,0.00587385900601745,0.0136198760941625));
#563=CARTESIAN_POINT('',(-0.01498,0.,0.0136198760941625));
#564=CARTESIAN_POINT('',(-0.01498,0.00545374136418104,0.0136198760941625));
#565=CARTESIAN_POINT('',(-0.0175,0.00545374136418104,0.0136198760941625));
#566=CARTESIAN_POINT('',(-0.01442,0.00545374136418104,0.0136198760941625));
#567=CARTESIAN_POINT('',(-0.01442,0.,0.0136198760941625));
#568=CARTESIAN_POINT('',(-0.01442,0.00587385900601745,0.0136198760941625));
#569=CARTESIAN_POINT('',(0.0175,0.00587397664785385,0.0136198760941625));
#570=CARTESIAN_POINT('',(0.01442,0.00587380018509924,0.0136198760941625));
#571=CARTESIAN_POINT('',(0.01442,0.,0.0136198760941625));
#572=CARTESIAN_POINT('',(-0.0175,-0.00458702279610865,0.0136198760941625));
#573=CARTESIAN_POINT('',(-0.01498,-0.00458702279610865,0.0136198760941625));
#574=CARTESIAN_POINT('',(-0.01442,-0.00458702279610865,0.0136198760941625));
#575=CARTESIAN_POINT('',(-0.01442,0.,0.0136198760941625));
#576=CARTESIAN_POINT('',(-0.01442,-0.0036328181990214,0.0136198760941625));
#577=CARTESIAN_POINT('',(-0.0175,-0.0036328181990214,0.0136198760941625));
#578=CARTESIAN_POINT('',(-0.01498,-0.0036328181990214,0.0136198760941625));
#579=CARTESIAN_POINT('',(-0.01498,0.,0.0136198760941625));
#580=CARTESIAN_POINT('',(0.0175,0.00587397664785385,0.0142653673887253));
#581=CARTESIAN_POINT('',(0.0175,0.00587397664785385,0.0136198760941625));
#582=CARTESIAN_POINT('',(-0.0175,0.00587397664785385,0.0136198760941625));
#583=CARTESIAN_POINT('',(-0.0175,0.00587397664785385,0.0142653673887253));
#584=CARTESIAN_POINT('',(-0.0175,0.00587397664785385,0.0149108586832881));
#585=CARTESIAN_POINT('',(0.0175,0.00587397664785385,0.0149108586832881));
#586=CARTESIAN_POINT('',(0.0175,0.00587397664785385,0.0149108586832881));
#587=CARTESIAN_POINT('',(0.0175,0.00587397664785385,0.0142653673887253));
#588=CARTESIAN_POINT('',(0.0175,0.,0.0149108586832881));
#589=CARTESIAN_POINT('',(-0.0175,0.,0.0149108586832881));
#590=CARTESIAN_POINT('',(0.0175,0.,0.0149108586832881));
#591=CARTESIAN_POINT('',(0.0175,0.,0.0142653673887253));
#592=CARTESIAN_POINT('',(0.01498,0.00545374136418104,0.011898986982237));
#593=CARTESIAN_POINT('',(0.01498,0.00545374136418104,0.011898986982237));
#594=CARTESIAN_POINT('',(0.01498,0.00545374136418104,0.00916568075499764));
#595=CARTESIAN_POINT('',(0.01442,0.00545374136418104,0.011898986982237));
#596=CARTESIAN_POINT('',(0.01442,0.00545374136418104,0.00916568075499764));
#597=CARTESIAN_POINT('',(0.01498,0.00545374136418104,0.00916568075499764));
#598=CARTESIAN_POINT('',(0.01498,0.000523170358810881,0.0115826270412993));
#599=CARTESIAN_POINT('',(0.01442,0.000523170358810881,0.0115826270412993));
#600=CARTESIAN_POINT('',(0.01498,0.000523170358810881,0.0115826270412993));
#601=CARTESIAN_POINT('',(0.01498,0.000256068060267265,0.0112458122287825));
#602=CARTESIAN_POINT('',(0.01498,0.000256068060267265,0.0112458122287825));
#603=CARTESIAN_POINT('',(0.01498,0.00587374136418104,0.00849205112996411));
#604=CARTESIAN_POINT('',(0.01442,0.000256068060267265,0.0112458122287825));
#605=CARTESIAN_POINT('',(0.01442,0.00587374136418104,0.00849205112996411));
#606=CARTESIAN_POINT('',(0.01498,0.00587374136418104,0.00849205112996411));
#607=CARTESIAN_POINT('',(0.01498,0.000255244628563527,0.0115621721697202));
#608=CARTESIAN_POINT('',(0.01498,0.00587374136418104,0.00872592477814706));
#609=CARTESIAN_POINT('',(0.01442,0.000255244628563527,0.0115621721697202));
#610=CARTESIAN_POINT('',(0.01442,0.00587374136418104,0.00872592477814706));
#611=CARTESIAN_POINT('',(0.01498,0.00587374136418104,0.00872592477814706));
#612=CARTESIAN_POINT('',(-0.0175,0.,0.0142653673887253));
#613=CARTESIAN_POINT('',(-0.01498,0.00545374136418104,0.011898986982237));
#614=CARTESIAN_POINT('',(-0.01498,0.00545374136418104,0.011898986982237));
#615=CARTESIAN_POINT('',(-0.01498,0.00545374136418104,0.00916568075499764));
#616=CARTESIAN_POINT('',(-0.01498,0.00545374136418104,0.00916568075499764));
#617=CARTESIAN_POINT('',(-0.01442,0.00545374136418104,0.00916568075499764));
#618=CARTESIAN_POINT('',(-0.01442,0.00545374136418104,0.011898986982237));
#619=CARTESIAN_POINT('',(-0.01498,0.000523170358810881,0.0115826270412993));
#620=CARTESIAN_POINT('',(-0.01442,0.000523170358810881,0.0115826270412993));
#621=CARTESIAN_POINT('',(-0.01498,0.000523170358810881,0.0115826270412993));
#622=CARTESIAN_POINT('',(-0.01498,0.000256068060267265,0.0112458122287825));
#623=CARTESIAN_POINT('',(-0.01498,0.000256068060267265,0.0112458122287825));
#624=CARTESIAN_POINT('',(-0.01498,0.00587374136418104,0.00849205112996411));
#625=CARTESIAN_POINT('',(-0.01498,0.00587374136418104,0.00849205112996411));
#626=CARTESIAN_POINT('',(-0.01442,0.00587374136418104,0.00849205112996411));
#627=CARTESIAN_POINT('',(-0.01442,0.000256068060267265,0.0112458122287825));
#628=CARTESIAN_POINT('',(-0.01498,0.000255244628563527,0.0115621721697202));
#629=CARTESIAN_POINT('',(-0.01498,0.00587374136418104,0.00872592477814706));
#630=CARTESIAN_POINT('',(-0.01442,0.000255244628563527,0.0115621721697202));
#631=CARTESIAN_POINT('',(-0.01442,0.00587374136418104,0.00872592477814706));
#632=CARTESIAN_POINT('',(-0.01498,0.00587374136418104,0.00872592477814706));
#633=MECHANICAL_DESIGN_GEOMETRIC_PRESENTATION_REPRESENTATION('',(#377,#352,
#353,#354,#355,#356,#357),#634);
#634=(
GEOMETRIC_REPRESENTATION_CONTEXT(3)
GLOBAL_UNCERTAINTY_ASSIGNED_CONTEXT((#635))
GLOBAL_UNIT_ASSIGNED_CONTEXT((#638,#637,#636))
REPRESENTATION_CONTEXT('Part 1','TOP_LEVEL_ASSEMBLY_PART')
);
#635=UNCERTAINTY_MEASURE_WITH_UNIT(LENGTH_MEASURE(1.41176418364043E-5),
#638,'DISTANCE_ACCURACY_VALUE','Maximum Tolerance applied to model');
#636=(
NAMED_UNIT(*)
SI_UNIT($,.STERADIAN.)
SOLID_ANGLE_UNIT()
);
#637=(
NAMED_UNIT(*)
PLANE_ANGLE_UNIT()
SI_UNIT($,.RADIAN.)
);
#638=(
LENGTH_UNIT()
NAMED_UNIT(*)
SI_UNIT($,.METRE.)
);
#639=PRODUCT_DEFINITION_SHAPE('','',#640);
#640=PRODUCT_DEFINITION('','',#642,#641);
#641=PRODUCT_DEFINITION_CONTEXT('',#648,'design');
#642=PRODUCT_DEFINITION_FORMATION_WITH_SPECIFIED_SOURCE('','',#644,
 .NOT_KNOWN.);
#643=PRODUCT_RELATED_PRODUCT_CATEGORY('','',(#644));
#644=PRODUCT('Part 1','Part 1','Part 1',(#646));
#645=PRODUCT_CATEGORY('','');
#646=PRODUCT_CONTEXT('',#648,'mechanical');
#647=APPLICATION_PROTOCOL_DEFINITION('international standard',
'ap242_managed_model_based_3d_engineering',2020,#648);
#648=APPLICATION_CONTEXT('managed model based 3d engineering');
ENDSEC;
END-ISO-10303-21;
