ISO-10303-21;
HEADER;
/* Generated by software containing ST-Developer
 * from STEP Tools, Inc. (www.steptools.com) 
 */
/* OPTION: using custom renumber hook */

FILE_DESCRIPTION(
/* description */ ('STEP AP242 Edition 2',
'CAx-IF Rec.Pracs.---Representation and Presentation of Product Manufa
cturing Information (PMI)---4.0---2014-10-13',
'CAx-IF Rec.Pracs.---3D Tessellated Geometry---0.4---2014-09-14','2;1',
'CAx-IF Rec.Pracs.---User Defined Attributes---1.5---2016-08-15'),
/* implementation_level */ '2;1');

FILE_NAME(
/* name */ 'side-windows - Part 3',
/* time_stamp */ '2026-09-07T14:06:29Z',
/* author */ (''),
/* organization */ (''),
/* preprocessor_version */ 'ST-DEVELOPER v20',
/* originating_system */ 'ONSHAPE BY PTC INC, 1.220',
/* authorisation */ '  ');

FILE_SCHEMA (('AP242_MANAGED_MODEL_BASED_3D_ENGINEERING_MIM_LF { 1 0 10303 442 3 1 4 }'));
ENDSEC;

DATA;
#10=SHAPE_REPRESENTATION_RELATIONSHIP('','',#645,#11);
#11=ADVANCED_BREP_SHAPE_REPRESENTATION('',(#643),#1201);
#12=B_SPLINE_CURVE_WITH_KNOTS('',5,(#1091,#1092,#1093,#1094,#1095,#1096),
 .UNSPECIFIED.,.F.,.F.,(6,6),(0.,1.),.PIECEWISE_BEZIER_KNOTS.);
#13=B_SPLINE_CURVE_WITH_KNOTS('',5,(#1098,#1099,#1100,#1101,#1102,#1103),
 .UNSPECIFIED.,.F.,.F.,(6,6),(0.,1.),.PIECEWISE_BEZIER_KNOTS.);
#14=B_SPLINE_SURFACE_WITH_KNOTS('',3,3,((#995,#996,#997,#998,#999,#1000,
#1001,#1002,#1003,#1004,#1005,#1006,#1007,#1008,#1009,#1010),(#1011,#1012,
#1013,#1014,#1015,#1016,#1017,#1018,#1019,#1020,#1021,#1022,#1023,#1024,
#1025,#1026),(#1027,#1028,#1029,#1030,#1031,#1032,#1033,#1034,#1035,#1036,
#1037,#1038,#1039,#1040,#1041,#1042),(#1043,#1044,#1045,#1046,#1047,#1048,
#1049,#1050,#1051,#1052,#1053,#1054,#1055,#1056,#1057,#1058),(#1059,#1060,
#1061,#1062,#1063,#1064,#1065,#1066,#1067,#1068,#1069,#1070,#1071,#1072,
#1073,#1074),(#1075,#1076,#1077,#1078,#1079,#1080,#1081,#1082,#1083,#1084,
#1085,#1086,#1087,#1088,#1089,#1090)),.UNSPECIFIED.,.F.,.F.,.F.,(4,2,4),
(4,1,2,2,2,2,1,2,4),(0.,0.5,1.),(0.,0.0625,0.125,0.25,0.375,0.5,0.75,0.875,
1.),.UNSPECIFIED.);
#15=B_SPLINE_SURFACE_WITH_KNOTS('',3,3,((#1104,#1105,#1106,#1107,#1108,
#1109,#1110,#1111,#1112,#1113,#1114,#1115,#1116,#1117,#1118,#1119),(#1120,
#1121,#1122,#1123,#1124,#1125,#1126,#1127,#1128,#1129,#1130,#1131,#1132,
#1133,#1134,#1135),(#1136,#1137,#1138,#1139,#1140,#1141,#1142,#1143,#1144,
#1145,#1146,#1147,#1148,#1149,#1150,#1151),(#1152,#1153,#1154,#1155,#1156,
#1157,#1158,#1159,#1160,#1161,#1162,#1163,#1164,#1165,#1166,#1167),(#1168,
#1169,#1170,#1171,#1172,#1173,#1174,#1175,#1176,#1177,#1178,#1179,#1180,
#1181,#1182,#1183),(#1184,#1185,#1186,#1187,#1188,#1189,#1190,#1191,#1192,
#1193,#1194,#1195,#1196,#1197,#1198,#1199)),.UNSPECIFIED.,.F.,.F.,.F.,(4,
2,4),(4,1,2,2,2,2,1,2,4),(0.,0.5,1.),(0.,0.0625,0.125,0.25,0.375,0.5,0.75,
0.875,1.),.UNSPECIFIED.);
#16=ORIENTED_EDGE('',*,*,#192,.T.);
#17=ORIENTED_EDGE('',*,*,#193,.F.);
#18=ORIENTED_EDGE('',*,*,#194,.F.);
#19=ORIENTED_EDGE('',*,*,#195,.T.);
#20=ORIENTED_EDGE('',*,*,#196,.T.);
#21=ORIENTED_EDGE('',*,*,#197,.T.);
#22=ORIENTED_EDGE('',*,*,#198,.T.);
#23=ORIENTED_EDGE('',*,*,#199,.F.);
#24=ORIENTED_EDGE('',*,*,#200,.T.);
#25=ORIENTED_EDGE('',*,*,#201,.F.);
#26=ORIENTED_EDGE('',*,*,#202,.F.);
#27=ORIENTED_EDGE('',*,*,#203,.T.);
#28=ORIENTED_EDGE('',*,*,#204,.T.);
#29=ORIENTED_EDGE('',*,*,#205,.F.);
#30=ORIENTED_EDGE('',*,*,#206,.F.);
#31=ORIENTED_EDGE('',*,*,#207,.F.);
#32=ORIENTED_EDGE('',*,*,#208,.F.);
#33=ORIENTED_EDGE('',*,*,#209,.F.);
#34=ORIENTED_EDGE('',*,*,#210,.F.);
#35=ORIENTED_EDGE('',*,*,#211,.F.);
#36=ORIENTED_EDGE('',*,*,#212,.F.);
#37=ORIENTED_EDGE('',*,*,#213,.T.);
#38=ORIENTED_EDGE('',*,*,#214,.F.);
#39=ORIENTED_EDGE('',*,*,#215,.F.);
#40=ORIENTED_EDGE('',*,*,#216,.F.);
#41=ORIENTED_EDGE('',*,*,#217,.F.);
#42=ORIENTED_EDGE('',*,*,#218,.F.);
#43=ORIENTED_EDGE('',*,*,#219,.F.);
#44=ORIENTED_EDGE('',*,*,#220,.F.);
#45=ORIENTED_EDGE('',*,*,#221,.F.);
#46=ORIENTED_EDGE('',*,*,#222,.F.);
#47=ORIENTED_EDGE('',*,*,#204,.F.);
#48=ORIENTED_EDGE('',*,*,#223,.T.);
#49=ORIENTED_EDGE('',*,*,#224,.T.);
#50=ORIENTED_EDGE('',*,*,#225,.T.);
#51=ORIENTED_EDGE('',*,*,#224,.F.);
#52=ORIENTED_EDGE('',*,*,#226,.F.);
#53=ORIENTED_EDGE('',*,*,#227,.T.);
#54=ORIENTED_EDGE('',*,*,#228,.T.);
#55=ORIENTED_EDGE('',*,*,#227,.F.);
#56=ORIENTED_EDGE('',*,*,#229,.F.);
#57=ORIENTED_EDGE('',*,*,#202,.T.);
#58=ORIENTED_EDGE('',*,*,#203,.F.);
#59=ORIENTED_EDGE('',*,*,#229,.T.);
#60=ORIENTED_EDGE('',*,*,#226,.T.);
#61=ORIENTED_EDGE('',*,*,#223,.F.);
#62=ORIENTED_EDGE('',*,*,#230,.F.);
#63=ORIENTED_EDGE('',*,*,#205,.T.);
#64=ORIENTED_EDGE('',*,*,#222,.T.);
#65=ORIENTED_EDGE('',*,*,#225,.F.);
#66=ORIENTED_EDGE('',*,*,#228,.F.);
#67=ORIENTED_EDGE('',*,*,#201,.T.);
#68=ORIENTED_EDGE('',*,*,#231,.F.);
#69=ORIENTED_EDGE('',*,*,#232,.F.);
#70=ORIENTED_EDGE('',*,*,#233,.T.);
#71=ORIENTED_EDGE('',*,*,#193,.T.);
#72=ORIENTED_EDGE('',*,*,#234,.F.);
#73=ORIENTED_EDGE('',*,*,#235,.F.);
#74=ORIENTED_EDGE('',*,*,#236,.F.);
#75=ORIENTED_EDGE('',*,*,#199,.T.);
#76=ORIENTED_EDGE('',*,*,#237,.F.);
#77=ORIENTED_EDGE('',*,*,#238,.F.);
#78=ORIENTED_EDGE('',*,*,#239,.F.);
#79=ORIENTED_EDGE('',*,*,#240,.T.);
#80=ORIENTED_EDGE('',*,*,#214,.T.);
#81=ORIENTED_EDGE('',*,*,#241,.F.);
#82=ORIENTED_EDGE('',*,*,#242,.T.);
#83=ORIENTED_EDGE('',*,*,#241,.T.);
#84=ORIENTED_EDGE('',*,*,#213,.F.);
#85=ORIENTED_EDGE('',*,*,#243,.F.);
#86=ORIENTED_EDGE('',*,*,#211,.T.);
#87=ORIENTED_EDGE('',*,*,#244,.T.);
#88=ORIENTED_EDGE('',*,*,#245,.F.);
#89=ORIENTED_EDGE('',*,*,#246,.F.);
#90=ORIENTED_EDGE('',*,*,#215,.T.);
#91=ORIENTED_EDGE('',*,*,#240,.F.);
#92=ORIENTED_EDGE('',*,*,#247,.F.);
#93=ORIENTED_EDGE('',*,*,#248,.F.);
#94=ORIENTED_EDGE('',*,*,#249,.F.);
#95=ORIENTED_EDGE('',*,*,#250,.T.);
#96=ORIENTED_EDGE('',*,*,#217,.T.);
#97=ORIENTED_EDGE('',*,*,#251,.F.);
#98=ORIENTED_EDGE('',*,*,#209,.T.);
#99=ORIENTED_EDGE('',*,*,#252,.F.);
#100=ORIENTED_EDGE('',*,*,#253,.F.);
#101=ORIENTED_EDGE('',*,*,#254,.F.);
#102=ORIENTED_EDGE('',*,*,#255,.F.);
#103=ORIENTED_EDGE('',*,*,#256,.F.);
#104=ORIENTED_EDGE('',*,*,#219,.T.);
#105=ORIENTED_EDGE('',*,*,#257,.F.);
#106=ORIENTED_EDGE('',*,*,#230,.T.);
#107=ORIENTED_EDGE('',*,*,#258,.F.);
#108=ORIENTED_EDGE('',*,*,#259,.F.);
#109=ORIENTED_EDGE('',*,*,#206,.T.);
#110=ORIENTED_EDGE('',*,*,#207,.T.);
#111=ORIENTED_EDGE('',*,*,#259,.T.);
#112=ORIENTED_EDGE('',*,*,#260,.F.);
#113=ORIENTED_EDGE('',*,*,#261,.F.);
#114=ORIENTED_EDGE('',*,*,#231,.T.);
#115=ORIENTED_EDGE('',*,*,#200,.F.);
#116=ORIENTED_EDGE('',*,*,#262,.F.);
#117=ORIENTED_EDGE('',*,*,#263,.T.);
#118=ORIENTED_EDGE('',*,*,#264,.F.);
#119=ORIENTED_EDGE('',*,*,#262,.T.);
#120=ORIENTED_EDGE('',*,*,#221,.T.);
#121=ORIENTED_EDGE('',*,*,#265,.F.);
#122=ORIENTED_EDGE('',*,*,#258,.T.);
#123=ORIENTED_EDGE('',*,*,#238,.T.);
#124=ORIENTED_EDGE('',*,*,#266,.F.);
#125=ORIENTED_EDGE('',*,*,#267,.F.);
#126=ORIENTED_EDGE('',*,*,#268,.T.);
#127=ORIENTED_EDGE('',*,*,#232,.T.);
#128=ORIENTED_EDGE('',*,*,#263,.F.);
#129=ORIENTED_EDGE('',*,*,#264,.T.);
#130=ORIENTED_EDGE('',*,*,#269,.F.);
#131=ORIENTED_EDGE('',*,*,#255,.T.);
#132=ORIENTED_EDGE('',*,*,#270,.F.);
#133=ORIENTED_EDGE('',*,*,#249,.T.);
#134=ORIENTED_EDGE('',*,*,#271,.F.);
#135=ORIENTED_EDGE('',*,*,#247,.T.);
#136=ORIENTED_EDGE('',*,*,#239,.T.);
#137=ORIENTED_EDGE('',*,*,#242,.F.);
#138=ORIENTED_EDGE('',*,*,#272,.F.);
#139=ORIENTED_EDGE('',*,*,#245,.T.);
#140=ORIENTED_EDGE('',*,*,#273,.F.);
#141=ORIENTED_EDGE('',*,*,#253,.T.);
#142=ORIENTED_EDGE('',*,*,#274,.F.);
#143=ORIENTED_EDGE('',*,*,#260,.T.);
#144=ORIENTED_EDGE('',*,*,#233,.F.);
#145=ORIENTED_EDGE('',*,*,#268,.F.);
#146=ORIENTED_EDGE('',*,*,#275,.T.);
#147=ORIENTED_EDGE('',*,*,#194,.T.);
#148=ORIENTED_EDGE('',*,*,#237,.T.);
#149=ORIENTED_EDGE('',*,*,#198,.F.);
#150=ORIENTED_EDGE('',*,*,#276,.F.);
#151=ORIENTED_EDGE('',*,*,#266,.T.);
#152=ORIENTED_EDGE('',*,*,#267,.T.);
#153=ORIENTED_EDGE('',*,*,#276,.T.);
#154=ORIENTED_EDGE('',*,*,#197,.F.);
#155=ORIENTED_EDGE('',*,*,#277,.T.);
#156=ORIENTED_EDGE('',*,*,#195,.F.);
#157=ORIENTED_EDGE('',*,*,#275,.F.);
#158=ORIENTED_EDGE('',*,*,#274,.T.);
#159=ORIENTED_EDGE('',*,*,#252,.T.);
#160=ORIENTED_EDGE('',*,*,#208,.T.);
#161=ORIENTED_EDGE('',*,*,#261,.T.);
#162=ORIENTED_EDGE('',*,*,#220,.T.);
#163=ORIENTED_EDGE('',*,*,#256,.T.);
#164=ORIENTED_EDGE('',*,*,#269,.T.);
#165=ORIENTED_EDGE('',*,*,#265,.T.);
#166=ORIENTED_EDGE('',*,*,#210,.T.);
#167=ORIENTED_EDGE('',*,*,#254,.T.);
#168=ORIENTED_EDGE('',*,*,#273,.T.);
#169=ORIENTED_EDGE('',*,*,#244,.F.);
#170=ORIENTED_EDGE('',*,*,#270,.T.);
#171=ORIENTED_EDGE('',*,*,#257,.T.);
#172=ORIENTED_EDGE('',*,*,#218,.T.);
#173=ORIENTED_EDGE('',*,*,#250,.F.);
#174=ORIENTED_EDGE('',*,*,#272,.T.);
#175=ORIENTED_EDGE('',*,*,#243,.T.);
#176=ORIENTED_EDGE('',*,*,#212,.T.);
#177=ORIENTED_EDGE('',*,*,#246,.T.);
#178=ORIENTED_EDGE('',*,*,#271,.T.);
#179=ORIENTED_EDGE('',*,*,#251,.T.);
#180=ORIENTED_EDGE('',*,*,#216,.T.);
#181=ORIENTED_EDGE('',*,*,#248,.T.);
#182=ORIENTED_EDGE('',*,*,#278,.F.);
#183=ORIENTED_EDGE('',*,*,#196,.F.);
#184=ORIENTED_EDGE('',*,*,#236,.T.);
#185=ORIENTED_EDGE('',*,*,#279,.F.);
#186=ORIENTED_EDGE('',*,*,#277,.F.);
#187=ORIENTED_EDGE('',*,*,#278,.T.);
#188=ORIENTED_EDGE('',*,*,#235,.T.);
#189=ORIENTED_EDGE('',*,*,#234,.T.);
#190=ORIENTED_EDGE('',*,*,#192,.F.);
#191=ORIENTED_EDGE('',*,*,#279,.T.);
#192=EDGE_CURVE('',#280,#281,#338,.F.);
#193=EDGE_CURVE('',#282,#281,#339,.T.);
#194=EDGE_CURVE('',#283,#282,#340,.T.);
#195=EDGE_CURVE('',#283,#280,#341,.T.);
#196=EDGE_CURVE('',#284,#285,#342,.T.);
#197=EDGE_CURVE('',#285,#286,#343,.T.);
#198=EDGE_CURVE('',#286,#287,#344,.T.);
#199=EDGE_CURVE('',#284,#287,#345,.T.);
#200=EDGE_CURVE('',#288,#289,#346,.T.);
#201=EDGE_CURVE('',#290,#289,#347,.T.);
#202=EDGE_CURVE('',#291,#290,#348,.T.);
#203=EDGE_CURVE('',#291,#292,#349,.T.);
#204=EDGE_CURVE('',#292,#293,#350,.T.);
#205=EDGE_CURVE('',#294,#293,#351,.T.);
#206=EDGE_CURVE('',#295,#294,#352,.T.);
#207=EDGE_CURVE('',#296,#295,#353,.T.);
#208=EDGE_CURVE('',#297,#296,#354,.F.);
#209=EDGE_CURVE('',#298,#297,#355,.T.);
#210=EDGE_CURVE('',#299,#298,#356,.T.);
#211=EDGE_CURVE('',#300,#299,#357,.T.);
#212=EDGE_CURVE('',#301,#300,#358,.F.);
#213=EDGE_CURVE('',#301,#302,#359,.T.);
#214=EDGE_CURVE('',#303,#302,#360,.T.);
#215=EDGE_CURVE('',#304,#303,#361,.T.);
#216=EDGE_CURVE('',#305,#304,#362,.T.);
#217=EDGE_CURVE('',#306,#305,#363,.T.);
#218=EDGE_CURVE('',#307,#306,#364,.T.);
#219=EDGE_CURVE('',#308,#307,#365,.T.);
#220=EDGE_CURVE('',#309,#308,#366,.F.);
#221=EDGE_CURVE('',#288,#309,#367,.T.);
#222=EDGE_CURVE('',#293,#310,#368,.T.);
#223=EDGE_CURVE('',#292,#311,#369,.T.);
#224=EDGE_CURVE('',#311,#310,#370,.T.);
#225=EDGE_CURVE('',#312,#310,#371,.T.);
#226=EDGE_CURVE('',#313,#311,#372,.T.);
#227=EDGE_CURVE('',#313,#312,#373,.T.);
#228=EDGE_CURVE('',#290,#312,#374,.T.);
#229=EDGE_CURVE('',#291,#313,#375,.T.);
#230=EDGE_CURVE('',#294,#314,#376,.T.);
#231=EDGE_CURVE('',#315,#289,#377,.T.);
#232=EDGE_CURVE('',#316,#315,#378,.T.);
#233=EDGE_CURVE('',#316,#282,#379,.T.);
#234=EDGE_CURVE('',#317,#281,#380,.F.);
#235=EDGE_CURVE('',#318,#317,#381,.F.);
#236=EDGE_CURVE('',#284,#318,#382,.T.);
#237=EDGE_CURVE('',#319,#287,#383,.T.);
#238=EDGE_CURVE('',#314,#319,#384,.T.);
#239=EDGE_CURVE('',#320,#321,#385,.T.);
#240=EDGE_CURVE('',#320,#303,#386,.T.);
#241=EDGE_CURVE('',#321,#302,#387,.T.);
#242=EDGE_CURVE('',#322,#321,#388,.T.);
#243=EDGE_CURVE('',#322,#301,#389,.T.);
#244=EDGE_CURVE('',#299,#323,#390,.T.);
#245=EDGE_CURVE('',#324,#323,#391,.T.);
#246=EDGE_CURVE('',#300,#324,#392,.T.);
#247=EDGE_CURVE('',#325,#320,#393,.T.);
#248=EDGE_CURVE('',#304,#325,#394,.T.);
#249=EDGE_CURVE('',#326,#327,#395,.T.);
#250=EDGE_CURVE('',#326,#306,#396,.T.);
#251=EDGE_CURVE('',#327,#305,#397,.T.);
#252=EDGE_CURVE('',#328,#297,#398,.T.);
#253=EDGE_CURVE('',#329,#328,#399,.T.);
#254=EDGE_CURVE('',#298,#329,#400,.T.);
#255=EDGE_CURVE('',#330,#331,#401,.T.);
#256=EDGE_CURVE('',#308,#330,#402,.T.);
#257=EDGE_CURVE('',#331,#307,#403,.T.);
#258=EDGE_CURVE('',#332,#314,#404,.T.);
#259=EDGE_CURVE('',#295,#332,#405,.T.);
#260=EDGE_CURVE('',#333,#332,#406,.T.);
#261=EDGE_CURVE('',#296,#333,#407,.T.);
#262=EDGE_CURVE('',#334,#288,#408,.T.);
#263=EDGE_CURVE('',#334,#315,#409,.T.);
#264=EDGE_CURVE('',#334,#335,#410,.T.);
#265=EDGE_CURVE('',#335,#309,#411,.T.);
#266=EDGE_CURVE('',#336,#319,#412,.T.);
#267=EDGE_CURVE('',#337,#336,#413,.T.);
#268=EDGE_CURVE('',#337,#316,#414,.T.);
#269=EDGE_CURVE('',#330,#335,#415,.F.);
#270=EDGE_CURVE('',#326,#331,#416,.T.);
#271=EDGE_CURVE('',#325,#327,#417,.T.);
#272=EDGE_CURVE('',#324,#322,#418,.F.);
#273=EDGE_CURVE('',#329,#323,#419,.T.);
#274=EDGE_CURVE('',#333,#328,#420,.F.);
#275=EDGE_CURVE('',#337,#283,#421,.T.);
#276=EDGE_CURVE('',#336,#286,#422,.T.);
#277=EDGE_CURVE('',#285,#280,#423,.F.);
#278=EDGE_CURVE('',#285,#318,#12,.T.);
#279=EDGE_CURVE('',#280,#317,#13,.T.);
#280=VERTEX_POINT('',#825);
#281=VERTEX_POINT('',#826);
#282=VERTEX_POINT('',#828);
#283=VERTEX_POINT('',#830);
#284=VERTEX_POINT('',#834);
#285=VERTEX_POINT('',#835);
#286=VERTEX_POINT('',#837);
#287=VERTEX_POINT('',#839);
#288=VERTEX_POINT('',#843);
#289=VERTEX_POINT('',#844);
#290=VERTEX_POINT('',#846);
#291=VERTEX_POINT('',#848);
#292=VERTEX_POINT('',#850);
#293=VERTEX_POINT('',#852);
#294=VERTEX_POINT('',#854);
#295=VERTEX_POINT('',#856);
#296=VERTEX_POINT('',#858);
#297=VERTEX_POINT('',#860);
#298=VERTEX_POINT('',#862);
#299=VERTEX_POINT('',#864);
#300=VERTEX_POINT('',#866);
#301=VERTEX_POINT('',#868);
#302=VERTEX_POINT('',#870);
#303=VERTEX_POINT('',#872);
#304=VERTEX_POINT('',#874);
#305=VERTEX_POINT('',#876);
#306=VERTEX_POINT('',#878);
#307=VERTEX_POINT('',#880);
#308=VERTEX_POINT('',#882);
#309=VERTEX_POINT('',#884);
#310=VERTEX_POINT('',#888);
#311=VERTEX_POINT('',#890);
#312=VERTEX_POINT('',#894);
#313=VERTEX_POINT('',#896);
#314=VERTEX_POINT('',#904);
#315=VERTEX_POINT('',#906);
#316=VERTEX_POINT('',#908);
#317=VERTEX_POINT('',#911);
#318=VERTEX_POINT('',#913);
#319=VERTEX_POINT('',#916);
#320=VERTEX_POINT('',#919);
#321=VERTEX_POINT('',#920);
#322=VERTEX_POINT('',#925);
#323=VERTEX_POINT('',#929);
#324=VERTEX_POINT('',#931);
#325=VERTEX_POINT('',#935);
#326=VERTEX_POINT('',#939);
#327=VERTEX_POINT('',#940);
#328=VERTEX_POINT('',#945);
#329=VERTEX_POINT('',#947);
#330=VERTEX_POINT('',#951);
#331=VERTEX_POINT('',#952);
#332=VERTEX_POINT('',#957);
#333=VERTEX_POINT('',#961);
#334=VERTEX_POINT('',#965);
#335=VERTEX_POINT('',#969);
#336=VERTEX_POINT('',#973);
#337=VERTEX_POINT('',#975);
#338=LINE('',#824,#424);
#339=LINE('',#827,#425);
#340=LINE('',#829,#426);
#341=LINE('',#831,#427);
#342=LINE('',#833,#428);
#343=LINE('',#836,#429);
#344=LINE('',#838,#430);
#345=LINE('',#840,#431);
#346=LINE('',#842,#432);
#347=LINE('',#845,#433);
#348=LINE('',#847,#434);
#349=LINE('',#849,#435);
#350=LINE('',#851,#436);
#351=LINE('',#853,#437);
#352=LINE('',#855,#438);
#353=LINE('',#857,#439);
#354=LINE('',#859,#440);
#355=LINE('',#861,#441);
#356=LINE('',#863,#442);
#357=LINE('',#865,#443);
#358=LINE('',#867,#444);
#359=LINE('',#869,#445);
#360=LINE('',#871,#446);
#361=LINE('',#873,#447);
#362=LINE('',#875,#448);
#363=LINE('',#877,#449);
#364=LINE('',#879,#450);
#365=LINE('',#881,#451);
#366=LINE('',#883,#452);
#367=LINE('',#885,#453);
#368=LINE('',#887,#454);
#369=LINE('',#889,#455);
#370=LINE('',#891,#456);
#371=LINE('',#893,#457);
#372=LINE('',#895,#458);
#373=LINE('',#897,#459);
#374=LINE('',#899,#460);
#375=LINE('',#900,#461);
#376=LINE('',#903,#462);
#377=LINE('',#905,#463);
#378=LINE('',#907,#464);
#379=LINE('',#909,#465);
#380=LINE('',#910,#466);
#381=LINE('',#912,#467);
#382=LINE('',#914,#468);
#383=LINE('',#915,#469);
#384=LINE('',#917,#470);
#385=LINE('',#918,#471);
#386=LINE('',#921,#472);
#387=LINE('',#922,#473);
#388=LINE('',#924,#474);
#389=LINE('',#926,#475);
#390=LINE('',#928,#476);
#391=LINE('',#930,#477);
#392=LINE('',#932,#478);
#393=LINE('',#934,#479);
#394=LINE('',#936,#480);
#395=LINE('',#938,#481);
#396=LINE('',#941,#482);
#397=LINE('',#942,#483);
#398=LINE('',#944,#484);
#399=LINE('',#946,#485);
#400=LINE('',#948,#486);
#401=LINE('',#950,#487);
#402=LINE('',#953,#488);
#403=LINE('',#954,#489);
#404=LINE('',#956,#490);
#405=LINE('',#958,#491);
#406=LINE('',#960,#492);
#407=LINE('',#962,#493);
#408=LINE('',#964,#494);
#409=LINE('',#966,#495);
#410=LINE('',#968,#496);
#411=LINE('',#970,#497);
#412=LINE('',#972,#498);
#413=LINE('',#974,#499);
#414=LINE('',#976,#500);
#415=LINE('',#977,#501);
#416=LINE('',#978,#502);
#417=LINE('',#979,#503);
#418=LINE('',#980,#504);
#419=LINE('',#981,#505);
#420=LINE('',#982,#506);
#421=LINE('',#984,#507);
#422=LINE('',#986,#508);
#423=LINE('',#988,#509);
#424=VECTOR('',#680,1.);
#425=VECTOR('',#681,1.);
#426=VECTOR('',#682,1.);
#427=VECTOR('',#683,1.);
#428=VECTOR('',#686,1.);
#429=VECTOR('',#687,1.);
#430=VECTOR('',#688,1.);
#431=VECTOR('',#689,1.);
#432=VECTOR('',#692,1.);
#433=VECTOR('',#693,1.);
#434=VECTOR('',#694,1.);
#435=VECTOR('',#695,1.);
#436=VECTOR('',#696,1.);
#437=VECTOR('',#697,1.);
#438=VECTOR('',#698,1.);
#439=VECTOR('',#699,1.);
#440=VECTOR('',#700,1.);
#441=VECTOR('',#701,1.);
#442=VECTOR('',#702,1.);
#443=VECTOR('',#703,1.);
#444=VECTOR('',#704,1.);
#445=VECTOR('',#705,1.);
#446=VECTOR('',#706,1.);
#447=VECTOR('',#707,1.);
#448=VECTOR('',#708,1.);
#449=VECTOR('',#709,1.);
#450=VECTOR('',#710,1.);
#451=VECTOR('',#711,1.);
#452=VECTOR('',#712,1.);
#453=VECTOR('',#713,1.);
#454=VECTOR('',#716,1.);
#455=VECTOR('',#717,1.);
#456=VECTOR('',#718,1.);
#457=VECTOR('',#721,1.);
#458=VECTOR('',#722,1.);
#459=VECTOR('',#723,1.);
#460=VECTOR('',#726,1.);
#461=VECTOR('',#727,1.);
#462=VECTOR('',#732,1.);
#463=VECTOR('',#733,1.);
#464=VECTOR('',#734,1.);
#465=VECTOR('',#735,1.);
#466=VECTOR('',#736,1.);
#467=VECTOR('',#737,1.);
#468=VECTOR('',#738,1.);
#469=VECTOR('',#739,1.);
#470=VECTOR('',#740,1.);
#471=VECTOR('',#741,1.);
#472=VECTOR('',#742,1.);
#473=VECTOR('',#743,1.);
#474=VECTOR('',#746,1.);
#475=VECTOR('',#747,1.);
#476=VECTOR('',#750,1.);
#477=VECTOR('',#751,1.);
#478=VECTOR('',#752,1.);
#479=VECTOR('',#755,1.);
#480=VECTOR('',#756,1.);
#481=VECTOR('',#759,1.);
#482=VECTOR('',#760,1.);
#483=VECTOR('',#761,1.);
#484=VECTOR('',#764,1.);
#485=VECTOR('',#765,1.);
#486=VECTOR('',#766,1.);
#487=VECTOR('',#769,1.);
#488=VECTOR('',#770,1.);
#489=VECTOR('',#771,1.);
#490=VECTOR('',#774,1.);
#491=VECTOR('',#775,1.);
#492=VECTOR('',#778,1.);
#493=VECTOR('',#779,1.);
#494=VECTOR('',#782,1.);
#495=VECTOR('',#783,1.);
#496=VECTOR('',#786,1.);
#497=VECTOR('',#787,1.);
#498=VECTOR('',#790,1.);
#499=VECTOR('',#791,1.);
#500=VECTOR('',#792,1.);
#501=VECTOR('',#793,1.);
#502=VECTOR('',#794,1.);
#503=VECTOR('',#795,1.);
#504=VECTOR('',#796,1.);
#505=VECTOR('',#797,1.);
#506=VECTOR('',#798,1.);
#507=VECTOR('',#801,1.);
#508=VECTOR('',#804,1.);
#509=VECTOR('',#807,1.);
#510=EDGE_LOOP('',(#16,#17,#18,#19));
#511=EDGE_LOOP('',(#20,#21,#22,#23));
#512=EDGE_LOOP('',(#24,#25,#26,#27,#28,#29,#30,#31,#32,#33,#34,#35,#36,
#37,#38,#39,#40,#41,#42,#43,#44,#45));
#513=EDGE_LOOP('',(#46,#47,#48,#49));
#514=EDGE_LOOP('',(#50,#51,#52,#53));
#515=EDGE_LOOP('',(#54,#55,#56,#57));
#516=EDGE_LOOP('',(#58,#59,#60,#61));
#517=EDGE_LOOP('',(#62,#63,#64,#65,#66,#67,#68,#69,#70,#71,#72,#73,#74,
#75,#76,#77));
#518=EDGE_LOOP('',(#78,#79,#80,#81));
#519=EDGE_LOOP('',(#82,#83,#84,#85));
#520=EDGE_LOOP('',(#86,#87,#88,#89));
#521=EDGE_LOOP('',(#90,#91,#92,#93));
#522=EDGE_LOOP('',(#94,#95,#96,#97));
#523=EDGE_LOOP('',(#98,#99,#100,#101));
#524=EDGE_LOOP('',(#102,#103,#104,#105));
#525=EDGE_LOOP('',(#106,#107,#108,#109));
#526=EDGE_LOOP('',(#110,#111,#112,#113));
#527=EDGE_LOOP('',(#114,#115,#116,#117));
#528=EDGE_LOOP('',(#118,#119,#120,#121));
#529=EDGE_LOOP('',(#122,#123,#124,#125,#126,#127,#128,#129,#130,#131,#132,
#133,#134,#135,#136,#137,#138,#139,#140,#141,#142,#143));
#530=EDGE_LOOP('',(#144,#145,#146,#147));
#531=EDGE_LOOP('',(#148,#149,#150,#151));
#532=EDGE_LOOP('',(#152,#153,#154,#155,#156,#157));
#533=EDGE_LOOP('',(#158,#159,#160,#161));
#534=EDGE_LOOP('',(#162,#163,#164,#165));
#535=EDGE_LOOP('',(#166,#167,#168,#169));
#536=EDGE_LOOP('',(#170,#171,#172,#173));
#537=EDGE_LOOP('',(#174,#175,#176,#177));
#538=EDGE_LOOP('',(#178,#179,#180,#181));
#539=EDGE_LOOP('',(#182,#183,#184));
#540=EDGE_LOOP('',(#185,#186,#187,#188));
#541=EDGE_LOOP('',(#189,#190,#191));
#542=FACE_BOUND('',#510,.T.);
#543=FACE_BOUND('',#511,.T.);
#544=FACE_BOUND('',#512,.T.);
#545=FACE_BOUND('',#513,.T.);
#546=FACE_BOUND('',#514,.T.);
#547=FACE_BOUND('',#515,.T.);
#548=FACE_BOUND('',#516,.T.);
#549=FACE_BOUND('',#517,.T.);
#550=FACE_BOUND('',#518,.T.);
#551=FACE_BOUND('',#519,.T.);
#552=FACE_BOUND('',#520,.T.);
#553=FACE_BOUND('',#521,.T.);
#554=FACE_BOUND('',#522,.T.);
#555=FACE_BOUND('',#523,.T.);
#556=FACE_BOUND('',#524,.T.);
#557=FACE_BOUND('',#525,.T.);
#558=FACE_BOUND('',#526,.T.);
#559=FACE_BOUND('',#527,.T.);
#560=FACE_BOUND('',#528,.T.);
#561=FACE_BOUND('',#529,.T.);
#562=FACE_BOUND('',#530,.T.);
#563=FACE_BOUND('',#531,.T.);
#564=FACE_BOUND('',#532,.T.);
#565=FACE_BOUND('',#533,.T.);
#566=FACE_BOUND('',#534,.T.);
#567=FACE_BOUND('',#535,.T.);
#568=FACE_BOUND('',#536,.T.);
#569=FACE_BOUND('',#537,.T.);
#570=FACE_BOUND('',#538,.T.);
#571=FACE_BOUND('',#539,.T.);
#572=FACE_BOUND('',#540,.T.);
#573=FACE_BOUND('',#541,.T.);
#574=PLANE('',#647);
#575=PLANE('',#648);
#576=PLANE('',#649);
#577=PLANE('',#650);
#578=PLANE('',#651);
#579=PLANE('',#652);
#580=PLANE('',#653);
#581=PLANE('',#654);
#582=PLANE('',#655);
#583=PLANE('',#656);
#584=PLANE('',#657);
#585=PLANE('',#658);
#586=PLANE('',#659);
#587=PLANE('',#660);
#588=PLANE('',#661);
#589=PLANE('',#662);
#590=PLANE('',#663);
#591=PLANE('',#664);
#592=PLANE('',#665);
#593=PLANE('',#666);
#594=PLANE('',#667);
#595=PLANE('',#668);
#596=PLANE('',#669);
#597=PLANE('',#670);
#598=PLANE('',#671);
#599=PLANE('',#672);
#600=PLANE('',#673);
#601=PLANE('',#674);
#602=PLANE('',#675);
#603=ADVANCED_FACE('',(#542),#574,.F.);
#604=ADVANCED_FACE('',(#543),#575,.F.);
#605=ADVANCED_FACE('',(#544),#576,.F.);
#606=ADVANCED_FACE('',(#545),#577,.F.);
#607=ADVANCED_FACE('',(#546),#578,.T.);
#608=ADVANCED_FACE('',(#547),#579,.T.);
#609=ADVANCED_FACE('',(#548),#580,.T.);
#610=ADVANCED_FACE('',(#549,#550),#581,.F.);
#611=ADVANCED_FACE('',(#551),#582,.T.);
#612=ADVANCED_FACE('',(#552),#583,.T.);
#613=ADVANCED_FACE('',(#553),#584,.F.);
#614=ADVANCED_FACE('',(#554),#585,.T.);
#615=ADVANCED_FACE('',(#555),#586,.T.);
#616=ADVANCED_FACE('',(#556),#587,.T.);
#617=ADVANCED_FACE('',(#557),#588,.T.);
#618=ADVANCED_FACE('',(#558),#589,.T.);
#619=ADVANCED_FACE('',(#559),#590,.T.);
#620=ADVANCED_FACE('',(#560),#591,.T.);
#621=ADVANCED_FACE('',(#561),#592,.T.);
#622=ADVANCED_FACE('',(#562),#593,.F.);
#623=ADVANCED_FACE('',(#563),#594,.T.);
#624=ADVANCED_FACE('',(#564),#595,.T.);
#625=ADVANCED_FACE('',(#565),#596,.F.);
#626=ADVANCED_FACE('',(#566),#597,.F.);
#627=ADVANCED_FACE('',(#567),#598,.T.);
#628=ADVANCED_FACE('',(#568),#599,.T.);
#629=ADVANCED_FACE('',(#569),#600,.F.);
#630=ADVANCED_FACE('',(#570),#601,.T.);
#631=ADVANCED_FACE('',(#571),#14,.F.);
#632=ADVANCED_FACE('',(#572),#602,.F.);
#633=ADVANCED_FACE('',(#573),#15,.F.);
#634=CLOSED_SHELL('',(#603,#604,#605,#606,#607,#608,#609,#610,#611,#612,
#613,#614,#615,#616,#617,#618,#619,#620,#621,#622,#623,#624,#625,#626,#627,
#628,#629,#630,#631,#632,#633));
#635=STYLED_ITEM('',(#636),#643);
#636=PRESENTATION_STYLE_ASSIGNMENT((#637));
#637=SURFACE_STYLE_USAGE(.BOTH.,#638);
#638=SURFACE_SIDE_STYLE('',(#639));
#639=SURFACE_STYLE_FILL_AREA(#640);
#640=FILL_AREA_STYLE('',(#641));
#641=FILL_AREA_STYLE_COLOUR('',#642);
#642=COLOUR_RGB('',0.447058823529412,0.243137254901961,0.);
#643=MANIFOLD_SOLID_BREP('Part 3',#634);
#644=SHAPE_DEFINITION_REPRESENTATION(#1206,#645);
#645=SHAPE_REPRESENTATION('Part 3',(#646),#1201);
#646=AXIS2_PLACEMENT_3D('',#822,#676,#677);
#647=AXIS2_PLACEMENT_3D('',#823,#678,#679);
#648=AXIS2_PLACEMENT_3D('',#832,#684,#685);
#649=AXIS2_PLACEMENT_3D('',#841,#690,#691);
#650=AXIS2_PLACEMENT_3D('',#886,#714,#715);
#651=AXIS2_PLACEMENT_3D('',#892,#719,#720);
#652=AXIS2_PLACEMENT_3D('',#898,#724,#725);
#653=AXIS2_PLACEMENT_3D('',#901,#728,#729);
#654=AXIS2_PLACEMENT_3D('',#902,#730,#731);
#655=AXIS2_PLACEMENT_3D('',#923,#744,#745);
#656=AXIS2_PLACEMENT_3D('',#927,#748,#749);
#657=AXIS2_PLACEMENT_3D('',#933,#753,#754);
#658=AXIS2_PLACEMENT_3D('',#937,#757,#758);
#659=AXIS2_PLACEMENT_3D('',#943,#762,#763);
#660=AXIS2_PLACEMENT_3D('',#949,#767,#768);
#661=AXIS2_PLACEMENT_3D('',#955,#772,#773);
#662=AXIS2_PLACEMENT_3D('',#959,#776,#777);
#663=AXIS2_PLACEMENT_3D('',#963,#780,#781);
#664=AXIS2_PLACEMENT_3D('',#967,#784,#785);
#665=AXIS2_PLACEMENT_3D('',#971,#788,#789);
#666=AXIS2_PLACEMENT_3D('',#983,#799,#800);
#667=AXIS2_PLACEMENT_3D('',#985,#802,#803);
#668=AXIS2_PLACEMENT_3D('',#987,#805,#806);
#669=AXIS2_PLACEMENT_3D('',#989,#808,#809);
#670=AXIS2_PLACEMENT_3D('',#990,#810,#811);
#671=AXIS2_PLACEMENT_3D('',#991,#812,#813);
#672=AXIS2_PLACEMENT_3D('',#992,#814,#815);
#673=AXIS2_PLACEMENT_3D('',#993,#816,#817);
#674=AXIS2_PLACEMENT_3D('',#994,#818,#819);
#675=AXIS2_PLACEMENT_3D('',#1097,#820,#821);
#676=DIRECTION('',(0.,0.,1.));
#677=DIRECTION('',(1.,0.,0.));
#678=DIRECTION('',(0.,1.,0.));
#679=DIRECTION('',(0.,0.,1.));
#680=DIRECTION('',(0.,0.,1.));
#681=DIRECTION('',(-1.,0.,0.));
#682=DIRECTION('',(0.,0.,-1.));
#683=DIRECTION('',(-1.,0.,0.));
#684=DIRECTION('',(0.,1.,0.));
#685=DIRECTION('',(0.,0.,1.));
#686=DIRECTION('',(0.,0.,1.));
#687=DIRECTION('',(-1.,0.,0.));
#688=DIRECTION('',(0.,0.,-1.));
#689=DIRECTION('',(-1.,0.,0.));
#690=DIRECTION('',(0.,1.,0.));
#691=DIRECTION('',(0.,0.,1.));
#692=DIRECTION('',(0.,0.,-1.));
#693=DIRECTION('',(-1.,0.,0.));
#694=DIRECTION('',(0.,0.,-1.));
#695=DIRECTION('',(-1.,0.,0.));
#696=DIRECTION('',(0.,0.,-1.));
#697=DIRECTION('',(-1.,0.,0.));
#698=DIRECTION('',(0.,0.,-1.));
#699=DIRECTION('',(-1.,0.,0.));
#700=DIRECTION('',(0.707106781186547,0.,-0.707106781186548));
#701=DIRECTION('',(-1.,0.,0.));
#702=DIRECTION('',(-0.707106781186548,0.,0.707106781186548));
#703=DIRECTION('',(-1.,0.,0.));
#704=DIRECTION('',(0.707106781186546,0.,-0.707106781186549));
#705=DIRECTION('',(0.,0.,-1.));
#706=DIRECTION('',(-1.,0.,0.));
#707=DIRECTION('',(0.,0.,-1.));
#708=DIRECTION('',(-0.707106781186545,0.,-0.70710678118655));
#709=DIRECTION('',(-1.,0.,0.));
#710=DIRECTION('',(-0.707106781186548,0.,-0.707106781186548));
#711=DIRECTION('',(-1.,0.,0.));
#712=DIRECTION('',(0.707106781186547,0.,0.707106781186548));
#713=DIRECTION('',(-1.,0.,0.));
#714=DIRECTION('',(1.,0.,0.));
#715=DIRECTION('',(0.,0.,1.));
#716=DIRECTION('',(0.,1.,0.));
#717=DIRECTION('',(0.,1.,0.));
#718=DIRECTION('',(0.,0.,-1.));
#719=DIRECTION('',(0.,1.,0.));
#720=DIRECTION('',(0.,0.,1.));
#721=DIRECTION('',(-1.,0.,0.));
#722=DIRECTION('',(-1.,0.,0.));
#723=DIRECTION('',(0.,0.,-1.));
#724=DIRECTION('',(1.,0.,0.));
#725=DIRECTION('',(0.,0.,1.));
#726=DIRECTION('',(0.,1.,0.));
#727=DIRECTION('',(0.,1.,0.));
#728=DIRECTION('',(0.,0.,1.));
#729=DIRECTION('',(-1.,0.,0.));
#730=DIRECTION('',(0.,0.,1.));
#731=DIRECTION('',(-1.,0.,0.));
#732=DIRECTION('',(0.,-1.,0.));
#733=DIRECTION('',(3.34521394744213E-16,1.,0.));
#734=DIRECTION('',(-1.,0.,0.));
#735=DIRECTION('',(0.,-1.,0.));
#736=DIRECTION('',(0.,-1.,0.));
#737=DIRECTION('',(-1.,0.,0.));
#738=DIRECTION('',(0.,-1.,0.));
#739=DIRECTION('',(0.,-1.,0.));
#740=DIRECTION('',(-1.,0.,0.));
#741=DIRECTION('',(-1.,0.,0.));
#742=DIRECTION('',(3.32762185088531E-16,1.,0.));
#743=DIRECTION('',(1.07428498235539E-16,1.,0.));
#744=DIRECTION('',(1.,-1.07428498235539E-16,0.));
#745=DIRECTION('',(-1.07428498235539E-16,-1.,0.));
#746=DIRECTION('',(0.,0.,-1.));
#747=DIRECTION('',(1.07428498235539E-16,1.,0.));
#748=DIRECTION('',(0.,0.,1.));
#749=DIRECTION('',(-1.,0.,0.));
#750=DIRECTION('',(0.,-1.,0.));
#751=DIRECTION('',(-1.,0.,0.));
#752=DIRECTION('',(-1.07428498235539E-16,-1.,0.));
#753=DIRECTION('',(1.,-3.32762185088531E-16,0.));
#754=DIRECTION('',(-3.32762185088531E-16,-1.,0.));
#755=DIRECTION('',(0.,0.,-1.));
#756=DIRECTION('',(-3.32762185088531E-16,-1.,0.));
#757=DIRECTION('',(0.,0.,1.));
#758=DIRECTION('',(-1.,0.,0.));
#759=DIRECTION('',(-1.,0.,0.));
#760=DIRECTION('',(0.,1.,0.));
#761=DIRECTION('',(3.32762185088531E-16,1.,0.));
#762=DIRECTION('',(0.,0.,1.));
#763=DIRECTION('',(-1.,0.,0.));
#764=DIRECTION('',(0.,1.,0.));
#765=DIRECTION('',(-1.,0.,0.));
#766=DIRECTION('',(0.,-1.,0.));
#767=DIRECTION('',(0.,0.,1.));
#768=DIRECTION('',(-1.,0.,0.));
#769=DIRECTION('',(-1.,0.,0.));
#770=DIRECTION('',(-3.34521394744213E-16,-1.,0.));
#771=DIRECTION('',(0.,1.,0.));
#772=DIRECTION('',(-1.,0.,0.));
#773=DIRECTION('',(0.,0.,-1.));
#774=DIRECTION('',(0.,0.,-1.));
#775=DIRECTION('',(0.,-1.,0.));
#776=DIRECTION('',(0.,0.,1.));
#777=DIRECTION('',(-1.,0.,0.));
#778=DIRECTION('',(-1.,0.,0.));
#779=DIRECTION('',(-1.07246418323237E-16,-1.,0.));
#780=DIRECTION('',(1.,-3.34521394744213E-16,0.));
#781=DIRECTION('',(-3.34521394744213E-16,-1.,0.));
#782=DIRECTION('',(3.34521394744213E-16,1.,0.));
#783=DIRECTION('',(0.,0.,-1.));
#784=DIRECTION('',(0.,0.,1.));
#785=DIRECTION('',(-1.,0.,0.));
#786=DIRECTION('',(-1.,0.,0.));
#787=DIRECTION('',(3.34521394744213E-16,1.,0.));
#788=DIRECTION('',(0.,1.,0.));
#789=DIRECTION('',(0.,0.,1.));
#790=DIRECTION('',(0.,0.,-1.));
#791=DIRECTION('',(-1.,0.,0.));
#792=DIRECTION('',(0.,0.,-1.));
#793=DIRECTION('',(-0.707106781186547,0.,-0.707106781186548));
#794=DIRECTION('',(0.707106781186548,0.,0.707106781186548));
#795=DIRECTION('',(0.707106781186545,0.,0.70710678118655));
#796=DIRECTION('',(-0.707106781186546,0.,0.707106781186549));
#797=DIRECTION('',(0.707106781186548,0.,-0.707106781186548));
#798=DIRECTION('',(-0.707106781186547,0.,0.707106781186548));
#799=DIRECTION('',(-1.,0.,0.));
#800=DIRECTION('',(0.,0.,-1.));
#801=DIRECTION('',(0.,-1.,0.));
#802=DIRECTION('',(-1.,0.,0.));
#803=DIRECTION('',(0.,0.,-1.));
#804=DIRECTION('',(0.,-1.,0.));
#805=DIRECTION('',(0.,0.,1.));
#806=DIRECTION('',(-1.,0.,0.));
#807=DIRECTION('',(-1.,0.,0.));
#808=DIRECTION('',(-0.707106781186548,7.583466965433E-17,-0.707106781186547));
#809=DIRECTION('',(1.07246418323237E-16,1.,0.));
#810=DIRECTION('',(0.707106781186548,-2.36542346675615E-16,-0.707106781186547));
#811=DIRECTION('',(-3.34521394744213E-16,-1.,0.));
#812=DIRECTION('',(0.707106781186548,0.,0.707106781186548));
#813=DIRECTION('',(0.,1.,0.));
#814=DIRECTION('',(-0.707106781186548,0.,0.707106781186548));
#815=DIRECTION('',(0.,-1.,0.));
#816=DIRECTION('',(-0.707106781186549,7.59634195950369E-17,-0.707106781186546));
#817=DIRECTION('',(1.07428498235539E-16,1.,0.));
#818=DIRECTION('',(-0.70710678118655,2.35298397598554E-16,0.707106781186545));
#819=DIRECTION('',(-3.32762185088531E-16,-1.,0.));
#820=DIRECTION('',(0.,0.931937366035277,-0.362619284908057));
#821=DIRECTION('',(1.,0.,0.));
#822=CARTESIAN_POINT('',(0.,0.,0.));
#823=CARTESIAN_POINT('',(0.0580616303210871,-0.0268656708031893,0.0059));
#824=CARTESIAN_POINT('',(0.0560616303210871,-0.0268656708031893,0.0042));
#825=CARTESIAN_POINT('',(0.0560616303210871,-0.0268656708031893,0.0059));
#826=CARTESIAN_POINT('',(0.0560616303210871,-0.0268656708031893,0.0025));
#827=CARTESIAN_POINT('',(0.0580616303210871,-0.0268656708031893,0.0025));
#828=CARTESIAN_POINT('',(0.0600616303210872,-0.0268656708031893,0.0025));
#829=CARTESIAN_POINT('',(0.0600616303210872,-0.0268656708031893,0.0059));
#830=CARTESIAN_POINT('',(0.0600616303210872,-0.0268656708031893,0.0059));
#831=CARTESIAN_POINT('',(0.0580616303210871,-0.0268656708031893,0.0059));
#832=CARTESIAN_POINT('',(0.0580616303210871,-0.0268656708031893,0.0059));
#833=CARTESIAN_POINT('',(0.0209474470466376,-0.0268656708031893,0.0042));
#834=CARTESIAN_POINT('',(0.0209474470466376,-0.0268656708031893,0.0025));
#835=CARTESIAN_POINT('',(0.0209474470466376,-0.0268656708031893,0.0059));
#836=CARTESIAN_POINT('',(0.0580616303210871,-0.0268656708031893,0.0059));
#837=CARTESIAN_POINT('',(0.0169474470466376,-0.0268656708031893,0.0059));
#838=CARTESIAN_POINT('',(0.0169474470466376,-0.0268656708031893,0.0059));
#839=CARTESIAN_POINT('',(0.0169474470466376,-0.0268656708031893,0.0025));
#840=CARTESIAN_POINT('',(0.0580616303210871,-0.0268656708031893,0.0025));
#841=CARTESIAN_POINT('',(0.0575311997917584,0.0255656708031893,0.0066));
#842=CARTESIAN_POINT('',(0.0590007692624297,0.0255656708031893,0.0035));
#843=CARTESIAN_POINT('',(0.0590007692624297,0.0255656708031893,0.0035));
#844=CARTESIAN_POINT('',(0.0590007692624297,0.0255656708031893,0.0025));
#845=CARTESIAN_POINT('',(0.0575311997917584,0.0255656708031893,0.0025));
#846=CARTESIAN_POINT('',(0.0600616303210872,0.0255656708031893,0.0025));
#847=CARTESIAN_POINT('',(0.0600616303210872,0.0255656708031893,0.0066));
#848=CARTESIAN_POINT('',(0.0600616303210872,0.0255656708031893,0.0066));
#849=CARTESIAN_POINT('',(0.0575311997917584,0.0255656708031893,0.0066));
#850=CARTESIAN_POINT('',(0.0169474470466376,0.0255656708031893,0.0066));
#851=CARTESIAN_POINT('',(0.0169474470466376,0.0255656708031893,0.0066));
#852=CARTESIAN_POINT('',(0.0169474470466376,0.0255656708031893,0.0025));
#853=CARTESIAN_POINT('',(0.0575311997917584,0.0255656708031893,0.0025));
#854=CARTESIAN_POINT('',(0.018008308105295,0.0255656708031893,0.0025));
#855=CARTESIAN_POINT('',(0.018008308105295,0.0255656708031893,0.0035));
#856=CARTESIAN_POINT('',(0.018008308105295,0.0255656708031893,0.0035));
#857=CARTESIAN_POINT('',(0.0184981645955187,0.0255656708031893,0.0035));
#858=CARTESIAN_POINT('',(0.0187380210857425,0.0255656708031893,0.0035));
#859=CARTESIAN_POINT('',(0.0365846104387504,0.0255656708031893,-0.014346589353008));
#860=CARTESIAN_POINT('',(0.0189880210857425,0.0255656708031893,0.00325));
#861=CARTESIAN_POINT('',(0.0194778775759662,0.0255656708031893,0.00325));
#862=CARTESIAN_POINT('',(0.01971773406619,0.0255656708031893,0.00325));
#863=CARTESIAN_POINT('',(0.0369494669289742,0.0255656708031893,-0.0139817328627842));
#864=CARTESIAN_POINT('',(0.01996773406619,0.0255656708031893,0.003));
#865=CARTESIAN_POINT('',(0.0204575905564138,0.0255656708031893,0.003));
#866=CARTESIAN_POINT('',(0.0206974470466376,0.0255656708031893,0.003));
#867=CARTESIAN_POINT('',(0.0373143234191979,0.0255656708031893,-0.0136168763725604));
#868=CARTESIAN_POINT('',(0.0209474470466376,0.0255656708031893,0.00275));
#869=CARTESIAN_POINT('',(0.0209474470466376,0.0255656708031893,0.003));
#870=CARTESIAN_POINT('',(0.0209474470466376,0.0255656708031893,0.0025));
#871=CARTESIAN_POINT('',(0.0575311997917584,0.0255656708031893,0.0025));
#872=CARTESIAN_POINT('',(0.0560616303210872,0.0255656708031893,0.0025));
#873=CARTESIAN_POINT('',(0.0560616303210872,0.0255656708031893,0.003));
#874=CARTESIAN_POINT('',(0.0560616303210872,0.0255656708031893,0.00275));
#875=CARTESIAN_POINT('',(0.0587214150564228,0.0255656708031893,0.00540978473533565));
#876=CARTESIAN_POINT('',(0.0563116303210871,0.0255656708031893,0.003));
#877=CARTESIAN_POINT('',(0.0565514868113109,0.0255656708031893,0.003));
#878=CARTESIAN_POINT('',(0.0570413433015347,0.0255656708031893,0.003));
#879=CARTESIAN_POINT('',(0.0590862715466465,0.0255656708031893,0.00504492824511189));
#880=CARTESIAN_POINT('',(0.0572913433015347,0.0255656708031893,0.00325));
#881=CARTESIAN_POINT('',(0.0575311997917584,0.0255656708031893,0.00325));
#882=CARTESIAN_POINT('',(0.0580210562819822,0.0255656708031893,0.00325));
#883=CARTESIAN_POINT('',(0.0594511280368703,0.0255656708031893,0.00468007175488813));
#884=CARTESIAN_POINT('',(0.0582710562819822,0.0255656708031893,0.0035));
#885=CARTESIAN_POINT('',(0.0585109127722059,0.0255656708031893,0.0035));
#886=CARTESIAN_POINT('',(0.0169474470466376,0.0278890235349536,0.0066));
#887=CARTESIAN_POINT('',(0.0169474470466376,0.0278890235349536,0.0025));
#888=CARTESIAN_POINT('',(0.0169474470466376,0.0302123762667179,0.0025));
#889=CARTESIAN_POINT('',(0.0169474470466376,0.0278890235349536,0.0066));
#890=CARTESIAN_POINT('',(0.0169474470466376,0.0302123762667179,0.0066));
#891=CARTESIAN_POINT('',(0.0169474470466376,0.0302123762667179,0.0066));
#892=CARTESIAN_POINT('',(0.0385045386838623,0.0302123762667179,0.0066));
#893=CARTESIAN_POINT('',(0.0385045386838623,0.0302123762667179,0.0025));
#894=CARTESIAN_POINT('',(0.0600616303210872,0.0302123762667179,0.0025));
#895=CARTESIAN_POINT('',(0.0385045386838623,0.0302123762667179,0.0066));
#896=CARTESIAN_POINT('',(0.0600616303210872,0.0302123762667179,0.0066));
#897=CARTESIAN_POINT('',(0.0600616303210872,0.0302123762667179,0.0066));
#898=CARTESIAN_POINT('',(0.0600616303210872,0.0278890235349536,0.0066));
#899=CARTESIAN_POINT('',(0.0600616303210872,0.0278890235349536,0.0025));
#900=CARTESIAN_POINT('',(0.0600616303210872,0.0278890235349536,0.0066));
#901=CARTESIAN_POINT('',(0.,1.38777878078145E-17,0.0066));
#902=CARTESIAN_POINT('',(0.,1.38777878078145E-17,0.0025));
#903=CARTESIAN_POINT('',(0.018008308105295,0.00939055276103317,0.0025));
#904=CARTESIAN_POINT('',(0.018008308105295,-0.0255656708031893,0.0025));
#905=CARTESIAN_POINT('',(0.0590007692624297,0.0151942954398691,0.0025));
#906=CARTESIAN_POINT('',(0.0590007692624297,-0.0255656708031893,0.0025));
#907=CARTESIAN_POINT('',(0.0204575905564138,-0.0255656708031893,0.0025));
#908=CARTESIAN_POINT('',(0.0600616303210872,-0.0255656708031893,0.0025));
#909=CARTESIAN_POINT('',(0.0600616303210872,-0.0262156708031893,0.0025));
#910=CARTESIAN_POINT('',(0.0560616303210871,-0.0275271452829242,0.0025));
#911=CARTESIAN_POINT('',(0.0560616303210871,-0.0281886197626591,0.0025));
#912=CARTESIAN_POINT('',(0.0385045386838623,-0.0281886197626591,0.0025));
#913=CARTESIAN_POINT('',(0.0209474470466376,-0.0281886197626591,0.0025));
#914=CARTESIAN_POINT('',(0.0209474470466376,-0.0275271452829242,0.0025));
#915=CARTESIAN_POINT('',(0.0169474470466376,-0.0262156708031893,0.0025));
#916=CARTESIAN_POINT('',(0.0169474470466376,-0.0255656708031893,0.0025));
#917=CARTESIAN_POINT('',(0.0204575905564138,-0.0255656708031893,0.0025));
#918=CARTESIAN_POINT('',(0.0204575905564138,-0.0255656708031893,0.0025));
#919=CARTESIAN_POINT('',(0.0560616303210871,-0.0255656708031893,0.0025));
#920=CARTESIAN_POINT('',(0.0209474470466376,-0.0255656708031893,0.0025));
#921=CARTESIAN_POINT('',(0.0560616303210871,0.0151394652202725,0.0025));
#922=CARTESIAN_POINT('',(0.0209474470466376,0.00941796787083149,0.0025));
#923=CARTESIAN_POINT('',(0.0209474470466376,0.00941796787083149,0.003));
#924=CARTESIAN_POINT('',(0.0209474470466376,-0.0255656708031893,0.003));
#925=CARTESIAN_POINT('',(0.0209474470466376,-0.0255656708031893,0.00275));
#926=CARTESIAN_POINT('',(0.0209474470466376,0.00941796787083149,0.00275));
#927=CARTESIAN_POINT('',(0.,1.38777878078145E-17,0.003));
#928=CARTESIAN_POINT('',(0.01996773406619,0.00941796787083149,0.003));
#929=CARTESIAN_POINT('',(0.01996773406619,-0.0255656708031893,0.003));
#930=CARTESIAN_POINT('',(0.0204575905564138,-0.0255656708031893,0.003));
#931=CARTESIAN_POINT('',(0.0206974470466376,-0.0255656708031893,0.003));
#932=CARTESIAN_POINT('',(0.0206974470466376,1.16542921542846E-17,0.003));
#933=CARTESIAN_POINT('',(0.0560616303210871,0.0151394652202725,0.003));
#934=CARTESIAN_POINT('',(0.0560616303210871,-0.0255656708031893,0.003));
#935=CARTESIAN_POINT('',(0.0560616303210871,-0.0255656708031893,0.00275));
#936=CARTESIAN_POINT('',(0.0560616303210871,-0.0255656708031893,0.00275));
#937=CARTESIAN_POINT('',(0.,1.38777878078145E-17,0.003));
#938=CARTESIAN_POINT('',(0.0565514868113109,-0.0255656708031893,0.003));
#939=CARTESIAN_POINT('',(0.0570413433015347,-0.0255656708031893,0.003));
#940=CARTESIAN_POINT('',(0.0563116303210871,-0.0255656708031893,0.003));
#941=CARTESIAN_POINT('',(0.0570413433015347,0.0151394652202725,0.003));
#942=CARTESIAN_POINT('',(0.0563116303210871,0.0255656708031893,0.003));
#943=CARTESIAN_POINT('',(0.,1.38777878078145E-17,0.00325));
#944=CARTESIAN_POINT('',(0.0189880210857425,-0.00733286770991981,0.00325));
#945=CARTESIAN_POINT('',(0.0189880210857425,-0.0255656708031893,0.00325));
#946=CARTESIAN_POINT('',(0.0194778775759662,-0.0255656708031893,0.00325));
#947=CARTESIAN_POINT('',(0.01971773406619,-0.0255656708031893,0.00325));
#948=CARTESIAN_POINT('',(0.01971773406619,-0.0255656708031893,0.00325));
#949=CARTESIAN_POINT('',(0.,1.38777878078145E-17,0.00325));
#950=CARTESIAN_POINT('',(0.0575311997917584,-0.0255656708031893,0.00325));
#951=CARTESIAN_POINT('',(0.0580210562819822,-0.0255656708031893,0.00325));
#952=CARTESIAN_POINT('',(0.0572913433015347,-0.0255656708031893,0.00325));
#953=CARTESIAN_POINT('',(0.0580210562819822,0.0151942954398691,0.00325));
#954=CARTESIAN_POINT('',(0.0572913433015347,0.0255656708031893,0.00325));
#955=CARTESIAN_POINT('',(0.018008308105295,0.00939055276103317,0.0035));
#956=CARTESIAN_POINT('',(0.018008308105295,-0.0255656708031893,0.0035));
#957=CARTESIAN_POINT('',(0.018008308105295,-0.0255656708031893,0.0035));
#958=CARTESIAN_POINT('',(0.018008308105295,0.00939055276103317,0.0035));
#959=CARTESIAN_POINT('',(0.,1.38777878078145E-17,0.0035));
#960=CARTESIAN_POINT('',(0.0184981645955187,-0.0255656708031893,0.0035));
#961=CARTESIAN_POINT('',(0.0187380210857425,-0.0255656708031893,0.0035));
#962=CARTESIAN_POINT('',(0.0187380210857425,1.18682021599033E-17,0.0035));
#963=CARTESIAN_POINT('',(0.0590007692624297,0.0151942954398691,0.0035));
#964=CARTESIAN_POINT('',(0.0590007692624297,0.0151942954398691,0.0035));
#965=CARTESIAN_POINT('',(0.0590007692624297,-0.0255656708031893,0.0035));
#966=CARTESIAN_POINT('',(0.0590007692624297,-0.0255656708031893,0.0035));
#967=CARTESIAN_POINT('',(0.,1.38777878078145E-17,0.0035));
#968=CARTESIAN_POINT('',(0.0585109127722059,-0.0255656708031893,0.0035));
#969=CARTESIAN_POINT('',(0.0582710562819822,-0.0255656708031893,0.0035));
#970=CARTESIAN_POINT('',(0.0582710562819822,-5.61512721285277E-18,0.0035));
#971=CARTESIAN_POINT('',(0.0204575905564138,-0.0255656708031893,0.0059));
#972=CARTESIAN_POINT('',(0.0169474470466376,-0.0255656708031893,0.0059));
#973=CARTESIAN_POINT('',(0.0169474470466376,-0.0255656708031893,0.0059));
#974=CARTESIAN_POINT('',(0.0204575905564138,-0.0255656708031893,0.0059));
#975=CARTESIAN_POINT('',(0.0600616303210872,-0.0255656708031893,0.0059));
#976=CARTESIAN_POINT('',(0.0600616303210872,-0.0255656708031893,0.0059));
#977=CARTESIAN_POINT('',(0.0580210562819822,-0.0255656708031893,0.00325));
#978=CARTESIAN_POINT('',(0.0572913433015347,-0.0255656708031893,0.00325));
#979=CARTESIAN_POINT('',(0.0563116303210871,-0.0255656708031893,0.003));
#980=CARTESIAN_POINT('',(0.0209474470466376,-0.0255656708031893,0.00275));
#981=CARTESIAN_POINT('',(0.01971773406619,-0.0255656708031893,0.00325));
#982=CARTESIAN_POINT('',(0.0189880210857425,-0.0255656708031893,0.00325));
#983=CARTESIAN_POINT('',(0.0600616303210872,-0.0262156708031893,0.0059));
#984=CARTESIAN_POINT('',(0.0600616303210872,-0.0262156708031893,0.0059));
#985=CARTESIAN_POINT('',(0.0169474470466376,-0.0262156708031893,0.0059));
#986=CARTESIAN_POINT('',(0.0169474470466376,-0.0262156708031893,0.0059));
#987=CARTESIAN_POINT('',(0.,1.38777878078145E-17,0.0059));
#988=CARTESIAN_POINT('',(0.0580616303210871,-0.0268656708031893,0.0059));
#989=CARTESIAN_POINT('',(0.0189880210857425,0.00939055276103317,0.00325));
#990=CARTESIAN_POINT('',(0.0580210562819822,0.0151942954398691,0.00325));
#991=CARTESIAN_POINT('',(0.01971773406619,1.38777878078145E-17,0.00325));
#992=CARTESIAN_POINT('',(0.0572913433015347,1.38777878078145E-17,0.00325));
#993=CARTESIAN_POINT('',(0.0209474470466376,0.00941796787083149,0.00275));
#994=CARTESIAN_POINT('',(0.0563116303210871,-4.86059334372807E-18,0.003));
#995=CARTESIAN_POINT('',(0.0209474470466376,-0.0268656708031893,0.0025));
#996=CARTESIAN_POINT('',(0.0209474470466376,-0.0268656708031893,0.0025));
#997=CARTESIAN_POINT('',(0.0209474470466376,-0.0268656708031893,0.0025));
#998=CARTESIAN_POINT('',(0.0209474470466376,-0.0268656708031893,0.0025));
#999=CARTESIAN_POINT('',(0.0209474470466376,-0.0268656708031893,0.0025));
#1000=CARTESIAN_POINT('',(0.0209474470466376,-0.0268656708031893,0.0025));
#1001=CARTESIAN_POINT('',(0.0209474470466376,-0.0268656708031893,0.0025));
#1002=CARTESIAN_POINT('',(0.0209474470466376,-0.0268656708031893,0.0025));
#1003=CARTESIAN_POINT('',(0.0209474470466376,-0.0268656708031893,0.0025));
#1004=CARTESIAN_POINT('',(0.0209474470466376,-0.0268656708031893,0.0025));
#1005=CARTESIAN_POINT('',(0.0209474470466376,-0.0268656708031893,0.0025));
#1006=CARTESIAN_POINT('',(0.0209474470466376,-0.0268656708031893,0.0025));
#1007=CARTESIAN_POINT('',(0.0209474470466376,-0.0268656708031893,0.0025));
#1008=CARTESIAN_POINT('',(0.0209474470466376,-0.0268656708031893,0.0025));
#1009=CARTESIAN_POINT('',(0.0209474470466376,-0.0268656708031893,0.0025));
#1010=CARTESIAN_POINT('',(0.0209474470466376,-0.0268656708031893,0.0025));
#1011=CARTESIAN_POINT('',(0.0209474470466376,-0.0268656708031893,0.00306666666666667));
#1012=CARTESIAN_POINT('',(0.0209564536953255,-0.0268656708031893,0.00306666666666667));
#1013=CARTESIAN_POINT('',(0.0209744476149934,-0.0268656806862118,0.00306664126714071));
#1014=CARTESIAN_POINT('',(0.0209909465651114,-0.0268664530339049,0.00306465632120768));
#1015=CARTESIAN_POINT('',(0.0210138007162681,-0.0268685776734616,0.00305919596354167));
#1016=CARTESIAN_POINT('',(0.0210264311337641,-0.0268713230509409,0.00305214029947917));
#1017=CARTESIAN_POINT('',(0.0210445147955828,-0.0268804743092055,0.00302862141927083));
#1018=CARTESIAN_POINT('',(0.0210499944265717,-0.026886866732258,0.00301219278971354));
#1019=CARTESIAN_POINT('',(0.0210540799620361,-0.0269031573177421,0.00297032572428385));
#1020=CARTESIAN_POINT('',(0.0210527122531777,-0.0269130420224412,0.002944921875));
#1021=CARTESIAN_POINT('',(0.0210408910267748,-0.0269466325233652,0.00285859375));
#1022=CARTESIAN_POINT('',(0.021013871080711,-0.0269879746783486,0.00275234375));
#1023=CARTESIAN_POINT('',(0.0209844763347002,-0.0270305280292788,0.00264298095703125));
#1024=CARTESIAN_POINT('',(0.0209655526973447,-0.027058553757714,0.00257095438639323));
#1025=CARTESIAN_POINT('',(0.0209564536953255,-0.0270723815781064,0.00253541666666667));
#1026=CARTESIAN_POINT('',(0.0209474470466376,-0.0270861622964342,0.0025));
#1027=CARTESIAN_POINT('',(0.0209474470466376,-0.0268656708031893,0.00363333333333333));
#1028=CARTESIAN_POINT('',(0.020952154076765,-0.0268656708031893,0.00363333333333333));
#1029=CARTESIAN_POINT('',(0.0209615580098951,-0.0268656905692343,0.00363328253428142));
#1030=CARTESIAN_POINT('',(0.0209701806461239,-0.0268672352646206,0.00362931264241537));
#1031=CARTESIAN_POINT('',(0.0209821246201545,-0.0268714845437338,0.00361839192708333));
#1032=CARTESIAN_POINT('',(0.0209887254944348,-0.0268769752986926,0.00360428059895834));
#1033=CARTESIAN_POINT('',(0.0209981763283626,-0.0268952778152217,0.00355724283854167));
#1034=CARTESIAN_POINT('',(0.0210010400781374,-0.0269080626613266,0.00352438557942708));
#1035=CARTESIAN_POINT('',(0.0210031752495184,-0.026940643832295,0.00344065144856771));
#1036=CARTESIAN_POINT('',(0.021002460461252,-0.026960413241693,0.00338984375));
#1037=CARTESIAN_POINT('',(0.0209962824842097,-0.0270275942435411,0.0032171875));
#1038=CARTESIAN_POINT('',(0.0209821613938274,-0.0271102785535079,0.0030046875));
#1039=CARTESIAN_POINT('',(0.0209667991919857,-0.0271953852553684,0.0027859619140625));
#1040=CARTESIAN_POINT('',(0.0209569093723381,-0.0272514367122388,0.00264190877278646));
#1041=CARTESIAN_POINT('',(0.020952154076765,-0.0272790923530236,0.00257083333333333));
#1042=CARTESIAN_POINT('',(0.0209474470466376,-0.0273066537896792,0.0025));
#1043=CARTESIAN_POINT('',(0.0209474470466376,-0.0268656708031893,0.00476666666666667));
#1044=CARTESIAN_POINT('',(0.0209550496486183,-0.0268656708031893,0.00476666666666667));
#1045=CARTESIAN_POINT('',(0.0209702384956634,-0.0268657103352792,0.00476656506856282));
#1046=CARTESIAN_POINT('',(0.020984165424002,-0.0268687997260518,0.00475862528483073));
#1047=CARTESIAN_POINT('',(0.0210034568409178,-0.0268772982842784,0.00473678385416666));
#1048=CARTESIAN_POINT('',(0.0210141183022892,-0.0268882797941959,0.00470856119791667));
#1049=CARTESIAN_POINT('',(0.0210293829015788,-0.0269248848272541,0.00461448567708333));
#1050=CARTESIAN_POINT('',(0.0210340083127448,-0.0269504545194639,0.00454877115885417));
#1051=CARTESIAN_POINT('',(0.0210374569539753,-0.0270156168614007,0.00438130289713542));
#1052=CARTESIAN_POINT('',(0.0210363024572878,-0.0270551556801967,0.0042796875));
#1053=CARTESIAN_POINT('',(0.0210263240421881,-0.0271895176838928,0.003934375));
#1054=CARTESIAN_POINT('',(0.0210035162362458,-0.0273548863038266,0.003509375));
#1055=CARTESIAN_POINT('',(0.0209787038379843,-0.0275250997075474,0.003071923828125));
#1056=CARTESIAN_POINT('',(0.0209627302069671,-0.0276372026212883,0.00278381754557292));
#1057=CARTESIAN_POINT('',(0.0209550496486183,-0.0276925139028579,0.00264166666666667));
#1058=CARTESIAN_POINT('',(0.0209474470466376,-0.0277476367761691,0.0025));
#1059=CARTESIAN_POINT('',(0.0209474470466376,-0.0268656708031893,0.00533333333333333));
#1060=CARTESIAN_POINT('',(0.0209595115286634,-0.0268656708031893,0.00533333333333333));
#1061=CARTESIAN_POINT('',(0.0209836145361117,-0.0268657202183017,0.00533320633570353));
#1062=CARTESIAN_POINT('',(0.021005715019215,-0.0268695819567674,0.00532328160603841));
#1063=CARTESIAN_POINT('',(0.0210363283478127,-0.0268802051545507,0.00529597981770833));
#1064=CARTESIAN_POINT('',(0.0210532468987787,-0.0268939320419475,0.00526070149739583));
#1065=CARTESIAN_POINT('',(0.0210774701165963,-0.0269396883332703,0.00514310709635417));
#1066=CARTESIAN_POINT('',(0.0210848101286101,-0.0269716504485326,0.00506096394856771));
#1067=CARTESIAN_POINT('',(0.0210902827378884,-0.0270531033759535,0.00485162862141927));
#1068=CARTESIAN_POINT('',(0.0210884506803152,-0.0271025268994485,0.004724609375));
#1069=CARTESIAN_POINT('',(0.0210726160476562,-0.0272704794040687,0.00429296875));
#1070=CARTESIAN_POINT('',(0.0210364226015785,-0.0274771901789859,0.00376171875));
#1071=CARTESIAN_POINT('',(0.0209970480909042,-0.0276899569336369,0.00321490478515625));
#1072=CARTESIAN_POINT('',(0.020971699718757,-0.027830085575813,0.00285477193196615));
#1073=CARTESIAN_POINT('',(0.0209595115286634,-0.0278992246777751,0.00267708333333333));
#1074=CARTESIAN_POINT('',(0.0209474470466376,-0.0279681282694141,0.0025));
#1075=CARTESIAN_POINT('',(0.0209474470466376,-0.0268656708031893,0.0059));
#1076=CARTESIAN_POINT('',(0.0209550477004921,-0.0268656708031893,0.0059));
#1077=CARTESIAN_POINT('',(0.020970232655476,-0.0268657301013242,0.00589984760284424));
#1078=CARTESIAN_POINT('',(0.0209841560151134,-0.0268703641874831,0.00588793792724609));
#1079=CARTESIAN_POINT('',(0.0210034424887064,-0.0268831120248229,0.00585517578125));
#1080=CARTESIAN_POINT('',(0.0210141012181352,-0.0268995842896991,0.005812841796875));
#1081=CARTESIAN_POINT('',(0.0210293619059525,-0.0269544918392865,0.005671728515625));
#1082=CARTESIAN_POINT('',(0.0210339861318816,-0.0269928463776012,0.00557315673828125));
#1083=CARTESIAN_POINT('',(0.0210374338894162,-0.0270905898905064,0.00532195434570313));
#1084=CARTESIAN_POINT('',(0.0210362796885623,-0.0271498981187004,0.00516953125));
#1085=CARTESIAN_POINT('',(0.0210263038303783,-0.0273514411242446,0.0046515625));
#1086=CARTESIAN_POINT('',(0.0210035018688147,-0.0275994940541452,0.0040140625));
#1087=CARTESIAN_POINT('',(0.020978695828598,-0.0278548141597265,0.0033578857421875));
#1088=CARTESIAN_POINT('',(0.0209627262907387,-0.0280229685303378,0.00292572631835938));
#1089=CARTESIAN_POINT('',(0.0209550477004921,-0.0281059354526922,0.0027125));
#1090=CARTESIAN_POINT('',(0.0209474470466376,-0.0281886197626591,0.0025));
#1091=CARTESIAN_POINT('',(0.0209474470466376,-0.0268656708031893,0.0059));
#1092=CARTESIAN_POINT('',(0.021020413323641,-0.0268656708031893,0.0059));
#1093=CARTESIAN_POINT('',(0.0210933796006444,-0.0268656708031893,0.0059));
#1094=CARTESIAN_POINT('',(0.021020413323641,-0.0273948503869772,0.00454));
#1095=CARTESIAN_POINT('',(0.0209839301851392,-0.0277917350748182,0.00352));
#1096=CARTESIAN_POINT('',(0.0209474470466376,-0.0281886197626591,0.0025));
#1097=CARTESIAN_POINT('',(0.0209474470466376,-0.0268656708031893,0.0059));
#1098=CARTESIAN_POINT('',(0.0560616303210871,-0.0268656708031893,0.0059));
#1099=CARTESIAN_POINT('',(0.0559886640440836,-0.0268656708031893,0.0059));
#1100=CARTESIAN_POINT('',(0.0559156977670801,-0.0268656708031893,0.0059));
#1101=CARTESIAN_POINT('',(0.0559886640440836,-0.0273948503869772,0.00454));
#1102=CARTESIAN_POINT('',(0.0560251471825854,-0.0277917350748182,0.00352));
#1103=CARTESIAN_POINT('',(0.0560616303210871,-0.0281886197626591,0.0025));
#1104=CARTESIAN_POINT('',(0.0560616303210871,-0.0268656708031893,0.0059));
#1105=CARTESIAN_POINT('',(0.0560540296672326,-0.0268656708031893,0.0059));
#1106=CARTESIAN_POINT('',(0.0560388447122486,-0.0268657301013242,0.00589984760284424));
#1107=CARTESIAN_POINT('',(0.0560249213526112,-0.0268703641874831,0.00588793792724609));
#1108=CARTESIAN_POINT('',(0.0560056348790182,-0.0268831120248229,0.00585517578125));
#1109=CARTESIAN_POINT('',(0.0559949761495893,-0.0268995842896991,0.005812841796875));
#1110=CARTESIAN_POINT('',(0.0559797154617721,-0.0269544918392865,0.005671728515625));
#1111=CARTESIAN_POINT('',(0.055975091235843,-0.0269928463776012,0.00557315673828125));
#1112=CARTESIAN_POINT('',(0.0559716434783084,-0.0270905898905064,0.00532195434570313));
#1113=CARTESIAN_POINT('',(0.0559727976791623,-0.0271498981187004,0.00516953125));
#1114=CARTESIAN_POINT('',(0.0559827735373463,-0.0273514411242446,0.0046515625));
#1115=CARTESIAN_POINT('',(0.0560055754989099,-0.0275994940541452,0.0040140625));
#1116=CARTESIAN_POINT('',(0.0560303815391266,-0.0278548141597265,0.0033578857421875));
#1117=CARTESIAN_POINT('',(0.056046351076986,-0.0280229685303378,0.00292572631835938));
#1118=CARTESIAN_POINT('',(0.0560540296672326,-0.0281059354526922,0.0027125));
#1119=CARTESIAN_POINT('',(0.0560616303210871,-0.0281886197626591,0.0025));
#1120=CARTESIAN_POINT('',(0.0560616303210871,-0.0268656708031893,0.00533333333333333));
#1121=CARTESIAN_POINT('',(0.0560495658390612,-0.0268656708031893,0.00533333333333333));
#1122=CARTESIAN_POINT('',(0.0560254628316129,-0.0268657202183017,0.00533320633570353));
#1123=CARTESIAN_POINT('',(0.0560033623485096,-0.0268695819567674,0.00532328160603841));
#1124=CARTESIAN_POINT('',(0.0559727490199119,-0.0268802051545507,0.00529597981770833));
#1125=CARTESIAN_POINT('',(0.0559558304689459,-0.0268939320419475,0.00526070149739583));
#1126=CARTESIAN_POINT('',(0.0559316072511283,-0.0269396883332703,0.00514310709635417));
#1127=CARTESIAN_POINT('',(0.0559242672391144,-0.0269716504485326,0.00506096394856771));
#1128=CARTESIAN_POINT('',(0.0559187946298361,-0.0270531033759535,0.00485162862141927));
#1129=CARTESIAN_POINT('',(0.0559206266874093,-0.0271025268994485,0.004724609375));
#1130=CARTESIAN_POINT('',(0.0559364613200683,-0.0272704794040687,0.00429296875));
#1131=CARTESIAN_POINT('',(0.055972654766146,-0.0274771901789859,0.00376171875));
#1132=CARTESIAN_POINT('',(0.0560120292768204,-0.0276899569336369,0.00321490478515625));
#1133=CARTESIAN_POINT('',(0.0560373776489676,-0.027830085575813,0.00285477193196615));
#1134=CARTESIAN_POINT('',(0.0560495658390612,-0.0278992246777751,0.00267708333333333));
#1135=CARTESIAN_POINT('',(0.0560616303210871,-0.0279681282694141,0.0025));
#1136=CARTESIAN_POINT('',(0.0560616303210871,-0.0268656708031893,0.00476666666666667));
#1137=CARTESIAN_POINT('',(0.0560540277191063,-0.0268656708031893,0.00476666666666667));
#1138=CARTESIAN_POINT('',(0.0560388388720613,-0.0268657103352792,0.00476656506856283));
#1139=CARTESIAN_POINT('',(0.0560249119437227,-0.0268687997260518,0.00475862528483073));
#1140=CARTESIAN_POINT('',(0.0560056205268069,-0.0268772982842784,0.00473678385416666));
#1141=CARTESIAN_POINT('',(0.0559949590654354,-0.0268882797941959,0.00470856119791667));
#1142=CARTESIAN_POINT('',(0.0559796944661458,-0.0269248848272541,0.00461448567708333));
#1143=CARTESIAN_POINT('',(0.0559750690549798,-0.0269504545194639,0.00454877115885417));
#1144=CARTESIAN_POINT('',(0.0559716204137493,-0.0270156168614007,0.00438130289713542));
#1145=CARTESIAN_POINT('',(0.0559727749104368,-0.0270551556801967,0.0042796875));
#1146=CARTESIAN_POINT('',(0.0559827533255366,-0.0271895176838928,0.003934375));
#1147=CARTESIAN_POINT('',(0.0560055611314788,-0.0273548863038265,0.003509375));
#1148=CARTESIAN_POINT('',(0.0560303735297404,-0.0275250997075474,0.003071923828125));
#1149=CARTESIAN_POINT('',(0.0560463471607576,-0.0276372026212883,0.00278381754557292));
#1150=CARTESIAN_POINT('',(0.0560540277191063,-0.0276925139028579,0.00264166666666667));
#1151=CARTESIAN_POINT('',(0.0560616303210871,-0.0277476367761691,0.0025));
#1152=CARTESIAN_POINT('',(0.0560616303210871,-0.0268656708031893,0.00363333333333333));
#1153=CARTESIAN_POINT('',(0.0560569232909597,-0.0268656708031893,0.00363333333333333));
#1154=CARTESIAN_POINT('',(0.0560475193578295,-0.0268656905692343,0.00363328253428141));
#1155=CARTESIAN_POINT('',(0.0560388967216008,-0.0268672352646206,0.00362931264241537));
#1156=CARTESIAN_POINT('',(0.0560269527475701,-0.0268714845437338,0.00361839192708333));
#1157=CARTESIAN_POINT('',(0.0560203518732899,-0.0268769752986926,0.00360428059895833));
#1158=CARTESIAN_POINT('',(0.0560109010393621,-0.0268952778152217,0.00355724283854167));
#1159=CARTESIAN_POINT('',(0.0560080372895873,-0.0269080626613266,0.00352438557942708));
#1160=CARTESIAN_POINT('',(0.0560059021182063,-0.026940643832295,0.00344065144856771));
#1161=CARTESIAN_POINT('',(0.0560066169064727,-0.026960413241693,0.00338984375));
#1162=CARTESIAN_POINT('',(0.0560127948835149,-0.0270275942435411,0.0032171875));
#1163=CARTESIAN_POINT('',(0.0560269159738973,-0.0271102785535079,0.0030046875));
#1164=CARTESIAN_POINT('',(0.056042278175739,-0.0271953852553684,0.0027859619140625));
#1165=CARTESIAN_POINT('',(0.0560521679953866,-0.0272514367122388,0.00264190877278646));
#1166=CARTESIAN_POINT('',(0.0560569232909597,-0.0272790923530236,0.00257083333333333));
#1167=CARTESIAN_POINT('',(0.0560616303210871,-0.0273066537896792,0.0025));
#1168=CARTESIAN_POINT('',(0.0560616303210871,-0.0268656708031893,0.00306666666666667));
#1169=CARTESIAN_POINT('',(0.0560526236723992,-0.0268656708031893,0.00306666666666667));
#1170=CARTESIAN_POINT('',(0.0560346297527312,-0.0268656806862118,0.00306664126714071));
#1171=CARTESIAN_POINT('',(0.0560181308026133,-0.0268664530339049,0.00306465632120768));
#1172=CARTESIAN_POINT('',(0.0559952766514565,-0.0268685776734616,0.00305919596354167));
#1173=CARTESIAN_POINT('',(0.0559826462339606,-0.0268713230509409,0.00305214029947917));
#1174=CARTESIAN_POINT('',(0.0559645625721418,-0.0268804743092055,0.00302862141927083));
#1175=CARTESIAN_POINT('',(0.055959082941153,-0.026886866732258,0.00301219278971354));
#1176=CARTESIAN_POINT('',(0.0559549974056886,-0.0269031573177421,0.00297032572428385));
#1177=CARTESIAN_POINT('',(0.055956365114547,-0.0269130420224412,0.002944921875));
#1178=CARTESIAN_POINT('',(0.0559681863409499,-0.0269466325233652,0.00285859375));
#1179=CARTESIAN_POINT('',(0.0559952062870137,-0.0269879746783486,0.00275234375));
#1180=CARTESIAN_POINT('',(0.0560246010330245,-0.0270305280292788,0.00264298095703125));
#1181=CARTESIAN_POINT('',(0.05604352467038,-0.027058553757714,0.00257095438639323));
#1182=CARTESIAN_POINT('',(0.0560526236723992,-0.0270723815781064,0.00253541666666667));
#1183=CARTESIAN_POINT('',(0.0560616303210871,-0.0270861622964342,0.0025));
#1184=CARTESIAN_POINT('',(0.0560616303210871,-0.0268656708031893,0.0025));
#1185=CARTESIAN_POINT('',(0.0560616303210871,-0.0268656708031893,0.0025));
#1186=CARTESIAN_POINT('',(0.0560616303210871,-0.0268656708031893,0.0025));
#1187=CARTESIAN_POINT('',(0.056061630321087,-0.0268656708031893,0.0025));
#1188=CARTESIAN_POINT('',(0.056061630321087,-0.0268656708031893,0.0025));
#1189=CARTESIAN_POINT('',(0.056061630321087,-0.0268656708031893,0.0025));
#1190=CARTESIAN_POINT('',(0.056061630321087,-0.0268656708031893,0.0025));
#1191=CARTESIAN_POINT('',(0.056061630321087,-0.0268656708031893,0.0025));
#1192=CARTESIAN_POINT('',(0.056061630321087,-0.0268656708031893,0.0025));
#1193=CARTESIAN_POINT('',(0.056061630321087,-0.0268656708031893,0.0025));
#1194=CARTESIAN_POINT('',(0.056061630321087,-0.0268656708031893,0.0025));
#1195=CARTESIAN_POINT('',(0.056061630321087,-0.0268656708031893,0.0025));
#1196=CARTESIAN_POINT('',(0.0560616303210871,-0.0268656708031893,0.0025));
#1197=CARTESIAN_POINT('',(0.0560616303210871,-0.0268656708031893,0.0025));
#1198=CARTESIAN_POINT('',(0.0560616303210871,-0.0268656708031893,0.0025));
#1199=CARTESIAN_POINT('',(0.0560616303210871,-0.0268656708031893,0.0025));
#1200=MECHANICAL_DESIGN_GEOMETRIC_PRESENTATION_REPRESENTATION('',(#635),
#1201);
#1201=(
GEOMETRIC_REPRESENTATION_CONTEXT(3)
GLOBAL_UNCERTAINTY_ASSIGNED_CONTEXT((#1202))
GLOBAL_UNIT_ASSIGNED_CONTEXT((#1205,#1204,#1203))
REPRESENTATION_CONTEXT('Part 3','TOP_LEVEL_ASSEMBLY_PART')
);
#1202=UNCERTAINTY_MEASURE_WITH_UNIT(LENGTH_MEASURE(1.E-6),#1205,
'DISTANCE_ACCURACY_VALUE','Maximum Tolerance applied to model');
#1203=(
NAMED_UNIT(*)
SI_UNIT($,.STERADIAN.)
SOLID_ANGLE_UNIT()
);
#1204=(
NAMED_UNIT(*)
PLANE_ANGLE_UNIT()
SI_UNIT($,.RADIAN.)
);
#1205=(
LENGTH_UNIT()
NAMED_UNIT(*)
SI_UNIT($,.METRE.)
);
#1206=PRODUCT_DEFINITION_SHAPE('','',#1207);
#1207=PRODUCT_DEFINITION('','',#1209,#1208);
#1208=PRODUCT_DEFINITION_CONTEXT('',#1215,'design');
#1209=PRODUCT_DEFINITION_FORMATION_WITH_SPECIFIED_SOURCE('','',#1211,
 .NOT_KNOWN.);
#1210=PRODUCT_RELATED_PRODUCT_CATEGORY('','',(#1211));
#1211=PRODUCT('Part 3','Part 3','Part 3',(#1213));
#1212=PRODUCT_CATEGORY('','');
#1213=PRODUCT_CONTEXT('',#1215,'mechanical');
#1214=APPLICATION_PROTOCOL_DEFINITION('international standard',
'ap242_managed_model_based_3d_engineering',2020,#1215);
#1215=APPLICATION_CONTEXT('managed model based 3d engineering');
ENDSEC;
END-ISO-10303-21;
