ISO-10303-21;
HEADER;
/* Generated by software containing ST-Developer
 * from STEP Tools, Inc. (www.steptools.com) 
 */
/* OPTION: using custom renumber hook */

FILE_DESCRIPTION(
/* description */ ('STEP AP242 Edition 2',
'CAx-IF Rec.Pracs.---Representation and Presentation of Product Manufa
cturing Information (PMI)---4.0---2014-10-13',
'CAx-IF Rec.Pracs.---3D Tessellated Geometry---0.4---2014-09-14','2;1',
'CAx-IF Rec.Pracs.---User Defined Attributes---1.5---2016-08-15'),
/* implementation_level */ '2;1');

FILE_NAME(
/* name */ 'side-windows - Part 1',
/* time_stamp */ '2026-09-07T14:06:29Z',
/* author */ (''),
/* organization */ (''),
/* preprocessor_version */ 'ST-DEVELOPER v20',
/* originating_system */ 'ONSHAPE BY PTC INC, 1.220',
/* authorisation */ '  ');

FILE_SCHEMA (('AP242_MANAGED_MODEL_BASED_3D_ENGINEERING_MIM_LF { 1 0 10303 442 3 1 4 }'));
ENDSEC;

DATA;
#10=SHAPE_REPRESENTATION_RELATIONSHIP('','',#291,#11);
#11=ADVANCED_BREP_SHAPE_REPRESENTATION('',(#289),#449);
#12=ORIENTED_EDGE('',*,*,#84,.F.);
#13=ORIENTED_EDGE('',*,*,#85,.F.);
#14=ORIENTED_EDGE('',*,*,#86,.T.);
#15=ORIENTED_EDGE('',*,*,#87,.T.);
#16=ORIENTED_EDGE('',*,*,#88,.F.);
#17=ORIENTED_EDGE('',*,*,#89,.T.);
#18=ORIENTED_EDGE('',*,*,#90,.T.);
#19=ORIENTED_EDGE('',*,*,#91,.F.);
#20=ORIENTED_EDGE('',*,*,#92,.F.);
#21=ORIENTED_EDGE('',*,*,#93,.T.);
#22=ORIENTED_EDGE('',*,*,#94,.T.);
#23=ORIENTED_EDGE('',*,*,#95,.F.);
#24=ORIENTED_EDGE('',*,*,#96,.T.);
#25=ORIENTED_EDGE('',*,*,#97,.T.);
#26=ORIENTED_EDGE('',*,*,#98,.F.);
#27=ORIENTED_EDGE('',*,*,#99,.F.);
#28=ORIENTED_EDGE('',*,*,#100,.T.);
#29=ORIENTED_EDGE('',*,*,#101,.T.);
#30=ORIENTED_EDGE('',*,*,#102,.F.);
#31=ORIENTED_EDGE('',*,*,#103,.F.);
#32=ORIENTED_EDGE('',*,*,#104,.F.);
#33=ORIENTED_EDGE('',*,*,#105,.T.);
#34=ORIENTED_EDGE('',*,*,#106,.T.);
#35=ORIENTED_EDGE('',*,*,#107,.F.);
#36=ORIENTED_EDGE('',*,*,#96,.F.);
#37=ORIENTED_EDGE('',*,*,#108,.F.);
#38=ORIENTED_EDGE('',*,*,#88,.T.);
#39=ORIENTED_EDGE('',*,*,#109,.T.);
#40=ORIENTED_EDGE('',*,*,#99,.T.);
#41=ORIENTED_EDGE('',*,*,#110,.F.);
#42=ORIENTED_EDGE('',*,*,#89,.F.);
#43=ORIENTED_EDGE('',*,*,#108,.T.);
#44=ORIENTED_EDGE('',*,*,#98,.T.);
#45=ORIENTED_EDGE('',*,*,#111,.F.);
#46=ORIENTED_EDGE('',*,*,#90,.F.);
#47=ORIENTED_EDGE('',*,*,#110,.T.);
#48=ORIENTED_EDGE('',*,*,#97,.F.);
#49=ORIENTED_EDGE('',*,*,#109,.F.);
#50=ORIENTED_EDGE('',*,*,#91,.T.);
#51=ORIENTED_EDGE('',*,*,#111,.T.);
#52=ORIENTED_EDGE('',*,*,#112,.T.);
#53=ORIENTED_EDGE('',*,*,#84,.T.);
#54=ORIENTED_EDGE('',*,*,#113,.F.);
#55=ORIENTED_EDGE('',*,*,#101,.F.);
#56=ORIENTED_EDGE('',*,*,#102,.T.);
#57=ORIENTED_EDGE('',*,*,#113,.T.);
#58=ORIENTED_EDGE('',*,*,#87,.F.);
#59=ORIENTED_EDGE('',*,*,#114,.F.);
#60=ORIENTED_EDGE('',*,*,#103,.T.);
#61=ORIENTED_EDGE('',*,*,#114,.T.);
#62=ORIENTED_EDGE('',*,*,#86,.F.);
#63=ORIENTED_EDGE('',*,*,#115,.F.);
#64=ORIENTED_EDGE('',*,*,#115,.T.);
#65=ORIENTED_EDGE('',*,*,#85,.T.);
#66=ORIENTED_EDGE('',*,*,#112,.F.);
#67=ORIENTED_EDGE('',*,*,#100,.F.);
#68=ORIENTED_EDGE('',*,*,#104,.T.);
#69=ORIENTED_EDGE('',*,*,#116,.T.);
#70=ORIENTED_EDGE('',*,*,#93,.F.);
#71=ORIENTED_EDGE('',*,*,#117,.F.);
#72=ORIENTED_EDGE('',*,*,#117,.T.);
#73=ORIENTED_EDGE('',*,*,#92,.T.);
#74=ORIENTED_EDGE('',*,*,#118,.F.);
#75=ORIENTED_EDGE('',*,*,#105,.F.);
#76=ORIENTED_EDGE('',*,*,#118,.T.);
#77=ORIENTED_EDGE('',*,*,#95,.T.);
#78=ORIENTED_EDGE('',*,*,#119,.F.);
#79=ORIENTED_EDGE('',*,*,#106,.F.);
#80=ORIENTED_EDGE('',*,*,#107,.T.);
#81=ORIENTED_EDGE('',*,*,#119,.T.);
#82=ORIENTED_EDGE('',*,*,#94,.F.);
#83=ORIENTED_EDGE('',*,*,#116,.F.);
#84=EDGE_CURVE('',#120,#121,#144,.T.);
#85=EDGE_CURVE('',#122,#120,#145,.T.);
#86=EDGE_CURVE('',#122,#123,#146,.T.);
#87=EDGE_CURVE('',#123,#121,#147,.T.);
#88=EDGE_CURVE('',#124,#125,#148,.T.);
#89=EDGE_CURVE('',#124,#126,#149,.T.);
#90=EDGE_CURVE('',#126,#127,#150,.T.);
#91=EDGE_CURVE('',#125,#127,#151,.T.);
#92=EDGE_CURVE('',#128,#129,#152,.T.);
#93=EDGE_CURVE('',#128,#130,#153,.T.);
#94=EDGE_CURVE('',#130,#131,#154,.T.);
#95=EDGE_CURVE('',#129,#131,#155,.T.);
#96=EDGE_CURVE('',#132,#133,#156,.T.);
#97=EDGE_CURVE('',#133,#134,#157,.T.);
#98=EDGE_CURVE('',#135,#134,#158,.T.);
#99=EDGE_CURVE('',#132,#135,#159,.T.);
#100=EDGE_CURVE('',#136,#137,#160,.T.);
#101=EDGE_CURVE('',#137,#138,#161,.T.);
#102=EDGE_CURVE('',#139,#138,#162,.T.);
#103=EDGE_CURVE('',#136,#139,#163,.T.);
#104=EDGE_CURVE('',#140,#141,#164,.T.);
#105=EDGE_CURVE('',#140,#142,#165,.T.);
#106=EDGE_CURVE('',#142,#143,#166,.T.);
#107=EDGE_CURVE('',#141,#143,#167,.T.);
#108=EDGE_CURVE('',#124,#132,#168,.T.);
#109=EDGE_CURVE('',#125,#133,#169,.T.);
#110=EDGE_CURVE('',#126,#135,#170,.T.);
#111=EDGE_CURVE('',#127,#134,#171,.T.);
#112=EDGE_CURVE('',#137,#120,#172,.T.);
#113=EDGE_CURVE('',#138,#121,#173,.T.);
#114=EDGE_CURVE('',#139,#123,#174,.T.);
#115=EDGE_CURVE('',#136,#122,#175,.T.);
#116=EDGE_CURVE('',#141,#130,#176,.T.);
#117=EDGE_CURVE('',#140,#128,#177,.T.);
#118=EDGE_CURVE('',#142,#129,#178,.T.);
#119=EDGE_CURVE('',#143,#131,#179,.T.);
#120=VERTEX_POINT('',#376);
#121=VERTEX_POINT('',#377);
#122=VERTEX_POINT('',#379);
#123=VERTEX_POINT('',#381);
#124=VERTEX_POINT('',#384);
#125=VERTEX_POINT('',#385);
#126=VERTEX_POINT('',#387);
#127=VERTEX_POINT('',#389);
#128=VERTEX_POINT('',#392);
#129=VERTEX_POINT('',#393);
#130=VERTEX_POINT('',#395);
#131=VERTEX_POINT('',#397);
#132=VERTEX_POINT('',#401);
#133=VERTEX_POINT('',#402);
#134=VERTEX_POINT('',#404);
#135=VERTEX_POINT('',#406);
#136=VERTEX_POINT('',#409);
#137=VERTEX_POINT('',#410);
#138=VERTEX_POINT('',#412);
#139=VERTEX_POINT('',#414);
#140=VERTEX_POINT('',#417);
#141=VERTEX_POINT('',#418);
#142=VERTEX_POINT('',#420);
#143=VERTEX_POINT('',#422);
#144=LINE('',#375,#180);
#145=LINE('',#378,#181);
#146=LINE('',#380,#182);
#147=LINE('',#382,#183);
#148=LINE('',#383,#184);
#149=LINE('',#386,#185);
#150=LINE('',#388,#186);
#151=LINE('',#390,#187);
#152=LINE('',#391,#188);
#153=LINE('',#394,#189);
#154=LINE('',#396,#190);
#155=LINE('',#398,#191);
#156=LINE('',#400,#192);
#157=LINE('',#403,#193);
#158=LINE('',#405,#194);
#159=LINE('',#407,#195);
#160=LINE('',#408,#196);
#161=LINE('',#411,#197);
#162=LINE('',#413,#198);
#163=LINE('',#415,#199);
#164=LINE('',#416,#200);
#165=LINE('',#419,#201);
#166=LINE('',#421,#202);
#167=LINE('',#423,#203);
#168=LINE('',#425,#204);
#169=LINE('',#426,#205);
#170=LINE('',#428,#206);
#171=LINE('',#430,#207);
#172=LINE('',#433,#208);
#173=LINE('',#434,#209);
#174=LINE('',#436,#210);
#175=LINE('',#438,#211);
#176=LINE('',#441,#212);
#177=LINE('',#442,#213);
#178=LINE('',#444,#214);
#179=LINE('',#446,#215);
#180=VECTOR('',#311,1.);
#181=VECTOR('',#312,1.);
#182=VECTOR('',#313,1.);
#183=VECTOR('',#314,1.);
#184=VECTOR('',#315,1.);
#185=VECTOR('',#316,1.);
#186=VECTOR('',#317,1.);
#187=VECTOR('',#318,1.);
#188=VECTOR('',#319,1.);
#189=VECTOR('',#320,1.);
#190=VECTOR('',#321,1.);
#191=VECTOR('',#322,1.);
#192=VECTOR('',#325,1.);
#193=VECTOR('',#326,1.);
#194=VECTOR('',#327,1.);
#195=VECTOR('',#328,1.);
#196=VECTOR('',#329,1.);
#197=VECTOR('',#330,1.);
#198=VECTOR('',#331,1.);
#199=VECTOR('',#332,1.);
#200=VECTOR('',#333,1.);
#201=VECTOR('',#334,1.);
#202=VECTOR('',#335,1.);
#203=VECTOR('',#336,1.);
#204=VECTOR('',#339,1.);
#205=VECTOR('',#340,1.);
#206=VECTOR('',#343,1.);
#207=VECTOR('',#346,1.);
#208=VECTOR('',#351,1.);
#209=VECTOR('',#352,1.);
#210=VECTOR('',#355,1.);
#211=VECTOR('',#358,1.);
#212=VECTOR('',#363,1.);
#213=VECTOR('',#364,1.);
#214=VECTOR('',#367,1.);
#215=VECTOR('',#370,1.);
#216=EDGE_LOOP('',(#12,#13,#14,#15));
#217=EDGE_LOOP('',(#16,#17,#18,#19));
#218=EDGE_LOOP('',(#20,#21,#22,#23));
#219=EDGE_LOOP('',(#24,#25,#26,#27));
#220=EDGE_LOOP('',(#28,#29,#30,#31));
#221=EDGE_LOOP('',(#32,#33,#34,#35));
#222=EDGE_LOOP('',(#36,#37,#38,#39));
#223=EDGE_LOOP('',(#40,#41,#42,#43));
#224=EDGE_LOOP('',(#44,#45,#46,#47));
#225=EDGE_LOOP('',(#48,#49,#50,#51));
#226=EDGE_LOOP('',(#52,#53,#54,#55));
#227=EDGE_LOOP('',(#56,#57,#58,#59));
#228=EDGE_LOOP('',(#60,#61,#62,#63));
#229=EDGE_LOOP('',(#64,#65,#66,#67));
#230=EDGE_LOOP('',(#68,#69,#70,#71));
#231=EDGE_LOOP('',(#72,#73,#74,#75));
#232=EDGE_LOOP('',(#76,#77,#78,#79));
#233=EDGE_LOOP('',(#80,#81,#82,#83));
#234=FACE_BOUND('',#216,.T.);
#235=FACE_BOUND('',#217,.T.);
#236=FACE_BOUND('',#218,.T.);
#237=FACE_BOUND('',#219,.T.);
#238=FACE_BOUND('',#220,.T.);
#239=FACE_BOUND('',#221,.T.);
#240=FACE_BOUND('',#222,.T.);
#241=FACE_BOUND('',#223,.T.);
#242=FACE_BOUND('',#224,.T.);
#243=FACE_BOUND('',#225,.T.);
#244=FACE_BOUND('',#226,.T.);
#245=FACE_BOUND('',#227,.T.);
#246=FACE_BOUND('',#228,.T.);
#247=FACE_BOUND('',#229,.T.);
#248=FACE_BOUND('',#230,.T.);
#249=FACE_BOUND('',#231,.T.);
#250=FACE_BOUND('',#232,.T.);
#251=FACE_BOUND('',#233,.T.);
#252=PLANE('',#293);
#253=PLANE('',#294);
#254=PLANE('',#295);
#255=PLANE('',#296);
#256=PLANE('',#297);
#257=PLANE('',#298);
#258=PLANE('',#299);
#259=PLANE('',#300);
#260=PLANE('',#301);
#261=PLANE('',#302);
#262=PLANE('',#303);
#263=PLANE('',#304);
#264=PLANE('',#305);
#265=PLANE('',#306);
#266=ADVANCED_FACE('',(#234,#235,#236),#252,.T.);
#267=ADVANCED_FACE('',(#237,#238,#239),#253,.F.);
#268=ADVANCED_FACE('',(#240),#254,.T.);
#269=ADVANCED_FACE('',(#241),#255,.F.);
#270=ADVANCED_FACE('',(#242),#256,.F.);
#271=ADVANCED_FACE('',(#243),#257,.T.);
#272=ADVANCED_FACE('',(#244),#258,.F.);
#273=ADVANCED_FACE('',(#245),#259,.T.);
#274=ADVANCED_FACE('',(#246),#260,.T.);
#275=ADVANCED_FACE('',(#247),#261,.F.);
#276=ADVANCED_FACE('',(#248),#262,.T.);
#277=ADVANCED_FACE('',(#249),#263,.F.);
#278=ADVANCED_FACE('',(#250),#264,.F.);
#279=ADVANCED_FACE('',(#251),#265,.T.);
#280=CLOSED_SHELL('',(#266,#267,#268,#269,#270,#271,#272,#273,#274,#275,
#276,#277,#278,#279));
#281=STYLED_ITEM('',(#282),#289);
#282=PRESENTATION_STYLE_ASSIGNMENT((#283));
#283=SURFACE_STYLE_USAGE(.BOTH.,#284);
#284=SURFACE_SIDE_STYLE('',(#285));
#285=SURFACE_STYLE_FILL_AREA(#286);
#286=FILL_AREA_STYLE('',(#287));
#287=FILL_AREA_STYLE_COLOUR('',#288);
#288=COLOUR_RGB('',1.,0.984313725490196,0.984313725490196);
#289=MANIFOLD_SOLID_BREP('Part 1',#280);
#290=SHAPE_DEFINITION_REPRESENTATION(#454,#291);
#291=SHAPE_REPRESENTATION('Part 1',(#292),#449);
#292=AXIS2_PLACEMENT_3D('',#373,#307,#308);
#293=AXIS2_PLACEMENT_3D('',#374,#309,#310);
#294=AXIS2_PLACEMENT_3D('',#399,#323,#324);
#295=AXIS2_PLACEMENT_3D('',#424,#337,#338);
#296=AXIS2_PLACEMENT_3D('',#427,#341,#342);
#297=AXIS2_PLACEMENT_3D('',#429,#344,#345);
#298=AXIS2_PLACEMENT_3D('',#431,#347,#348);
#299=AXIS2_PLACEMENT_3D('',#432,#349,#350);
#300=AXIS2_PLACEMENT_3D('',#435,#353,#354);
#301=AXIS2_PLACEMENT_3D('',#437,#356,#357);
#302=AXIS2_PLACEMENT_3D('',#439,#359,#360);
#303=AXIS2_PLACEMENT_3D('',#440,#361,#362);
#304=AXIS2_PLACEMENT_3D('',#443,#365,#366);
#305=AXIS2_PLACEMENT_3D('',#445,#368,#369);
#306=AXIS2_PLACEMENT_3D('',#447,#371,#372);
#307=DIRECTION('',(0.,0.,1.));
#308=DIRECTION('',(1.,0.,0.));
#309=DIRECTION('',(0.,0.,1.));
#310=DIRECTION('',(1.,0.,0.));
#311=DIRECTION('',(-1.84192970263727E-16,1.,0.));
#312=DIRECTION('',(1.,0.,0.));
#313=DIRECTION('',(-3.32762185088531E-16,1.,0.));
#314=DIRECTION('',(1.,0.,0.));
#315=DIRECTION('',(-2.01858731750028E-16,1.,0.));
#316=DIRECTION('',(1.,0.,0.));
#317=DIRECTION('',(-2.01858731750028E-16,1.,0.));
#318=DIRECTION('',(1.,0.,0.));
#319=DIRECTION('',(0.,-1.,0.));
#320=DIRECTION('',(1.,0.,0.));
#321=DIRECTION('',(0.,-1.,0.));
#322=DIRECTION('',(1.,0.,0.));
#323=DIRECTION('',(0.,0.,1.));
#324=DIRECTION('',(1.,0.,0.));
#325=DIRECTION('',(-2.01858731750028E-16,1.,0.));
#326=DIRECTION('',(1.,0.,0.));
#327=DIRECTION('',(-2.01858731750028E-16,1.,0.));
#328=DIRECTION('',(1.,0.,0.));
#329=DIRECTION('',(1.,0.,0.));
#330=DIRECTION('',(-1.84192970263727E-16,1.,0.));
#331=DIRECTION('',(1.,0.,0.));
#332=DIRECTION('',(-3.32762185088531E-16,1.,0.));
#333=DIRECTION('',(1.,0.,0.));
#334=DIRECTION('',(0.,-1.,0.));
#335=DIRECTION('',(1.,0.,0.));
#336=DIRECTION('',(0.,-1.,0.));
#337=DIRECTION('',(-1.,-2.01858731750028E-16,0.));
#338=DIRECTION('',(2.01858731750028E-16,-1.,0.));
#339=DIRECTION('',(0.,0.,-1.));
#340=DIRECTION('',(0.,0.,-1.));
#341=DIRECTION('',(0.,1.,0.));
#342=DIRECTION('',(0.,0.,1.));
#343=DIRECTION('',(0.,0.,-1.));
#344=DIRECTION('',(-1.,-2.01858731750028E-16,0.));
#345=DIRECTION('',(2.01858731750028E-16,-1.,0.));
#346=DIRECTION('',(0.,0.,-1.));
#347=DIRECTION('',(0.,1.,0.));
#348=DIRECTION('',(0.,0.,1.));
#349=DIRECTION('',(1.,1.84192970263727E-16,0.));
#350=DIRECTION('',(-1.84192970263727E-16,1.,0.));
#351=DIRECTION('',(0.,0.,1.));
#352=DIRECTION('',(0.,0.,1.));
#353=DIRECTION('',(0.,-1.,0.));
#354=DIRECTION('',(0.,0.,-1.));
#355=DIRECTION('',(0.,0.,1.));
#356=DIRECTION('',(1.,3.32762185088531E-16,0.));
#357=DIRECTION('',(-3.32762185088531E-16,1.,0.));
#358=DIRECTION('',(0.,0.,1.));
#359=DIRECTION('',(0.,-1.,0.));
#360=DIRECTION('',(0.,0.,-1.));
#361=DIRECTION('',(0.,-1.,0.));
#362=DIRECTION('',(0.,0.,-1.));
#363=DIRECTION('',(0.,0.,1.));
#364=DIRECTION('',(0.,0.,1.));
#365=DIRECTION('',(-1.,0.,0.));
#366=DIRECTION('',(0.,0.,1.));
#367=DIRECTION('',(0.,0.,1.));
#368=DIRECTION('',(0.,-1.,0.));
#369=DIRECTION('',(0.,0.,-1.));
#370=DIRECTION('',(0.,0.,1.));
#371=DIRECTION('',(-1.,0.,0.));
#372=DIRECTION('',(0.,0.,1.));
#373=CARTESIAN_POINT('',(0.,0.,0.));
#374=CARTESIAN_POINT('',(0.,0.,0.0025));
#375=CARTESIAN_POINT('',(-0.0209474470466376,-0.0161477029323578,0.0025));
#376=CARTESIAN_POINT('',(-0.0209474470466376,-0.0255656708031893,0.0025));
#377=CARTESIAN_POINT('',(-0.0209474470466376,0.0255656708031893,0.0025));
#378=CARTESIAN_POINT('',(-0.0385045386838623,-0.0255656708031893,0.0025));
#379=CARTESIAN_POINT('',(-0.0560616303210871,-0.0255656708031893,0.0025));
#380=CARTESIAN_POINT('',(-0.0560616303210871,0.0151394652202725,0.0025));
#381=CARTESIAN_POINT('',(-0.0560616303210872,0.0255656708031893,0.0025));
#382=CARTESIAN_POINT('',(-0.0385045386838623,0.0255656708031893,0.0025));
#383=CARTESIAN_POINT('',(-0.06875,1.38777878078145E-17,0.0025));
#384=CARTESIAN_POINT('',(-0.06875,-0.06875,0.0025));
#385=CARTESIAN_POINT('',(-0.06875,0.06875,0.0025));
#386=CARTESIAN_POINT('',(1.38777878078145E-17,-0.06875,0.0025));
#387=CARTESIAN_POINT('',(0.06875,-0.06875,0.0025));
#388=CARTESIAN_POINT('',(0.06875,1.38777878078145E-17,0.0025));
#389=CARTESIAN_POINT('',(0.06875,0.06875,0.0025));
#390=CARTESIAN_POINT('',(-1.38777878078145E-17,0.06875,0.0025));
#391=CARTESIAN_POINT('',(0.0209474470466376,0.,0.0025));
#392=CARTESIAN_POINT('',(0.0209474470466376,0.0255656708031893,0.0025));
#393=CARTESIAN_POINT('',(0.0209474470466376,-0.0255656708031893,0.0025));
#394=CARTESIAN_POINT('',(0.0385045386838623,0.0255656708031893,0.0025));
#395=CARTESIAN_POINT('',(0.0560616303210871,0.0255656708031893,0.0025));
#396=CARTESIAN_POINT('',(0.0560616303210871,0.,0.0025));
#397=CARTESIAN_POINT('',(0.0560616303210871,-0.0255656708031893,0.0025));
#398=CARTESIAN_POINT('',(0.0385045386838623,-0.0255656708031893,0.0025));
#399=CARTESIAN_POINT('',(0.,0.,0.));
#400=CARTESIAN_POINT('',(-0.06875,1.38777878078145E-17,0.));
#401=CARTESIAN_POINT('',(-0.06875,-0.06875,0.));
#402=CARTESIAN_POINT('',(-0.06875,0.06875,0.));
#403=CARTESIAN_POINT('',(-1.38777878078145E-17,0.06875,0.));
#404=CARTESIAN_POINT('',(0.06875,0.06875,0.));
#405=CARTESIAN_POINT('',(0.06875,1.38777878078145E-17,0.));
#406=CARTESIAN_POINT('',(0.06875,-0.06875,0.));
#407=CARTESIAN_POINT('',(1.38777878078145E-17,-0.06875,0.));
#408=CARTESIAN_POINT('',(0.,-0.0255656708031893,0.));
#409=CARTESIAN_POINT('',(-0.0560616303210871,-0.0255656708031893,0.));
#410=CARTESIAN_POINT('',(-0.0209474470466376,-0.0255656708031893,0.));
#411=CARTESIAN_POINT('',(-0.0209474470466376,-3.85837249096232E-18,0.));
#412=CARTESIAN_POINT('',(-0.0209474470466376,0.0255656708031893,0.));
#413=CARTESIAN_POINT('',(0.,0.0255656708031893,0.));
#414=CARTESIAN_POINT('',(-0.0560616303210872,0.0255656708031893,0.));
#415=CARTESIAN_POINT('',(-0.0560616303210871,-1.86551906052704E-17,0.));
#416=CARTESIAN_POINT('',(0.,0.0255656708031893,0.));
#417=CARTESIAN_POINT('',(0.0209474470466376,0.0255656708031893,0.));
#418=CARTESIAN_POINT('',(0.0560616303210871,0.0255656708031893,0.));
#419=CARTESIAN_POINT('',(0.0209474470466376,0.,0.));
#420=CARTESIAN_POINT('',(0.0209474470466376,-0.0255656708031893,0.));
#421=CARTESIAN_POINT('',(0.,-0.0255656708031893,0.));
#422=CARTESIAN_POINT('',(0.0560616303210871,-0.0255656708031893,0.));
#423=CARTESIAN_POINT('',(0.0560616303210871,0.,0.));
#424=CARTESIAN_POINT('',(-0.06875,1.38777878078145E-17,0.0025));
#425=CARTESIAN_POINT('',(-0.06875,-0.06875,0.0025));
#426=CARTESIAN_POINT('',(-0.06875,0.06875,0.0025));
#427=CARTESIAN_POINT('',(1.38777878078145E-17,-0.06875,0.0025));
#428=CARTESIAN_POINT('',(0.06875,-0.06875,0.0025));
#429=CARTESIAN_POINT('',(0.06875,1.38777878078145E-17,0.0025));
#430=CARTESIAN_POINT('',(0.06875,0.06875,0.0025));
#431=CARTESIAN_POINT('',(-1.38777878078145E-17,0.06875,0.0025));
#432=CARTESIAN_POINT('',(-0.0209474470466376,-0.0161477029323578,-0.0225));
#433=CARTESIAN_POINT('',(-0.0209474470466376,-0.0255656708031893,-0.0225));
#434=CARTESIAN_POINT('',(-0.0209474470466376,0.0255656708031893,-0.0225));
#435=CARTESIAN_POINT('',(-0.0385045386838623,0.0255656708031893,-0.0225));
#436=CARTESIAN_POINT('',(-0.0560616303210872,0.0255656708031893,-0.0225));
#437=CARTESIAN_POINT('',(-0.0560616303210871,0.0151394652202725,-0.0225));
#438=CARTESIAN_POINT('',(-0.0560616303210871,-0.0255656708031893,-0.0225));
#439=CARTESIAN_POINT('',(-0.0385045386838623,-0.0255656708031893,-0.0225));
#440=CARTESIAN_POINT('',(0.0385045386838623,0.0255656708031893,-0.0225));
#441=CARTESIAN_POINT('',(0.0560616303210871,0.0255656708031893,-0.0225));
#442=CARTESIAN_POINT('',(0.0209474470466376,0.0255656708031893,-0.0225));
#443=CARTESIAN_POINT('',(0.0209474470466376,0.,-0.0225));
#444=CARTESIAN_POINT('',(0.0209474470466376,-0.0255656708031893,-0.0225));
#445=CARTESIAN_POINT('',(0.0385045386838623,-0.0255656708031893,-0.0225));
#446=CARTESIAN_POINT('',(0.0560616303210871,-0.0255656708031893,-0.0225));
#447=CARTESIAN_POINT('',(0.0560616303210871,0.,-0.0225));
#448=MECHANICAL_DESIGN_GEOMETRIC_PRESENTATION_REPRESENTATION('',(#281),
#449);
#449=(
GEOMETRIC_REPRESENTATION_CONTEXT(3)
GLOBAL_UNCERTAINTY_ASSIGNED_CONTEXT((#450))
GLOBAL_UNIT_ASSIGNED_CONTEXT((#453,#452,#451))
REPRESENTATION_CONTEXT('Part 1','TOP_LEVEL_ASSEMBLY_PART')
);
#450=UNCERTAINTY_MEASURE_WITH_UNIT(LENGTH_MEASURE(1.E-8),#453,
'DISTANCE_ACCURACY_VALUE','Maximum Tolerance applied to model');
#451=(
NAMED_UNIT(*)
SI_UNIT($,.STERADIAN.)
SOLID_ANGLE_UNIT()
);
#452=(
NAMED_UNIT(*)
PLANE_ANGLE_UNIT()
SI_UNIT($,.RADIAN.)
);
#453=(
LENGTH_UNIT()
NAMED_UNIT(*)
SI_UNIT($,.METRE.)
);
#454=PRODUCT_DEFINITION_SHAPE('','',#455);
#455=PRODUCT_DEFINITION('','',#457,#456);
#456=PRODUCT_DEFINITION_CONTEXT('',#463,'design');
#457=PRODUCT_DEFINITION_FORMATION_WITH_SPECIFIED_SOURCE('','',#459,
 .NOT_KNOWN.);
#458=PRODUCT_RELATED_PRODUCT_CATEGORY('','',(#459));
#459=PRODUCT('Part 1','Part 1','Part 1',(#461));
#460=PRODUCT_CATEGORY('','');
#461=PRODUCT_CONTEXT('',#463,'mechanical');
#462=APPLICATION_PROTOCOL_DEFINITION('international standard',
'ap242_managed_model_based_3d_engineering',2020,#463);
#463=APPLICATION_CONTEXT('managed model based 3d engineering');
ENDSEC;
END-ISO-10303-21;
